<svg width="70" height="70" viewBox="0 0 70 70" fill="none" xmlns="http://www.w3.org/2000/svg">
<path d="M58.2968 51.6958C52.7062 37.0981 67.8067 20.1638 59.5411 5.93359C54.2756 -3.13155 41.5327 -1.63311 36.6305 9.22058C24.6307 35.7887 16.7444 22.5888 9.94824 33.2984C5.99898 39.5218 10.9451 51.4244 21.4109 47.6112C35.2949 42.5526 33.7983 63.8712 42.9262 68.8142C47.917 71.5169 57.9425 69.4021 60.9967 64.4718C63.5565 60.3399 59.8256 55.6873 58.2968 51.6958Z" fill="#93E6E5"/>
<path opacity="0.1" d="M56.3801 65.6078H14.2891C13.534 65.6078 12.9219 64.9958 12.9219 64.2407V13.416C12.9219 12.6609 13.534 12.0488 14.2891 12.0488H56.3801C57.1352 12.0488 57.7473 12.6609 57.7473 13.416V64.2407C57.7473 64.9958 57.1352 65.6078 56.3801 65.6078Z" fill="#2626BB"/>
<path d="M57.7465 41.2051V60.9582C57.7465 61.7143 57.1354 62.3254 56.3793 62.3254H14.2891C13.533 62.3254 12.9219 61.7143 12.9219 60.9582V41.2051L16.9597 40.5215H53.7086L57.7465 41.2051Z" fill="#FFAC00"/>
<path d="M57.7465 16.4531V41.2061H12.9219V16.4531L17.5363 15.7695H53.1321L57.7465 16.4531Z" fill="white"/>
<path d="M57.7473 16.4531V10.1348C57.7473 9.37967 57.1352 8.76758 56.3801 8.76758H14.2891C13.534 8.76758 12.9219 9.37967 12.9219 10.1348V16.4531H57.7473Z" fill="#50D9D7"/>
<path d="M57.7474 48.0173C57.5661 48.0173 57.3923 48.0894 57.2641 48.2176C57.1359 48.3458 57.0638 48.5196 57.0638 48.7009V60.9594C57.0638 61.3363 56.7572 61.643 56.3803 61.643H14.2891C13.9121 61.643 13.6055 61.3363 13.6055 60.9594V10.1348C13.6055 9.75783 13.9121 9.45117 14.2891 9.45117H22.124C22.5016 9.45117 22.8076 9.1452 22.8076 8.76758C22.8076 8.38996 22.5016 8.08398 22.124 8.08398H14.2891C13.1583 8.08398 12.2383 9.00396 12.2383 10.1348V60.9594C12.2383 62.0902 13.1583 63.0102 14.2891 63.0102H56.3803C57.5111 63.0102 58.431 62.0902 58.431 60.9594V48.7009C58.431 48.5196 58.359 48.3458 58.2308 48.2176C58.1026 48.0894 57.9287 48.0173 57.7474 48.0173ZM56.3803 8.08398H25.9843C25.6066 8.08398 25.3007 8.38996 25.3007 8.76758C25.3007 9.1452 25.6066 9.45117 25.9843 9.45117H56.3801C56.757 9.45117 57.0637 9.75783 57.0637 10.1348V44.8405C57.0637 45.2182 57.3697 45.5241 57.7473 45.5241C58.1249 45.5241 58.4309 45.2182 58.4309 44.8405V10.1348C58.431 9.00383 57.5111 8.08398 56.3803 8.08398Z" fill="#00BEBD"/>
<path d="M18.3984 13.7012C18.776 13.7012 19.082 13.3951 19.082 13.0176C19.082 12.64 18.776 12.334 18.3984 12.334C18.0209 12.334 17.7148 12.64 17.7148 13.0176C17.7148 13.3951 18.0209 13.7012 18.3984 13.7012Z" fill="white"/>
<path d="M20.6172 13.7012C20.9947 13.7012 21.3008 13.3951 21.3008 13.0176C21.3008 12.64 20.9947 12.334 20.6172 12.334C20.2396 12.334 19.9336 12.64 19.9336 13.0176C19.9336 13.3951 20.2396 13.7012 20.6172 13.7012Z" fill="white"/>
<path d="M22.832 13.7012C23.2096 13.7012 23.5156 13.3951 23.5156 13.0176C23.5156 12.64 23.2096 12.334 22.832 12.334C22.4545 12.334 22.1484 12.64 22.1484 13.0176C22.1484 13.3951 22.4545 13.7012 22.832 13.7012Z" fill="white"/>
<path d="M26.5547 14.0525H52.2687C52.45 14.0525 52.6239 13.9805 52.7521 13.8523C52.8803 13.7241 52.9523 13.5502 52.9523 13.3689V12.666C52.9523 12.4847 52.8803 12.3108 52.7521 12.1826C52.6239 12.0544 52.45 11.9824 52.2687 11.9824H26.5547C26.3734 11.9824 26.1995 12.0544 26.0713 12.1826C25.9431 12.3108 25.8711 12.4847 25.8711 12.666V13.3689C25.8711 13.5502 25.9431 13.7241 26.0713 13.8523C26.1995 13.9805 26.3734 14.0525 26.5547 14.0525Z" fill="#D1DDFF"/>
<path d="M52.1513 21.1026L53.1879 19.4375C53.3579 19.1644 53.1615 18.8105 52.8396 18.8105H50.7663C50.4445 18.8105 50.248 19.1642 50.4181 19.4375L51.4547 21.1026C51.6155 21.3605 51.9908 21.3605 52.1513 21.1026Z" fill="#50D9D7"/>
<path d="M18.8505 32.4087C18.0186 31.1297 17.5352 29.6031 17.5352 27.9636C17.5352 23.4554 21.1898 19.8008 25.6979 19.8008C30.2061 19.8008 33.8607 23.4554 33.8607 27.9636C33.8607 31.0002 32.2026 33.6496 29.7422 35.0557L18.8505 32.4087Z" fill="#FFAC00"/>
<path d="M24.941 21.584H25.1093C27.2081 21.584 28.9095 23.2854 28.9095 25.3842L28.909 27.1089C28.909 27.372 29.0135 27.6243 29.1995 27.8103C29.3855 27.9963 29.6378 28.1008 29.9009 28.1008C29.9333 28.1009 29.9652 28.1092 29.9935 28.125C30.0218 28.1408 30.0457 28.1636 30.0627 28.1912C30.0798 28.2188 30.0895 28.2502 30.0909 28.2826C30.0924 28.315 30.0856 28.3473 30.0711 28.3763C29.9509 28.618 29.6057 28.9314 28.6235 28.9314C28.2731 28.9314 27.9488 28.8201 27.6834 28.6314C27.3295 28.8286 26.931 28.9319 26.5258 28.9314H22.7655C21.8681 28.9314 21.1406 28.2039 21.1406 27.3065V25.3842C21.1408 23.2854 22.8422 21.584 24.941 21.584Z" fill="white"/>
<path d="M29.7439 34.0631V35.0543C28.5518 35.7352 27.1709 36.1248 25.6984 36.1248C24.3354 36.1248 23.0488 35.7912 21.9195 35.1992C20.6748 34.5466 19.6184 33.5853 18.8516 32.4074C19.3684 31.3848 20.3486 30.6369 21.5176 30.4414L24.2071 31.8942L26.6883 30.4428C28.4232 30.7354 29.7439 32.2447 29.7439 34.0631Z" fill="#00BEBD"/>
<path d="M21.5156 30.4423L23.823 33.7488C23.9943 33.9944 24.3596 33.9892 24.524 33.7389L26.6873 30.4427C26.4829 30.4079 26.2759 30.3905 26.0685 30.3906H22.1294C21.9203 30.3906 21.715 30.408 21.5156 30.4423Z" fill="#50D9D7"/>
<path d="M22.875 26.1956V29.7631H25.4826V29.4741H26.183C26.2101 29.4741 26.2368 29.4737 26.2634 29.4724C27.2419 29.4306 28.0225 28.6234 28.0225 27.6347V25.4279C28.0225 25.2595 27.9556 25.098 27.8365 24.9789C27.7174 24.8599 27.5559 24.793 27.3875 24.793H24.278C23.5031 24.793 22.875 25.4211 22.875 26.1956Z" fill="#50D9D7"/>
<path d="M22.875 29.4746V30.3905C22.8748 30.5617 22.9084 30.7313 22.9739 30.8895C23.0394 31.0477 23.1355 31.1914 23.2567 31.3124C23.3812 31.437 23.5298 31.5351 23.6933 31.6006C23.8569 31.6662 24.032 31.6978 24.2081 31.6937C24.9209 31.678 25.4825 31.077 25.4825 30.3642V29.4746H22.875Z" fill="#FFAC00"/>
<path d="M23.051 24.748V27.1071C23.051 27.3702 23.1555 27.6225 23.3415 27.8085C23.5275 27.9945 23.7798 28.099 24.0429 28.099C24.0753 28.0991 24.1072 28.1074 24.1355 28.1232C24.1639 28.139 24.1877 28.1618 24.2047 28.1894C24.2218 28.217 24.2315 28.2484 24.233 28.2809C24.2344 28.3133 24.2276 28.3455 24.2131 28.3745C24.0929 28.6162 23.7477 28.9296 22.7655 28.9296C21.8681 28.9296 21.1406 28.2021 21.1406 27.3047V25.6606L23.051 24.748Z" fill="white"/>
<path d="M41.568 21.9121H36.8398C36.6585 21.9121 36.4847 21.8401 36.3565 21.7119C36.2283 21.5837 36.1562 21.4098 36.1562 21.2285C36.1562 21.0472 36.2283 20.8733 36.3565 20.7451C36.4847 20.6169 36.6585 20.5449 36.8398 20.5449H41.568C41.7493 20.5449 41.9232 20.6169 42.0514 20.7451C42.1796 20.8733 42.2516 21.0472 42.2516 21.2285C42.2516 21.4098 42.1796 21.5837 42.0514 21.7119C41.9232 21.8401 41.7493 21.9121 41.568 21.9121ZM46.7633 21.9121H44.4961C44.3148 21.9121 44.1409 21.8401 44.0127 21.7119C43.8845 21.5837 43.8125 21.4098 43.8125 21.2285C43.8125 21.0472 43.8845 20.8733 44.0127 20.7451C44.1409 20.6169 44.3148 20.5449 44.4961 20.5449H46.7633C46.9446 20.5449 47.1185 20.6169 47.2467 20.7451C47.3749 20.8733 47.4469 21.0472 47.4469 21.2285C47.4469 21.4098 47.3749 21.5837 47.2467 21.7119C47.1185 21.8401 46.9446 21.9121 46.7633 21.9121Z" fill="#50D9D7"/>
<path d="M52.447 26.4062H36.8398C36.6585 26.4062 36.4847 26.3342 36.3565 26.206C36.2283 26.0778 36.1562 25.904 36.1562 25.7227C36.1562 25.5414 36.2283 25.3675 36.3565 25.2393C36.4847 25.1111 36.6585 25.0391 36.8398 25.0391H52.447C52.6283 25.0391 52.8021 25.1111 52.9303 25.2393C53.0585 25.3675 53.1306 25.5414 53.1306 25.7227C53.1306 25.904 53.0585 26.0778 52.9303 26.206C52.8021 26.3342 52.6283 26.4062 52.447 26.4062ZM52.447 29.1927H36.8398C36.6585 29.1927 36.4847 29.1207 36.3565 28.9925C36.2283 28.8643 36.1562 28.6904 36.1562 28.5091C36.1562 28.3278 36.2283 28.1539 36.3565 28.0257C36.4847 27.8975 36.6585 27.8255 36.8398 27.8255H52.447C52.6283 27.8255 52.8021 27.8975 52.9303 28.0257C53.0585 28.1539 53.1306 28.3278 53.1306 28.5091C53.1306 28.6904 53.0585 28.8643 52.9303 28.9925C52.8021 29.1207 52.6283 29.1927 52.447 29.1927ZM52.447 31.9793H36.8398C36.6585 31.9793 36.4847 31.9073 36.3565 31.7791C36.2283 31.6509 36.1562 31.477 36.1562 31.2957C36.1562 31.1144 36.2283 30.9405 36.3565 30.8123C36.4847 30.6841 36.6585 30.6121 36.8398 30.6121H52.447C52.6283 30.6121 52.8021 30.6841 52.9303 30.8123C53.0585 30.9405 53.1306 31.1144 53.1306 31.2957C53.1306 31.477 53.0585 31.6509 52.9303 31.7791C52.8021 31.9073 52.6283 31.9793 52.447 31.9793ZM42.3298 34.7658H36.8398C36.6585 34.7658 36.4847 34.6938 36.3565 34.5656C36.2283 34.4374 36.1562 34.2635 36.1562 34.0822C36.1562 33.9009 36.2283 33.727 36.3565 33.5988C36.4847 33.4706 36.6585 33.3986 36.8398 33.3986H42.3298C42.5111 33.3986 42.685 33.4706 42.8132 33.5988C42.9414 33.727 43.0134 33.9009 43.0134 34.0822C43.0134 34.2635 42.9414 34.4374 42.8132 34.5656C42.685 34.6938 42.5111 34.7658 42.3298 34.7658Z" fill="#9EAFFD"/>
<path d="M48.5067 39.4069H47.7778C46.888 39.4069 46.1641 38.683 46.1641 37.7932V35.5432C46.1641 34.6535 46.888 33.9297 47.7778 33.9297H48.5067C49.3965 33.9297 50.1203 34.6535 50.1203 35.5432V37.7932C50.1203 38.683 49.3965 39.4069 48.5067 39.4069ZM47.7778 35.2969C47.6419 35.2969 47.5312 35.4075 47.5312 35.5432V37.7932C47.5312 37.9291 47.6419 38.0397 47.7778 38.0397H48.5067C48.6425 38.0397 48.7531 37.9291 48.7531 37.7932V35.5432C48.7531 35.4073 48.6425 35.2969 48.5067 35.2969H47.7778ZM52.4466 39.4069C52.2653 39.4069 52.0914 39.3349 51.9632 39.2067C51.835 39.0785 51.763 38.9046 51.763 38.7233V35.2969H51.7023C51.521 35.2969 51.3471 35.2249 51.2189 35.0967C51.0907 34.9685 51.0187 34.7946 51.0187 34.6133C51.0187 34.432 51.0907 34.2581 51.2189 34.1299C51.3471 34.0017 51.521 33.9297 51.7023 33.9297H52.4466C52.6279 33.9297 52.8017 34.0017 52.9299 34.1299C53.0581 34.2581 53.1302 34.432 53.1302 34.6133V38.7233C53.1302 38.9046 53.0581 39.0785 52.9299 39.2067C52.8017 39.3349 52.6279 39.4069 52.4466 39.4069Z" fill="#FF7EB7"/>
<path d="M31.2736 47.3009H17.7122C17.513 47.3009 17.3219 47.2217 17.181 47.0808C17.0401 46.9399 16.9609 46.7488 16.9609 46.5496V44.8704C16.9609 44.6712 17.0401 44.4801 17.181 44.3392C17.3219 44.1983 17.513 44.1191 17.7122 44.1191H31.2736C31.4729 44.1191 31.6639 44.1983 31.8048 44.3392C31.9457 44.4801 32.0249 44.6712 32.0249 44.8704V46.5496C32.0249 46.7488 31.9457 46.9399 31.8048 47.0808C31.6639 47.2217 31.4729 47.3009 31.2736 47.3009Z" fill="#D69207"/>
<path d="M24.2502 44.1191H17.7122C17.513 44.1191 17.3219 44.1983 17.181 44.3392C17.0401 44.4801 16.9609 44.6712 16.9609 44.8704V46.5496C16.9609 46.7488 17.0401 46.9399 17.181 47.0808C17.3219 47.2217 17.513 47.3009 17.7122 47.3009H22.7477L24.2502 44.1191Z" fill="white"/>
<path d="M31.2736 52.6954H17.7122C17.513 52.6954 17.3219 52.6162 17.181 52.4753C17.0401 52.3345 16.9609 52.1434 16.9609 51.9441V50.2649C16.9609 50.0657 17.0401 49.8746 17.181 49.7337C17.3219 49.5928 17.513 49.5137 17.7122 49.5137H31.2736C31.4729 49.5137 31.6639 49.5928 31.8048 49.7337C31.9457 49.8746 32.0249 50.0657 32.0249 50.2649V51.9441C32.0249 52.1434 31.9457 52.3345 31.8048 52.4753C31.6639 52.6162 31.4729 52.6954 31.2736 52.6954Z" fill="#D69207"/>
<path d="M29.4964 49.5137H17.7122C17.513 49.5137 17.3219 49.5928 17.181 49.7337C17.0401 49.8746 16.9609 50.0657 16.9609 50.2649V51.9441C16.9609 52.1434 17.0401 52.3345 17.181 52.4753C17.3219 52.6162 17.513 52.6954 17.7122 52.6954H27.9937L29.4964 49.5137Z" fill="white"/>
<path d="M31.2736 58.088H17.7122C17.513 58.088 17.3219 58.0088 17.181 57.8679C17.0401 57.727 16.9609 57.5359 16.9609 57.3367V55.6575C16.9609 55.4583 17.0401 55.2672 17.181 55.1263C17.3219 54.9854 17.513 54.9062 17.7122 54.9062H31.2736C31.4729 54.9062 31.6639 54.9854 31.8048 55.1263C31.9457 55.2672 32.0249 55.4583 32.0249 55.6575V57.3367C32.0249 57.5359 31.9457 57.727 31.8048 57.8679C31.6639 58.0088 31.4729 58.088 31.2736 58.088Z" fill="#D69207"/>
<path d="M26.1279 54.9062H17.7122C17.513 54.9062 17.3219 54.9854 17.181 55.1263C17.0401 55.2672 16.9609 55.4583 16.9609 55.6575V57.3367C16.9609 57.5359 17.0401 57.727 17.181 57.8679C17.3219 58.0088 17.513 58.088 17.7122 58.088H24.6253L26.1279 54.9062Z" fill="white"/>
<path d="M44.572 49.7109H35.2539C35.0726 49.7109 34.8987 49.6389 34.7705 49.5107C34.6423 49.3825 34.5703 49.2086 34.5703 49.0273C34.5703 48.846 34.6423 48.6722 34.7705 48.544C34.8987 48.4158 35.0726 48.3438 35.2539 48.3438H44.572C44.7533 48.3438 44.9271 48.4158 45.0553 48.544C45.1835 48.6722 45.2556 48.846 45.2556 49.0273C45.2556 49.2086 45.1835 49.3825 45.0553 49.5107C44.9271 49.6389 44.7533 49.7109 44.572 49.7109ZM44.572 52.4975H35.2539C35.0726 52.4975 34.8987 52.4255 34.7705 52.2973C34.6423 52.1691 34.5703 51.9952 34.5703 51.8139C34.5703 51.6326 34.6423 51.4588 34.7705 51.3306C34.8987 51.2024 35.0726 51.1304 35.2539 51.1304H44.572C44.7533 51.1304 44.9271 51.2024 45.0553 51.3306C45.1835 51.4588 45.2556 51.6326 45.2556 51.8139C45.2556 51.9952 45.1835 52.1691 45.0553 52.2973C44.9271 52.4255 44.7533 52.4975 44.572 52.4975ZM44.572 55.284H35.2539C35.0726 55.284 34.8987 55.212 34.7705 55.0838C34.6423 54.9556 34.5703 54.7817 34.5703 54.6004C34.5703 54.4191 34.6423 54.2452 34.7705 54.117C34.8987 53.9888 35.0726 53.9168 35.2539 53.9168H44.572C44.7533 53.9168 44.9271 53.9888 45.0553 54.117C45.1835 54.2452 45.2556 54.4191 45.2556 54.6004C45.2556 54.7817 45.1835 54.9556 45.0553 55.0838C44.9271 55.212 44.7533 55.284 44.572 55.284ZM39.6501 58.0705H35.2539C35.0726 58.0705 34.8987 57.9984 34.7705 57.8702C34.6423 57.7421 34.5703 57.5682 34.5703 57.3869C34.5703 57.2056 34.6423 57.0317 34.7705 56.9035C34.8987 56.7753 35.0726 56.7033 35.2539 56.7033H39.6501C39.8314 56.7033 40.0053 56.7753 40.1335 56.9035C40.2617 57.0317 40.3337 57.2056 40.3337 57.3869C40.3337 57.5682 40.2617 57.7421 40.1335 57.8702C40.0053 57.9984 39.8314 58.0705 39.6501 58.0705Z" fill="#50D9D7"/>
<path d="M35.2539 45.4844C35.6314 45.4844 35.9375 45.1783 35.9375 44.8008C35.9375 44.4232 35.6314 44.1172 35.2539 44.1172C34.8764 44.1172 34.5703 44.4232 34.5703 44.8008C34.5703 45.1783 34.8764 45.4844 35.2539 45.4844Z" fill="#50D9D7"/>
<path d="M37.4727 45.4844C37.8502 45.4844 38.1562 45.1783 38.1562 44.8008C38.1562 44.4232 37.8502 44.1172 37.4727 44.1172C37.0951 44.1172 36.7891 44.4232 36.7891 44.8008C36.7891 45.1783 37.0951 45.4844 37.4727 45.4844Z" fill="#50D9D7"/>
<path d="M39.6875 45.4844C40.065 45.4844 40.3711 45.1783 40.3711 44.8008C40.3711 44.4232 40.065 44.1172 39.6875 44.1172C39.31 44.1172 39.0039 44.4232 39.0039 44.8008C39.0039 45.1783 39.31 45.4844 39.6875 45.4844Z" fill="#50D9D7"/>
<path d="M53.4776 55.0985C53.3738 55.0343 53.2495 55.012 53.1299 55.0359C53.0102 55.0599 52.9041 55.1285 52.8331 55.2277C52.3303 55.9313 51.2304 57.3161 50.9288 56.4336C50.4757 55.1075 54.144 48.6239 50.9582 47.5817C48.9019 46.9091 47.437 48.8605 46.8913 49.7525C46.8247 49.8613 46.8039 49.992 46.8335 50.1161C46.8631 50.2402 46.9407 50.3475 47.0492 50.4144C47.153 50.4786 47.2773 50.501 47.397 50.477C47.5166 50.453 47.6227 50.3844 47.6937 50.2852C48.1966 49.5816 49.2965 48.1968 49.5981 49.0795C50.0512 50.4055 46.3829 56.8891 49.5687 57.9313C51.6249 58.604 53.0899 56.6526 53.6355 55.7605C53.7022 55.6517 53.723 55.521 53.6934 55.3969C53.6638 55.2728 53.5862 55.1655 53.4776 55.0985Z" fill="white"/>
<path d="M50.2621 46.6979C50.9742 46.6979 51.5514 46.1206 51.5514 45.4085C51.5514 44.6964 50.9742 44.1191 50.2621 44.1191C49.5499 44.1191 48.9727 44.6964 48.9727 45.4085C48.9727 46.1206 49.5499 46.6979 50.2621 46.6979Z" fill="white"/>
<path d="M62.8439 53.2227C62.6626 53.2227 62.4887 53.1506 62.3605 53.0224C62.2323 52.8942 62.1603 52.7204 62.1603 52.5391C62.1603 52.1245 61.8229 51.7871 61.4082 51.7871C61.0306 51.7871 60.7246 51.4811 60.7246 51.1035C60.7246 50.7259 61.0306 50.4199 61.4082 50.4199C61.6076 50.4197 61.7987 50.3404 61.9397 50.1995C62.0807 50.0585 62.16 49.8673 62.1603 49.668C62.1603 49.2904 62.4663 48.9844 62.8439 48.9844C63.2215 48.9844 63.5275 49.2904 63.5275 49.668C63.5275 50.0825 63.8648 50.4199 64.2793 50.4199C64.6569 50.4199 64.9629 50.7259 64.9629 51.1035C64.9629 51.4811 64.6569 51.7871 64.2793 51.7871C64.08 51.7874 63.8889 51.8667 63.7479 52.0076C63.607 52.1486 63.5277 52.3397 63.5275 52.5391C63.5275 52.7204 63.4555 52.8942 63.3273 53.0224C63.1991 53.1506 63.0252 53.2227 62.8439 53.2227ZM7.1582 58.736C6.9769 58.736 6.80303 58.664 6.67483 58.5358C6.54663 58.4076 6.47461 58.2337 6.47461 58.0524C6.47461 57.6379 6.13719 57.3004 5.72266 57.3004C5.34504 57.3004 5.03906 56.9945 5.03906 56.6168C5.03906 56.2392 5.34504 55.9332 5.72266 55.9332C6.13719 55.9332 6.47461 55.5958 6.47461 55.1813C6.47461 54.8037 6.78059 54.4977 7.1582 54.4977C7.53582 54.4977 7.8418 54.8037 7.8418 55.1813C7.8418 55.5958 8.17922 55.9332 8.59375 55.9332C8.97137 55.9332 9.27734 56.2392 9.27734 56.6168C9.27734 56.9945 8.97137 57.3004 8.59375 57.3004C8.3944 57.3007 8.20328 57.38 8.06232 57.521C7.92136 57.6619 7.84205 57.853 7.8418 58.0524C7.8418 58.2337 7.76978 58.4076 7.64158 58.5358C7.51338 58.664 7.3395 58.736 7.1582 58.736Z" fill="#50D9D7"/>
<path d="M62.0723 24.7832C61.891 24.7832 61.7171 24.7112 61.5889 24.583C61.4607 24.4548 61.3887 24.2809 61.3887 24.0996C61.3887 23.6851 61.0512 23.3477 60.6367 23.3477C60.2591 23.3477 59.9531 23.0417 59.9531 22.6641C59.9531 22.2864 60.2591 21.9805 60.6367 21.9805C61.0512 21.9805 61.3887 21.643 61.3887 21.2285C61.3887 20.8509 61.6946 20.5449 62.0723 20.5449C62.4499 20.5449 62.7559 20.8509 62.7559 21.2285C62.7559 21.643 63.0933 21.9805 63.5078 21.9805C63.8854 21.9805 64.1914 22.2864 64.1914 22.6641C64.1914 23.0417 63.8854 23.3477 63.5078 23.3477C63.3085 23.3479 63.1173 23.4272 62.9764 23.5682C62.8354 23.7091 62.7561 23.9003 62.7559 24.0996C62.7559 24.2809 62.6838 24.4548 62.5556 24.583C62.4274 24.7112 62.2536 24.7832 62.0723 24.7832Z" fill="#FF7EB7"/>
<path d="M41.5371 6.24216C41.4473 6.24229 41.3584 6.22466 41.2754 6.19028C41.1925 6.15591 41.1171 6.10547 41.0538 6.04186L39.6182 4.60632C39.5547 4.54286 39.5044 4.46751 39.47 4.38459C39.4357 4.30166 39.418 4.21278 39.418 4.12301C39.418 4.03325 39.4357 3.94437 39.47 3.86144C39.5044 3.77851 39.5547 3.70317 39.6182 3.63971L41.0538 2.20417C41.1172 2.14068 41.1926 2.09031 41.2755 2.05595C41.3584 2.02159 41.4473 2.00391 41.5371 2.00391C41.6268 2.00391 41.7157 2.02159 41.7986 2.05595C41.8816 2.09031 41.9569 2.14068 42.0204 2.20417L43.4559 3.63971C43.5194 3.70317 43.5698 3.77851 43.6041 3.86144C43.6385 3.94437 43.6562 4.03325 43.6562 4.12301C43.6562 4.21278 43.6385 4.30166 43.6041 4.38459C43.5698 4.46751 43.5194 4.54286 43.4559 4.60632L42.0204 6.04186C41.957 6.10546 41.8817 6.1559 41.7987 6.19027C41.7158 6.22464 41.6269 6.24228 41.5371 6.24216ZM41.0683 4.12301L41.5371 4.59182L42.0059 4.12301L41.5371 3.65421L41.0683 4.12301Z" fill="#00BEBD"/>
<path d="M8.59567 51.83C8.50588 51.8302 8.41696 51.8125 8.33401 51.7782C8.25107 51.7438 8.17574 51.6934 8.11237 51.6298L6.67682 50.1942C6.61333 50.1307 6.56297 50.0554 6.52861 49.9725C6.49425 49.8896 6.47656 49.8007 6.47656 49.7109C6.47656 49.6211 6.49425 49.5323 6.52861 49.4493C6.56297 49.3664 6.61333 49.2911 6.67682 49.2276L8.11237 47.7921C8.17583 47.7286 8.25117 47.6782 8.3341 47.6438C8.41702 47.6095 8.50591 47.5918 8.59567 47.5918C8.68543 47.5918 8.77432 47.6095 8.85724 47.6438C8.94017 47.6782 9.01551 47.7286 9.07897 47.7921L10.5145 49.2276C10.578 49.2911 10.6284 49.3664 10.6627 49.4493C10.6971 49.5323 10.7148 49.6211 10.7148 49.7109C10.7148 49.8007 10.6971 49.8896 10.6627 49.9725C10.6284 50.0554 10.578 50.1307 10.5145 50.1942L9.07897 51.6298C9.01558 51.6933 8.94025 51.7438 8.85731 51.7781C8.77437 51.8125 8.68545 51.8301 8.59567 51.83ZM8.12686 49.7109L8.59567 50.1797L9.06448 49.7109L8.59567 49.2421L8.12686 49.7109Z" fill="#FF7EB7"/>
</svg>
