<svg width="70" height="70" viewBox="0 0 70 70" fill="none" xmlns="http://www.w3.org/2000/svg">
<path d="M54.6875 17.5H63.4375V39.375H54.6875V17.5Z" fill="#FAB400"/>
<path d="M54.6875 39.375H63.4375V52.5H54.6875V39.375Z" fill="#00A0C8"/>
<path d="M62.3438 39.375H63.4375V52.5H62.3438V39.375Z" fill="#0082AA"/>
<path d="M62.3438 17.5H63.4375V39.375H62.3438V17.5Z" fill="#DC9600"/>
<path d="M54.6875 52.5L56.875 56.875H61.25L63.4375 52.5H54.6875Z" fill="#D2D2D2"/>
<path d="M63.4375 17.5H54.6875V15.3125C54.6875 14.7323 54.918 14.1759 55.3282 13.7657C55.7384 13.3555 56.2948 13.125 56.875 13.125H63.4375V17.5Z" fill="#00A0C8"/>
<path d="M56.875 56.875L58.0847 59.2933C58.1755 59.475 58.3152 59.6278 58.488 59.7347C58.6608 59.8415 58.8599 59.898 59.063 59.898C59.2662 59.898 59.4653 59.8415 59.6381 59.7347C59.8109 59.6278 59.9506 59.475 60.0414 59.2933L61.25 56.875H56.875Z" fill="#0A5078"/>
<path d="M63.4375 30.625V13.125C64.0177 13.125 64.5741 13.3555 64.9843 13.7657C65.3945 14.1759 65.625 14.7323 65.625 15.3125V28.4375C65.625 29.0177 65.3945 29.5741 64.9843 29.9843C64.5741 30.3945 64.0177 30.625 63.4375 30.625Z" fill="#0082AA"/>
<path d="M59.0625 8.75C58.4823 8.75 57.9259 8.98047 57.5157 9.3907C57.1055 9.80094 56.875 10.3573 56.875 10.9375V13.125H61.25V10.9375C61.25 10.3573 61.0195 9.80094 60.6093 9.3907C60.1991 8.98047 59.6427 8.75 59.0625 8.75Z" fill="#D2D2D2"/>
<path d="M62.3438 13.125H63.4375V17.5H62.3438V13.125Z" fill="#0082AA"/>
<path d="M13.125 4.375H41.5625L52.5 15.3125V61.25C52.5 62.4103 52.0391 63.5231 51.2186 64.3436C50.3981 65.1641 49.2853 65.625 48.125 65.625H13.125C11.9647 65.625 10.8519 65.1641 10.0314 64.3436C9.21094 63.5231 8.75 62.4103 8.75 61.25V8.75C8.75 7.58968 9.21094 6.47688 10.0314 5.65641C10.8519 4.83594 11.9647 4.375 13.125 4.375Z" fill="#F0F0F0"/>
<path d="M16.4062 21.875H27.3438C27.6338 21.875 27.912 21.7598 28.1171 21.5546C28.3223 21.3495 28.4375 21.0713 28.4375 20.7812C28.4375 20.4912 28.3223 20.213 28.1171 20.0079C27.912 19.8027 27.6338 19.6875 27.3438 19.6875H16.4062C16.1162 19.6875 15.838 19.8027 15.6329 20.0079C15.4277 20.213 15.3125 20.4912 15.3125 20.7812C15.3125 21.0713 15.4277 21.3495 15.6329 21.5546C15.838 21.7598 16.1162 21.875 16.4062 21.875ZM33.9062 21.875H44.8438C45.1338 21.875 45.412 21.7598 45.6171 21.5546C45.8223 21.3495 45.9375 21.0713 45.9375 20.7812C45.9375 20.4912 45.8223 20.213 45.6171 20.0079C45.412 19.8027 45.1338 19.6875 44.8438 19.6875H33.9062C33.6162 19.6875 33.338 19.8027 33.1329 20.0079C32.9277 20.213 32.8125 20.4912 32.8125 20.7812C32.8125 21.0713 32.9277 21.3495 33.1329 21.5546C33.338 21.7598 33.6162 21.875 33.9062 21.875ZM16.4062 26.25H27.3438C27.6338 26.25 27.912 26.1348 28.1171 25.9296C28.3223 25.7245 28.4375 25.4463 28.4375 25.1562C28.4375 24.8662 28.3223 24.588 28.1171 24.3829C27.912 24.1777 27.6338 24.0625 27.3438 24.0625H16.4062C16.1162 24.0625 15.838 24.1777 15.6329 24.3829C15.4277 24.588 15.3125 24.8662 15.3125 25.1562C15.3125 25.4463 15.4277 25.7245 15.6329 25.9296C15.838 26.1348 16.1162 26.25 16.4062 26.25ZM33.9062 26.25H44.8438C45.1338 26.25 45.412 26.1348 45.6171 25.9296C45.8223 25.7245 45.9375 25.4463 45.9375 25.1562C45.9375 24.8662 45.8223 24.588 45.6171 24.3829C45.412 24.1777 45.1338 24.0625 44.8438 24.0625H33.9062C33.6162 24.0625 33.338 24.1777 33.1329 24.3829C32.9277 24.588 32.8125 24.8662 32.8125 25.1562C32.8125 25.4463 32.9277 25.7245 33.1329 25.9296C33.338 26.1348 33.6162 26.25 33.9062 26.25ZM16.4062 30.625H27.3438C27.6338 30.625 27.912 30.5098 28.1171 30.3046C28.3223 30.0995 28.4375 29.8213 28.4375 29.5312C28.4375 29.2412 28.3223 28.963 28.1171 28.7579C27.912 28.5527 27.6338 28.4375 27.3438 28.4375H16.4062C16.1162 28.4375 15.838 28.5527 15.6329 28.7579C15.4277 28.963 15.3125 29.2412 15.3125 29.5312C15.3125 29.8213 15.4277 30.0995 15.6329 30.3046C15.838 30.5098 16.1162 30.625 16.4062 30.625ZM33.9062 30.625H44.8438C45.1338 30.625 45.412 30.5098 45.6171 30.3046C45.8223 30.0995 45.9375 29.8213 45.9375 29.5312C45.9375 29.2412 45.8223 28.963 45.6171 28.7579C45.412 28.5527 45.1338 28.4375 44.8438 28.4375H33.9062C33.6162 28.4375 33.338 28.5527 33.1329 28.7579C32.9277 28.963 32.8125 29.2412 32.8125 29.5312C32.8125 29.8213 32.9277 30.0995 33.1329 30.3046C33.338 30.5098 33.6162 30.625 33.9062 30.625ZM33.9062 35H44.8438C45.1338 35 45.412 34.8848 45.6171 34.6796C45.8223 34.4745 45.9375 34.1963 45.9375 33.9062C45.9375 33.6162 45.8223 33.338 45.6171 33.1329C45.412 32.9277 45.1338 32.8125 44.8438 32.8125H33.9062C33.6162 32.8125 33.338 32.9277 33.1329 33.1329C32.9277 33.338 32.8125 33.6162 32.8125 33.9062C32.8125 34.1963 32.9277 34.4745 33.1329 34.6796C33.338 34.8848 33.6162 35 33.9062 35ZM16.4062 35H27.3438C27.6338 35 27.912 34.8848 28.1171 34.6796C28.3223 34.4745 28.4375 34.1963 28.4375 33.9062C28.4375 33.6162 28.3223 33.338 28.1171 33.1329C27.912 32.9277 27.6338 32.8125 27.3438 32.8125H16.4062C16.1162 32.8125 15.838 32.9277 15.6329 33.1329C15.4277 33.338 15.3125 33.6162 15.3125 33.9062C15.3125 34.1963 15.4277 34.4745 15.6329 34.6796C15.838 34.8848 16.1162 35 16.4062 35ZM16.4062 39.375H27.3438C27.6338 39.375 27.912 39.2598 28.1171 39.0546C28.3223 38.8495 28.4375 38.5713 28.4375 38.2812C28.4375 37.9912 28.3223 37.713 28.1171 37.5079C27.912 37.3027 27.6338 37.1875 27.3438 37.1875H16.4062C16.1162 37.1875 15.838 37.3027 15.6329 37.5079C15.4277 37.713 15.3125 37.9912 15.3125 38.2812C15.3125 38.5713 15.4277 38.8495 15.6329 39.0546C15.838 39.2598 16.1162 39.375 16.4062 39.375ZM16.4062 43.75H27.3438C27.6338 43.75 27.912 43.6348 28.1171 43.4296C28.3223 43.2245 28.4375 42.9463 28.4375 42.6562C28.4375 42.3662 28.3223 42.088 28.1171 41.8829C27.912 41.6777 27.6338 41.5625 27.3438 41.5625H16.4062C16.1162 41.5625 15.838 41.6777 15.6329 41.8829C15.4277 42.088 15.3125 42.3662 15.3125 42.6562C15.3125 42.9463 15.4277 43.2245 15.6329 43.4296C15.838 43.6348 16.1162 43.75 16.4062 43.75ZM16.4062 48.125H27.3438C27.6338 48.125 27.912 48.0098 28.1171 47.8046C28.3223 47.5995 28.4375 47.3213 28.4375 47.0312C28.4375 46.7412 28.3223 46.463 28.1171 46.2579C27.912 46.0527 27.6338 45.9375 27.3438 45.9375H16.4062C16.1162 45.9375 15.838 46.0527 15.6329 46.2579C15.4277 46.463 15.3125 46.7412 15.3125 47.0312C15.3125 47.3213 15.4277 47.5995 15.6329 47.8046C15.838 48.0098 16.1162 48.125 16.4062 48.125ZM16.4062 52.5H27.3438C27.6338 52.5 27.912 52.3848 28.1171 52.1796C28.3223 51.9745 28.4375 51.6963 28.4375 51.4062C28.4375 51.1162 28.3223 50.838 28.1171 50.6329C27.912 50.4277 27.6338 50.3125 27.3438 50.3125H16.4062C16.1162 50.3125 15.838 50.4277 15.6329 50.6329C15.4277 50.838 15.3125 51.1162 15.3125 51.4062C15.3125 51.6963 15.4277 51.9745 15.6329 52.1796C15.838 52.3848 16.1162 52.5 16.4062 52.5ZM33.9062 39.375H44.8438C45.1338 39.375 45.412 39.2598 45.6171 39.0546C45.8223 38.8495 45.9375 38.5713 45.9375 38.2812C45.9375 37.9912 45.8223 37.713 45.6171 37.5079C45.412 37.3027 45.1338 37.1875 44.8438 37.1875H33.9062C33.6162 37.1875 33.338 37.3027 33.1329 37.5079C32.9277 37.713 32.8125 37.9912 32.8125 38.2812C32.8125 38.5713 32.9277 38.8495 33.1329 39.0546C33.338 39.2598 33.6162 39.375 33.9062 39.375ZM33.9062 43.75H44.8438C45.1338 43.75 45.412 43.6348 45.6171 43.4296C45.8223 43.2245 45.9375 42.9463 45.9375 42.6562C45.9375 42.3662 45.8223 42.088 45.6171 41.8829C45.412 41.6777 45.1338 41.5625 44.8438 41.5625H33.9062C33.6162 41.5625 33.338 41.6777 33.1329 41.8829C32.9277 42.088 32.8125 42.3662 32.8125 42.6562C32.8125 42.9463 32.9277 43.2245 33.1329 43.4296C33.338 43.6348 33.6162 43.75 33.9062 43.75ZM33.9062 48.125H44.8438C45.1338 48.125 45.412 48.0098 45.6171 47.8046C45.8223 47.5995 45.9375 47.3213 45.9375 47.0312C45.9375 46.7412 45.8223 46.463 45.6171 46.2579C45.412 46.0527 45.1338 45.9375 44.8438 45.9375H33.9062C33.6162 45.9375 33.338 46.0527 33.1329 46.2579C32.9277 46.463 32.8125 46.7412 32.8125 47.0312C32.8125 47.3213 32.9277 47.5995 33.1329 47.8046C33.338 48.0098 33.6162 48.125 33.9062 48.125ZM33.9062 52.5H44.8438C45.1338 52.5 45.412 52.3848 45.6171 52.1796C45.8223 51.9745 45.9375 51.6963 45.9375 51.4062C45.9375 51.1162 45.8223 50.838 45.6171 50.6329C45.412 50.4277 45.1338 50.3125 44.8438 50.3125H33.9062C33.6162 50.3125 33.338 50.4277 33.1329 50.6329C32.9277 50.838 32.8125 51.1162 32.8125 51.4062C32.8125 51.6963 32.9277 51.9745 33.1329 52.1796C33.338 52.3848 33.6162 52.5 33.9062 52.5ZM22.9688 15.3125H38.2812C38.5713 15.3125 38.8495 15.1973 39.0546 14.9921C39.2598 14.787 39.375 14.5088 39.375 14.2188C39.375 13.9287 39.2598 13.6505 39.0546 13.4454C38.8495 13.2402 38.5713 13.125 38.2812 13.125H22.9688C22.6787 13.125 22.4005 13.2402 22.1954 13.4454C21.9902 13.6505 21.875 13.9287 21.875 14.2188C21.875 14.5088 21.9902 14.787 22.1954 14.9921C22.4005 15.1973 22.6787 15.3125 22.9688 15.3125ZM52.5 15.3125H45.9375C44.7772 15.3125 43.6644 14.8516 42.8439 14.0311C42.0234 13.2106 41.5625 12.0978 41.5625 10.9375V4.375L52.5 15.3125Z" fill="#D2D2D2"/>
<path d="M37.1875 51.4062V25.1562C37.1875 23.9959 36.7266 22.8831 35.9061 22.0627C35.0856 21.2422 33.9728 20.7812 32.8125 20.7812H8.75V55.7812H32.8125C33.9728 55.7812 35.0856 55.3203 35.9061 54.4998C36.7266 53.6794 37.1875 52.5666 37.1875 51.4062Z" fill="#D2D2D2"/>
<path d="M32.8125 54.6875H8.75C7.58968 54.6875 6.47688 54.2266 5.65641 53.4061C4.83594 52.5856 4.375 51.4728 4.375 50.3125V24.0625C4.375 22.9022 4.83594 21.7894 5.65641 20.9689C6.47688 20.1484 7.58968 19.6875 8.75 19.6875H32.8125C33.9728 19.6875 35.0856 20.1484 35.9061 20.9689C36.7266 21.7894 37.1875 22.9022 37.1875 24.0625V50.3125C37.1875 51.4728 36.7266 52.5856 35.9061 53.4061C35.0856 54.2266 33.9728 54.6875 32.8125 54.6875Z" fill="#00A0C8"/>
<path d="M30.625 32.8125H10.9375C10.3573 32.8125 9.80094 32.582 9.3907 32.1718C8.98047 31.7616 8.75 31.2052 8.75 30.625V26.25C8.75 25.6698 8.98047 25.1134 9.3907 24.7032C9.80094 24.293 10.3573 24.0625 10.9375 24.0625H30.625C31.2052 24.0625 31.7616 24.293 32.1718 24.7032C32.582 25.1134 32.8125 25.6698 32.8125 26.25V30.625C32.8125 31.2052 32.582 31.7616 32.1718 32.1718C31.7616 32.582 31.2052 32.8125 30.625 32.8125Z" fill="#0A5078"/>
<path d="M13.125 41.5625H10.9375C10.3573 41.5625 9.80094 41.332 9.3907 40.9218C8.98047 40.5116 8.75 39.9552 8.75 39.375V37.1875C8.75 36.6073 8.98047 36.0509 9.3907 35.6407C9.80094 35.2305 10.3573 35 10.9375 35H13.125C13.7052 35 14.2616 35.2305 14.6718 35.6407C15.082 36.0509 15.3125 36.6073 15.3125 37.1875V39.375C15.3125 39.9552 15.082 40.5116 14.6718 40.9218C14.2616 41.332 13.7052 41.5625 13.125 41.5625ZM21.875 41.5625H19.6875C19.1073 41.5625 18.5509 41.332 18.1407 40.9218C17.7305 40.5116 17.5 39.9552 17.5 39.375V37.1875C17.5 36.6073 17.7305 36.0509 18.1407 35.6407C18.5509 35.2305 19.1073 35 19.6875 35H21.875C22.4552 35 23.0116 35.2305 23.4218 35.6407C23.832 36.0509 24.0625 36.6073 24.0625 37.1875V39.375C24.0625 39.9552 23.832 40.5116 23.4218 40.9218C23.0116 41.332 22.4552 41.5625 21.875 41.5625ZM30.625 41.5625H28.4375C27.8573 41.5625 27.3009 41.332 26.8907 40.9218C26.4805 40.5116 26.25 39.9552 26.25 39.375V37.1875C26.25 36.6073 26.4805 36.0509 26.8907 35.6407C27.3009 35.2305 27.8573 35 28.4375 35H30.625C31.2052 35 31.7616 35.2305 32.1718 35.6407C32.582 36.0509 32.8125 36.6073 32.8125 37.1875V39.375C32.8125 39.9552 32.582 40.5116 32.1718 40.9218C31.7616 41.332 31.2052 41.5625 30.625 41.5625ZM13.125 50.3125H10.9375C10.3573 50.3125 9.80094 50.082 9.3907 49.6718C8.98047 49.2616 8.75 48.7052 8.75 48.125V45.9375C8.75 45.3573 8.98047 44.8009 9.3907 44.3907C9.80094 43.9805 10.3573 43.75 10.9375 43.75H13.125C13.7052 43.75 14.2616 43.9805 14.6718 44.3907C15.082 44.8009 15.3125 45.3573 15.3125 45.9375V48.125C15.3125 48.7052 15.082 49.2616 14.6718 49.6718C14.2616 50.082 13.7052 50.3125 13.125 50.3125ZM21.875 50.3125H19.6875C19.1073 50.3125 18.5509 50.082 18.1407 49.6718C17.7305 49.2616 17.5 48.7052 17.5 48.125V45.9375C17.5 45.3573 17.7305 44.8009 18.1407 44.3907C18.5509 43.9805 19.1073 43.75 19.6875 43.75H21.875C22.4552 43.75 23.0116 43.9805 23.4218 44.3907C23.832 44.8009 24.0625 45.3573 24.0625 45.9375V48.125C24.0625 48.7052 23.832 49.2616 23.4218 49.6718C23.0116 50.082 22.4552 50.3125 21.875 50.3125ZM30.625 50.3125H28.4375C27.8573 50.3125 27.3009 50.082 26.8907 49.6718C26.4805 49.2616 26.25 48.7052 26.25 48.125V45.9375C26.25 45.3573 26.4805 44.8009 26.8907 44.3907C27.3009 43.9805 27.8573 43.75 28.4375 43.75H30.625C31.2052 43.75 31.7616 43.9805 32.1718 44.3907C32.582 44.8009 32.8125 45.3573 32.8125 45.9375V48.125C32.8125 48.7052 32.582 49.2616 32.1718 49.6718C31.7616 50.082 31.2052 50.3125 30.625 50.3125Z" fill="#0082AA"/>
</svg>
