<svg width="70" height="70" viewBox="0 0 70 70" fill="none" xmlns="http://www.w3.org/2000/svg">
<path d="M61.6602 0H12.4414C11.2928 0 10.3906 0.902207 10.3906 2.05078V67.9492C10.3906 69.0975 11.2928 70 12.4414 70H53.457L63.7109 33.0859V2.05078C63.7109 0.902207 62.8087 0 61.6602 0Z" fill="#FFDAAA"/>
<path d="M61.6602 0H37.0508V70H53.457L63.7109 33.0859V2.05078C63.7109 0.902207 62.8087 0 61.6602 0Z" fill="#FFC477"/>
<path d="M63.7109 47.4414V59.7461C63.7109 60.2793 63.5059 60.8125 63.0956 61.1815L54.8924 69.3846C54.5234 69.7949 53.9902 70 53.457 70V57.6953L58.584 48.4668L63.7109 47.4414Z" fill="#D81B60"/>
<path d="M37.0508 45.3906C36.7814 45.391 36.5147 45.338 36.2659 45.2349C36.017 45.1318 35.791 44.9805 35.6009 44.7897C34.2791 43.47 22.6953 31.63 22.6953 22.832C22.6953 14.9172 29.136 8.47656 37.0508 8.47656C44.9656 8.47656 51.4062 14.9172 51.4062 22.832C51.4062 31.63 39.8225 43.47 38.5007 44.7897C38.3105 44.9805 38.0845 45.1318 37.8357 45.2349C37.5869 45.338 37.3201 45.391 37.0508 45.3906Z" fill="#EC407A"/>
<path d="M63.7109 33.0859V47.4414L53.457 57.6953V44.1893C53.457 43.6454 53.673 43.1237 54.0576 42.7391L63.7109 33.0859Z" fill="#E1E6F0"/>
<path d="M16.543 16.6797H8.33984C7.20631 16.6797 6.28906 15.7624 6.28906 14.6289C6.28906 13.4954 7.20631 12.5781 8.33984 12.5781H16.543C17.6765 12.5781 18.5938 13.4954 18.5938 14.6289C18.5938 15.7624 17.6765 16.6797 16.543 16.6797ZM16.543 37.1875H8.33984C7.20631 37.1875 6.28906 36.2703 6.28906 35.1367C6.28906 34.0032 7.20631 33.0859 8.33984 33.0859H16.543C17.6765 33.0859 18.5938 34.0032 18.5938 35.1367C18.5938 36.2703 17.6765 37.1875 16.543 37.1875ZM16.543 57.6953H8.33984C7.20631 57.6953 6.28906 56.7781 6.28906 55.6445C6.28906 54.511 7.20631 53.5938 8.33984 53.5938H16.543C17.6765 53.5938 18.5938 54.511 18.5938 55.6445C18.5938 56.7781 17.6765 57.6953 16.543 57.6953Z" fill="#FFC477"/>
<path d="M45.2539 53.5938H28.8477C27.7141 53.5938 26.7969 52.6765 26.7969 51.543C26.7969 50.4094 27.7141 49.4922 28.8477 49.4922H45.2539C46.3874 49.4922 47.3047 50.4094 47.3047 51.543C47.3047 52.6765 46.3874 53.5938 45.2539 53.5938ZM45.2539 61.7969H28.8477C27.7141 61.7969 26.7969 60.8796 26.7969 59.7461C26.7969 58.6126 27.7141 57.6953 28.8477 57.6953H45.2539C46.3874 57.6953 47.3047 58.6126 47.3047 59.7461C47.3047 60.8796 46.3874 61.7969 45.2539 61.7969Z" fill="#FFC477"/>
<path d="M38.5007 44.7897C39.8225 43.47 51.4062 31.63 51.4062 22.832C51.4062 14.9172 44.9656 8.47656 37.0508 8.47656V45.3906C37.5755 45.3906 38.1002 45.1903 38.5007 44.7897Z" fill="#D81B60"/>
<path d="M45.2539 57.6953H37.0508V61.7969H45.2539C46.3874 61.7969 47.3047 60.8796 47.3047 59.7461C47.3047 58.6126 46.3874 57.6953 45.2539 57.6953ZM45.2539 49.4922H37.0508V53.5938H45.2539C46.3874 53.5938 47.3047 52.6765 47.3047 51.543C47.3047 50.4094 46.3874 49.4922 45.2539 49.4922Z" fill="#FF9F40"/>
<path d="M37.0508 28.9844C33.6582 28.9844 30.8984 26.2246 30.8984 22.832C30.8984 19.4395 33.6582 16.6797 37.0508 16.6797C40.4433 16.6797 43.2031 19.4395 43.2031 22.832C43.2031 26.2246 40.4433 28.9844 37.0508 28.9844Z" fill="white"/>
<path d="M43.2031 22.832C43.2031 19.4395 40.4433 16.6797 37.0508 16.6797V28.9844C40.4433 28.9844 43.2031 26.2246 43.2031 22.832Z" fill="white"/>
</svg>
