<svg width="70" height="70" viewBox="0 0 70 70" fill="none" xmlns="http://www.w3.org/2000/svg">
<g clip-path="url(#clip0_1017_1193)">
<path d="M59.291 58.0971C62.7027 54.6521 62.601 49.8974 58.8686 46.1285C56.9636 44.2049 56.462 42.6569 56.462 39.8564V27.9609H41.8047V58.0971H59.2852" fill="#FFD064"/>
<path d="M59.2871 58.1009C57.8564 57.0292 53.6919 55.6772 49.9818 54.5273L43.7539 69.9996H62.9987C64.5667 69.9996 65.7012 68.482 65.2342 66.9852C64.2855 63.9451 62.1514 60.2465 59.2871 58.1009Z" fill="#EBAE9D"/>
<path d="M50.1075 63.0235C50.9056 60.1742 50.5458 57.0014 49.981 54.5282C49.2899 54.3139 48.6145 54.1069 47.9756 53.9098C44.5583 52.856 43.0407 51.1484 43.0407 51.1484H26.7256C26.7256 51.1484 25.4452 52.856 22.0279 53.9098C17.9586 55.1646 12.4144 56.8306 10.7172 58.1017C7.85283 60.2473 5.71875 63.9459 4.77016 66.986C4.30311 68.4828 5.43762 70.0004 7.00551 70.0004H10.7111L17.7654 68.592L23.5833 70.0004H43.753C43.7531 70.0004 49.0502 66.798 50.1075 63.0235Z" fill="#C38778"/>
<path d="M51.3232 49.9049C51.3232 46.5438 51.5511 44.1371 48.2289 42.8223C46.7896 47.0702 19.576 49.0827 19.576 49.0827C19.576 49.0827 16.9922 51.5113 16.9922 53.4275C16.9922 59.4238 26.4599 67.1558 37.8188 67.1558C43.9644 67.1558 49.1432 63.8958 52.6033 61.2471C53.7788 59.653 54.4201 57.9356 54.4201 56.2444C54.4201 51.67 51.3232 49.9049 51.3232 49.9049Z" fill="#D3EFFD"/>
<path d="M18.3991 53.4279C18.3991 51.5117 18.9429 50.0901 19.5744 49.0831C20.7136 50.5338 22.0243 51.9042 23.4636 53.3135C26.8409 56.6205 29.7316 57.3042 32.1585 57.3042C34.5954 57.3042 37.4763 56.6205 40.8536 53.3135C44.1457 50.0898 46.7881 47.0705 48.2274 42.8227C46.2995 42.0597 43.177 41.6641 38.1175 41.6641H31.8829C18.106 41.6641 18.6789 44.5935 18.6789 49.9052C18.6789 49.9052 15.582 51.6703 15.582 56.2446C15.582 62.241 23.6413 68.5645 35.0002 68.5645C43.1554 68.5645 49.6095 65.305 52.6016 61.2473C49.1416 63.896 43.9629 65.7476 37.8171 65.7476C26.4584 65.7476 18.3991 59.4242 18.3991 53.4279Z" fill="#91DAFA"/>
<path d="M35.0018 0C28.9517 0 23.5871 2.38423 19.7345 6.26916C17.5578 9.77409 14.9489 14.0652 14.9489 18.7292V39.8559C14.9489 42.6563 14.4472 44.2044 12.5423 46.128C8.80988 49.8969 8.70819 54.6516 12.1199 58.0966C15.3523 61.3606 15.2802 66.809 12.1199 70.0001H23.5835C26.7438 66.809 26.8159 61.3606 23.5835 58.0966C26.4354 60.9763 30.558 61.1306 33.5528 59.1225C33.9795 58.8365 33.8273 58.1713 33.3189 58.099C30.0151 57.6296 27.2355 55.6165 26.7904 52.1421C26.1697 51.683 25.7072 34.5745 25.7072 34.5745L48.1423 30.6111L56.4634 24.363V21.5461C56.4633 9.53958 47.1035 0 35.0018 0Z" fill="#FFD064"/>
<path d="M34.909 7.39249C34.0589 8.65671 27.3007 18.3415 16.3556 23.6311V18.7295C16.3556 14.0656 17.5561 9.77446 19.7328 6.26953C15.8793 10.1553 13.5387 15.5423 13.5387 21.5464V39.8563C13.5387 42.6567 13.037 44.2047 11.1321 46.1284C7.39972 49.8973 7.29803 54.6519 10.7097 58.097C13.9421 61.3609 13.87 66.8094 10.7097 70.0005H13.5266C16.6869 66.8094 16.759 61.3609 13.5266 58.097C10.1149 54.6519 10.2166 49.8973 13.949 46.1284C15.8541 44.2047 16.3556 42.6567 16.3556 39.8563V31.9654C16.3556 41.1014 19.828 45.5574 24.872 50.4963C25.5293 51.14 26.168 51.6832 26.7887 52.1423C26.746 51.8127 26.7245 51.4808 26.7242 51.1484V46.6923L48.1406 30.6114L55.3673 24.4108C43.4124 19.3612 35.9875 8.72502 35.0917 7.39305C35.0817 7.378 35.0681 7.36565 35.0522 7.35708C35.0363 7.34852 35.0186 7.34401 35.0005 7.34396C34.9824 7.3439 34.9646 7.3483 34.9487 7.35676C34.9327 7.36523 34.9191 7.3775 34.909 7.39249Z" fill="#EBB044"/>
<path d="M52.2394 26.8162C42.0035 20.991 35.6918 8.64534 35.0563 7.36337C35.0516 7.35344 35.0441 7.34506 35.0348 7.33917C35.0254 7.33329 35.0147 7.33014 35.0036 7.33008C34.9926 7.33002 34.9818 7.33306 34.9724 7.33884C34.963 7.34463 34.9555 7.35293 34.9506 7.36281C34.377 8.51985 29.1551 18.737 20.584 24.9877C20.2049 25.2642 19.1758 29.1484 19.1758 29.1484C19.1758 38.2844 22.8165 42.4587 27.2866 47.3976C30.2797 50.7046 32.5517 51.67 34.9787 51.67C37.4156 51.67 40.2965 50.9863 43.6738 47.6793C48.7176 42.7404 52.2397 38.2844 52.2397 29.1484L53.6482 28.1525L52.2394 26.8162Z" fill="#FFDECF"/>
<path d="M16.3555 28.141L17.7639 29.1487C17.7639 38.2846 21.2363 42.7407 26.2803 47.6795C29.6576 50.9866 32.5483 51.6703 34.9752 51.6703C32.5481 51.6703 31.1212 50.9866 28.1281 47.6795C23.6581 42.7407 20.5807 38.2846 20.5807 29.1487V24.9883C19.6781 25.6465 18.7391 26.2614 17.7638 26.8164L16.3555 28.141ZM35 34.575C35.4956 34.575 35.9914 34.435 36.425 34.155C37.2927 33.595 37.8403 32.3498 37.531 31.2412L36.9515 29.1641C36.4004 27.1886 33.5996 27.1886 33.0484 29.1641L32.469 31.2412C32.1597 32.35 32.7074 33.595 33.5749 34.155C33.9996 34.4293 34.4944 34.5752 35 34.575Z" fill="#FFCDBE"/>
<path d="M35.0018 43.9255C31.721 43.9255 28.998 42.8887 26.9301 41.7663C25.7953 41.1503 25.3746 39.731 25.9907 38.5962C26.6066 37.4612 28.0259 37.0407 29.1608 37.6567C30.5363 38.4034 33.0186 39.2494 35.0018 39.2494C36.9852 39.2494 39.4675 38.4032 40.8427 37.6567C41.9775 37.0408 43.3967 37.4612 44.0128 38.5962C44.6289 39.731 44.2083 41.1503 43.0734 41.7663C41.0058 42.8887 38.2828 43.9255 35.0018 43.9255Z" fill="white"/>
<path d="M28.197 29.6408C27.9168 29.6408 27.6481 29.5295 27.45 29.3314C27.2519 29.1333 27.1406 28.8646 27.1406 28.5844V26.2243C27.1406 25.6409 27.6134 25.168 28.197 25.168C28.7805 25.168 29.2533 25.6409 29.2533 26.2243V28.5844C29.2533 28.8646 29.142 29.1333 28.9439 29.3314C28.7458 29.5295 28.4771 29.6408 28.197 29.6408Z" fill="#B46E5A"/>
<path d="M38.0526 21.2474C37.8288 21.2477 37.6107 21.1769 37.4297 21.0452C37.2487 20.9135 37.1143 20.7277 37.0458 20.5146C36.9772 20.3015 36.9782 20.0722 37.0485 19.8597C37.1187 19.6471 37.2547 19.4624 37.4367 19.3322C38.9777 18.2288 40.9576 17.6212 43.0117 17.6212C45.474 17.6212 47.2984 18.6073 47.9684 19.0312C48.0856 19.1054 48.1871 19.202 48.267 19.3154C48.3469 19.4288 48.4037 19.5568 48.4342 19.6922C48.4646 19.8275 48.4681 19.9675 48.4444 20.1042C48.4207 20.2409 48.3703 20.3716 48.2962 20.4888C48.222 20.6061 48.1254 20.7075 48.012 20.7875C47.8986 20.8674 47.7706 20.9242 47.6352 20.9546C47.4999 20.985 47.3599 20.9885 47.2232 20.9648C47.0865 20.9411 46.9558 20.8908 46.8386 20.8166C45.7673 20.1387 44.3364 19.7339 43.0115 19.7339C41.4183 19.7339 39.8346 20.2136 38.6664 21.0501C38.4876 21.1786 38.2729 21.2476 38.0526 21.2474ZM31.9487 21.2474C31.7284 21.2475 31.5136 21.1785 31.3346 21.05C30.1664 20.2135 28.5828 19.7338 26.9895 19.7338C25.6646 19.7338 24.2339 20.1386 23.1625 20.8164C22.9258 20.9627 22.641 21.0096 22.3699 20.9471C22.0988 20.8846 21.8633 20.7177 21.7145 20.4826C21.5658 20.2475 21.5157 19.9632 21.5753 19.6915C21.6348 19.4197 21.7992 19.1824 22.0326 19.0311C22.7028 18.6071 24.527 17.6211 26.9894 17.6211C29.0435 17.6211 31.0233 18.2287 32.5643 19.3321C32.6771 19.4128 32.7729 19.515 32.8462 19.6328C32.9195 19.7505 32.9689 19.8816 32.9916 20.0185C33.0142 20.1553 33.0097 20.2953 32.9782 20.4304C32.9467 20.5655 32.8889 20.6931 32.8081 20.8059C32.7105 20.9427 32.5815 21.0541 32.432 21.131C32.2825 21.2078 32.1168 21.2477 31.9487 21.2474Z" fill="#EBB044"/>
<path d="M41.8063 29.6408C41.5262 29.6408 41.2575 29.5295 41.0594 29.3314C40.8613 29.1333 40.75 28.8646 40.75 28.5844V26.2243C40.75 25.6409 41.2228 25.168 41.8063 25.168C42.3899 25.168 42.8627 25.6409 42.8627 26.2243V28.5844C42.8627 28.8646 42.7514 29.1333 42.5533 29.3314C42.3552 29.5295 42.0865 29.6408 41.8063 29.6408Z" fill="#B46E5A"/>
<path d="M42.8845 47.4544C42.3009 47.4544 41.8281 46.9814 41.8281 46.398C41.8281 45.8146 42.3009 45.3417 42.8845 45.3417C52.9147 45.3417 54.8293 40.3552 55.4039 34.9666C55.4657 34.3866 57.728 32.3535 57.728 32.3535C57.728 32.3535 57.5666 34.6106 57.5047 35.1907C57.0864 39.1113 55.9766 41.86 54.0116 43.8407C51.5994 46.2722 47.9597 47.4544 42.8845 47.4544Z" fill="#766D78"/>
<path d="M14.9475 20.7477L13.5391 31.6293C13.5391 32.4072 15.5781 34.4462 16.356 34.4462C17.1339 34.4462 17.7644 32.4072 17.7644 31.6293V23.0379C17.7644 21.5069 16.3461 20.4494 14.9475 20.7477Z" fill="#A29AA5"/>
<path d="M16.3554 33.038C15.5775 33.038 14.9469 32.4075 14.9469 31.6296V20.748C14.7525 20.7895 14.5585 20.8566 14.3686 20.9528C12.8134 21.7413 11.4258 24.1028 11.4258 28.2748C11.4258 32.4468 12.8134 34.8083 14.3686 35.5968C15.9238 36.3852 17.7638 35.2551 17.7638 33.5114V31.6295C17.7638 32.4073 17.1332 33.038 16.3554 33.038Z" fill="#766D78"/>
<path d="M55.6313 20.9528C55.4482 20.8598 55.2538 20.7909 55.053 20.748L53.6445 31.6583C53.6445 32.419 55.6696 34.4441 56.4303 34.4441C56.8707 34.4441 57.5309 32.7693 58.0088 32.3548C58.3609 31.2623 58.5741 29.9079 58.5741 28.2749C58.5741 24.1028 57.1865 21.7413 55.6313 20.9528Z" fill="#A29AA5"/>
<path d="M55.0552 31.658V20.7477C53.6565 20.4495 52.2383 21.507 52.2383 23.0378V33.5112C52.2383 35.2549 54.0781 36.385 55.6335 35.5966C56.58 35.1167 57.4638 34.053 58.0111 32.3545C57.5332 32.769 56.8731 33.0353 56.4326 33.0353C55.6719 33.0353 55.0552 32.4185 55.0552 31.658Z" fill="#766D78"/>
</g>
<defs>
<clipPath id="clip0_1017_1193">
<rect width="70" height="70" fill="white"/>
</clipPath>
</defs>
</svg>
