<svg width="70" height="70" viewBox="0 0 70 70" fill="none" xmlns="http://www.w3.org/2000/svg">
<g clip-path="url(#clip0_1017_639)">
<path d="M36.5661 46.3336C35.8308 54.7307 33.6308 62.666 29.5224 69.9998L25.4224 62.7463C24.1547 63.0279 21.7914 69.9998 21.7914 69.9998C20.4801 67.6772 19.3703 65.2899 18.4436 62.8449C16.4464 57.5843 15.2858 52.0575 14.7478 46.3336C14.7464 46.3322 14.7436 46.3322 14.7422 46.3307C18.0605 44.7984 21.7549 43.9434 25.6507 43.9434C29.5491 43.9435 33.2464 44.7998 36.5661 46.3336Z" fill="#FFF8E6"/>
<path d="M22.3354 66.5822C23.0772 68.0816 22.8602 69.2068 21.7931 70.0006C20.4819 67.678 19.372 65.2908 18.4453 62.8457C19.571 64.2578 20.8791 65.5143 22.3354 66.5822Z" fill="#FFF1CF"/>
<path d="M29.939 54.1308L27.4778 58.171H23.9495L21.4883 54.1185C21.4883 51.4763 25.7136 51.457 25.7136 51.457C25.7136 51.457 29.939 51.4886 29.939 54.1308Z" fill="#FFA1AC"/>
<path d="M29.5207 69.9992H29.3151C25.7024 69.3654 24.0123 68.5203 22.332 66.5808L23.6659 58.171C24.9954 57.0273 26.3588 57.0202 27.7574 58.171L29.5207 69.9992Z" fill="#FFA1AC"/>
<path d="M33.5441 56.4034L25.6914 51.4573L37.9611 47.002L35.6549 55.5775C35.4087 56.493 34.3464 56.9087 33.5441 56.4034Z" fill="#FFF1CF"/>
<path d="M17.8615 56.4037L25.714 51.4578L13.4453 47.002L15.7508 55.5778C15.9968 56.4932 17.0592 56.909 17.8615 56.4037Z" fill="#FFF1CF"/>
<path d="M27.754 59.2278H23.6696C23.3894 59.2278 23.1208 59.1165 22.9227 58.9184C22.7246 58.7203 22.6133 58.4517 22.6133 58.1715C22.6133 57.8914 22.7246 57.6227 22.9227 57.4246C23.1208 57.2265 23.3894 57.1152 23.6696 57.1152H27.754C28.0342 57.1152 28.3029 57.2265 28.501 57.4246C28.699 57.6227 28.8103 57.8914 28.8103 58.1715C28.8103 58.4517 28.699 58.7203 28.501 58.9184C28.3029 59.1165 28.0342 59.2278 27.754 59.2278Z" fill="#93BCE8"/>
<path d="M29.3184 70.0004H21.793L22.3352 66.582C24.3719 68.0792 26.714 69.23 29.3184 70.0004Z" fill="#FF8A98"/>
<path d="M47.0726 70H35.35C35.1123 61.7699 36.7937 54.6439 41.1599 49.0619V49.0605C46.2754 52.8563 49.9515 58.4817 51.2205 64.969C51.7318 67.5761 49.729 70 47.0726 70Z" fill="#8697A6"/>
<path d="M4.22785 70H15.9504C16.1881 61.7699 14.5068 54.6439 10.1405 49.0619V49.0605C5.02505 52.8563 1.34896 58.4817 0.0800726 64.969C-0.431256 67.5761 1.57154 70 4.22785 70Z" fill="#77899B"/>
<path d="M38.2203 58.6621L40.551 61.4841C40.7545 61.7305 40.8682 62.0389 40.8733 62.3585C40.8784 62.6781 40.7746 62.99 40.579 63.2428L35.351 70.0001H29.5228L36.5665 46.334C38.1873 47.083 39.7268 47.9967 41.1607 49.0607V49.0621L41.253 55.6585C41.2573 55.964 41.1621 56.2627 40.9817 56.5093C40.8014 56.756 40.5458 56.9374 40.2533 57.0261L38.5589 57.5399C38.0777 57.6856 37.9001 58.2743 38.2203 58.6621ZM20.2525 64.8297C15.0215 60.7206 11.8217 54.6704 13.4496 46.9777C13.8766 46.7513 14.3096 46.5367 14.7482 46.334L20.2525 64.8297Z" fill="#A5B0BD"/>
<path d="M21.7897 69.999H15.9616L10.7334 63.2413C10.5378 62.9887 10.4339 62.677 10.4391 62.3575C10.4442 62.038 10.5579 61.7297 10.7616 61.4835L13.0925 58.661C13.4123 58.2736 13.2347 57.6849 12.753 57.5384L11.0587 57.0243C10.7663 56.9356 10.5106 56.7542 10.3302 56.5076C10.1499 56.2609 10.0546 55.9623 10.0587 55.6567L10.1517 49.061V49.0596C11.1971 48.2845 12.2987 47.5883 13.4474 46.9766C13.4108 54.5217 15.8925 60.6386 20.2503 64.8286L21.7897 69.999Z" fill="#97A4B2"/>
<path d="M50.2989 21.8088V30.7722C50.2989 30.7722 42.7285 33.9497 36.1059 32.3342C32.0932 31.354 28.9834 30.7821 25.6511 30.8413H25.6497C25.4924 30.8384 25.3352 30.837 25.1779 30.837C24.4075 30.837 23.6469 30.8708 22.8821 30.9356C14.5248 23.7385 10.6656 13.7101 16.0058 0.490535C19.6214 -0.422199 22.7439 0.128504 24.5283 0.618777C25.2627 0.820167 26.0377 0.820167 26.772 0.618777C29.7805 -0.206731 36.5946 -1.20806 43.1594 4.92993C47.4707 9.15522 50.2989 16.3369 50.2989 21.8088Z" fill="#FFBE73"/>
<path d="M22.8827 30.9353C20.5081 31.1338 18.0855 31.6282 15.1954 32.3339C8.57279 33.9494 1.00391 30.7719 1.00391 30.7719V21.8085C1.00391 15.917 3.8307 9.15506 8.14199 4.92963C10.8138 2.43109 13.5264 1.11559 16.0066 0.490234C14.7574 12.5916 17.308 22.9775 22.8827 30.9353Z" fill="#FFB25A"/>
<path d="M45.5401 38.1438C48.438 38.1438 50.7872 35.1634 50.7872 31.4869C50.7872 27.8104 48.438 24.8301 45.5401 24.8301C42.6422 24.8301 40.293 27.8104 40.293 31.4869C40.293 35.1634 42.6422 38.1438 45.5401 38.1438Z" fill="#FFDDCF"/>
<path d="M5.75885 38.1438C8.65676 38.1438 11.006 35.1634 11.006 31.4869C11.006 27.8104 8.65676 24.8301 5.75885 24.8301C2.86094 24.8301 0.511719 27.8104 0.511719 31.4869C0.511719 35.1634 2.86094 38.1438 5.75885 38.1438Z" fill="#FFCBBE"/>
<path d="M45.3282 30.994C45.3282 36.1799 43.4719 40.9165 40.4141 44.5236C23.3514 41.2084 14.1677 30.32 16.1281 13.0814C18.9492 11.4546 22.197 10.5293 25.6521 10.5293C36.5183 10.5293 45.3282 19.6927 45.3282 30.994Z" fill="#FFDDCF"/>
<path d="M40.4121 44.5243C36.8064 48.7764 31.5289 51.4582 25.6502 51.4582C14.7825 51.4582 5.97266 42.2962 5.97266 30.9948C5.97266 23.2863 10.0712 16.5722 16.1262 13.082C18.1205 28.0201 26.9063 39.1398 40.4121 44.5243Z" fill="#FFCBBE"/>
<path d="M14.447 39.8818C16.7304 39.8818 18.5815 38.4077 18.5815 36.5893C18.5815 34.771 16.7304 33.2969 14.447 33.2969C12.1636 33.2969 10.3125 34.771 10.3125 36.5893C10.3125 38.4077 12.1636 39.8818 14.447 39.8818Z" fill="#FFA1AC"/>
<path d="M36.8572 39.8818C39.1406 39.8818 40.9917 38.4077 40.9917 36.5893C40.9917 34.771 39.1406 33.2969 36.8572 33.2969C34.5737 33.2969 32.7227 34.771 32.7227 36.5893C32.7227 38.4077 34.5737 39.8818 36.8572 39.8818Z" fill="#FFA1AC"/>
<path d="M16.8571 34.4765C16.5769 34.4765 16.3083 34.3652 16.1102 34.1671C15.9121 33.9691 15.8008 33.7004 15.8008 33.4202V31.7301C15.8008 31.45 15.9121 31.1813 16.1102 30.9832C16.3083 30.7851 16.5769 30.6738 16.8571 30.6738C17.1372 30.6738 17.4059 30.7851 17.604 30.9832C17.8021 31.1813 17.9134 31.45 17.9134 31.7301V33.4202C17.9134 33.7004 17.8021 33.9691 17.604 34.1671C17.4059 34.3652 17.1372 34.4765 16.8571 34.4765ZM34.4483 34.4765C34.1681 34.4765 33.8994 34.3652 33.7014 34.1671C33.5033 33.9691 33.392 33.7004 33.392 33.4202V31.7301C33.392 31.45 33.5033 31.1813 33.7014 30.9832C33.8994 30.7851 34.1681 30.6738 34.4483 30.6738C34.7284 30.6738 34.9971 30.7851 35.1952 30.9832C35.3933 31.1813 35.5045 31.45 35.5045 31.7301V33.4202C35.5045 33.7004 35.3933 33.9691 35.1952 34.1671C34.9971 34.3652 34.7284 34.4765 34.4483 34.4765ZM25.6526 35.4826C25.0621 35.4825 24.4785 35.3558 23.9411 35.1111C23.4037 34.8663 22.9251 34.5093 22.5373 34.0639C22.3577 33.8521 22.2687 33.5781 22.2896 33.3012C22.3105 33.0242 22.4395 32.7667 22.6489 32.5842C22.8582 32.4017 23.131 32.3091 23.4082 32.3262C23.6854 32.3433 23.9447 32.4689 24.13 32.6758C24.3194 32.8936 24.5533 33.0682 24.816 33.1879C25.0786 33.3077 25.3638 33.3697 25.6525 33.3699C26.2357 33.3699 26.7906 33.1169 27.175 32.6758C27.3602 32.4689 27.6195 32.3433 27.8967 32.3262C28.1739 32.3091 28.4467 32.4017 28.656 32.5842C28.8654 32.7667 28.9945 33.0242 29.0153 33.3012C29.0362 33.5781 28.9472 33.8521 28.7676 34.0639C28.3799 34.5093 27.9013 34.8664 27.364 35.1111C26.8266 35.3558 26.243 35.4825 25.6526 35.4826Z" fill="#666667"/>
<path d="M48.8923 23.5915L46.7585 29.7576C46.2388 31.2591 44.0191 30.8858 44.0191 29.297V25.6674C44.0191 25.2421 43.6445 24.9111 43.2219 24.9688C36.8796 25.8575 28.198 24.0618 23.3726 18.7984C22.7754 18.1491 21.7402 18.1815 21.212 18.8885C20.4121 19.9617 19.3881 20.9632 18.2261 21.8617C14.728 18.2307 12.7191 14.1014 15.76 9.0308C16.0995 8.97584 16.4417 8.93086 16.7867 8.89845C22.5952 8.34775 28.522 8.3308 34.5782 8.90967C41.036 9.52654 46.4134 14.1295 48.057 20.404L48.8923 23.5915Z" fill="#FFBE73"/>
<path d="M18.2267 21.862C15.2139 24.1931 11.2745 25.841 7.90838 26.2607C7.55346 26.3043 7.2859 26.6015 7.2859 26.9593V29.2973C7.2859 30.886 5.06613 31.2593 4.54646 29.758L2.41406 23.5918L3.24928 20.3989C4.81129 14.4383 9.74082 10.0073 15.7605 9.03125C15.9901 13.6437 16.8309 17.9367 18.2267 21.862Z" fill="#FFB25A"/>
<path d="M70.0004 46.0555V65.7738C70.0004 65.9005 69.9948 66.0272 69.9834 66.1512C59.2134 62.7088 53.0605 54.5333 56.2961 41.8301H65.7749C68.1089 41.8302 70.0004 43.7217 70.0004 46.0555Z" fill="#FFF8E6"/>
<path d="M69.9822 66.1511C69.7922 68.3076 67.9808 69.9991 65.7739 69.9991H49.7175C47.3837 69.9991 45.4922 68.1076 45.4922 65.7738V46.0554C45.4922 43.7216 47.3837 41.8301 49.7175 41.8301H56.2949C55.9104 53.1653 61.0639 61.8201 69.9822 66.1511Z" fill="#FFF1CF"/>
<path d="M63.8336 58.2407C63.2501 58.2407 62.7773 57.795 62.7773 57.2453V50.222C62.7773 49.6723 63.2503 49.2266 63.8336 49.2266C64.417 49.2266 64.8899 49.6723 64.8899 50.222V57.2453C64.8901 57.795 64.4172 58.2407 63.8336 58.2407Z" fill="#C2EAFB"/>
<path d="M65.491 58.5169H62.4C62.1199 58.5169 61.8512 58.4056 61.6531 58.2075C61.455 58.0094 61.3438 57.7407 61.3438 57.4606C61.3438 57.1804 61.455 56.9118 61.6531 56.7137C61.8512 56.5156 62.1199 56.4043 62.4 56.4043H65.491C65.6297 56.4043 65.7671 56.4316 65.8952 56.4847C66.0234 56.5377 66.1398 56.6155 66.2379 56.7136C66.336 56.8117 66.4138 56.9282 66.4669 57.0563C66.52 57.1845 66.5473 57.3219 66.5473 57.4606C66.5473 57.5993 66.52 57.7367 66.4669 57.8648C66.4138 57.993 66.336 58.1094 66.2379 58.2075C66.1398 58.3056 66.0234 58.3834 65.8952 58.4365C65.7671 58.4896 65.6297 58.5169 65.491 58.5169Z" fill="#F9EE80"/>
<path d="M51.6618 58.2407C51.0782 58.2407 50.6055 57.795 50.6055 57.2453V50.222C50.6055 49.6723 51.0784 49.2266 51.6618 49.2266C52.2451 49.2266 52.718 49.6723 52.718 50.222V57.2453C52.7182 57.795 52.2453 58.2407 51.6618 58.2407Z" fill="#A8E1F6"/>
<path d="M53.0925 58.5169H50.0016C49.7215 58.5169 49.4528 58.4056 49.2547 58.2075C49.0566 58.0094 48.9453 57.7407 48.9453 57.4606C48.9453 57.1804 49.0566 56.9118 49.2547 56.7137C49.4528 56.5156 49.7215 56.4043 50.0016 56.4043H53.0925C53.6761 56.4043 54.1488 56.8772 54.1488 57.4606C54.1488 58.044 53.6761 58.5169 53.0925 58.5169Z" fill="#F4E74D"/>
<path d="M57.7477 64.014C57.609 64.014 57.4716 63.9867 57.3434 63.9337C57.2153 63.8806 57.0988 63.8028 57.0007 63.7047C56.9027 63.6066 56.8249 63.4901 56.7718 63.362C56.7187 63.2338 56.6914 63.0965 56.6914 62.9577V46.0563C56.6914 45.7761 56.8027 45.5075 57.0008 45.3094C57.1989 45.1113 57.4675 45 57.7477 45C58.0278 45 58.2965 45.1113 58.4946 45.3094C58.6927 45.5075 58.804 45.7761 58.804 46.0563V62.9577C58.804 63.0965 58.7767 63.2338 58.7236 63.362C58.6705 63.4901 58.5927 63.6066 58.4946 63.7047C58.3966 63.8028 58.2801 63.8806 58.1519 63.9337C58.0238 63.9867 57.8864 64.014 57.7477 64.014Z" fill="#A8E1F6"/>
<path d="M65.455 51.4489C65.3229 51.4488 65.1919 51.4239 65.0689 51.3754C60.1975 49.461 55.258 49.461 50.3872 51.3754C50.1274 51.4738 49.8392 51.4657 49.5853 51.3531C49.3313 51.2405 49.1319 51.0323 49.0302 50.7738C48.9286 50.5152 48.9329 50.227 49.0423 49.9715C49.1517 49.7161 49.3572 49.5141 49.6145 49.4092C54.9982 47.2933 60.458 47.2933 65.8417 49.4092C66.0709 49.499 66.2615 49.6661 66.3806 49.8816C66.4997 50.0971 66.5398 50.3474 66.4939 50.5893C66.4481 50.8312 66.3192 51.0495 66.1295 51.2064C65.9398 51.3634 65.7012 51.4491 65.455 51.4489Z" fill="#F9EE80"/>
<path d="M61.2331 65.7743H54.1908C53.0241 65.7743 52.0781 64.8284 52.0781 63.6615C52.0781 62.4948 53.0239 61.5488 54.1908 61.5488H61.2331C62.3998 61.5488 63.3458 62.4946 63.3458 63.6615C63.3457 64.8283 62.3998 65.7743 61.2331 65.7743Z" fill="#FFBE73"/>
</g>
<defs>
<clipPath id="clip0_1017_639">
<rect width="70" height="70" fill="white"/>
</clipPath>
</defs>
</svg>
