<svg width="70" height="70" viewBox="0 0 70 70" fill="none" xmlns="http://www.w3.org/2000/svg">
<path d="M34.9977 0.879296V3.68169L24.5421 4.38972L13.4414 3.68169V0.879296C13.4414 0.763825 13.4641 0.649485 13.5083 0.542804C13.5525 0.436123 13.6173 0.33919 13.6989 0.25754C13.7806 0.17589 13.8775 0.111121 13.9842 0.0669324C14.0909 0.0227437 14.2052 0 14.3207 0L34.1185 0C34.3517 0 34.5753 0.0926398 34.7402 0.25754C34.9051 0.42244 34.9977 0.646092 34.9977 0.879296Z" fill="#7CA1B1"/>
<path d="M34.9967 0.878873V3.68169L30.4897 3.96338V0.878873C30.4897 0.392958 30.0953 0 29.6094 0H34.1164C34.6023 0 34.9967 0.392958 34.9967 0.878873Z" fill="#678D98"/>
<path d="M47.1653 7.94502V64.6239C47.1653 66.9788 45.2569 68.8873 42.9019 68.8873H5.53432C3.17939 68.8873 1.26953 66.9788 1.26953 64.6239V7.94502C1.26953 5.59009 3.17939 3.68164 5.53432 3.68164H7.78432L24.2187 4.7653L40.2729 3.68164H42.9019C45.2569 3.68164 47.1653 5.59009 47.1653 7.94502Z" fill="#5986CB"/>
<path d="M47.1664 7.94562V64.6245C47.1664 66.9794 45.2579 68.8879 42.903 68.8879H40.2734C42.6284 68.8879 44.5368 66.9794 44.5368 64.6245V7.94562C44.5368 3.53336 40.7622 3.68224 40.7622 3.68224H42.903C45.2579 3.68224 47.1664 5.59069 47.1664 7.94562Z" fill="#4278C3"/>
<path d="M42.9028 5.82249V59.5929C42.9028 60.776 41.9436 61.7337 40.7619 61.7337H7.676C6.4929 61.7337 5.53516 60.776 5.53516 59.5929V5.82249C5.53516 4.6408 6.4929 3.68164 7.676 3.68164H40.7619C41.9436 3.68164 42.9028 4.6408 42.9028 5.82249Z" fill="#C8EFFE"/>
<path d="M42.9027 5.82249V59.5929C42.9027 60.776 41.9435 61.7337 40.7618 61.7337H36.9844C38.1675 61.7337 39.1252 60.776 39.1252 59.5929V5.82249C39.1252 4.6408 38.1675 3.68164 36.9844 3.68164H40.7618C41.9435 3.68164 42.9027 4.6408 42.9027 5.82249Z" fill="#99E6FC"/>
<path d="M37.2007 18.4734H11.8835C11.6606 18.4734 11.4468 18.3848 11.2892 18.2272C11.1315 18.0696 11.043 17.8558 11.043 17.6328V15.0886C11.043 14.8657 11.1315 14.6519 11.2892 14.4942C11.4468 14.3366 11.6606 14.248 11.8835 14.248H37.2007C37.4236 14.248 37.6374 14.3366 37.7951 14.4942C37.9527 14.6519 38.0413 14.8657 38.0413 15.0886V17.6328C38.0413 17.8558 37.9527 18.0696 37.7951 18.2272C37.6374 18.3848 37.4236 18.4734 37.2007 18.4734Z" fill="#7CA1B1"/>
<path d="M31.0924 3.68164V5.66051C31.0924 6.99995 30.0037 8.09009 28.6643 8.09009H19.7713C18.4319 8.09009 17.3431 6.99995 17.3431 5.66051V3.68164H15.2305V5.66051C15.2305 8.16474 17.2671 10.2028 19.7713 10.2028H28.6643C31.1685 10.2028 33.2051 8.16474 33.2051 5.66051V3.68164H31.0924Z" fill="#EAF6FF"/>
<path d="M17.9899 26.4994H12.0993C11.8191 26.4994 11.5505 26.3881 11.3524 26.19C11.1543 25.9919 11.043 25.7232 11.043 25.4431C11.043 25.1629 11.1543 24.8942 11.3524 24.6961C11.5505 24.498 11.8191 24.3867 12.0993 24.3867H17.9899C18.27 24.3867 18.5387 24.498 18.7368 24.6961C18.9349 24.8942 19.0462 25.1629 19.0462 25.4431C19.0462 25.7232 18.9349 25.9919 18.7368 26.19C18.5387 26.3881 18.27 26.4994 17.9899 26.4994ZM30.898 33.47H12.0993C11.8191 33.47 11.5505 33.3587 11.3524 33.1606C11.1543 32.9625 11.043 32.6938 11.043 32.4136C11.043 32.1335 11.1543 31.8648 11.3524 31.6667C11.5505 31.4686 11.8191 31.3573 12.0993 31.3573H30.8979C31.1781 31.3573 31.4467 31.4685 31.6449 31.6666C31.843 31.8647 31.9543 32.1334 31.9543 32.4136C31.9543 32.6937 31.8431 32.9624 31.645 33.1605C31.4469 33.3586 31.1782 33.4699 30.898 33.47ZM29.0303 40.4404H12.0993C11.8191 40.4404 11.5505 40.3291 11.3524 40.131C11.1543 39.9329 11.043 39.6642 11.043 39.384C11.043 39.1039 11.1543 38.8352 11.3524 38.6371C11.5505 38.439 11.8191 38.3277 12.0993 38.3277H29.0302C29.3103 38.3277 29.579 38.439 29.7771 38.637C29.9752 38.8351 30.0865 39.1038 30.0866 39.384C30.0866 39.6641 29.9753 39.9328 29.7772 40.1309C29.5791 40.3291 29.3105 40.4404 29.0303 40.4404ZM27.1625 47.4109H12.0993C11.8191 47.4109 11.5505 47.2997 11.3524 47.1016C11.1543 46.9034 11.043 46.6348 11.043 46.3546C11.043 46.0744 11.1543 45.8058 11.3524 45.6077C11.5505 45.4096 11.8191 45.2983 12.0993 45.2983H27.1625C27.4427 45.2983 27.7114 45.4096 27.9095 45.6077C28.1076 45.8058 28.2189 46.0744 28.2189 46.3546C28.2189 46.6348 28.1076 46.9034 27.9095 47.1016C27.7114 47.2997 27.4427 47.4109 27.1625 47.4109ZM17.9899 54.3815H12.0993C11.8191 54.3815 11.5505 54.2702 11.3524 54.0721C11.1543 53.874 11.043 53.6053 11.043 53.3252C11.043 53.045 11.1543 52.7763 11.3524 52.5782C11.5505 52.3801 11.8191 52.2688 12.0993 52.2688H17.9899C18.27 52.2688 18.5387 52.3801 18.7368 52.5782C18.9349 52.7763 19.0462 53.045 19.0462 53.3252C19.0462 53.6053 18.9349 53.874 18.7368 54.0721C18.5387 54.2702 18.27 54.3815 17.9899 54.3815Z" fill="#7CA1B1"/>
<path d="M67.6335 26.9908L39.8955 19.5584C39.1099 19.3478 38.3024 19.8141 38.0918 20.5996L27.3435 60.7132C27.133 61.4988 27.5993 62.3063 28.3848 62.5168L56.1228 69.9492C56.9085 70.1598 57.7159 69.6934 57.9265 68.908L68.6748 28.7944C68.8854 28.0088 68.4192 27.2013 67.6335 26.9908Z" fill="#99E6FC"/>
<path d="M65.2022 22.7773L54.4539 62.8903C54.2436 63.6753 53.4358 64.1427 52.6509 63.9325L24.9124 56.4999C24.1275 56.2896 23.6603 55.4806 23.8708 54.6956L34.6191 14.5825C34.8298 13.7961 35.6384 13.3304 36.4234 13.5408L64.1619 20.9733C64.9467 21.1836 65.4129 21.9909 65.2022 22.7773Z" fill="#EAF6FF"/>
<path d="M65.2028 22.7753L54.4549 62.8894C54.2451 63.6739 53.4366 64.1415 52.6521 63.9316L48.207 62.7401C48.9915 62.9499 49.8014 62.4837 50.0113 61.6978L60.7591 21.5852C60.969 20.8035 60.5084 19.9992 59.731 19.7852L64.162 20.9725C64.9479 21.1823 65.4141 21.9894 65.2028 22.7753Z" fill="#C8EFFE"/>
<path d="M42.722 55.8892C48.4558 55.8892 53.1041 51.241 53.1041 45.5071C53.1041 39.7732 48.4558 35.125 42.722 35.125C36.9881 35.125 32.3398 39.7732 32.3398 45.5071C32.3398 51.241 36.9881 55.8892 42.722 55.8892Z" fill="#46CC8D"/>
<path d="M56.0325 32.8648L37.5171 27.9035C37.4159 27.8764 37.321 27.8296 37.2379 27.7658C37.1548 27.702 37.085 27.6225 37.0327 27.5318C36.9803 27.4411 36.9463 27.3409 36.9326 27.2371C36.9189 27.1332 36.9259 27.0276 36.953 26.9265L38.6959 20.4214C38.723 20.3202 38.7698 20.2253 38.8336 20.1422C38.8974 20.0591 38.9769 19.9893 39.0677 19.9369C39.1584 19.8845 39.2586 19.8506 39.3625 19.8369C39.4664 19.8232 39.5719 19.8302 39.6731 19.8573L58.1886 24.8186C58.2898 24.8457 58.3847 24.8925 58.4678 24.9562C58.5509 25.02 58.6206 25.0995 58.673 25.1903C58.7254 25.281 58.7594 25.3811 58.773 25.485C58.7867 25.5889 58.7798 25.6944 58.7527 25.7956L57.0097 32.3007C56.9549 32.505 56.8212 32.6793 56.6379 32.785C56.4547 32.8908 56.2369 32.9195 56.0325 32.8648Z" fill="#80B4FB"/>
<path d="M42.148 48.7011C41.9624 48.7013 41.78 48.6526 41.6192 48.5598C41.4585 48.4671 41.325 48.3336 41.2322 48.1728L37.8177 42.2587C37.6799 42.0162 37.6435 41.7291 37.7166 41.4599C37.7897 41.1907 37.9663 40.9613 38.2078 40.8218C38.4494 40.6824 38.7364 40.6441 39.006 40.7154C39.2757 40.7867 39.5062 40.9618 39.6473 41.2024L42.5337 46.2017L51.8624 40.8158C52.1049 40.6779 52.3921 40.6416 52.6613 40.7146C52.9305 40.7877 53.1598 40.9643 53.2993 41.2059C53.4388 41.4475 53.477 41.7344 53.4057 42.0041C53.3344 42.2738 53.1594 42.5043 52.9187 42.6454L42.6752 48.5594C42.515 48.6523 42.3332 48.7011 42.148 48.7011Z" fill="#B0E7C9"/>
</svg>
