<svg width="70" height="70" viewBox="0 0 70 70" fill="none" xmlns="http://www.w3.org/2000/svg">
<g clip-path="url(#clip0_1017_3541)">
<path d="M61.9772 11.6331C61.9772 9.08182 59.9088 7.01367 57.3575 7.01367H4.61959C2.06855 7.01367 0 9.08195 0 11.6331V64.3707C0 65.6912 0.554941 66.8812 1.4432 67.7231H57.3575V68.9903H65.4493C67.4375 68.9903 69.1322 67.7342 69.7836 65.9721C70.3233 64.5455 70.5142 67.2731 61.9772 11.6331Z" fill="#BABABA"/>
<path d="M64.7972 64.3709V30.0189L61.9763 11.6331C61.9763 9.08182 59.9079 7.01367 57.3566 7.01367H7.4399C4.88887 7.01367 2.82031 9.08182 2.82031 11.6331V64.3707C2.82031 65.6912 3.37525 66.8812 4.26352 67.7231H57.3569V68.9903H60.1778C62.7288 68.9905 64.7972 66.9223 64.7972 64.3709Z" fill="#A8A8A8"/>
<path d="M57.3575 7.01367H4.61959C2.06855 7.01367 0 9.08195 0 11.6331V64.3707C0 66.9222 2.06855 68.9903 4.61959 68.9903H57.3573C59.9087 68.9903 61.9771 66.9222 61.9771 64.3707V11.6331C61.9772 9.08195 59.9086 7.01367 57.3575 7.01367Z" fill="#E6E6E6"/>
<path d="M2.82092 64.3709V11.6331C2.82092 9.08182 4.88947 7.01367 7.44051 7.01367H4.61959C2.06855 7.01367 0 9.08195 0 11.6331V64.3707C0 66.9222 2.06855 68.9903 4.61959 68.9903H7.44051C4.88961 68.9905 2.82092 66.9223 2.82092 64.3709Z" fill="#CCCBCA"/>
<path d="M57.3575 7.01367H4.61959C2.06855 7.01367 0 9.08195 0 11.6331V23.4998H61.9772V11.6331C61.9772 9.08195 59.9086 7.01367 57.3575 7.01367Z" fill="#EA473B"/>
<path d="M2.82092 11.6331C2.82092 9.08182 4.88947 7.01367 7.44051 7.01367H4.61959C2.06855 7.01367 0 9.08195 0 11.6331V23.4998H2.82092V11.6331Z" fill="#D63322"/>
<path d="M49.4704 11.1445V12.1062C49.4704 13.0411 48.7127 13.0936 47.7778 13.0936H47.2135C46.2788 13.0936 45.521 13.0411 45.521 12.1062V11.1447C44.626 11.7692 44.0399 12.8058 44.0399 13.9799C44.0399 15.8885 45.5871 17.4356 47.4956 17.4356C50.8803 17.4355 52.2248 13.0668 49.4704 11.1445ZM31.9803 11.1445V12.1062C31.9803 13.0411 31.2226 12.9525 30.2878 12.9525H29.7235C28.7888 12.9525 28.0309 13.0411 28.0309 12.1062V11.1447C27.136 11.7692 26.5499 12.8058 26.5499 13.9799C26.5499 15.8885 28.0971 17.4356 30.0056 17.4356C31.9142 17.4356 33.4613 15.8885 33.4613 13.9799C33.4613 12.8058 32.8752 11.7691 31.9803 11.1445ZM14.4903 11.1445V12.1062C14.4903 13.1961 13.4645 13.0936 12.2335 13.0936C11.2987 13.0936 10.5409 13.0411 10.5409 12.1062V11.1447C7.78371 13.0688 9.13517 17.4356 12.5155 17.4356C14.4241 17.4356 15.9712 15.8885 15.9712 13.9799C15.9712 12.8058 15.3851 11.7691 14.4903 11.1445Z" fill="#414356"/>
<path d="M47.0008 13.9798C47.0008 13.9143 47.0032 13.8495 47.0068 13.785C46.1691 13.6834 45.5197 12.9712 45.5197 12.1061V11.1445C44.6247 11.7691 44.0386 12.8057 44.0386 13.9798C44.0386 15.8884 45.5859 17.4355 47.4943 17.4355C48.0244 17.4355 48.5264 17.3159 48.9754 17.1025C47.808 16.5478 47.0008 15.3582 47.0008 13.9798ZM29.5108 13.9798C29.5108 13.9143 29.5132 13.8495 29.5168 13.785C28.6791 13.6834 28.0297 12.9712 28.0297 12.1061V11.1445C27.1347 11.7691 26.5486 12.8057 26.5486 13.9798C26.5486 15.8884 28.0959 17.4355 30.0043 17.4355C30.5344 17.4355 31.0364 17.3159 31.4854 17.1025C30.3179 16.5478 29.5108 15.3582 29.5108 13.9798ZM12.0268 13.785C11.1891 13.6834 10.5397 12.9712 10.5397 12.1061V11.1445C9.64471 11.7691 9.05859 12.8057 9.05859 13.9798C9.05859 16.525 11.717 18.1851 13.9952 17.1025C12.7574 16.5142 11.9466 15.2283 12.0268 13.785Z" fill="#2F3242"/>
<path d="M0 23.5H61.9773V27.4494H0V23.5Z" fill="#F77C79"/>
<path d="M0 23.5H2.82092V27.4494H0V23.5Z" fill="#DD6464"/>
<path d="M12.7959 1.00977C13.7308 1.00977 14.4885 1.7676 14.4885 2.70234V12.1056C14.4885 13.0405 13.7308 13.7982 12.7959 13.7982H12.2316C11.2969 13.7982 10.5391 13.0405 10.5391 12.1056V2.70234C10.5391 1.7676 11.2969 1.00977 12.2316 1.00977H12.7959ZM30.2859 1.00977C31.2208 1.00977 31.9785 1.7676 31.9785 2.70234V12.1056C31.9785 13.0405 31.2208 13.7982 30.2859 13.7982H29.7217C28.7869 13.7982 28.0291 13.0405 28.0291 12.1056V2.70234C28.0291 1.7676 28.7869 1.00977 29.7217 1.00977H30.2859ZM47.7759 1.00977C48.7108 1.00977 49.4685 1.7676 49.4685 2.70234V12.1056C49.4685 13.0405 48.7108 13.7982 47.7759 13.7982H47.2117C46.2769 13.7982 45.5191 13.0405 45.5191 12.1056V2.70234C45.5191 1.7676 46.2769 1.00977 47.2117 1.00977H47.7759Z" fill="#585A60"/>
<path d="M12.7959 1.00977C13.7308 1.00977 14.4885 1.7676 14.4885 2.70234V12.1056C14.4885 13.0405 13.7308 13.7982 12.7959 13.7982H12.2316C11.2969 13.7982 10.5391 13.0405 10.5391 12.1056V2.70234C10.5391 1.7676 11.2969 1.00977 12.2316 1.00977H12.7959ZM30.2859 1.00977C31.2208 1.00977 31.9785 1.7676 31.9785 2.70234V12.1056C31.9785 13.0405 31.2208 13.7982 30.2859 13.7982H29.7217C28.7869 13.7982 28.0291 13.0405 28.0291 12.1056V2.70234C28.0291 1.7676 28.7869 1.00977 29.7217 1.00977H30.2859ZM47.7759 1.00977C48.7108 1.00977 49.4685 1.7676 49.4685 2.70234V12.1056C49.4685 13.0405 48.7108 13.7982 47.7759 13.7982H47.2117C46.2769 13.7982 45.5191 13.0405 45.5191 12.1056V2.70234C45.5191 1.7676 46.2769 1.00977 47.2117 1.00977H47.7759Z" fill="#585A60"/>
<path d="M12.5137 12.1056V2.70234C12.5137 2.01957 12.9189 1.43277 13.5011 1.16508C13.28 1.06294 13.0394 1.00995 12.7959 1.00977H12.2316C11.2969 1.00977 10.5391 1.7676 10.5391 2.70234V12.1056C10.5391 13.0405 11.2969 13.7982 12.2316 13.7982H12.7959C13.048 13.7982 13.2863 13.7416 13.5011 13.6429C12.9189 13.3753 12.5137 12.7884 12.5137 12.1056ZM30.0037 12.1056V2.70234C30.0037 2.01957 30.4089 1.43277 30.9911 1.16508C30.77 1.06294 30.5294 1.00995 30.2859 1.00977H29.7217C28.7869 1.00977 28.0291 1.7676 28.0291 2.70234V12.1056C28.0291 13.0405 28.7869 13.7982 29.7217 13.7982H30.2859C30.538 13.7982 30.7763 13.7416 30.9911 13.6429C30.4089 13.3753 30.0037 12.7884 30.0037 12.1056ZM47.4937 12.1056V2.70234C47.4937 2.01957 47.899 1.43277 48.4811 1.16508C48.26 1.06294 48.0194 1.00995 47.7759 1.00977H47.2117C46.2769 1.00977 45.5191 1.7676 45.5191 2.70234V12.1056C45.5191 13.0405 46.2769 13.7982 47.2117 13.7982H47.7759C48.028 13.7982 48.2663 13.7416 48.4811 13.6429C47.899 13.3753 47.4937 12.7884 47.4937 12.1056Z" fill="#414356"/>
<path d="M23.0513 33.9316H19.5685C19.2879 33.9316 19.0188 34.0431 18.8204 34.2415C18.622 34.4399 18.5105 34.709 18.5105 34.9896C18.5105 35.2702 18.622 35.5392 18.8204 35.7376C19.0188 35.936 19.2879 36.0475 19.5685 36.0475H23.0513C23.3318 36.0475 23.6009 35.936 23.7993 35.7376C23.9977 35.5392 24.1092 35.2702 24.1092 34.9896C24.1092 34.709 23.9977 34.4399 23.7993 34.2415C23.6009 34.0431 23.3318 33.9316 23.0513 33.9316ZM32.7338 33.9316H29.2506C28.97 33.9316 28.701 34.0431 28.5026 34.2415C28.3042 34.4399 28.1927 34.709 28.1927 34.9896C28.1927 35.2702 28.3042 35.5392 28.5026 35.7376C28.701 35.936 28.97 36.0475 29.2506 36.0475H32.7338C33.0114 36.043 33.2762 35.9296 33.471 35.7317C33.6657 35.5338 33.7749 35.2672 33.7749 34.9896C33.7749 34.7119 33.6657 34.4454 33.471 34.2474C33.2762 34.0495 33.0114 33.9361 32.7338 33.9316ZM42.4162 33.9316H38.9329C38.6523 33.9316 38.3832 34.0431 38.1848 34.2415C37.9864 34.4399 37.875 34.709 37.875 34.9896C37.875 35.2702 37.9864 35.5392 38.1848 35.7376C38.3832 35.936 38.6523 36.0475 38.9329 36.0475H42.4162C42.6968 36.0475 42.9659 35.936 43.1643 35.7376C43.3627 35.5392 43.4742 35.2702 43.4742 34.9896C43.4742 34.709 43.3627 34.4399 43.1643 34.2415C42.9659 34.0431 42.6968 33.9316 42.4162 33.9316ZM52.0984 33.9316H48.6152C48.3346 33.9316 48.0655 34.0431 47.8671 34.2415C47.6687 34.4399 47.5573 34.709 47.5573 34.9896C47.5573 35.2702 47.6687 35.5392 47.8671 35.7376C48.0655 35.936 48.3346 36.0475 48.6152 36.0475H52.0984C52.376 36.043 52.6408 35.9296 52.8355 35.7317C53.0303 35.5338 53.1394 35.2672 53.1394 34.9896C53.1394 34.7119 53.0303 34.4454 52.8355 34.2474C52.6408 34.0495 52.376 33.9361 52.0984 33.9316ZM13.3692 42.4547H9.88605C9.60547 42.4547 9.33639 42.5661 9.13799 42.7645C8.93959 42.9629 8.82812 43.232 8.82812 43.5126C8.82812 43.7932 8.93959 44.0623 9.13799 44.2607C9.33639 44.4591 9.60547 44.5705 9.88605 44.5705H13.3692C13.6498 44.5705 13.9189 44.4591 14.1173 44.2607C14.3157 44.0623 14.4272 43.7932 14.4272 43.5126C14.4272 43.232 14.3157 42.9629 14.1173 42.7645C13.9189 42.5661 13.6498 42.4547 13.3692 42.4547ZM23.0513 42.4547H19.5685C19.2879 42.4547 19.0188 42.5661 18.8204 42.7645C18.622 42.9629 18.5105 43.232 18.5105 43.5126C18.5105 43.7932 18.622 44.0623 18.8204 44.2607C19.0188 44.4591 19.2879 44.5705 19.5685 44.5705H23.0513C23.1902 44.5706 23.3278 44.5432 23.4561 44.4901C23.5845 44.4369 23.7011 44.359 23.7994 44.2607C23.8976 44.1625 23.9755 44.0459 24.0287 43.9175C24.0818 43.7891 24.1092 43.6516 24.1092 43.5126C24.1092 43.3737 24.0818 43.2361 24.0287 43.1077C23.9755 42.9794 23.8976 42.8628 23.7994 42.7645C23.7011 42.6663 23.5845 42.5883 23.4561 42.5352C23.3278 42.482 23.1902 42.4547 23.0513 42.4547ZM32.7338 42.4547H29.2506C28.97 42.4547 28.701 42.5661 28.5026 42.7645C28.3042 42.9629 28.1927 43.232 28.1927 43.5126C28.1927 43.7932 28.3042 44.0623 28.5026 44.2607C28.701 44.4591 28.97 44.5705 29.2506 44.5705H32.7338C33.0144 44.5705 33.2835 44.4591 33.4819 44.2607C33.6803 44.0623 33.7917 43.7932 33.7917 43.5126C33.7917 43.232 33.6803 42.9629 33.4819 42.7645C33.2835 42.5661 33.0144 42.4547 32.7338 42.4547ZM42.4162 42.4547H38.9329C38.6523 42.4547 38.3832 42.5661 38.1848 42.7645C37.9864 42.9629 37.875 43.232 37.875 43.5126C37.875 43.7932 37.9864 44.0623 38.1848 44.2607C38.3832 44.4591 38.6523 44.5705 38.9329 44.5705H42.4162C42.6968 44.5705 42.9659 44.4591 43.1643 44.2607C43.3627 44.0623 43.4742 43.7932 43.4742 43.5126C43.4742 43.232 43.3627 42.9629 43.1643 42.7645C42.9659 42.5661 42.6968 42.4547 42.4162 42.4547ZM52.0984 42.4547H48.6152C48.3346 42.4547 48.0655 42.5661 47.8671 42.7645C47.6687 42.9629 47.5573 43.232 47.5573 43.5126C47.5573 43.7932 47.6687 44.0623 47.8671 44.2607C48.0655 44.4591 48.3346 44.5705 48.6152 44.5705H52.0984C52.379 44.5705 52.648 44.4591 52.8464 44.2607C53.0448 44.0623 53.1563 43.7932 53.1563 43.5126C53.1563 43.232 53.0448 42.9629 52.8464 42.7645C52.648 42.5661 52.379 42.4547 52.0984 42.4547ZM13.3692 50.9777H9.88605C9.60547 50.9777 9.33639 51.0892 9.13799 51.2876C8.93959 51.486 8.82812 51.7551 8.82812 52.0357C8.82812 52.3162 8.93959 52.5853 9.13799 52.7837C9.33639 52.9821 9.60547 53.0936 9.88605 53.0936H13.3692C13.9536 53.0936 14.4272 52.62 14.4272 52.0357C14.4272 51.4513 13.9536 50.9777 13.3692 50.9777ZM23.0513 50.9777H19.5685C19.2879 50.9777 19.0188 51.0892 18.8204 51.2876C18.622 51.486 18.5105 51.7551 18.5105 52.0357C18.5105 52.3162 18.622 52.5853 18.8204 52.7837C19.0188 52.9821 19.2879 53.0936 19.5685 53.0936H23.0513C23.6356 53.0936 24.1092 52.62 24.1092 52.0357C24.1092 51.4513 23.6356 50.9777 23.0513 50.9777ZM32.7338 50.9777H29.2506C28.97 50.9777 28.701 51.0892 28.5026 51.2876C28.3042 51.486 28.1927 51.7551 28.1927 52.0357C28.1927 52.3162 28.3042 52.5853 28.5026 52.7837C28.701 52.9821 28.97 53.0936 29.2506 53.0936H32.7338C33.3181 53.0936 33.7917 52.62 33.7917 52.0357C33.7917 51.4513 33.3181 50.9777 32.7338 50.9777ZM42.4162 50.9777H38.9329C38.6523 50.9777 38.3832 51.0892 38.1848 51.2876C37.9864 51.486 37.875 51.7551 37.875 52.0357C37.875 52.3162 37.9864 52.5853 38.1848 52.7837C38.3832 52.9821 38.6523 53.0936 38.9329 53.0936H42.4162C42.6968 53.0936 42.9659 52.9821 43.1643 52.7837C43.3627 52.5853 43.4742 52.3162 43.4742 52.0357C43.4742 51.7551 43.3627 51.486 43.1643 51.2876C42.9659 51.0892 42.6968 50.9777 42.4162 50.9777ZM52.0984 50.9777H48.6152C48.3346 50.9777 48.0655 51.0892 47.8671 51.2876C47.6687 51.486 47.5573 51.7551 47.5573 52.0357C47.5573 52.3162 47.6687 52.5853 47.8671 52.7837C48.0655 52.9821 48.3346 53.0936 48.6152 53.0936H52.0984C52.6827 53.0936 53.1563 52.62 53.1563 52.0357C53.1563 51.4513 52.6827 50.9777 52.0984 50.9777ZM13.3692 59.5009H9.88605C9.60547 59.5009 9.33639 59.6124 9.13799 59.8108C8.93959 60.0092 8.82812 60.2783 8.82812 60.5588C8.82812 60.8394 8.93959 61.1085 9.13799 61.3069C9.33639 61.5053 9.60547 61.6168 9.88605 61.6168H13.3692C13.6498 61.6168 13.9189 61.5053 14.1173 61.3069C14.3157 61.1085 14.4272 60.8394 14.4272 60.5588C14.4272 60.2783 14.3157 60.0092 14.1173 59.8108C13.9189 59.6124 13.6498 59.5009 13.3692 59.5009ZM23.0513 59.5009H19.5685C19.2879 59.5009 19.0188 59.6124 18.8204 59.8108C18.622 60.0092 18.5105 60.2783 18.5105 60.5588C18.5105 60.8394 18.622 61.1085 18.8204 61.3069C19.0188 61.5053 19.2879 61.6168 19.5685 61.6168H23.0513C23.1902 61.6168 23.3278 61.5894 23.4561 61.5363C23.5845 61.4831 23.7011 61.4052 23.7994 61.307C23.8976 61.2087 23.9755 61.0921 24.0287 60.9637C24.0818 60.8354 24.1092 60.6978 24.1092 60.5588C24.1092 60.4199 24.0818 60.2823 24.0287 60.154C23.9755 60.0256 23.8976 59.909 23.7994 59.8107C23.7011 59.7125 23.5845 59.6346 23.4561 59.5814C23.3278 59.5283 23.1902 59.5009 23.0513 59.5009ZM32.7338 59.5009H29.2506C28.97 59.5009 28.701 59.6124 28.5026 59.8108C28.3042 60.0092 28.1927 60.2783 28.1927 60.5588C28.1927 60.8394 28.3042 61.1085 28.5026 61.3069C28.701 61.5053 28.97 61.6168 29.2506 61.6168H32.7338C33.0144 61.6168 33.2835 61.5053 33.4819 61.3069C33.6803 61.1085 33.7917 60.8394 33.7917 60.5588C33.7917 60.2783 33.6803 60.0092 33.4819 59.8108C33.2835 59.6124 33.0144 59.5009 32.7338 59.5009ZM42.4162 59.5009H38.9329C38.6523 59.5009 38.3832 59.6124 38.1848 59.8108C37.9864 60.0092 37.875 60.2783 37.875 60.5588C37.875 60.8394 37.9864 61.1085 38.1848 61.3069C38.3832 61.5053 38.6523 61.6168 38.9329 61.6168H42.4162C42.6968 61.6168 42.9659 61.5053 43.1643 61.3069C43.3627 61.1085 43.4742 60.8394 43.4742 60.5588C43.4742 60.2783 43.3627 60.0092 43.1643 59.8108C42.9659 59.6124 42.6968 59.5009 42.4162 59.5009Z" fill="#585A60"/>
</g>
<defs>
<clipPath id="clip0_1017_3541">
<rect width="70" height="70" fill="white"/>
</clipPath>
</defs>
</svg>
