<svg width="70" height="70" viewBox="0 0 70 70" fill="none" xmlns="http://www.w3.org/2000/svg">
<path d="M62.1962 30.3325L62.7562 29.7725C63.6302 28.896 64.121 27.7086 64.121 26.4708C64.121 25.233 63.6302 24.0457 62.7562 23.1691L42.1295 2.53081C41.2547 1.65808 40.0694 1.16797 38.8337 1.16797C37.5979 1.16797 36.4127 1.65808 35.5378 2.53081L2.53283 35.5475C1.65867 36.4263 1.16797 37.6154 1.16797 38.855C1.16797 40.0945 1.65867 41.2837 2.53283 42.1625L12.8345 52.4641L62.1962 30.3325Z" fill="#50AD64"/>
<path d="M3.33203 42.9619L42.9404 3.35352L47.887 8.30018L8.2787 47.9085L3.33203 42.9619Z" fill="#449956"/>
<path d="M64.1693 30.332H17.5026C14.9253 30.332 12.8359 32.4214 12.8359 34.9987V64.1654C12.8359 66.7427 14.9253 68.832 17.5026 68.832H64.1693C66.7466 68.832 68.8359 66.7427 68.8359 64.1654V34.9987C68.8359 32.4214 66.7466 30.332 64.1693 30.332Z" fill="#5FC77D"/>
<path d="M25.6667 36.166H18.6667C18.0223 36.166 17.5 36.6884 17.5 37.3327V41.9993C17.5 42.6437 18.0223 43.166 18.6667 43.166H25.6667C26.311 43.166 26.8333 42.6437 26.8333 41.9993V37.3327C26.8333 36.6884 26.311 36.166 25.6667 36.166Z" fill="#FDE05E"/>
<path d="M17.5026 51.3327C17.1932 51.3327 16.8964 51.2098 16.6776 50.991C16.4589 50.7722 16.3359 50.4754 16.3359 50.166V47.8327C16.3359 47.5233 16.4589 47.2265 16.6776 47.0077C16.8964 46.7889 17.1932 46.666 17.5026 46.666C17.812 46.666 18.1088 46.7889 18.3276 47.0077C18.5464 47.2265 18.6693 47.5233 18.6693 47.8327V50.166C18.6693 50.4754 18.5464 50.7722 18.3276 50.991C18.1088 51.2098 17.812 51.3327 17.5026 51.3327ZM22.1693 51.3327C21.8599 51.3327 21.5631 51.2098 21.3443 50.991C21.1255 50.7722 21.0026 50.4754 21.0026 50.166V47.8327C21.0026 47.5233 21.1255 47.2265 21.3443 47.0077C21.5631 46.7889 21.8599 46.666 22.1693 46.666C22.4787 46.666 22.7754 46.7889 22.9942 47.0077C23.213 47.2265 23.3359 47.5233 23.3359 47.8327V50.166C23.3359 50.4754 23.213 50.7722 22.9942 50.991C22.7754 51.2098 22.4787 51.3327 22.1693 51.3327ZM26.8359 51.3327C26.5265 51.3327 26.2298 51.2098 26.011 50.991C25.7922 50.7722 25.6693 50.4754 25.6693 50.166V47.8327C25.6693 47.5233 25.7922 47.2265 26.011 47.0077C26.2298 46.7889 26.5265 46.666 26.8359 46.666C27.1454 46.666 27.4421 46.7889 27.6609 47.0077C27.8797 47.2265 28.0026 47.5233 28.0026 47.8327V50.166C28.0026 50.4754 27.8797 50.7722 27.6609 50.991C27.4421 51.2098 27.1454 51.3327 26.8359 51.3327ZM31.5026 51.3327C31.1932 51.3327 30.8964 51.2098 30.6776 50.991C30.4589 50.7722 30.3359 50.4754 30.3359 50.166V47.8327C30.3359 47.5233 30.4589 47.2265 30.6776 47.0077C30.8964 46.7889 31.1932 46.666 31.5026 46.666C31.812 46.666 32.1088 46.7889 32.3276 47.0077C32.5464 47.2265 32.6693 47.5233 32.6693 47.8327V50.166C32.6693 50.4754 32.5464 50.7722 32.3276 50.991C32.1088 51.2098 31.812 51.3327 31.5026 51.3327ZM36.1693 51.3327C35.8599 51.3327 35.5631 51.2098 35.3443 50.991C35.1255 50.7722 35.0026 50.4754 35.0026 50.166V47.8327C35.0026 47.5233 35.1255 47.2265 35.3443 47.0077C35.5631 46.7889 35.8599 46.666 36.1693 46.666C36.4787 46.666 36.7754 46.7889 36.9942 47.0077C37.213 47.2265 37.3359 47.5233 37.3359 47.8327V50.166C37.3359 50.4754 37.213 50.7722 36.9942 50.991C36.7754 51.2098 36.4787 51.3327 36.1693 51.3327ZM45.5026 51.3327C45.1932 51.3327 44.8964 51.2098 44.6776 50.991C44.4589 50.7722 44.3359 50.4754 44.3359 50.166V47.8327C44.3359 47.5233 44.4589 47.2265 44.6776 47.0077C44.8964 46.7889 45.1932 46.666 45.5026 46.666C45.812 46.666 46.1088 46.7889 46.3276 47.0077C46.5464 47.2265 46.6693 47.5233 46.6693 47.8327V50.166C46.6693 50.4754 46.5464 50.7722 46.3276 50.991C46.1088 51.2098 45.812 51.3327 45.5026 51.3327ZM50.1693 51.3327C49.8599 51.3327 49.5631 51.2098 49.3443 50.991C49.1255 50.7722 49.0026 50.4754 49.0026 50.166V47.8327C49.0026 47.5233 49.1255 47.2265 49.3443 47.0077C49.5631 46.7889 49.8599 46.666 50.1693 46.666C50.4787 46.666 50.7754 46.7889 50.9942 47.0077C51.213 47.2265 51.3359 47.5233 51.3359 47.8327V50.166C51.3359 50.4754 51.213 50.7722 50.9942 50.991C50.7754 51.2098 50.4787 51.3327 50.1693 51.3327ZM54.8359 51.3327C54.5265 51.3327 54.2298 51.2098 54.011 50.991C53.7922 50.7722 53.6693 50.4754 53.6693 50.166V47.8327C53.6693 47.5233 53.7922 47.2265 54.011 47.0077C54.2298 46.7889 54.5265 46.666 54.8359 46.666C55.1454 46.666 55.4421 46.7889 55.6609 47.0077C55.8797 47.2265 56.0026 47.5233 56.0026 47.8327V50.166C56.0026 50.4754 55.8797 50.7722 55.6609 50.991C55.4421 51.2098 55.1454 51.3327 54.8359 51.3327ZM59.5026 51.3327C59.1932 51.3327 58.8964 51.2098 58.6776 50.991C58.4589 50.7722 58.3359 50.4754 58.3359 50.166V47.8327C58.3359 47.5233 58.4589 47.2265 58.6776 47.0077C58.8964 46.7889 59.1932 46.666 59.5026 46.666C59.812 46.666 60.1088 46.7889 60.3276 47.0077C60.5464 47.2265 60.6693 47.5233 60.6693 47.8327V50.166C60.6693 50.4754 60.5464 50.7722 60.3276 50.991C60.1088 51.2098 59.812 51.3327 59.5026 51.3327Z" fill="#E1EFFF"/>
<path d="M22.1693 55.9993H17.5026C17.1932 55.9993 16.8964 55.8764 16.6776 55.6576C16.4589 55.4388 16.3359 55.1421 16.3359 54.8327C16.3359 54.5233 16.4589 54.2265 16.6776 54.0077C16.8964 53.7889 17.1932 53.666 17.5026 53.666H22.1693C22.4787 53.666 22.7754 53.7889 22.9942 54.0077C23.213 54.2265 23.3359 54.5233 23.3359 54.8327C23.3359 55.1421 23.213 55.4388 22.9942 55.6576C22.7754 55.8764 22.4787 55.9993 22.1693 55.9993ZM31.5026 55.9993H26.8359C26.5265 55.9993 26.2298 55.8764 26.011 55.6576C25.7922 55.4388 25.6693 55.1421 25.6693 54.8327C25.6693 54.5233 25.7922 54.2265 26.011 54.0077C26.2298 53.7889 26.5265 53.666 26.8359 53.666H31.5026C31.812 53.666 32.1088 53.7889 32.3276 54.0077C32.5464 54.2265 32.6693 54.5233 32.6693 54.8327C32.6693 55.1421 32.5464 55.4388 32.3276 55.6576C32.1088 55.8764 31.812 55.9993 31.5026 55.9993ZM22.1693 60.666H17.5026C17.1932 60.666 16.8964 60.5431 16.6776 60.3243C16.4589 60.1055 16.3359 59.8088 16.3359 59.4993C16.3359 59.1899 16.4589 58.8932 16.6776 58.6744C16.8964 58.4556 17.1932 58.3327 17.5026 58.3327H22.1693C22.4787 58.3327 22.7754 58.4556 22.9942 58.6744C23.213 58.8932 23.3359 59.1899 23.3359 59.4993C23.3359 59.8088 23.213 60.1055 22.9942 60.3243C22.7754 60.5431 22.4787 60.666 22.1693 60.666ZM31.5026 60.666H26.8359C26.5265 60.666 26.2298 60.5431 26.011 60.3243C25.7922 60.1055 25.6693 59.8088 25.6693 59.4993C25.6693 59.1899 25.7922 58.8932 26.011 58.6744C26.2298 58.4556 26.5265 58.3327 26.8359 58.3327H31.5026C31.812 58.3327 32.1088 58.4556 32.3276 58.6744C32.5464 58.8932 32.6693 59.1899 32.6693 59.4993C32.6693 59.8088 32.5464 60.1055 32.3276 60.3243C32.1088 60.5431 31.812 60.666 31.5026 60.666ZM40.8359 55.9993H36.1693C35.8599 55.9993 35.5631 55.8764 35.3443 55.6576C35.1255 55.4388 35.0026 55.1421 35.0026 54.8327C35.0026 54.5233 35.1255 54.2265 35.3443 54.0077C35.5631 53.7889 35.8599 53.666 36.1693 53.666H40.8359C41.1454 53.666 41.4421 53.7889 41.6609 54.0077C41.8797 54.2265 42.0026 54.5233 42.0026 54.8327C42.0026 55.1421 41.8797 55.4388 41.6609 55.6576C41.4421 55.8764 41.1454 55.9993 40.8359 55.9993Z" fill="#50AD64"/>
</svg>
