<svg width="40" height="70" viewBox="0 0 40 70" fill="none" xmlns="http://www.w3.org/2000/svg">
<path d="M24.3026 40.3701L15.3425 43.6612L8.89469 26.1069C8.01259 23.7054 9.24428 21.0435 11.6459 20.1614L11.9095 20.0646C14.3109 19.1825 16.9729 20.4142 17.855 22.8158L24.3026 40.3701Z" fill="#FFCBBE"/>
<path d="M39.3083 53.1958C39.3069 54.2819 38.8926 55.3665 38.0644 56.1961L30.5353 63.7252C28.9759 65.2831 27.0518 66.2523 25.0374 66.6326C24.0979 66.8101 23.2541 67.3144 22.6737 68.0652C22.6173 68.1368 22.5638 68.2105 22.5132 68.2862C22.1624 68.8132 21.6873 69.2457 21.1299 69.5456C20.5723 69.8443 19.9495 70.0006 19.317 70.0004H2.8094C1.45288 70.0004 0.448544 68.7411 0.748642 67.4198L1.94179 62.1671C3.03212 57.3721 3.60962 52.4617 3.44761 47.5471C3.35464 44.727 4.38427 41.8789 6.53677 39.7264L25.3151 20.9481C26.9716 19.2914 29.6578 19.2901 31.3158 20.9481C31.71 21.3416 32.0227 21.8091 32.2359 22.3237C32.4491 22.8383 32.5586 23.3899 32.5582 23.947C32.5582 25.0344 32.1441 26.1192 31.3158 26.9474L23.0655 35.1963C24.722 33.5412 27.4083 33.5397 29.0649 35.1963C29.8945 36.0246 30.3086 37.1107 30.3086 38.1966C30.3072 39.2827 29.8945 40.3673 29.0649 41.1956L27.5647 42.6958C29.2211 41.0393 31.9089 41.0393 33.5654 42.6958C34.3936 43.5255 34.8077 44.6101 34.8092 45.6962C34.8077 46.7823 34.3936 47.8683 33.5654 48.6965L32.0652 50.1967C33.7216 48.5402 36.4079 48.5387 38.0645 50.1953C38.4592 50.5889 38.7722 51.0566 38.9857 51.5715C39.1991 52.0864 39.3087 52.6384 39.3083 53.1958Z" fill="#FFDDCF"/>
<path d="M22.6738 68.0652C22.6175 68.1368 22.5639 68.2105 22.5133 68.2863C22.1625 68.8132 21.6874 69.2457 21.13 69.5456C20.5724 69.8443 19.9497 70.0006 19.3171 70.0004H2.8094C1.45288 70.0004 0.448544 68.7411 0.748642 67.4199L1.94179 62.1671C3.03212 57.3721 3.60962 52.4618 3.44761 47.5471C3.35464 44.727 4.38427 41.8789 6.53677 39.7264L10.2302 36.0331C9.17216 41.7169 7.46358 58.826 22.6738 68.0652ZM29.8145 53.5022C29.6056 53.5021 29.4014 53.44 29.2277 53.3239C29.054 53.2077 28.9187 53.0427 28.8388 52.8497C28.7589 52.6567 28.738 52.4443 28.7787 52.2394C28.8195 52.0344 28.92 51.8462 29.0677 51.6984L31.3183 49.449C31.5164 49.2509 31.7852 49.1397 32.0654 49.1398C32.3456 49.1399 32.6143 49.2512 32.8123 49.4494C33.0104 49.6476 33.1216 49.9163 33.1216 50.1965C33.1215 50.4767 33.0101 50.7454 32.8119 50.9435L30.5614 53.1929C30.4634 53.2912 30.347 53.3691 30.2188 53.4221C30.0906 53.4752 29.9532 53.5024 29.8145 53.5022ZM23.8149 47.5025C23.6059 47.5025 23.4017 47.4405 23.228 47.3244C23.0543 47.2083 22.9189 47.0433 22.839 46.8502C22.759 46.6572 22.7381 46.4448 22.7789 46.2399C22.8196 46.0349 22.9203 45.8467 23.068 45.699L26.8179 41.9492C27.0174 41.7579 27.284 41.6525 27.5603 41.6555C27.8367 41.6584 28.1009 41.7695 28.2963 41.965C28.4917 42.1604 28.6028 42.4246 28.6057 42.701C28.6086 42.9774 28.5031 43.2439 28.3118 43.4434L24.5619 47.1932C24.4639 47.2914 24.3474 47.3693 24.2192 47.4223C24.091 47.4754 23.9536 47.5027 23.8149 47.5025ZM17.8151 41.5028C17.6062 41.5027 17.4019 41.4407 17.2282 41.3246C17.0545 41.2085 16.9192 41.0435 16.8392 40.8505C16.7593 40.6574 16.7384 40.445 16.7791 40.2401C16.8199 40.0352 16.9205 39.8469 17.0682 39.6992L22.3185 34.45C22.518 34.2588 22.7845 34.1534 23.0609 34.1563C23.3373 34.1593 23.6015 34.2704 23.7969 34.4658C23.9923 34.6613 24.1033 34.9255 24.1062 35.2018C24.1092 35.4782 24.0037 35.7447 23.8124 35.9442L18.5621 41.1934C18.4641 41.2916 18.3477 41.3695 18.2195 41.4226C18.0913 41.4757 17.9539 41.503 17.8151 41.5028Z" fill="#FFCBBE"/>
<path d="M30.6062 6.22754C30.6062 7.33893 30.3259 8.45592 29.7483 9.45328C28.1931 12.1353 25.3915 15.2667 20.4302 16.9006C20.1513 16.9922 19.8499 16.9922 19.5709 16.9006C19.3107 16.8149 19.0523 16.7233 18.7962 16.626C14.314 14.9342 11.7249 11.993 10.2529 9.45328C8.83866 7.01217 9.20479 3.84973 11.1093 1.82137C12.2447 0.611406 13.7393 0 15.2381 0C16.4734 0 17.7102 0.416992 18.7525 1.25658C18.8469 1.3326 18.9412 1.41285 19.0328 1.49598L19.061 1.52141C19.6018 2.01441 20.3992 2.01441 20.94 1.52141L20.9682 1.49598C23.2826 -0.617012 26.7351 -0.476055 28.8917 1.82137C30.0189 3.02148 30.6062 4.61754 30.6062 6.22754Z" fill="#FB695B"/>
<path d="M18.7962 16.626C14.314 14.9342 11.7249 11.993 10.2529 9.45328C8.83866 7.01217 9.20479 3.84973 11.1093 1.82137C12.2446 0.611406 13.7392 0 15.2379 0C16.4733 0 17.7101 0.416992 18.7524 1.25658C16.7368 3.22861 13.4941 8.15732 18.7962 16.626Z" fill="#F54432"/>
</svg>
