<svg width="80" height="80" viewBox="0 0 80 80" fill="none" xmlns="http://www.w3.org/2000/svg">
<g clip-path="url(#clip0_1017_315)">
<path d="M65.6977 52.7966L39.0517 47.7832L2.04297 54.9646C2.14641 55.5335 2.40046 56.0643 2.77867 56.5016C3.15689 56.939 3.64543 57.267 4.19344 57.4515L14.8397 61.0265H66.727L65.6977 52.7966Z" fill="#DFF6FD"/>
<path d="M66.7288 61.0267L73.8338 59.1708C74.6377 58.9612 75.3666 58.5301 75.9375 57.9265C76.5083 57.3229 76.8982 56.5711 77.0627 55.7567L77.222 54.9648L65.6992 52.7969L66.7288 61.0267Z" fill="#C8EFFE"/>
<path d="M77.2228 54.9656H77.2213H77.2228ZM0.0611121 44.0232L0.146425 44.4965L2.89002 47.8321L1.33924 51.0718L2.04424 54.9656H77.2216L78.0388 50.9204L76.6555 47.784L79.3058 44.6476L79.9225 41.5942C80.2992 39.7237 79.2706 37.8534 77.487 37.174L67.908 33.5185L63.0163 16.152C62.3885 13.921 60.3892 12.3515 58.073 12.2695L52.3297 12.0651L30.4144 11.2828C27.8985 11.1926 25.6627 12.8763 25.051 15.3182L20.3766 34.0159L2.61877 39.751C0.816112 40.3323 -0.276857 42.1592 0.0611121 44.0232Z" fill="#6ED5A1"/>
<path d="M52.3281 12.0645C53.2676 12.3097 54.1163 12.8207 54.7727 13.5362C55.4291 14.2516 55.8652 15.1412 56.0287 16.0982L59.0952 34.0152L68.4423 39.9005C68.9804 40.2388 69.4295 40.7012 69.7519 41.2489C70.0742 41.7967 70.2605 42.4137 70.295 43.0484C70.4375 45.6954 70.2764 50.431 68.0175 54.9649H77.2198L78.037 50.9198L76.6537 47.7834L79.3041 44.647L79.9208 41.5935C80.2975 39.723 79.2689 37.8527 77.4853 37.1734L67.9062 33.5179L63.0145 16.1513C62.3867 13.9204 60.3875 12.3509 58.0712 12.2688L52.3281 12.0645Z" fill="#46CC8D"/>
<path d="M0.144531 44.4961L1.33734 51.0716H4.33766C5.53844 51.0716 6.44313 49.9786 6.22094 48.7972L5.70109 46.0559C5.53047 45.1513 4.73859 44.4963 3.81781 44.4963H0.144531V44.4961Z" fill="#FFE177"/>
<path d="M56.7178 17.4516L48.2328 17.1591C47.1853 17.123 46.3166 17.9623 46.3166 19.0103V32.1636C46.3166 33.1866 47.146 34.0159 48.1689 34.0159H60.9224C61.9021 34.0159 62.6106 33.0802 62.345 32.1372L58.6316 18.9536C58.5135 18.5324 58.2643 18.1598 57.9203 17.8897C57.5762 17.6197 57.155 17.4662 56.7178 17.4516ZM27.7005 34.0161H40.4339C41.4569 34.0161 42.2863 33.1867 42.2863 32.1637V18.745C42.2863 17.7469 41.4953 16.9281 40.4977 16.8937L31.5497 16.5853C31.0776 16.5684 30.6141 16.7142 30.2367 16.9982C29.8593 17.2823 29.5909 17.6873 29.4764 18.1456L26.0403 31.8916C25.77 32.9703 26.5867 34.0161 27.7005 34.0161Z" fill="#99E6FC"/>
<path d="M22.7155 68.72C28.4199 68.72 33.0442 64.0957 33.0442 58.3912C33.0442 52.6868 28.4199 48.0625 22.7155 48.0625C17.0111 48.0625 12.3867 52.6868 12.3867 58.3912C12.3867 64.0957 17.0111 68.72 22.7155 68.72Z" fill="#017297"/>
<path d="M19.2383 68.1205C20.3547 68.5188 21.5314 68.7219 22.7167 68.7209C28.4214 68.7209 33.0459 64.0964 33.0459 58.3917C33.0459 52.687 28.4214 48.0625 22.7167 48.0625C21.5314 48.0616 20.3547 48.2647 19.2383 48.663C23.2319 50.0908 26.0889 53.9072 26.0889 58.3917C26.0891 62.8761 23.2319 66.6927 19.2383 68.1205Z" fill="#025F80"/>
<path d="M22.7169 63.3927C25.4794 63.3927 27.7189 61.1532 27.7189 58.3907C27.7189 55.6282 25.4794 53.3887 22.7169 53.3887C19.9543 53.3887 17.7148 55.6282 17.7148 58.3907C17.7148 61.1532 19.9543 63.3927 22.7169 63.3927Z" fill="#DFF6FD"/>
<path d="M42.2866 39.7073H38.7111C38.3909 39.7073 38.0839 39.5802 37.8575 39.3538C37.6311 39.1274 37.5039 38.8203 37.5039 38.5002C37.5039 38.18 37.6311 37.8729 37.8575 37.6465C38.0839 37.4202 38.3909 37.293 38.7111 37.293H42.2866C42.6067 37.293 42.9138 37.4202 43.1402 37.6465C43.3666 37.8729 43.4938 38.18 43.4938 38.5002C43.4938 38.8203 43.3666 39.1274 43.1402 39.3538C42.9138 39.5802 42.6067 39.7073 42.2866 39.7073ZM60.8844 39.7073H57.3091C56.9889 39.7073 56.6818 39.5802 56.4555 39.3538C56.2291 39.1274 56.1019 38.8203 56.1019 38.5002C56.1019 38.18 56.2291 37.8729 56.4555 37.6465C56.6818 37.4202 56.9889 37.293 57.3091 37.293H60.8844C61.2045 37.293 61.5116 37.4202 61.738 37.6465C61.9644 37.8729 62.0916 38.18 62.0916 38.5002C62.0916 38.8203 61.9644 39.1274 61.738 39.3538C61.5116 39.5802 61.2045 39.7073 60.8844 39.7073Z" fill="#46CC8D"/>
<path d="M58.7897 68.72C64.4941 68.72 69.1184 64.0957 69.1184 58.3912C69.1184 52.6868 64.4941 48.0625 58.7897 48.0625C53.0853 48.0625 48.4609 52.6868 48.4609 58.3912C48.4609 64.0957 53.0853 68.72 58.7897 68.72Z" fill="#017297"/>
<path d="M55.3125 68.1205C56.4289 68.5188 57.6056 68.7219 58.7909 68.7209C64.4956 68.7209 69.1202 64.0964 69.1202 58.3917C69.1202 52.687 64.4956 48.0625 58.7909 48.0625C57.6056 48.0616 56.4289 48.2647 55.3125 48.663C59.3061 50.0908 62.1631 53.9072 62.1631 58.3917C62.1633 62.8761 59.3061 66.6927 55.3125 68.1205Z" fill="#025F80"/>
<path d="M58.7911 63.3927C61.5536 63.3927 63.7931 61.1532 63.7931 58.3907C63.7931 55.6282 61.5536 53.3887 58.7911 53.3887C56.0285 53.3887 53.7891 55.6282 53.7891 58.3907C53.7891 61.1532 56.0285 63.3927 58.7911 63.3927Z" fill="#DFF6FD"/>
<path d="M75.458 50.9212H78.0384L79.3051 44.6484H75.8895C75.1587 44.6484 74.5405 45.1925 74.4488 45.9169L74.0159 49.2827C73.9048 50.1519 74.5824 50.9212 75.458 50.9212Z" fill="#F37C7C"/>
</g>
<defs>
<clipPath id="clip0_1017_315">
<rect width="80" height="80" fill="white"/>
</clipPath>
</defs>
</svg>
