<svg width="70" height="70" viewBox="0 0 70 70" fill="none" xmlns="http://www.w3.org/2000/svg">
<g clip-path="url(#clip0_1014_750)">
<path d="M25.8195 54.7143C20.3297 54.7143 16.3126 53.3831 12.5838 51.7148C8.86748 54.4837 7.34539 58.9053 7.69266 61.8457C12.406 63.9774 18.0971 65.9609 25.8195 65.9609C28.9251 65.9609 31.4429 63.4433 31.4429 60.3376C31.4428 57.2319 28.9251 54.7143 25.8195 54.7143Z" fill="#6AD5BC"/>
<path d="M10.5204 50.7531C7.72055 49.4082 4.36151 50.5878 3.01674 53.3871C1.67198 56.1866 2.85118 59.5461 5.65063 60.8908C6.32753 61.2169 7.00816 61.5352 7.69239 61.8456C9.44895 60.1898 12.3823 56.2671 12.5835 51.7148C11.8884 51.4037 11.2032 51.0811 10.5204 50.7531Z" fill="#FFDACC"/>
<path d="M44.182 54.7143C49.6718 54.7143 53.6888 53.3831 57.4177 51.7148C61.134 54.4837 62.6561 58.9053 62.3088 61.8457C57.5956 63.9774 51.9044 65.9609 44.182 65.9609C41.0764 65.9609 38.5586 63.4433 38.5586 60.3376C38.5586 57.2319 41.0764 54.7143 44.182 54.7143Z" fill="#6AD5BC"/>
<path d="M59.4811 50.7531C62.2809 49.4082 65.64 50.5878 66.9847 53.3871C68.3295 56.1866 67.1503 59.5461 64.3508 60.8908C63.6739 61.2169 62.9933 61.5352 62.3091 61.8456C60.5525 60.1898 57.6192 56.2671 57.418 51.7148C58.113 51.4037 58.7983 51.0811 59.4811 50.7531Z" fill="#FFDACC"/>
<path d="M51.3904 66.3421C50.9023 63.4164 49.6493 60.7499 47.8447 58.5539C43.781 58.5539 39.5187 57.5586 35.0005 57.5586C30.4824 57.5586 26.22 58.5539 22.1564 58.5539C20.3517 60.7499 19.0988 63.4164 18.6107 66.3421C18.3698 67.7857 19.4968 69.0968 20.9603 69.0968H49.0409C50.5043 69.097 51.6313 67.7857 51.3904 66.3421Z" fill="#8CE0DF"/>
<path d="M8.60166 42.82C13.3522 42.82 17.2033 39.2209 17.2033 34.7811C17.2033 30.3413 13.3522 26.7422 8.60166 26.7422C3.85109 26.7422 0 30.3413 0 34.7811C0 39.2209 3.85109 42.82 8.60166 42.82Z" fill="#FFC8BB"/>
<path d="M61.3985 42.82C66.1491 42.82 70.0002 39.2209 70.0002 34.7811C70.0002 30.3413 66.1491 26.7422 61.3985 26.7422C56.648 26.7422 52.7969 30.3413 52.7969 34.7811C52.7969 39.2209 56.648 42.82 61.3985 42.82Z" fill="#FFC8BB"/>
<path d="M5.50721 35.5682C5.2787 35.5685 5.05665 35.4924 4.87628 35.3521C4.69592 35.2118 4.56759 35.0153 4.51166 34.7937C4.45573 34.5722 4.47541 34.3383 4.56756 34.1292C4.65972 33.9201 4.81908 33.7478 5.02035 33.6396C5.38635 33.4426 8.71777 31.7538 12.9016 33.122C13.4399 33.2979 13.7336 33.8769 13.5576 34.4152C13.3817 34.9535 12.8028 35.2474 12.2643 35.0712C8.83453 33.9501 6.10685 35.3837 5.99228 35.4454C5.84331 35.526 5.67659 35.5682 5.50721 35.5682ZM64.4937 35.5682C64.3296 35.5682 64.1632 35.5288 64.0086 35.4455C63.8943 35.384 61.1662 33.9504 57.7366 35.0713C57.1977 35.2478 56.6192 34.9536 56.4433 34.4153C56.2673 33.8771 56.561 33.2981 57.0993 33.1221C61.2835 31.754 64.6147 33.4426 64.9807 33.6397C65.1819 33.748 65.3412 33.9203 65.4333 34.1294C65.5254 34.3385 65.545 34.5723 65.4891 34.7938C65.4332 35.0153 65.3048 35.2118 65.1245 35.3521C64.9442 35.4924 64.7222 35.5684 64.4937 35.5682Z" fill="#D8A783"/>
<path d="M35.0004 61.2396C39.5186 61.2396 43.8865 60.3106 47.8446 58.5547C44.797 54.8463 40.1751 52.4805 35.0004 52.4805C29.8258 52.4805 25.2038 54.8463 22.1562 58.5547C26.1144 60.3106 30.4821 61.2396 35.0004 61.2396Z" fill="#6AD5BC"/>
<path d="M35.0013 57.014C49.0249 57.014 60.3933 46.6911 60.3933 33.9572C60.3933 21.2233 49.0249 10.9004 35.0013 10.9004C20.9777 10.9004 9.60938 21.2233 9.60938 33.9572C9.60938 46.6911 20.9777 57.014 35.0013 57.014Z" fill="#FFDACC"/>
<path d="M35.7621 5.77284C37.2136 3.99345 39.5797 1.99653 41.4336 1.01954C42.0795 0.67911 42.8478 1.13233 42.8687 1.86214C42.9215 3.70196 43.4751 5.9719 43.9849 7.25282C44.1985 7.78944 44.8274 8.02036 45.3414 7.75731C47.7906 6.50401 52.8779 5.26548 56.5431 6.35034C57.3169 6.57934 57.4893 7.59257 56.8433 8.07614C55.3425 9.19942 54.1568 10.77 53.4851 12.1941C53.2477 12.6972 53.4828 13.2999 53.9978 13.5103C65.0123 18.0104 63.6761 29.1758 61.3397 34.2206C60.9866 34.9833 59.893 34.9616 59.5581 34.1907C57.9778 30.5522 54.6404 23.9947 51.1899 21.1566C50.6538 20.7157 49.8301 20.9415 49.6194 21.6028C49.075 23.3115 47.6404 25.3326 45.8678 26.5824C45.3111 26.9749 44.5334 26.6848 44.3618 26.0257C43.0774 21.0904 40.3937 15.4833 35.5152 18.5673C35.3607 18.6645 35.1818 18.7161 34.9992 18.7161C34.8166 18.7161 34.6378 18.6645 34.4832 18.5673C29.6047 15.4832 26.921 21.0904 25.6366 26.0257C25.465 26.6849 24.6873 26.9749 24.1306 26.5824C22.3581 25.3326 20.9233 23.3117 20.3791 21.6028C20.1684 20.9415 19.3446 20.7157 18.8086 21.1566C15.3581 23.9947 12.0206 30.5522 10.4403 34.1907C10.1055 34.9616 9.01185 34.9832 8.6587 34.2206C6.32231 29.1758 4.98616 18.0104 16.0006 13.5103C16.5157 13.2999 16.7507 12.6972 16.5133 12.1941C15.8416 10.77 14.6559 9.19942 13.1551 8.07614C12.5091 7.59257 12.6815 6.57934 13.4553 6.35034C17.1206 5.26534 22.2078 6.50388 24.657 7.75731C25.1712 8.02036 25.7999 7.78944 26.0135 7.25282C26.5233 5.9719 27.077 3.70196 27.1298 1.86214C27.1507 1.13233 27.9191 0.679247 28.565 1.01954C30.4189 1.99653 32.7849 3.99345 34.2365 5.77284C34.3285 5.88647 34.4447 5.9781 34.5767 6.04104C34.7087 6.10398 34.8531 6.13665 34.9993 6.13665C35.1455 6.13665 35.2899 6.10398 35.4218 6.04104C35.5538 5.9781 35.6701 5.88647 35.7621 5.77284Z" fill="#E48895"/>
<path d="M35.7621 5.77284C37.2136 3.99345 39.5797 1.99653 41.4336 1.01954C42.0795 0.67911 42.8478 1.13233 42.8687 1.86214C42.9215 3.70196 43.4751 5.9719 43.9849 7.25282C44.1985 7.78944 44.8274 8.02036 45.3414 7.75731C47.7906 6.50401 52.8779 5.26548 56.5431 6.35034C57.3169 6.57934 57.4893 7.59257 56.8433 8.07614C55.3425 9.19942 54.1568 10.77 53.4851 12.1941C53.2477 12.6972 53.4828 13.2999 53.9978 13.5103C65.0123 18.0104 63.6761 29.1758 61.3397 34.2206C60.9866 34.9833 59.893 34.9616 59.5581 34.1907C57.9778 30.5522 54.6404 23.9947 51.1899 21.1566C50.6538 20.7157 49.8301 20.9415 49.6194 21.6028C49.075 23.3115 47.6404 25.3326 45.8678 26.5824C45.3111 26.9749 44.5334 26.6848 44.3618 26.0257C43.0774 21.0904 40.3937 15.4833 35.5152 18.5673C35.3607 18.6645 35.1818 18.7161 34.9992 18.7161C34.8166 18.7161 34.6378 18.6645 34.4832 18.5673C29.6047 15.4832 26.921 21.0904 25.6366 26.0257C25.465 26.6849 24.6873 26.9749 24.1306 26.5824C22.3581 25.3326 20.9233 23.3117 20.3791 21.6028C20.1684 20.9415 19.3446 20.7157 18.8086 21.1566C15.3581 23.9947 12.0206 30.5522 10.4403 34.1907C10.1055 34.9616 9.01185 34.9832 8.6587 34.2206C6.32231 29.1758 4.98616 18.0104 16.0006 13.5103C16.5157 13.2999 16.7507 12.6972 16.5133 12.1941C15.8416 10.77 14.6559 9.19942 13.1551 8.07614C12.5091 7.59257 12.6815 6.57934 13.4553 6.35034C17.1206 5.26534 22.2078 6.50388 24.657 7.75731C25.1712 8.02036 25.7999 7.78944 26.0135 7.25282C26.5233 5.9719 27.077 3.70196 27.1298 1.86214C27.1507 1.13233 27.9191 0.679247 28.565 1.01954C30.4189 1.99653 32.7849 3.99345 34.2365 5.77284C34.3285 5.88647 34.4447 5.9781 34.5767 6.04104C34.7087 6.10398 34.8531 6.13665 34.9993 6.13665C35.1455 6.13665 35.2899 6.10398 35.4218 6.04104C35.5538 5.9781 35.6701 5.88647 35.7621 5.77284Z" fill="#E48895"/>
<path d="M25.3225 7.84043C25.0977 7.89159 24.8621 7.86192 24.657 7.75662C22.2078 6.50332 17.1206 5.26478 13.4553 6.34965C12.6815 6.57865 12.5091 7.59187 13.1551 8.07545C14.6559 9.19873 15.8416 10.7694 16.5133 12.1934C16.7507 12.6965 16.5157 13.2992 16.0006 13.5096C4.98616 18.0097 6.32231 29.1751 8.6587 34.2199C9.01185 34.9827 10.1055 34.9609 10.4403 34.19C12.0206 30.5515 15.3581 23.994 18.8086 21.1559C19.3446 20.715 20.1684 20.9408 20.3791 21.6021C20.9235 23.3108 22.3581 25.332 24.1306 26.5817C24.6873 26.9742 25.465 26.6841 25.6366 26.025C26.2782 23.5595 27.2691 20.9266 28.7082 19.2931C25.7708 17.4217 24.1474 11.0848 25.3225 7.84043Z" fill="#E06E7E"/>
<path d="M27.6417 37.5596C27.6427 39.4522 25.7169 40.9874 23.3402 40.9887C20.9636 40.9899 19.0361 39.4566 19.0352 37.564C19.0342 35.6714 20.9602 34.136 23.3367 34.1349C25.7133 34.1336 27.6408 35.6669 27.6417 37.5596ZM42.3603 37.5522C42.3613 39.4448 44.2888 40.9781 46.6653 40.9769C49.0419 40.9757 50.9679 39.4405 50.9669 37.5479C50.966 35.6553 49.0385 34.1218 46.6619 34.123C44.2853 34.1243 42.3594 35.6595 42.3603 37.5522Z" fill="#EDA1AB"/>
<path d="M39.2178 36.0041C39.2164 33.3971 37.3278 33.1532 34.9981 33.1543C32.6684 33.1554 30.7799 33.4013 30.7813 36.0083C30.7826 38.6153 32.6722 40.7276 35.0019 40.7263C37.3316 40.7252 39.219 38.611 39.2178 36.0041Z" fill="#4F5C6F"/>
<path d="M23.7949 34.8574C23.523 34.8574 23.2623 34.7495 23.07 34.5573C22.8777 34.365 22.7696 34.1043 22.7695 33.8324C22.7687 32.1377 24.1468 30.758 25.8416 30.7572H25.8434C26.6637 30.7572 27.4352 31.0765 28.0156 31.6564C28.302 31.941 28.5292 32.2796 28.6839 32.6526C28.8387 33.0256 28.9179 33.4256 28.917 33.8294C28.917 33.9641 28.8906 34.0974 28.8391 34.2218C28.7876 34.3463 28.7122 34.4593 28.617 34.5546C28.5218 34.6498 28.4088 34.7254 28.2845 34.777C28.1601 34.8286 28.0268 34.8552 27.8921 34.8552H27.8916C27.6197 34.8552 27.359 34.7473 27.1667 34.5551C26.9744 34.3629 26.8663 34.1022 26.8662 33.8304C26.8665 33.696 26.8401 33.5629 26.7887 33.4388C26.7372 33.3147 26.6616 33.202 26.5663 33.1073C26.4716 33.0121 26.3589 32.9367 26.2348 32.8854C26.1107 32.834 25.9777 32.8078 25.8434 32.8081H25.8428C25.2789 32.8084 24.8202 33.2675 24.8205 33.8316C24.8206 34.1035 24.7126 34.3644 24.5205 34.5567C24.3283 34.7491 24.0675 34.8573 23.7956 34.8574H23.7949ZM42.1043 34.8482C41.8324 34.8482 41.5717 34.7403 41.3794 34.5481C41.1871 34.3559 41.0791 34.0953 41.0789 33.8234C41.0776 33.4196 41.1563 33.0195 41.3107 32.6464C41.465 32.2732 41.6918 31.9344 41.978 31.6494C42.2626 31.363 42.6012 31.1359 42.9742 30.9811C43.3472 30.8264 43.7472 30.7472 44.151 30.7481H44.1525C45.8468 30.7481 47.2255 32.1259 47.2262 33.8203C47.2263 33.9549 47.1998 34.0883 47.1483 34.2127C47.0969 34.3371 47.0214 34.4502 46.9262 34.5455C46.8311 34.6407 46.7181 34.7163 46.5937 34.7679C46.4693 34.8195 46.336 34.8461 46.2013 34.8462H46.2008C45.9289 34.8462 45.6682 34.7382 45.4759 34.546C45.2836 34.3538 45.1755 34.0931 45.1754 33.8212C45.1751 33.2574 44.7163 32.7988 44.1525 32.7988H44.1521C44.0177 32.7985 43.8846 32.8249 43.7605 32.8764C43.6363 32.9279 43.5237 33.0035 43.429 33.0988C43.3338 33.1936 43.2583 33.3063 43.2069 33.4304C43.1556 33.5546 43.1294 33.6877 43.1298 33.822C43.13 34.094 43.0221 34.3548 42.8299 34.5472C42.6378 34.7396 42.377 34.8478 42.1051 34.848L42.1043 34.8482Z" fill="#4F5C6F"/>
</g>
<defs>
<clipPath id="clip0_1014_750">
<rect width="70" height="70" fill="white"/>
</clipPath>
</defs>
</svg>
