<svg width="70" height="70" viewBox="0 0 70 70" fill="none" xmlns="http://www.w3.org/2000/svg">
<g clip-path="url(#clip0_1017_2489)">
<path d="M61.398 9.31445V26.7201C61.398 27.8521 60.4793 28.7709 59.3473 28.7709H10.6562C9.52422 28.7709 8.60547 27.8521 8.60547 26.7201V9.31445C8.60547 8.18105 9.52422 7.26367 10.6562 7.26367H59.3473C60.4793 7.26367 61.398 8.18105 61.398 9.31445Z" fill="#FACF5F"/>
<path d="M61.3963 9.31445V26.7201C61.3963 27.8521 60.4775 28.7709 59.3455 28.7709H35V7.26367H59.3455C60.4775 7.26367 61.3963 8.18105 61.3963 9.31445Z" fill="#FFE773"/>
<path d="M53.1949 2.05078V26.7203C53.1949 27.8523 52.2762 28.7711 51.1441 28.7711H18.8594C17.7273 28.7711 16.8086 27.8523 16.8086 26.7203V2.05078C16.8086 0.91875 17.7273 0 18.8594 0H51.1441C52.2762 0 53.1949 0.91875 53.1949 2.05078Z" fill="#FFF4F4"/>
<path d="M70 35.6471V56.6703C70 57.8023 69.0813 58.7211 67.9492 58.7211H51.1424C50.0104 58.7211 49.0916 57.8023 49.0916 56.6703V45.391H20.9084V56.6703C20.9084 57.8023 19.9896 58.7211 18.8576 58.7211H2.05078C0.91875 58.7211 0 57.8023 0 56.6703V35.6471C0 29.5945 4.92461 24.6699 10.9785 24.6699H59.0215C65.0754 24.6699 70 29.5945 70 35.6471Z" fill="#FFF0A6"/>
<path d="M53.1932 2.05078V26.7203C53.1932 27.8523 52.2744 28.7711 51.1424 28.7711H35V0H51.1424C52.2744 0 53.1932 0.91875 53.1932 2.05078Z" fill="#EFE2DD"/>
<path d="M70 35.6471V56.6703C70 57.8023 69.0812 58.7211 67.9492 58.7211H51.1424C50.0104 58.7211 49.0916 57.8023 49.0916 56.6703V45.391H35V24.6699H59.0215C65.0754 24.6699 70 29.5945 70 35.6471Z" fill="#FACF5F"/>
<path d="M43.6996 24.6699V28.4215C43.6996 31.6303 41.0897 34.2402 37.8809 34.2402H32.1195C28.9107 34.2402 26.3008 31.6303 26.3008 28.4215V24.6699H43.6996Z" fill="#9CBCFF"/>
<path d="M43.6994 24.6699V28.4215C43.6994 31.6303 41.0895 34.2402 37.8807 34.2402H35V24.6699H43.6994Z" fill="#719EFA"/>
<path d="M53.1949 43.3398V67.9492C53.1949 69.0812 52.2762 70 51.1441 70H18.8594C17.7273 70 16.8086 69.0812 16.8086 67.9492V43.3398C16.8086 42.2078 17.7273 41.2891 18.8594 41.2891H51.1441C52.2762 41.2891 53.1949 42.2078 53.1949 43.3398Z" fill="#FFF4F4"/>
<path d="M53.1932 43.3398V67.9492C53.1932 69.0812 52.2744 70 51.1424 70H35V41.2891H51.1424C52.2744 41.2891 53.1932 42.2078 53.1932 43.3398Z" fill="#EFE2DD"/>
<path d="M44.9918 51.543C44.9918 52.675 44.073 53.5938 42.941 53.5938H27.0625C25.9305 53.5938 25.0117 52.675 25.0117 51.543C25.0117 50.4109 25.9305 49.4922 27.0625 49.4922H42.941C44.073 49.4922 44.9918 50.4109 44.9918 51.543ZM44.9918 59.7461C44.9918 60.8781 44.073 61.7969 42.941 61.7969H27.0625C25.9305 61.7969 25.0117 60.8781 25.0117 59.7461C25.0117 58.6141 25.9305 57.6953 27.0625 57.6953H42.941C44.073 57.6953 44.9918 58.6141 44.9918 59.7461Z" fill="#5C7099"/>
<path d="M44.99 59.7461C44.99 60.8781 44.0713 61.7969 42.9393 61.7969H35V57.6953H42.9393C44.0713 57.6953 44.99 58.6141 44.99 59.7461ZM42.9393 53.5938H35V49.4922H42.9393C44.0713 49.4922 44.99 50.4109 44.99 51.543C44.99 52.675 44.0713 53.5938 42.9393 53.5938Z" fill="#404C80"/>
<path d="M59.7461 37.1875C60.8787 37.1875 61.7969 36.2693 61.7969 35.1367C61.7969 34.0041 60.8787 33.0859 59.7461 33.0859C58.6135 33.0859 57.6953 34.0041 57.6953 35.1367C57.6953 36.2693 58.6135 37.1875 59.7461 37.1875Z" fill="#404C80"/>
<path d="M51.543 37.1875C52.6756 37.1875 53.5938 36.2693 53.5938 35.1367C53.5938 34.0041 52.6756 33.0859 51.543 33.0859C50.4104 33.0859 49.4922 34.0041 49.4922 35.1367C49.4922 36.2693 50.4104 37.1875 51.543 37.1875Z" fill="#404C80"/>
</g>
<defs>
<clipPath id="clip0_1017_2489">
<rect width="70" height="70" fill="white"/>
</clipPath>
</defs>
</svg>
