<svg width="70" height="60" viewBox="0 0 70 60" fill="none" xmlns="http://www.w3.org/2000/svg">
<path d="M63.4315 47.5246C66.2222 47.5246 68.4844 45.2624 68.4844 42.4717V30.6719H63.4315L61.9531 38.1482L63.4315 47.5246Z" fill="#86E8D0"/>
<path d="M62.2734 31.5633H68.6114C69.3784 31.5633 70.0002 30.9415 70.0002 30.1746V28.3654C70.0002 27.5984 69.3784 26.9766 68.6114 26.9766H62.2734V31.5633Z" fill="#0ED2B3"/>
<path d="M6.56471 47.5246C3.774 47.5246 1.51172 45.2624 1.51172 42.4717V30.6719H6.56471L8.04305 38.1482L6.56471 47.5246Z" fill="#86E8D0"/>
<path d="M7.7268 31.5633H1.38879C0.621797 31.5633 0 30.9415 0 30.1746V28.3654C0 27.5984 0.621797 26.9766 1.38879 26.9766H7.7268V31.5633Z" fill="#0ED2B3"/>
<path d="M55.8646 59.1404L53.2077 59.5705H13.5118C11.9778 59.5705 10.7344 58.327 10.7344 56.793V50.1934H58.6957L58.6421 56.3628C58.642 57.8968 57.3985 59.1404 55.8646 59.1404Z" fill="#F5F8F9"/>
<path d="M59.2684 50.1934V56.7933C59.2684 58.3272 58.0246 59.5708 56.4909 59.5708H52.2656C53.7995 59.5708 55.0431 58.3272 55.0431 56.7933V50.1934H59.2684Z" fill="#E8EDF2"/>
<path d="M25.3571 11.846C25.2184 11.846 25.081 11.8187 24.9528 11.7656C24.8247 11.7126 24.7082 11.6347 24.6101 11.5367C24.512 11.4386 24.4342 11.3221 24.3811 11.194C24.3281 11.0658 24.3008 10.9284 24.3008 10.7897V6.82418C24.3008 4.55396 26.1477 2.70703 28.4179 2.70703H41.5801C43.8503 2.70703 45.6973 4.55396 45.6973 6.82418V10.7285C45.6973 11.0086 45.586 11.2773 45.3879 11.4754C45.1898 11.6735 44.9211 11.7847 44.641 11.7847C44.3608 11.7847 44.0922 11.6735 43.8941 11.4754C43.696 11.2773 43.5847 11.0086 43.5847 10.7285V6.82418C43.5847 5.71894 42.6856 4.81975 41.5803 4.81975H28.4181C27.3127 4.81975 26.4136 5.71894 26.4136 6.82418V10.7897C26.4135 11.0699 26.3022 11.3385 26.104 11.5366C25.9059 11.7347 25.6372 11.846 25.3571 11.846Z" fill="#FFCE61"/>
<path d="M40.8156 5.69179C37.0313 4.49413 32.9695 4.49413 29.1852 5.69179C28.1217 6.02839 26.9752 5.52034 26.5321 4.49646L26.5147 4.4564C26.009 3.28759 26.6166 1.92984 27.8299 1.54347C32.4948 0.0584274 37.5057 0.0584274 42.1706 1.54347C43.3841 1.92984 43.9916 3.28773 43.4859 4.4564L43.4685 4.49646C43.0257 5.52021 41.8791 6.02839 40.8156 5.69179Z" fill="#FFDE80"/>
<path d="M27.1853 14.0907H23.5312V10.7156C23.5312 9.70666 24.3492 8.88867 25.3582 8.88867C26.3672 8.88867 27.1852 9.70666 27.1852 10.7156L27.1853 14.0907ZM46.469 14.0907H42.815V10.7156C42.815 9.70666 43.633 8.88867 44.642 8.88867C45.651 8.88867 46.469 9.70666 46.469 10.7156V14.0907Z" fill="#E8EDF2"/>
<path d="M63.0252 28.5957L62.4326 50.1937C62.4326 52.4937 60.5663 54.3599 58.2663 54.3599L55.884 54.5567H10.7326C8.43262 54.5567 6.56641 52.6905 6.56641 50.3905V37.4327L8.04516 29.0045L63.0252 28.5957Z" fill="#5DE1C4"/>
<path d="M63.434 29.0039V50.3899C63.434 52.6899 61.5678 54.5561 59.2678 54.5561H55.1016C57.4016 54.5561 59.2678 52.6899 59.2678 50.3899V29.0039H63.434Z" fill="#0ED2B3"/>
<path d="M63.434 29.004V37.4434C62.7964 38.2362 62.0716 38.9548 61.2735 39.5857C60.0899 40.5241 58.7567 41.2564 57.3298 41.7518C55.9035 42.2491 54.4037 42.5028 52.8931 42.5026H17.1073C14.0777 42.5026 11.1016 41.4673 8.72697 39.5857C7.92787 38.9516 7.20307 38.2291 6.56641 37.4321V29.0039L63.434 29.004Z" fill="#0ED2B3"/>
<path d="M63.0158 15.7204L62.7772 28.5256C62.7772 31.7453 61.8901 34.8033 59.3647 36.8032C58.4338 37.5413 57.4636 38.575 56.3581 38.9594C55.244 39.347 54.0729 39.5451 52.8933 39.5454H17.1073C15.1261 39.5454 13.1851 38.987 11.5068 37.9342C9.82851 36.8815 8.48092 35.377 7.61859 33.5934C6.9257 32.1629 6.56596 30.5941 6.56641 29.0047V15.461C6.56641 13.9272 7.81 12.6836 9.34385 12.6836H58.4026L60.2382 12.9431C61.7721 12.943 63.0158 14.1865 63.0158 15.7204Z" fill="#86E8D0"/>
<path d="M63.4321 15.461V29.0047C63.432 30.5943 63.0724 32.1633 62.3802 33.5943C61.688 35.0253 60.6812 36.2812 59.4349 37.2681C58.5108 38.0006 57.4699 38.5724 56.356 38.9596C55.2419 39.3471 54.0708 39.5452 52.8912 39.5455H50.0742C51.2538 39.5453 52.425 39.3472 53.5391 38.9596C54.653 38.5724 55.6938 38.0006 56.618 37.2681C57.8642 36.2812 58.8711 35.0253 59.5633 33.5943C60.2555 32.1633 60.615 30.5943 60.6151 29.0047V15.461C60.6151 13.9272 59.3715 12.6836 57.8377 12.6836H60.6546C62.1883 12.6836 63.4321 13.9273 63.4321 15.461Z" fill="#5DE1C4"/>
<path d="M13.5144 48.5418H18.9472C19.0019 48.5418 19.056 48.531 19.1066 48.5101C19.1571 48.4891 19.2031 48.4584 19.2417 48.4198C19.2804 48.3811 19.3111 48.3352 19.332 48.2846C19.353 48.2341 19.3637 48.1799 19.3637 48.1252V12.3011C19.3637 11.5231 18.7332 10.8926 17.9553 10.8926H14.5061C13.7282 10.8926 13.0977 11.5231 13.0977 12.3011V48.1252C13.0977 48.2357 13.1416 48.3417 13.2198 48.4198C13.2979 48.4979 13.4039 48.5418 13.5144 48.5418Z" fill="#F5F8F9"/>
<path d="M12.8024 42.5407H19.6596C19.9543 42.5407 20.2369 42.4237 20.4452 42.2153C20.6536 42.007 20.7706 41.7244 20.7706 41.4298V36.8024C20.7706 36.5077 20.6536 36.2252 20.4452 36.0168C20.2369 35.8085 19.9543 35.6914 19.6596 35.6914H12.8024C12.6565 35.6914 12.512 35.7201 12.3772 35.776C12.2424 35.8318 12.12 35.9136 12.0168 36.0168C11.9136 36.12 11.8318 36.2424 11.776 36.3772C11.7201 36.512 11.6914 36.6565 11.6914 36.8024V41.4298C11.6914 41.5757 11.7201 41.7201 11.776 41.8549C11.8318 41.9897 11.9136 42.1122 12.0168 42.2153C12.12 42.3185 12.2424 42.4003 12.3772 42.4562C12.512 42.512 12.6565 42.5407 12.8024 42.5407Z" fill="#F5F8F9"/>
<path d="M16.2321 39.4785C16.0934 39.4785 15.956 39.4512 15.8278 39.3981C15.6997 39.345 15.5832 39.2672 15.4851 39.1691C15.387 39.071 15.3092 38.9546 15.2561 38.8264C15.2031 38.6983 15.1758 38.5609 15.1758 38.4222V36.0895C15.1758 35.9508 15.2031 35.8134 15.2562 35.6853C15.3093 35.5571 15.3871 35.4407 15.4852 35.3426C15.5832 35.2445 15.6997 35.1667 15.8278 35.1136C15.956 35.0605 16.0934 35.0332 16.2321 35.0332C16.3708 35.0332 16.5081 35.0605 16.6363 35.1136C16.7644 35.1667 16.8809 35.2445 16.979 35.3426C17.0771 35.4407 17.1549 35.5571 17.208 35.6853C17.261 35.8134 17.2884 35.9508 17.2884 36.0895V38.4222C17.2884 38.7023 17.1771 38.971 16.979 39.1691C16.7809 39.3672 16.5122 39.4785 16.2321 39.4785Z" fill="#FFCE61"/>
<path d="M19.6613 43.597H12.804C11.6091 43.597 10.6367 42.6246 10.6367 41.4296V36.8022C10.6367 35.6071 11.6091 34.6348 12.804 34.6348H19.6613C20.8562 34.6348 21.8285 35.6071 21.8285 36.8022V41.4296C21.8285 42.6247 20.8562 43.597 19.6613 43.597ZM12.804 36.7476C12.7895 36.7477 12.7756 36.7534 12.7654 36.7637C12.7552 36.7739 12.7494 36.7878 12.7494 36.8023V41.4297C12.7494 41.4598 12.7739 41.4844 12.804 41.4844H19.6613C19.6757 41.4843 19.6896 41.4786 19.6998 41.4683C19.7101 41.4581 19.7158 41.4442 19.7158 41.4297V36.8023C19.7158 36.7878 19.7101 36.7739 19.6998 36.7637C19.6896 36.7534 19.6757 36.7477 19.6613 36.7476H12.804Z" fill="#FFDE80"/>
<path d="M28.2738 23.7317H32.3389C32.4136 23.7317 32.4852 23.702 32.538 23.6492C32.5909 23.5964 32.6205 23.5248 32.6205 23.4501V19.385C32.6205 19.348 32.6278 19.3114 32.642 19.2772C32.6561 19.2431 32.6769 19.212 32.703 19.1858C32.7292 19.1597 32.7602 19.139 32.7944 19.1248C32.8286 19.1106 32.8652 19.1034 32.9022 19.1034H37.1012C37.1382 19.1034 37.1748 19.1106 37.209 19.1248C37.2432 19.139 37.2742 19.1597 37.3004 19.1858C37.3265 19.212 37.3473 19.2431 37.3614 19.2772C37.3756 19.3114 37.3828 19.348 37.3828 19.385V23.4501C37.3828 23.5248 37.4125 23.5964 37.4653 23.6492C37.5182 23.702 37.5898 23.7317 37.6645 23.7317H41.7296C41.8042 23.7317 41.8759 23.7614 41.9287 23.8142C41.9815 23.867 42.0112 23.9386 42.0112 24.0133V28.2124C42.0112 28.2871 41.9815 28.3587 41.9287 28.4115C41.8759 28.4644 41.8042 28.494 41.7296 28.494H37.6645C37.5898 28.494 37.5182 28.5237 37.4653 28.5765C37.4125 28.6293 37.3828 28.701 37.3828 28.7757V32.8407C37.3828 32.8777 37.3756 32.9143 37.3614 32.9485C37.3473 32.9827 37.3265 33.0137 37.3004 33.0399C37.2742 33.066 37.2432 33.0868 37.209 33.1009C37.1748 33.1151 37.1382 33.1224 37.1012 33.1224H32.9022C32.8652 33.1224 32.8286 33.1151 32.7944 33.1009C32.7602 33.0868 32.7292 33.066 32.703 33.0399C32.6769 33.0137 32.6561 32.9827 32.642 32.9485C32.6278 32.9143 32.6205 32.8777 32.6205 32.8407V28.7757C32.6205 28.701 32.5909 28.6293 32.538 28.5765C32.4852 28.5237 32.4136 28.494 32.3389 28.494H28.2738C28.1991 28.494 28.1275 28.4644 28.0747 28.4115C28.0219 28.3587 27.9922 28.2871 27.9922 28.2124V24.0133C27.9922 23.9763 27.9994 23.9397 28.0136 23.9055C28.0277 23.8714 28.0485 23.8403 28.0746 23.8141C28.1008 23.788 28.1318 23.7672 28.166 23.7531C28.2002 23.739 28.2368 23.7317 28.2738 23.7317ZM51.0539 48.5418H56.4867C56.5414 48.5418 56.5956 48.531 56.6461 48.5101C56.6967 48.4891 56.7426 48.4584 56.7813 48.4198C56.82 48.3811 56.8506 48.3352 56.8716 48.2846C56.8925 48.2341 56.9033 48.1799 56.9033 48.1252V12.3011C56.9033 11.5231 56.2727 10.8926 55.4948 10.8926H52.0457C51.2677 10.8926 50.6372 11.5231 50.6372 12.3011V48.1252C50.6372 48.2357 50.6811 48.3417 50.7593 48.4198C50.8374 48.4979 50.9434 48.5418 51.0539 48.5418Z" fill="#F5F8F9"/>
<path d="M50.3414 42.5407H57.1986C57.4932 42.5407 57.7758 42.4237 57.9842 42.2153C58.1925 42.007 58.3095 41.7244 58.3095 41.4298V36.8024C58.3095 36.5077 58.1925 36.2252 57.9842 36.0168C57.7758 35.8085 57.4932 35.6914 57.1986 35.6914H50.3414C50.0468 35.6914 49.7642 35.8085 49.5559 36.0168C49.3475 36.2252 49.2305 36.5077 49.2305 36.8024V41.4298C49.2305 41.7244 49.3475 42.007 49.5559 42.2153C49.7642 42.4237 50.0468 42.5407 50.3414 42.5407Z" fill="#F5F8F9"/>
<path d="M53.7672 39.4785C53.6285 39.4785 53.4911 39.4512 53.363 39.3981C53.2348 39.345 53.1184 39.2672 53.0203 39.1691C52.9222 39.071 52.8444 38.9546 52.7913 38.8264C52.7382 38.6983 52.7109 38.5609 52.7109 38.4222V36.0895C52.7109 35.8093 52.8222 35.5407 53.0203 35.3426C53.2184 35.1445 53.4871 35.0332 53.7672 35.0332C54.0474 35.0332 54.316 35.1445 54.5141 35.3426C54.7122 35.5407 54.8235 35.8093 54.8235 36.0895V38.4222C54.8235 38.7023 54.7122 38.971 54.5141 39.1691C54.316 39.3672 54.0474 39.4785 53.7672 39.4785Z" fill="#FFCE61"/>
<path d="M57.1964 43.597H50.3391C49.1442 43.597 48.1719 42.6246 48.1719 41.4296V36.8022C48.1719 35.6071 49.1442 34.6348 50.3391 34.6348H57.1964C58.3913 34.6348 59.3637 35.6071 59.3637 36.8022V41.4296C59.3637 42.6247 58.3915 43.597 57.1964 43.597ZM50.3391 36.7476C50.3247 36.7477 50.3108 36.7534 50.3006 36.7637C50.2903 36.7739 50.2846 36.7878 50.2846 36.8023V41.4297C50.2846 41.4598 50.3091 41.4844 50.3391 41.4844H57.1964C57.2109 41.4843 57.2248 41.4786 57.235 41.4683C57.2452 41.4581 57.251 41.4442 57.251 41.4297V36.8023C57.251 36.7878 57.2452 36.7739 57.235 36.7637C57.2248 36.7534 57.2109 36.7477 57.1964 36.7476H50.3391Z" fill="#FFDE80"/>
</svg>
