<svg width="70" height="70" viewBox="0 0 70 70" fill="none" xmlns="http://www.w3.org/2000/svg">
<g clip-path="url(#clip0_1017_3434)">
<path d="M52.8704 2.11477H49.7107C49.7107 0.947051 48.7642 0 47.596 0H10.814C9.64613 0 8.69922 0.946777 8.69922 2.11477V58.3196C8.69922 59.4876 9.64613 60.4343 10.814 60.4343C50.9087 60.4343 47.7837 60.5577 48.4743 60.2416C48.7408 60.1194 48.9791 59.9433 49.1741 59.7244C49.3691 59.5055 49.5167 59.2486 49.6074 58.9698H52.8703L52.8704 2.11477Z" fill="#EC407A"/>
<path d="M51.9938 0H47.5977C48.7656 0 49.7124 0.946777 49.7124 2.11477V58.3196C49.7124 59.4876 48.7656 60.4343 47.5977 60.4343H51.9938C53.1618 60.4343 54.1086 59.4876 54.1086 58.3196V2.11477C54.1086 0.946777 53.1618 0 51.9938 0Z" fill="#D81B60"/>
<path d="M54.1102 14.4866L44.3423 4.71875H14.9349C13.3205 4.71875 12.0117 6.02756 12.0117 7.64193V59.9087C12.0117 60.0883 12.0303 60.2633 12.0613 60.434H51.9954C53.1634 60.434 54.1102 59.4872 54.1102 58.3192V14.4866Z" fill="#D81B60"/>
<path d="M57.574 15.031L52.6175 11.9363L48.3384 4.71875H18.931C17.3166 4.71875 16.0078 6.02756 16.0078 7.64193V59.9087C16.0078 61.5231 17.3166 62.8319 18.931 62.8319H57.5173C57.5364 62.8319 57.555 62.8294 57.574 62.829V15.031Z" fill="#EAF6FF"/>
<path d="M60.4403 16.8211L56.0443 14.0762V59.9091C56.0443 61.5235 54.7355 62.8323 53.1211 62.8323H57.5173C59.1317 62.8323 60.4405 61.5235 60.4405 59.9091V16.8211H60.4403Z" fill="#D8ECFE"/>
<path d="M51.2591 16.8208H60.438L48.3359 4.71875V13.8976C48.3359 15.512 49.6447 16.8208 51.2591 16.8208Z" fill="#B3DAFE"/>
<path d="M53.4236 23.4448H23.0222C22.7418 23.4448 22.4728 23.3334 22.2745 23.1351C22.0762 22.9368 21.9648 22.6679 21.9648 22.3875C21.9648 22.107 22.0762 21.8381 22.2745 21.6398C22.4728 21.4415 22.7418 21.3301 23.0222 21.3301H53.4236C53.704 21.3301 53.9729 21.4415 54.1712 21.6398C54.3695 21.8381 54.4809 22.107 54.4809 22.3875C54.4809 22.6679 54.3695 22.9368 54.1712 23.1351C53.9729 23.3334 53.704 23.4448 53.4236 23.4448ZM53.4236 30.4407H23.0222C22.7418 30.4407 22.4728 30.3293 22.2745 30.131C22.0762 29.9327 21.9648 29.6638 21.9648 29.3834C21.9648 29.1029 22.0762 28.834 22.2745 28.6357C22.4728 28.4374 22.7418 28.326 23.0222 28.326H53.4236C53.704 28.326 53.9729 28.4374 54.1712 28.6357C54.3695 28.834 54.4809 29.1029 54.4809 29.3834C54.4809 29.6638 54.3695 29.9327 54.1712 30.131C53.9729 30.3293 53.704 30.4407 53.4236 30.4407Z" fill="#82AEE3"/>
<path d="M64.9459 34.999H62.6542C62.1635 34.1507 61.2464 33.5818 60.2122 33.5818H24.714L21.0021 27.4403H18.752C18.5553 27.177 18.2998 26.9632 18.006 26.8159C17.7122 26.6687 17.3881 26.5919 17.0594 26.5918H4.68898C3.521 26.5918 2.57422 27.5387 2.57422 28.7066V67.1792C2.57422 68.7366 3.83668 69.9989 5.39391 69.9989H60.2122C60.6779 69.9989 61.1514 69.8783 61.5701 69.6469H61.5756C61.9299 69.45 62.2378 69.1795 62.4786 68.8535H64.9457L64.9459 34.999Z" fill="#FFDAAA"/>
<path d="M18.9323 27.7262L21.9963 33.5818H26.3925L23.3285 27.7262C23.1495 27.384 22.8803 27.0974 22.55 26.8975C22.2197 26.6975 21.8409 26.5918 21.4548 26.5918H17.0586C17.4447 26.5918 17.8235 26.6975 18.1538 26.8975C18.4841 27.0974 18.7533 27.384 18.9323 27.7262ZM64.6075 33.5818H60.2114C61.7688 33.5818 63.0311 34.8443 63.0311 36.4015V67.1792C63.0311 68.7366 61.7686 69.9989 60.2114 69.9989H64.6075C66.1648 69.9989 67.4272 68.7364 67.4272 67.1792V36.4016C67.4272 34.8443 66.1647 33.5818 64.6075 33.5818Z" fill="#FFC477"/>
</g>
<defs>
<clipPath id="clip0_1017_3434">
<rect width="70" height="70" fill="white"/>
</clipPath>
</defs>
</svg>
