<svg width="70" height="70" viewBox="0 0 70 70" fill="none" xmlns="http://www.w3.org/2000/svg">
<g clip-path="url(#clip0_1017_2399)">
<path d="M65.6336 13.4238H11.0467C8.63531 13.4238 6.67969 15.3795 6.67969 17.7908V59.5935C6.67969 62.0082 8.63833 63.9605 11.0467 63.9605C69.5095 63.9605 65.8407 63.9937 66.4061 63.8923C68.449 63.5278 70.0006 61.7415 70.0006 59.5935V17.7908C70.0006 15.3795 68.0449 13.4238 65.6336 13.4238Z" fill="#FFF0A6"/>
<path d="M69.9926 17.5179H19.2349C16.8235 17.5179 14.8679 19.4735 14.8679 21.8849V33.7317L12.2927 32.6031C8.91229 31.3094 6.67969 28.0656 6.67969 24.4464V17.7908C6.67969 15.3795 8.63531 13.4238 11.0467 13.4238H65.6337C67.9537 13.4238 69.852 15.2334 69.9926 17.5179Z" fill="#FFF8D6"/>
<path d="M70.0006 24.4473V59.5945C70.0006 61.7425 68.449 63.5288 66.406 63.8932L65.5995 58.3867C65.1519 55.3298 63.4774 52.6865 61.0701 51.2358L45.3272 40.9599L64.3876 32.6039C67.768 31.3103 70.0006 28.0664 70.0006 24.4473ZM31.353 40.9599L15.6101 51.2358C13.2028 52.6865 11.5284 55.3299 11.0808 58.3867L10.2743 63.8932C8.2313 63.5288 6.67969 61.7425 6.67969 59.5945V24.4473C6.67969 28.0664 8.91229 31.3103 12.2927 32.6039L31.353 40.9599Z" fill="#FACF5F"/>
<path d="M14.8774 33.7366V51.7313C12.8644 53.2461 11.4821 55.6507 11.0808 58.3869L10.2743 63.8933C8.2313 63.529 6.67969 61.7426 6.67969 59.5947V24.4473C6.67969 28.0664 8.91229 31.3103 12.2927 32.6039L14.8774 33.7366Z" fill="#FADA86"/>
<path d="M65.5988 58.3858L66.4053 63.8923C66.1504 63.9379 65.8919 63.9607 65.6329 63.9605C7.17006 63.9605 10.8389 63.9937 10.2734 63.8923L11.0799 58.3858C11.5276 55.3289 13.202 52.6856 15.6093 51.235L31.3522 40.959L36.7781 43.3376C37.7833 43.7225 38.8953 43.7225 39.9005 43.3376L45.3264 40.959L61.0693 51.235C63.4768 52.6856 65.1512 55.3291 65.5988 58.3858Z" fill="#FFE773"/>
<path d="M14.8765 63.9613C10.6922 63.9613 10.7811 63.9841 10.2734 63.8932L11.0799 58.3867C11.4873 55.5384 13.044 53.0483 14.8574 51.7462C14.8836 51.7068 14.851 63.6251 14.8765 63.9613Z" fill="#FFF0A6"/>
<path d="M14.6728 6.03516C6.56853 6.03516 0 12.6037 0 20.708C0 24.9442 1.79526 28.7625 4.66767 31.4403C10.3018 36.6947 19.0444 36.6961 24.678 31.4388C27.5504 28.761 29.3457 24.9442 29.3457 20.708C29.3457 12.6037 22.7756 6.03516 14.6728 6.03516Z" fill="#EEF7FF"/>
<path d="M10.4324 34.7577C8.25396 34.1015 6.28974 32.9519 4.66797 31.4404C5.05418 30.4357 5.58823 29.5245 6.32142 28.7656C7.2103 31.1989 8.75422 33.3263 10.4324 34.7577Z" fill="white"/>
<path d="M14.6728 6.03516C22.7756 6.03516 29.3457 12.6037 29.3457 20.708C29.3457 24.9442 27.5504 28.761 24.678 31.4388C23.9554 29.5576 22.7108 28.0052 20.6168 27.1619C22.3728 25.4933 23.4274 23.0946 23.2901 20.45C23.0623 16.0494 19.4823 12.4905 15.0802 12.2884C10.1289 12.0606 6.04203 16.0071 6.04203 20.9086C6.04203 23.3707 7.07543 25.5899 8.72888 27.1619C6.63491 28.0037 5.3903 29.5591 4.66767 31.4403C1.79526 28.7625 0 24.9442 0 20.708C0 12.6037 6.56853 6.03516 14.6728 6.03516Z" fill="#719EFA"/>
<path d="M24.3476 9.67546C18.3009 7.84791 11.6191 10.0912 7.95043 15.4987C7.21953 16.4025 6.68008 17.4455 6.36487 18.5643C5.13218 21.8432 5.12131 25.4959 6.32112 28.7655C5.58793 29.5244 5.05388 30.4356 4.66767 31.4403C1.79526 28.7625 0 24.9442 0 20.708C0 12.6037 6.56853 6.03516 14.6728 6.03516C18.3795 6.03516 21.7649 7.40951 24.3476 9.67546Z" fill="#9CBCFF"/>
</g>
<defs>
<clipPath id="clip0_1017_2399">
<rect width="70" height="70" fill="white"/>
</clipPath>
</defs>
</svg>
