<svg width="70" height="70" viewBox="0 0 70 70" fill="none" xmlns="http://www.w3.org/2000/svg">
<g clip-path="url(#clip0_1014_540)">
<path d="M35.0014 17.5703C45.6392 17.5703 53.2254 25.1629 53.2254 36.3151V60.093H16.7773V36.3151C16.7773 25.1629 24.3683 17.5703 35.0014 17.5703Z" fill="#FF5C6D"/>
<path d="M24.367 52.5005C20.1627 48.2962 21.3296 31.7552 21.3296 31.7552C21.2512 27.7986 22.3624 23.9096 24.5194 20.5918C22.014 22.3522 19.9915 24.7145 18.6381 27.4613C17.2847 30.208 16.6438 33.2511 16.7744 36.3104V60.093H53.2225C53.2225 60.093 30.0066 58.1385 24.367 52.5005Z" fill="#D6344C"/>
<path d="M54.7435 60.0938H15.2565C12.8401 60.0946 10.523 61.0549 8.8143 62.7635C7.10565 64.4722 6.14537 66.7894 6.14453 69.2058H63.8555C63.8557 68.0091 63.6201 66.8241 63.1623 65.7185C62.7044 64.6129 62.0333 63.6083 61.1871 62.7621C60.3409 61.916 59.3363 61.2448 58.2307 60.7869C57.1251 60.3291 55.9401 60.0935 54.7435 60.0938Z" fill="#FFE8B3"/>
<path d="M18.2939 66.1684C15.7773 63.6519 18.2939 60.0938 27.4059 60.0938H15.2565C12.8407 60.0963 10.5244 61.0571 8.81616 62.7654C7.10788 64.4737 6.14705 66.7899 6.14453 69.2058H51.7125C51.7125 69.2058 21.3312 69.2058 18.2939 66.1684Z" fill="#E37858"/>
<path d="M10.6997 37.3827H1.58773C1.16664 37.3827 0.762794 37.2154 0.465036 36.9176C0.167279 36.6199 0 36.216 0 35.7949C0 35.3738 0.167279 34.97 0.465036 34.6722C0.762794 34.3745 1.16664 34.2072 1.58773 34.2072H10.6997C11.1208 34.2072 11.5247 34.3745 11.8224 34.6722C12.1202 34.97 12.2875 35.3738 12.2875 35.7949C12.2875 36.216 12.1202 36.6199 11.8224 36.9176C11.5247 37.2154 11.1208 37.3827 10.6997 37.3827ZM16.6474 19.8064C16.4389 19.8067 16.2323 19.7657 16.0397 19.6858C15.8471 19.606 15.6721 19.4889 15.5249 19.3412L9.45019 13.265C9.16097 12.9655 9.00094 12.5645 9.00456 12.1482C9.00817 11.7319 9.17515 11.3336 9.46953 11.0393C9.76391 10.7449 10.1621 10.5779 10.5784 10.5743C10.9947 10.5707 11.3958 10.7307 11.6952 11.0199L17.7699 17.0962C17.9919 17.3182 18.1431 17.6011 18.2043 17.9091C18.2655 18.217 18.2341 18.5362 18.1139 18.8263C17.9938 19.1163 17.7903 19.3643 17.5293 19.5388C17.2683 19.7132 16.9614 19.8064 16.6474 19.8064ZM35 13.0824C34.5789 13.0824 34.1751 12.9151 33.8773 12.6174C33.5795 12.3196 33.4123 11.9158 33.4123 11.4947V2.38266C33.4123 1.96156 33.5795 1.55772 33.8773 1.25996C34.1751 0.9622 34.5789 0.794922 35 0.794922C35.4211 0.794922 35.8249 0.9622 36.1227 1.25996C36.4205 1.55772 36.5877 1.96156 36.5877 2.38266V11.4947C36.5877 11.9158 36.4205 12.3196 36.1227 12.6174C35.8249 12.9151 35.4211 13.0824 35 13.0824ZM53.6956 19.4619C53.3816 19.4618 53.0747 19.3687 52.8136 19.1942C52.5526 19.0198 52.3492 18.7718 52.229 18.4817C52.1089 18.1916 52.0774 17.8725 52.1387 17.5645C52.1999 17.2566 52.3511 16.9737 52.573 16.7516L58.6477 10.677C58.9492 10.3984 59.3469 10.2473 59.7574 10.2554C60.1678 10.2634 60.5592 10.43 60.8496 10.7202C61.14 11.0103 61.3069 11.4016 61.3152 11.8121C61.3235 12.2225 61.1727 12.6203 60.8943 12.922L54.8181 18.9967C54.6708 19.1444 54.4959 19.2615 54.3032 19.3413C54.1106 19.4211 53.9041 19.4621 53.6956 19.4619ZM68.4123 37.3827H59.3003C58.8792 37.3827 58.4753 37.2154 58.1776 36.9176C57.8798 36.6199 57.7125 36.216 57.7125 35.7949C57.7125 35.3738 57.8798 34.97 58.1776 34.6722C58.4753 34.3745 58.8792 34.2072 59.3003 34.2072H68.4123C68.8334 34.2072 69.2372 34.3745 69.535 34.6722C69.8327 34.97 70 35.3738 70 35.7949C70 36.216 69.8327 36.6199 69.535 36.9176C69.2372 37.2154 68.8334 37.3827 68.4123 37.3827Z" fill="#FF5C6D"/>
</g>
<defs>
<clipPath id="clip0_1014_540">
<rect width="70" height="70" fill="white"/>
</clipPath>
</defs>
</svg>
