<svg width="70" height="70" viewBox="0 0 70 70" fill="none" xmlns="http://www.w3.org/2000/svg">
<g clip-path="url(#clip0_1014_436)">
<path d="M56.8421 46.6071H14.0742V3.05489C14.0742 1.36773 15.4419 0 17.1291 0H62.0353L56.8421 5.47525V46.6071Z" fill="#E0E9EF"/>
<path d="M29.8258 27.4212C27.394 27.4214 26.3465 25.6575 25.8695 24.508C23.7859 25.5285 21.9944 25.9505 21.8375 25.9864C21.7415 26.0091 21.6419 26.0126 21.5446 25.9966C21.4472 25.9807 21.354 25.9456 21.2702 25.8935C21.1865 25.8413 21.1139 25.7731 21.0567 25.6928C20.9994 25.6124 20.9587 25.5215 20.9367 25.4254C20.9148 25.3292 20.9121 25.2296 20.9288 25.1324C20.9455 25.0352 20.9813 24.9422 21.0341 24.8589C21.0869 24.7756 21.1557 24.7035 21.2365 24.6469C21.3173 24.5903 21.4085 24.5503 21.5049 24.5291C21.5551 24.5175 23.316 24.0982 25.3217 23.098C24.1436 19.9578 25.4128 16.4183 28.3604 14.8568C30.4438 13.6087 33.0919 15.9132 32.2231 18.1552C31.3249 20.7497 29.2537 22.5666 27.1943 23.7925C27.7105 25.1154 28.5446 26.3155 30.8274 25.806C31.7196 25.6067 32.3884 24.8623 32.4537 23.9955C32.4567 23.956 32.4585 23.9158 32.4591 23.8748C32.4615 23.7098 32.5184 23.5501 32.621 23.4208C32.7236 23.2915 32.8662 23.1998 33.0264 23.16C33.1866 23.1204 33.3554 23.1349 33.5065 23.2012C33.6577 23.2676 33.7826 23.382 33.862 23.5267C34.1808 24.1053 35.3194 25.7406 36.324 25.6672C37.0379 25.6136 37.7855 24.624 38.4287 22.8811C38.4771 22.7502 38.5611 22.6355 38.6713 22.5499C38.7815 22.4643 38.9134 22.4113 39.0522 22.3968C39.191 22.3823 39.331 22.4069 39.4565 22.4679C39.582 22.5289 39.688 22.6237 39.7623 22.7418C40.0709 23.2285 41.1614 24.601 42.0863 24.5212C42.6627 24.4704 43.2558 23.7707 43.7561 22.5508C43.8037 22.4346 43.8799 22.3323 43.9776 22.2533C44.0753 22.1743 44.1912 22.1213 44.3148 22.099C44.4385 22.0766 44.5657 22.0857 44.6849 22.1256C44.804 22.1655 44.9111 22.2348 44.9963 22.3271C45.0004 22.3315 45.6899 23.0518 46.4812 23.0224C46.9189 23.0068 47.3461 22.7484 47.7512 22.2543C47.8134 22.1784 47.89 22.1155 47.9765 22.0692C48.063 22.0228 48.1579 21.994 48.2555 21.9843C48.3532 21.9746 48.4518 21.9843 48.5458 22.0127C48.6397 22.0411 48.7272 22.0878 48.8031 22.15C48.879 22.2122 48.9419 22.2888 48.9883 22.3753C49.0346 22.4619 49.0634 22.5567 49.0731 22.6543C49.0828 22.752 49.0731 22.8506 49.0447 22.9446C49.0163 23.0385 48.9696 23.126 48.9074 23.2019C48.214 24.0478 47.4104 24.4902 46.5189 24.5167C45.8008 24.5394 45.1803 24.2811 44.7225 24.001C44.0401 25.2505 43.1987 25.9255 42.2136 26.0106C41.0307 26.1122 40.001 25.316 39.3248 24.5956C38.5251 26.2329 37.5728 27.0741 36.4325 27.1581C35.213 27.2465 34.1766 26.3885 33.4802 25.5756C32.9886 26.4101 32.1522 27.0418 31.153 27.265C30.6703 27.3726 30.2287 27.4211 29.8258 27.4212ZM29.0583 16.1783C26.8632 17.3803 25.8623 19.9747 26.6472 22.3627C28.3939 21.2853 30.1585 19.779 30.8105 17.6661C31.3332 15.9716 29.7495 15.7999 29.0583 16.1783ZM49.2053 9.90698H21.8735C21.6753 9.90698 21.4852 9.82824 21.345 9.68808C21.2048 9.54791 21.1261 9.35781 21.1261 9.15959C21.1261 8.96137 21.2048 8.77127 21.345 8.6311C21.4852 8.49094 21.6753 8.4122 21.8735 8.4122H49.2053C49.4036 8.4122 49.5937 8.49094 49.7338 8.6311C49.874 8.77127 49.9527 8.96137 49.9527 9.15959C49.9527 9.35781 49.874 9.54791 49.7338 9.68808C49.5937 9.82824 49.4036 9.90698 49.2053 9.90698ZM67.1592 5.13982C67.1592 2.30122 64.8497 0 62.0008 0C59.1519 0 56.8425 2.30107 56.8425 5.13982V12.1962H67.1593V5.13982H67.1592Z" fill="#9BB6C6"/>
<path d="M53.5724 55.8187L49.1353 52.0824L48.1929 49.6724L44.8312 41.1487L32.931 39.21L31.1919 37.8931C31.1919 37.8931 27.2533 34.9852 23.4316 34.5512C21.8733 34.3742 20.3628 33.876 19.0225 33.0616C17.5912 32.1921 16.2538 30.9269 16.3519 29.2617L14.6269 29.765L1.73438 43.8256L2.82407 44.4417C4.74726 45.5292 6.37463 47.071 7.57345 48.9474L7.62009 49.0204C8.84176 50.9313 10.5371 52.4936 12.5412 53.5554L14.2406 54.4557L26.904 64.3561L33.5979 69.4711C34.7195 70.3602 36.3454 70.0903 37.2821 68.9334C38.3146 67.6584 38.1191 65.7884 36.8461 64.754C35.5732 63.7196 36.8461 64.7542 36.8461 64.754L39.0106 66.5067C40.2544 67.5138 42.0791 67.3222 43.0862 66.0786C44.0934 64.8349 43.9015 63.0102 42.6577 62.0029L45.0283 63.9226C46.2721 64.9298 48.0968 64.7382 49.1039 63.4945C50.1111 62.2509 49.9192 60.4262 48.6754 59.4188L49.8276 60.3519C51.0893 61.3737 52.9406 61.1794 53.9627 59.9179L53.963 59.9175C54.9713 58.6731 54.7977 56.8504 53.5724 55.8187Z" fill="#FFDECF"/>
<path d="M51.3551 58.825L50.2029 57.892L44.3404 53.1445L42.7695 54.6368L48.6754 59.4195L49.8276 60.3525C51.0894 61.3744 52.9406 61.18 53.9628 59.9186L53.9631 59.9181C54.1302 59.7107 54.2684 59.4816 54.3738 59.237C53.4015 59.657 52.2353 59.5379 51.3551 58.825Z" fill="#FFC7B3"/>
<path d="M35.1235 67.9451L30.6235 64.5063L26.9023 64.3574L33.5963 69.4724C34.7178 70.3615 36.3437 70.0916 37.2805 68.9348C37.4477 68.727 37.5862 68.4977 37.6921 68.253C36.8479 68.6134 35.8733 68.5394 35.1235 67.9451Z" fill="#FFC7B3"/>
<path d="M40.5368 64.9801L38.3723 63.2273L34.1158 59.7326L32.5977 61.2676L36.8449 64.7547L39.0094 66.5074C40.2532 67.5146 42.0779 67.323 43.0851 66.0793C43.2531 65.8709 43.3914 65.6401 43.496 65.3937C42.541 65.7994 41.3994 65.6786 40.5368 64.9801ZM46.5545 62.396L44.1839 60.4763L39.3735 56.7383L37.5796 58.05L42.6564 62.0037L45.0269 63.9234C46.2707 64.9306 48.0954 64.739 49.1026 63.4953C49.2707 63.2869 49.409 63.0561 49.5135 62.8096C48.5587 63.2153 47.4171 63.0945 46.5545 62.396Z" fill="#FFC7B3"/>
<path d="M14.3161 27.2073L18.7631 30.2064C19.6233 30.7867 19.8486 31.9561 19.2655 32.8148L7.89317 49.5619C7.3132 50.4159 6.1525 50.6398 5.29703 50.0628L0.850496 47.064C-0.00975222 46.4839 -0.235764 45.3156 0.347202 44.4568L11.7204 27.7071C12.3004 26.8532 13.4605 26.6303 14.3161 27.2073Z" fill="#F761A6"/>
<path d="M6.48406 43.5567C7.16419 44.0151 7.34386 44.9374 6.88511 45.6168C6.42651 46.2962 5.50318 46.4754 4.82305 46.0169C4.14293 45.5585 3.96325 44.6362 4.422 43.9567C4.88075 43.2774 5.80393 43.0984 6.48406 43.5567Z" fill="white"/>
<path d="M24.7464 37.0631L32.6015 32.2654C33.3804 31.7897 34.2562 31.4948 35.1642 31.4024C36.0722 31.3101 36.9894 31.4226 37.8482 31.7318L43.3695 33.7197C44.5122 34.1312 45.7518 34.1922 46.9294 33.8949L55.7978 31.6561L63.5062 47.6666C63.5062 47.6666 60.5276 54.1691 52.9715 55.3147L35.1456 39.9887L30.8971 41.2591L28.1352 44.6617C26.1642 47.0899 22.7658 47.8136 19.9764 46.3992C19.146 45.9781 18.8834 44.9179 19.4211 44.1579L23.8462 37.9042C24.086 37.5656 24.3923 37.2794 24.7464 37.0631Z" fill="#FFC7B3"/>
<path d="M56.993 27.2923L52.3478 29.9738C51.4491 30.4925 51.1429 31.6435 51.6647 32.5408L61.8421 50.041C62.3611 50.9334 63.5034 51.2379 64.3971 50.7219L69.0417 48.0408C69.9404 47.5221 70.2473 46.3723 69.7254 45.4752C67.4704 41.597 61.7953 31.8378 59.5473 27.9723C59.0283 27.0799 57.8867 26.7765 56.993 27.2923Z" fill="#6262F4"/>
<path d="M63.6649 44.1483C62.9544 44.558 62.7109 45.4656 63.1212 46.1755C63.5315 46.8854 64.4399 47.1284 65.1504 46.7187C65.8608 46.309 66.1043 45.4013 65.694 44.6915C65.2837 43.9816 64.3753 43.7385 63.6649 44.1483Z" fill="white"/>
<path d="M23.5244 55.4794L18.6804 62.3973C17.7974 63.6583 18.1237 65.3985 19.4034 66.2541L19.4473 66.2834C20.6916 67.1153 22.3729 66.7972 23.2272 65.5683L28.0474 58.6352C28.9108 57.3934 28.6071 55.6869 27.368 54.8193L27.348 54.8053C26.1059 53.9356 24.394 54.2376 23.5244 55.4794Z" fill="#FFC7B3"/>
<path d="M21.6946 66.2543C20.4149 65.3987 20.0886 63.6584 20.9716 62.3974L25.8156 55.4796C26.0949 55.0806 26.476 54.7637 26.9193 54.5618C25.7366 54.0165 24.2978 54.3751 23.5244 55.4796L18.6804 62.3974C17.7974 63.6584 18.1237 65.3987 19.4034 66.2543L19.4473 66.2836C20.269 66.8329 21.2801 66.8779 22.119 66.4932C21.9868 66.4334 21.8595 66.3634 21.7384 66.2836L21.6946 66.2543Z" fill="#F9AD95"/>
<path d="M21.9761 52.9049C23.2181 53.7746 23.5199 55.4864 22.6502 56.7283L18.6467 62.4458C17.7771 63.6878 16.0653 63.9896 14.8232 63.12C13.5812 62.2503 13.2794 60.5385 14.1491 59.2966L18.1526 53.5791C19.0222 52.3372 20.7341 52.0352 21.9761 52.9049Z" fill="#FFC7B3"/>
<path d="M16.4403 59.2967L20.4438 53.5792C20.7231 53.1802 21.1043 52.8633 21.5475 52.6614C20.3648 52.1161 18.926 52.4747 18.1526 53.5792L14.1491 59.2967C13.2794 60.5388 13.5812 62.2506 14.8232 63.1201C15.6509 63.6996 16.6862 63.7563 17.543 63.3638C17.3931 63.2956 17.2497 63.214 17.1144 63.1201C15.8726 62.2506 15.5708 60.5388 16.4403 59.2967Z" fill="#F9AD95"/>
<path d="M26.3289 61.0146L24.0749 64.2335C23.2052 65.4755 23.507 67.1872 24.749 68.0569C25.991 68.9265 27.7029 68.6247 28.5725 67.3827L30.8265 64.1639C31.6962 62.9218 31.3944 61.2102 30.1524 60.3405C28.9102 59.4708 27.1984 59.7726 26.3289 61.0146Z" fill="#FFC7B3"/>
<path d="M27.0402 68.057C25.7982 67.1873 25.4964 65.4755 26.3661 64.2336L28.6201 61.0147C28.8994 60.6158 29.2805 60.2988 29.7238 60.0969C28.5411 59.5516 27.1023 59.9102 26.3289 61.0147L24.0749 64.2336C23.2052 65.4756 23.507 67.1873 24.749 68.057C25.5767 68.6365 26.612 68.6932 27.4688 68.3006C27.3189 68.2324 27.1755 68.1509 27.0402 68.057Z" fill="#F9AD95"/>
<path d="M15.672 52.4362C14.43 51.5665 12.7182 51.8683 11.8485 53.1103L10.4694 55.0799C9.59973 56.3219 9.90153 58.0336 11.1435 58.9032C12.3856 59.7729 14.0974 59.4711 14.9671 58.2291L16.3461 56.2596C17.2158 55.0177 16.914 53.3059 15.672 52.4362Z" fill="#FFC7B3"/>
<path d="M13.4348 58.9033C12.1927 58.0337 11.8909 56.3218 12.7606 55.08L14.1397 53.1104C14.4191 52.7114 14.8002 52.3945 15.2434 52.1926C14.0608 51.6473 12.6219 52.0059 11.8485 53.1104L10.4694 55.08C9.59973 56.322 9.90153 58.0337 11.1435 58.9033C11.9712 59.4829 13.0065 59.5395 13.8633 59.147C13.7135 59.0786 13.5701 58.9971 13.4348 58.9033Z" fill="#F9AD95"/>
</g>
<defs>
<clipPath id="clip0_1014_436">
<rect width="70" height="70" fill="white"/>
</clipPath>
</defs>
</svg>
