<svg width="70" height="70" viewBox="0 0 70 70" fill="none" xmlns="http://www.w3.org/2000/svg">
<path d="M58.3346 5.83203H61.8346C63.6912 5.83203 65.4716 6.56953 66.7844 7.88228C68.0971 9.19504 68.8346 10.9755 68.8346 12.832V58.332C68.8346 60.1885 68.0971 61.969 66.7844 63.2818C65.4716 64.5945 63.6912 65.332 61.8346 65.332H8.16797C6.31145 65.332 4.53098 64.5945 3.21822 63.2818C1.90547 61.969 1.16797 60.1885 1.16797 58.332V12.832C1.16797 10.9755 1.90547 9.19504 3.21822 7.88228C4.53098 6.56953 6.31145 5.83203 8.16797 5.83203H58.3346Z" fill="#ECF0F1"/>
<path d="M50.1697 38.4987V52.4987L56.1547 56.4887C56.5624 56.7594 56.8721 57.1541 57.038 57.6145C57.2038 58.0749 57.2171 58.5764 57.0758 59.0449C56.9344 59.5134 56.646 59.924 56.2532 60.2158C55.8604 60.5077 55.3841 60.6653 54.8947 60.6654H15.1114C14.6224 60.6645 14.1467 60.5064 13.7545 60.2145C13.3623 59.9225 13.0743 59.5122 12.9331 59.0441C12.7919 58.576 12.8049 58.0749 12.9703 57.6148C13.1356 57.1546 13.4445 56.7598 13.8514 56.4887L19.8364 52.4987V38.4987C19.8351 34.8797 21.1279 31.3795 23.4813 28.6302C25.8348 25.8809 29.0938 24.0638 32.6697 23.507V22.1654C32.6716 21.5471 32.918 20.9547 33.3552 20.5175C33.7924 20.0803 34.3848 19.8339 35.003 19.832C35.6205 19.8366 36.2113 20.0839 36.6479 20.5205C37.0845 20.9571 37.3318 21.5479 37.3364 22.1654V23.507C39.4861 23.8345 41.5374 24.6311 43.3447 25.8404L50.1697 38.4987Z" fill="#F0C419"/>
<path d="M24.5704 38.4991C24.526 38.4993 24.4815 38.4966 24.4374 38.491C24.1303 38.4561 23.8495 38.3008 23.6568 38.059C23.4641 37.8173 23.3752 37.509 23.4096 37.2018C23.6644 35.0282 24.5198 32.9685 25.8799 31.254C27.24 29.5394 29.051 28.2378 31.1096 27.4951C31.254 27.4438 31.4071 27.4214 31.5602 27.4293C31.7132 27.4371 31.8632 27.475 32.0016 27.5408C32.14 27.6066 32.2641 27.6991 32.3668 27.8128C32.4694 27.9266 32.5487 28.0595 32.6 28.2039C32.6514 28.3483 32.6737 28.5014 32.6659 28.6544C32.658 28.8075 32.6201 28.9575 32.5543 29.0959C32.4885 29.2343 32.3961 29.3584 32.2823 29.461C32.1685 29.5637 32.0357 29.643 31.8913 29.6943C30.2433 30.2886 28.7934 31.3303 27.7043 32.7025C26.6153 34.0747 25.93 35.7232 25.7254 37.4631C25.6934 37.7474 25.5581 38.01 25.3451 38.201C25.1322 38.392 24.8565 38.4981 24.5704 38.4991Z" fill="#F3D55B"/>
<path d="M28 60.666V61.8327C28 63.6892 28.7375 65.4697 30.0503 66.7824C31.363 68.0952 33.1435 68.8327 35 68.8327C36.8565 68.8327 38.637 68.0952 39.9497 66.7824C41.2625 65.4697 42 63.6892 42 61.8327V60.666H28Z" fill="#F29C1F"/>
<path d="M50.1667 38.4993C54.677 38.4993 58.3333 34.843 58.3333 30.3327C58.3333 25.8224 54.677 22.166 50.1667 22.166C45.6563 22.166 42 25.8224 42 30.3327C42 34.843 45.6563 38.4993 50.1667 38.4993Z" fill="#3B97D3"/>
<path d="M50.169 34.9991C49.8596 34.9991 49.5629 34.8762 49.3441 34.6574C49.1253 34.4386 49.0024 34.1419 49.0024 33.8324V29.1658C48.7716 29.1657 48.5461 29.0973 48.3543 28.9691C48.1625 28.8409 48.013 28.6587 47.9247 28.4455C47.8364 28.2324 47.8133 27.9978 47.8583 27.7716C47.9033 27.5453 48.0144 27.3374 48.1775 27.1743L49.3442 26.0076C49.5073 25.8445 49.7152 25.7334 49.9415 25.6884C50.1678 25.6434 50.4023 25.6665 50.6155 25.7548C50.8286 25.8431 51.0108 25.9926 51.139 26.1844C51.2672 26.3762 51.3356 26.6017 51.3357 26.8324V33.8324C51.3357 34.1419 51.2128 34.4386 50.994 34.6574C50.7752 34.8762 50.4784 34.9991 50.169 34.9991Z" fill="#ECF0F1"/>
<path d="M68.8346 12.832V15.1654H1.16797V12.832C1.16797 10.9755 1.90547 9.19504 3.21822 7.88228C4.53098 6.56953 6.31145 5.83203 8.16797 5.83203H61.8346C63.6912 5.83203 65.4716 6.56953 66.7844 7.88228C68.0971 9.19504 68.8346 10.9755 68.8346 12.832Z" fill="#E64C3C"/>
<path d="M14.0013 10.4993C13.3825 10.4993 12.789 10.2535 12.3514 9.81593C11.9138 9.37835 11.668 8.78485 11.668 8.16602V3.49935C11.668 2.88051 11.9138 2.28702 12.3514 1.84943C12.789 1.41185 13.3825 1.16602 14.0013 1.16602C14.6201 1.16602 15.2136 1.41185 15.6512 1.84943C16.0888 2.28702 16.3346 2.88051 16.3346 3.49935V8.16602C16.3346 8.78485 16.0888 9.37835 15.6512 9.81593C15.2136 10.2535 14.6201 10.4993 14.0013 10.4993ZM28.0013 10.4993C27.3825 10.4993 26.789 10.2535 26.3514 9.81593C25.9138 9.37835 25.668 8.78485 25.668 8.16602V3.49935C25.668 2.88051 25.9138 2.28702 26.3514 1.84943C26.789 1.41185 27.3825 1.16602 28.0013 1.16602C28.6201 1.16602 29.2136 1.41185 29.6512 1.84943C30.0888 2.28702 30.3346 2.88051 30.3346 3.49935V8.16602C30.3346 8.78485 30.0888 9.37835 29.6512 9.81593C29.2136 10.2535 28.6201 10.4993 28.0013 10.4993ZM42.0013 10.4993C41.3825 10.4993 40.789 10.2535 40.3514 9.81593C39.9138 9.37835 39.668 8.78485 39.668 8.16602V3.49935C39.668 2.88051 39.9138 2.28702 40.3514 1.84943C40.789 1.41185 41.3825 1.16602 42.0013 1.16602C42.6201 1.16602 43.2136 1.41185 43.6512 1.84943C44.0888 2.28702 44.3346 2.88051 44.3346 3.49935V8.16602C44.3346 8.78485 44.0888 9.37835 43.6512 9.81593C43.2136 10.2535 42.6201 10.4993 42.0013 10.4993ZM56.0013 10.4993C55.3825 10.4993 54.789 10.2535 54.3514 9.81593C53.9138 9.37835 53.668 8.78485 53.668 8.16602V3.49935C53.668 2.88051 53.9138 2.28702 54.3514 1.84943C54.789 1.41185 55.3825 1.16602 56.0013 1.16602C56.6201 1.16602 57.2136 1.41185 57.6512 1.84943C58.0888 2.28702 58.3346 2.88051 58.3346 3.49935V8.16602C58.3346 8.78485 58.0888 9.37835 57.6512 9.81593C57.2136 10.2535 56.6201 10.4993 56.0013 10.4993Z" fill="#547580"/>
</svg>
