<svg width="70" height="70" viewBox="0 0 70 70" fill="none" xmlns="http://www.w3.org/2000/svg">
<g clip-path="url(#clip0_1017_2706)">
<path d="M66.7812 33.3206C67.1557 33.7878 68.0511 34.9305 68.0511 34.9305C68.0681 35.5599 67.8611 36.1749 67.467 36.666C63.306 41.8568 51.422 57.0226 34.9997 57.0226C33.7508 57.0226 32.5176 57.3118 31.3018 57.1433C17.8335 55.2777 6.58574 43.7778 1.7917 38.1278C1.7917 38.1278 1.72867 37.0891 1.38947 36.666C0.995356 36.175 0.788462 35.5599 0.805682 34.9305C0.805682 34.9305 0.968104 33.907 1.34258 33.44C5.50361 28.2492 18.2395 15.8359 34.6618 15.8359C51.084 15.8359 62.6202 28.1298 66.7812 33.3206Z" fill="#F2FBFF"/>
<path d="M69.9989 34.9303C70.0381 36.1415 69.1273 37.0329 68.2087 38.1275C62.9819 44.2882 50.0846 57.4009 35 57.4009C33.7506 57.4009 32.5169 57.3108 31.3013 57.1432C44.4196 55.3462 56.7578 43.5008 61.1328 37.6811C61.9472 36.5978 61.5066 35.0304 60.2455 34.534C51.6351 31.1439 43.1745 29.4303 35 29.4303C24.3181 29.4303 13.1463 32.3557 1.79126 38.1275C1.38205 37.6459 0.979649 37.1585 0.584172 36.6656C0.189917 36.1748 -0.0167843 35.5597 0.00106664 34.9303C0.00106664 34.9303 0.967258 33.9063 1.34187 33.4403C5.18558 28.6431 16.3518 17.681 30.9829 16.0429C31.9565 15.9437 32.9039 15.8424 34.6619 15.8359C51.0832 15.8359 64.5677 28.1304 68.7297 33.3206C69.1045 33.7882 69.9989 34.9303 69.9989 34.9303Z" fill="#DFF6FD"/>
<path d="M53.715 31.6708C53.715 31.862 54.2633 32.251 54.2577 32.4409C53.9553 42.818 45.4483 51.1373 34.998 51.1373C24.5478 51.1373 16.0406 42.818 15.7383 32.4409C15.7328 32.251 16.3925 31.5041 16.3925 31.3128C16.3925 20.6713 24.3567 13.7949 34.9982 13.7949C45.6397 13.7949 53.715 21.0293 53.715 31.6708Z" fill="#A9F099"/>
<path d="M54.266 31.8685C54.266 32.0601 54.2631 32.2503 54.2575 32.4404C47.711 30.439 41.2701 29.4306 34.9982 29.4306C28.7264 29.4306 22.2854 30.439 15.7389 32.4404C15.7333 32.2498 15.7305 32.0592 15.7305 31.8685C15.7305 26.7656 17.7136 22.1262 20.953 18.6797C25.098 16.9628 29.7121 15.8359 34.6601 15.8359C39.9179 15.8359 44.8743 17.0965 49.3194 18.9796C52.3956 22.3924 54.266 26.9122 54.266 31.8685Z" fill="#8CDCA3"/>
<path d="M40.3377 42.3527H40.3374C39.1764 42.3552 38.0502 42.7492 37.141 43.4712L37.1408 43.4714C34.9165 45.2375 31.683 44.8731 29.9074 42.6564L29.9073 42.6562C29.1814 41.7501 28.1711 41.1153 27.0398 40.8544H27.0395C24.2719 40.2166 22.5406 37.4613 23.1668 34.691V34.6907C23.4227 33.5583 23.2892 32.3726 22.7877 31.3254L22.7875 31.3253C22.6923 31.1265 22.6097 30.922 22.5404 30.7128C21.7388 28.2922 24.2209 25.5951 26.5763 24.4547V24.4546C27.6212 23.9486 27.0806 23.1049 27.5865 22.06L27.5866 22.0598C28.8244 19.5035 31.8957 18.4289 34.4573 19.6556L34.4574 19.6558C35.5046 20.1573 36.6903 20.2909 37.8228 20.0349H37.823C40.5934 19.4087 43.3485 21.14 43.9865 23.9076V23.9079C44.2472 25.0392 43.9768 26.0496 44.8829 26.7754L44.9607 26.7755C46.2077 27.7743 47.6962 29.2343 47.7213 30.7166C47.7426 31.9106 47.3473 33.0747 46.6034 34.0089L46.6033 34.0091C45.8813 34.9183 45.4872 36.0445 45.4848 37.2055V37.2058C45.4789 40.0457 43.1779 42.3467 40.3377 42.3527Z" fill="#6E6F80"/>
<path d="M47.7199 30.7648C43.4171 29.8761 39.1704 29.4296 34.9986 29.4296C30.9113 29.4296 26.752 29.8578 22.5379 30.7114C22.3654 30.1917 22.2774 29.6477 22.2773 29.1001C22.2773 27.1832 23.3492 25.3438 25.1886 24.4536C25.7076 24.2021 26.1808 23.8656 26.5886 23.4579C26.9959 23.0502 27.3324 22.5775 27.5844 22.0593V22.0579C28.821 19.5015 31.8928 18.4269 34.4549 19.6537V19.6551C35.5018 20.1566 36.6874 20.2901 37.8197 20.0339C38.1944 19.9486 38.5776 19.9056 38.962 19.9058C41.3113 19.9058 43.4339 21.5213 43.9831 23.9058V23.9071C44.2444 25.0382 44.8796 26.048 45.7859 26.7733V26.7747C47.0467 27.7845 47.7087 29.2647 47.7199 30.7648Z" fill="#575965"/>
<path d="M60.1902 17.5753C59.9614 17.5754 59.7388 17.5009 59.5561 17.3631C51.3144 11.1655 43.0522 8.02287 34.9993 8.02287C26.9463 8.02287 18.6843 11.1655 10.4426 17.3631C10.2184 17.5274 9.93858 17.5967 9.66365 17.556C9.38872 17.5154 9.14089 17.3681 8.97385 17.146C8.8068 16.9238 8.73401 16.6449 8.77125 16.3694C8.80848 16.094 8.95274 15.8444 9.17276 15.6746C17.7888 9.19537 26.4781 5.91016 34.9993 5.91016C43.5205 5.91016 52.2098 9.19537 60.8259 15.6746C61.0031 15.8079 61.1338 15.9934 61.1996 16.2051C61.2655 16.4167 61.2631 16.6437 61.1927 16.854C61.1224 17.0642 60.9878 17.2469 60.8078 17.3764C60.6279 17.5058 60.4118 17.5754 60.1902 17.5753ZM34.9993 64.0914C30.0954 64.0914 25.0823 62.9889 20.0993 60.8144C19.9722 60.7589 19.8572 60.6789 19.761 60.579C19.6647 60.4791 19.5891 60.3612 19.5385 60.232C19.4878 60.1029 19.4631 59.965 19.4657 59.8263C19.4683 59.6876 19.4982 59.5508 19.5537 59.4237C19.6091 59.2965 19.6891 59.1815 19.789 59.0853C19.889 58.989 20.0069 58.9134 20.136 58.8627C20.2651 58.8121 20.403 58.7873 20.5417 58.79C20.6804 58.7926 20.8172 58.8225 20.9444 58.878C25.6593 60.9354 30.3881 61.9787 34.9995 61.9787C39.6101 61.9787 44.3382 60.9355 49.0532 58.878C49.3093 58.7697 49.5979 58.7667 49.8562 58.8697C50.1145 58.9728 50.3217 59.1735 50.433 59.4284C50.5442 59.6833 50.5505 59.9718 50.4504 60.2312C50.3503 60.4907 50.1519 60.7002 49.8983 60.8144C44.915 62.9889 39.9025 64.0914 34.9993 64.0914Z" fill="#FFC7B6"/>
<path d="M69.9981 34.9297C60.5008 30.0858 48.3022 25.7682 34.999 25.7682C21.6959 25.7682 9.4973 30.0858 0 34.9297C0.0153215 34.349 0.220309 33.7893 0.583652 33.336C4.74537 28.1443 18.5763 12.5996 34.999 12.5996C51.4218 12.5996 65.2527 28.1443 69.4144 33.336C69.7778 33.7893 69.9828 34.349 69.9981 34.9297Z" fill="#FFC7B6"/>
</g>
<defs>
<clipPath id="clip0_1017_2706">
<rect width="70" height="70" fill="white"/>
</clipPath>
</defs>
</svg>
