<svg width="64" height="48" viewBox="0 0 64 48" fill="none" xmlns="http://www.w3.org/2000/svg">
<path d="M48.7174 39.5268C48.6909 39.5797 47.1985 42.3268 47.1985 42.3268L41.2947 42.4193L37.3853 42.2212L35.2589 42.8419C35.0608 44.1627 33.9249 45.1796 32.5513 45.1796H31.4419C30.0683 45.1796 28.9325 44.1627 28.7343 42.8419L26.6211 42.2212L22.7249 42.4193L16.8079 42.3268C16.8079 42.3268 15.3155 39.5797 15.2891 39.5268C15.2891 39.4608 17.3362 38.2853 17.3362 38.2853L28.4834 37.123L31.9966 40.0815H32.0098L35.5362 37.123L46.6702 38.2853C46.6702 38.2853 48.7174 39.4608 48.7174 39.5268Z" fill="#DEDDFF"/>
<path d="M48.7174 39.5268C48.6909 39.5796 47.1985 42.3268 47.1985 42.3268L41.2947 42.4192L37.3853 42.2211L35.2589 42.8419C35.0608 44.1626 33.9249 45.1796 32.5513 45.1796H31.4419C30.0683 45.1796 28.9325 44.1626 28.7343 42.8419L26.6211 42.2211L22.7249 42.4192L16.8079 42.3268C16.8079 42.3268 15.3155 39.5796 15.2891 39.5268C15.2891 39.5136 15.4343 39.4211 15.6325 39.2891C16.0683 40.1079 16.8079 41.4683 16.8079 41.4683L22.7249 41.5608L26.4864 41.2966L28.5996 41.9174C28.9325 43.3042 30.0683 44.3211 31.4419 44.3211H32.5513C33.9249 44.3211 35.2259 43.1615 35.424 41.8408L37.3853 41.3626L41.2947 41.5608L47.1985 41.4683C47.1985 41.4683 47.9381 40.1079 48.374 39.2891C48.5721 39.4211 48.7174 39.5136 48.7174 39.5268Z" fill="#C6C6F7"/>
<path d="M63.6955 42.7233C63.6955 43.5157 63.0616 44.1497 62.2691 44.1497H37.4125C37.1595 45.1432 36.5839 46.0245 35.776 46.6556C34.968 47.2866 33.9735 47.6316 32.9483 47.6365H31.0597C28.9068 47.6365 27.0974 46.144 26.5955 44.1497H1.73892C0.946462 44.1497 0.3125 43.5157 0.3125 42.7233C0.3125 41.9308 0.946462 41.2969 1.73892 41.2969H27.6257C28.2465 41.2969 28.7087 41.8252 28.7087 42.4459C28.7087 43.9516 29.937 45.1799 31.4427 45.1799H32.5521C34.0578 45.1799 35.2861 43.9516 35.2861 42.4459C35.2993 41.8252 35.7616 41.2969 36.3823 41.2969H62.2691C63.0616 41.2969 63.6955 41.9308 63.6955 42.7233Z" fill="#65B9FF"/>
<path d="M63.6916 42.7171C63.6916 43.5228 63.0577 44.1435 62.2652 44.1435H37.4086C36.9067 46.1511 35.0841 47.6435 32.9444 47.6435H31.0558C28.9029 47.6435 27.0935 46.1511 26.5916 44.1435H1.73501C0.942556 44.1435 0.308594 43.5228 0.308594 42.7171C0.308594 42.453 0.374632 42.2152 0.4935 42.0039C0.744443 42.4265 1.20671 42.7171 1.73501 42.7171H26.5916C26.8428 43.7116 27.4179 44.5941 28.2262 45.2255C29.0345 45.8568 30.0301 46.2011 31.0558 46.2039H32.9444C35.0841 46.2039 36.9067 44.7115 37.4086 42.7171H62.2652C62.7935 42.7171 63.2558 42.4265 63.5067 42.0039C63.6256 42.2152 63.6916 42.453 63.6916 42.7171Z" fill="#3E7FFF"/>
<path d="M32.0073 40.0834C32.0073 40.0834 24.1342 35.9891 17.8607 41.2972H3.34028C3.10189 41.2982 2.86734 41.2371 2.65969 41.12C2.45205 41.0029 2.27846 40.8337 2.15601 40.6292C2.03355 40.4246 1.96643 40.1917 1.96126 39.9534C1.95609 39.7151 2.01304 39.4795 2.12651 39.2698L4.49858 34.8717C4.95424 34.0436 6.05707 33.9208 6.71745 34.5943C8.12538 36.0155 10.965 37.504 16.1225 35.2983C18.3982 34.3342 20.8667 33.8098 23.3207 34.1677C26.2158 34.5957 29.7052 36.03 32.0073 40.0834ZM60.661 41.2972H46.1407C39.8671 35.9877 32.0086 40.0821 32.0086 40.0821C34.2961 36.0287 37.7856 34.5957 40.6807 34.1677C43.1346 33.8098 45.6031 34.3328 47.8788 35.2983C53.035 37.504 55.8759 36.0155 57.2825 34.5957C57.9442 33.9194 59.0471 34.0436 59.5014 34.8704L61.8748 39.2685C62.3846 40.1798 61.7097 41.2972 60.661 41.2972Z" fill="#DEDDFF"/>
<path d="M6.71875 32.186C8.76328 33.7974 11.3652 33.8132 13.6316 33.0841C15.8504 32.429 17.4723 31.1228 20.9974 30.8758C23.8833 30.7345 26.4693 31.6313 28.5125 33.306C30.6284 34.9358 31.9993 37.5192 32.0072 40.0815C31.3569 37.7016 29.8528 35.6446 27.7821 34.3032C25.772 32.9956 23.4448 32.2692 21.0925 32.4568C17.9557 32.5994 16.0406 33.9136 13.9274 34.2807C10.5754 35.0032 8.01045 33.9175 6.71875 32.186ZM57.2957 32.186C56.5323 33.2109 55.3489 33.9426 54.0546 34.2807C50.8888 35.0415 48.2169 33.6732 46.4272 33.1304C42.7767 31.9747 39.5052 32.1768 36.2323 34.3032C34.1617 35.6446 32.6576 37.7016 32.0072 40.0815C32.0165 37.5192 33.3861 34.9358 35.502 33.306C38.4182 30.9155 42.3844 30.0741 46.9093 31.7132C48.9037 32.4832 53.5369 35.1472 57.2957 32.186Z" fill="#DEDDFF"/>
<path d="M26.3562 40.082C27.6545 40.082 28.7072 41.1346 28.7072 42.4329C28.5011 41.7858 28.1551 41.3816 27.6241 41.2971H3.33545C2.30527 41.2971 1.64489 40.2008 2.10715 39.3027C2.31847 39.7518 2.76753 40.082 3.33545 40.082H26.3562ZM37.6473 40.082C37.3386 40.082 37.0329 40.1428 36.7477 40.2609C36.4624 40.3791 36.2033 40.5523 35.985 40.7706C35.7667 40.9889 35.5935 41.248 35.4754 41.5333C35.3572 41.8185 35.2964 42.1242 35.2964 42.4329C35.5024 41.7858 35.8485 41.3816 36.3794 41.2971H60.6681C61.6983 41.2971 62.3587 40.2008 61.8964 39.3027C61.6851 39.7518 61.236 40.082 60.6681 40.082H37.6473Z" fill="#C6C6F7"/>
<path d="M52.2626 3.51207V14.3026C52.2626 15.9008 50.9683 17.1951 49.3702 17.1951L47.7192 17.1423C47.6076 17.1407 47.497 17.1649 47.3962 17.213C47.2955 17.2611 47.2071 17.3318 47.1381 17.4196L44.8136 20.2592C44.523 20.6158 43.9815 20.6158 43.6909 20.2592L41.3664 17.4064C41.2955 17.3251 41.2083 17.2596 41.1104 17.2141C41.0126 17.1686 40.9063 17.1441 40.7985 17.1423H40.257L31.5004 17.1951C30.6632 17.1951 29.8603 16.8625 29.2683 16.2705C28.6763 15.6786 28.3438 14.8757 28.3438 14.0385V3.51207C28.3438 2.67489 28.6763 1.872 29.2683 1.28002C29.8603 0.688039 30.6632 0.355469 31.5004 0.355469H49.0928C50.8494 0.355469 52.2626 1.76868 52.2626 3.51207Z" fill="#FCB73E" fill-opacity="0.8"/>
<path d="M30.3249 3.51207V14.0385C30.3249 15.6762 31.5664 17.0234 33.1645 17.1819L31.5004 17.1951C30.6632 17.1951 29.8603 16.8625 29.2683 16.2705C28.6763 15.6786 28.3438 14.8757 28.3438 14.0385V3.51207C28.3438 2.67489 28.6763 1.87199 29.2683 1.28002C29.8603 0.688039 30.6632 0.355469 31.5004 0.355469H33.4815C32.6443 0.355469 31.8414 0.688039 31.2494 1.28002C30.6575 1.87199 30.3249 2.67489 30.3249 3.51207Z" fill="#FD982E"/>
<path d="M49.8984 17.1426C49.7399 17.1822 49.5814 17.1954 49.4229 17.1954C49.5154 17.1558 49.6078 17.1426 49.7003 17.1426H49.8984ZM40.7984 17.1426C40.8248 17.1426 40.8644 17.1426 40.8908 17.1558L33.4814 17.1954C33.389 17.1954 33.3097 17.1954 33.2305 17.1822L40.2569 17.1426H40.7984Z" fill="#CE2955"/>
<path d="M40.257 8.755V17.1418L31.5004 17.1946C30.6632 17.1946 29.8603 16.8621 29.2683 16.2701C28.6763 15.6781 28.3438 14.8752 28.3438 14.038V3.8418H35.3438C38.0513 3.8418 40.257 6.04746 40.257 8.755Z" fill="#FD982E"/>
<path d="M38.9326 9.30595V20.7278C38.9322 21.6804 38.5536 22.5938 37.8799 23.2672C37.2062 23.9407 36.2927 24.319 35.3401 24.319L24.5363 24.2609L24.2458 24.3414L18.1426 28.0712C18.0593 28.1222 17.9639 28.15 17.8663 28.1518C17.7687 28.1536 17.6724 28.1294 17.5872 28.0817C17.5021 28.0339 17.4312 27.9644 17.3818 27.8801C17.3325 27.7959 17.3065 27.7 17.3065 27.6024V24.8182C17.3066 24.7447 17.2918 24.6719 17.2632 24.6042C17.2346 24.5365 17.1928 24.4752 17.14 24.424C17.0873 24.3728 17.0249 24.3326 16.9564 24.306C16.8879 24.2793 16.8147 24.2667 16.7412 24.2688L15.0295 24.3176C14.1576 24.3173 13.3214 23.9707 12.705 23.3539C12.0885 22.7372 11.7422 21.9009 11.7422 21.029V9.30463C11.7422 8.76077 11.8493 8.22224 12.0575 7.7198C12.2657 7.21735 12.5708 6.76084 12.9554 6.37634C13.34 5.99184 13.7966 5.68687 14.2991 5.47886C14.8017 5.27086 15.3402 5.16389 15.8841 5.16406H34.7907C35.3345 5.16389 35.8731 5.27086 36.3756 5.47886C36.8781 5.68687 37.3347 5.99184 37.7194 6.37634C38.104 6.76084 38.4091 7.21735 38.6173 7.7198C38.8254 8.22224 38.9326 8.76077 38.9326 9.30463V9.30595Z" fill="#E83D62" fill-opacity="0.9"/>
<path d="M16.7545 24.2746L15.0282 24.3222C14.1575 24.3197 13.3231 23.9728 12.7073 23.357C12.0916 22.7413 11.7446 21.9069 11.7422 21.0362V8.75313C11.7439 7.80174 12.1233 6.88996 12.7969 6.21809C13.4705 5.54622 14.3832 5.16922 15.3346 5.16993H17.6063C16.6547 5.16852 15.7415 5.54503 15.0673 6.21669C14.3932 6.88835 14.0133 7.80019 14.0112 8.75181V21.0348C14.012 21.8119 14.2879 22.5636 14.7901 23.1566C15.2922 23.7497 15.9881 24.1458 16.7545 24.2746Z" fill="#CE2955" fill-opacity="0.5"/>
<path d="M26.5727 8.9673V11.1003L26.2332 17.3554C26.2211 17.5516 26.1345 17.7358 25.9912 17.8703C25.8478 18.0049 25.6585 18.0796 25.4619 18.0792C25.2661 18.0791 25.0777 18.0041 24.9355 17.8695C24.7933 17.7349 24.708 17.5509 24.6972 17.3554L24.3564 11.1003V8.9673C24.3564 8.65692 24.4647 8.38749 24.6787 8.17221C24.7821 8.06685 24.906 7.98388 25.0428 7.92844C25.1795 7.873 25.3263 7.84628 25.4738 7.84994C25.7908 7.84994 26.0536 7.95692 26.257 8.17221C26.4657 8.38749 26.5727 8.65692 26.5727 8.9673ZM24.6483 21.0641C24.5359 20.9551 24.447 20.8242 24.3872 20.6795C24.3275 20.5348 24.2981 20.3793 24.301 20.2228C24.301 19.9058 24.4159 19.6311 24.6483 19.3999C24.7544 19.2888 24.8822 19.2007 25.0237 19.1409C25.1652 19.0812 25.3175 19.0511 25.4712 19.0526C25.6279 19.0499 25.7835 19.0794 25.9284 19.1391C26.0733 19.1989 26.2045 19.2876 26.3138 19.3999C26.4245 19.5063 26.5123 19.6341 26.5718 19.7756C26.6313 19.9171 26.6613 20.0693 26.6598 20.2228C26.6625 20.3792 26.6331 20.5345 26.5736 20.6791C26.5141 20.8238 26.4257 20.9548 26.3138 21.0641C26.2045 21.1764 26.0733 21.2652 25.9284 21.3249C25.7835 21.3846 25.6279 21.4141 25.4712 21.4115C25.3175 21.4129 25.1652 21.3829 25.0237 21.3231C24.8822 21.2634 24.7544 21.1752 24.6483 21.0641Z" fill="#DEDDFF"/>
</svg>
