<svg width="66" height="70" viewBox="0 0 66 70" fill="none" xmlns="http://www.w3.org/2000/svg">
<path d="M31.9068 58.2383H30.918" stroke="black" stroke-width="15.472" stroke-miterlimit="1" stroke-linecap="round" stroke-linejoin="round"/>
<path d="M49.3782 56.3162L60.8235 49.6558C61.3199 49.3667 61.8671 49.2271 62.4086 49.2271C63.3295 49.2271 64.2348 49.629 64.8511 50.3849C65.9849 51.7697 65.7395 53.8173 64.3138 54.8976L47.2559 67.801C45.4818 69.1423 43.3186 69.8682 41.0946 69.8684H37.7031C36.3507 69.8681 35.0119 69.5992 33.7643 69.0772L21.2247 63.8341H11.6917L3.85938 63.8581V50.3609H14.9916C17.2985 48.054 20.4273 46.7579 23.6898 46.7578H23.9718C27.2337 46.7578 30.3615 48.0538 32.6686 50.3609L33.3935 51.0843H42.7178C44.1452 51.0842 45.5383 51.5223 46.7087 52.3394C47.8789 53.1572 48.7698 54.3145 49.2612 55.6548C49.3387 55.8664 49.3782 56.0906 49.3782 56.3162Z" fill="#FFE6C4"/>
<path d="M64.4991 50.0176C64.4393 50.0709 64.3774 50.1219 64.3138 50.1706L47.2559 63.074C45.4818 64.4153 43.3186 65.1412 41.0946 65.1414H37.7031C36.3507 65.1411 35.0119 64.8722 33.7643 64.3503L21.5643 59.2491C21.3402 59.1553 21.0996 59.1071 20.8567 59.1071H11.6917L3.85938 59.1311V63.8567L11.6917 63.8327H21.2247L33.7643 69.0759C35.0119 69.5979 36.3507 69.8668 37.7031 69.867H41.0946C43.3185 69.867 45.4818 69.1408 47.2559 67.7997L64.3138 54.8962C65.7395 53.816 65.9849 51.7684 64.8511 50.3835C64.7438 50.2523 64.6261 50.1299 64.4991 50.0176Z" fill="#FED3A7"/>
<path d="M47.6047 59.4736C48.9602 59.4736 50.2685 58.5475 51.0079 57.7107C51.795 56.8197 52.1494 55.8778 52.0152 55.0431L52.01 54.7832L49.4587 56.2679C49.4243 56.3083 49.3889 56.348 49.3527 56.3869C48.7844 56.9934 48.0195 57.4011 47.5317 57.3549C47.4989 57.3518 47.4659 57.3502 47.433 57.3502H35.6436C35.3631 57.3502 35.0941 57.4616 34.8957 57.66C34.6974 57.8583 34.5859 58.1274 34.5859 58.4079C34.5859 58.6884 34.6974 58.9574 34.8957 59.1558C35.0941 59.3541 35.3631 59.4655 35.6436 59.4655H47.3893C47.4612 59.471 47.5328 59.4736 47.6047 59.4736Z" fill="#FED3A7"/>
<path d="M11.6351 64.0654V59.1734H11.6932V49.6269C11.6932 48.393 10.6928 47.3926 9.4589 47.3926H1.49219V66.8023H9.45904C10.693 66.8023 11.6934 65.8021 11.6934 64.568V64.0071L11.6351 64.0654Z" fill="#D4F2F6"/>
<path d="M9.45904 60.8984H1.49219V66.8008H9.45904C10.693 66.8008 11.6934 65.8006 11.6934 64.5665V58.6641C11.6932 59.8981 10.693 60.8984 9.45904 60.8984Z" fill="#A7E6EF"/>
<path d="M1.49125 69.9995C1.21074 69.9995 0.941725 69.8881 0.743375 69.6898C0.545025 69.4914 0.433594 69.2224 0.433594 68.9419V45.2647C0.433594 44.9842 0.545025 44.7152 0.743375 44.5168C0.941725 44.3185 1.21074 44.207 1.49125 44.207C1.77176 44.207 2.04078 44.3185 2.23913 44.5168C2.43748 44.7152 2.54891 44.9842 2.54891 45.2647V68.9419C2.54891 69.2224 2.43748 69.4914 2.23913 69.6898C2.04078 69.8881 1.77176 69.9995 1.49125 69.9995Z" fill="#A7E6EF"/>
<path d="M53.8932 4.17395C48.3278 -1.39132 39.3047 -1.39132 33.7395 4.17395L33.3793 4.53398L33.0191 4.17395C27.4539 -1.39132 18.4306 -1.39132 12.8654 4.17395C7.30009 9.73921 7.30009 18.7625 12.8654 24.3277L30.8944 42.3567C32.2668 43.7291 34.4918 43.7291 35.8641 42.3567L53.8931 24.3277C59.4585 18.7625 59.4585 9.73935 53.8932 4.17395Z" fill="#FD828A"/>
<path d="M21.6057 24.3276C16.0404 18.7623 16.0404 9.73908 21.6057 4.17381C23.2623 2.51709 25.2254 1.35381 27.3124 0.683535C22.3882 -0.898159 16.774 0.265126 12.8654 4.17381C7.30009 9.73908 7.30009 18.7623 12.8654 24.3276L30.8944 42.3566C32.2668 43.729 34.4918 43.729 35.8641 42.3566L37.7493 40.4714L21.6057 24.3276Z" fill="#FD6773"/>
<path d="M33.3843 33.7842C40.3793 33.7842 46.0498 28.1137 46.0498 21.1187C46.0498 14.1237 40.3793 8.45312 33.3843 8.45312C26.3893 8.45312 20.7188 14.1237 20.7188 21.1187C20.7188 28.1137 26.3893 33.7842 33.3843 33.7842Z" fill="#F9F7F8"/>
<path d="M21.6049 24.328C21.3869 24.1096 21.1761 23.8843 20.9727 23.6523C21.9766 28.5958 25.8597 32.4934 30.7955 33.5186L21.6049 24.328Z" fill="#EFEDEF"/>
<path d="M39.6416 19.1189H35.9535V15.4308C35.9535 15.287 35.8964 15.1491 35.7947 15.0474C35.693 14.9458 35.5552 14.8887 35.4114 14.8887H31.3463C31.2025 14.8887 31.0647 14.9458 30.963 15.0474C30.8613 15.1491 30.8042 15.287 30.8042 15.4308V19.1189H27.1161C26.9723 19.1189 26.8344 19.176 26.7328 19.2777C26.6311 19.3793 26.574 19.5172 26.574 19.661V23.7261C26.574 23.8698 26.6311 24.0077 26.7328 24.1094C26.8344 24.211 26.9723 24.2681 27.1161 24.2681H30.8042V27.9563C30.8042 28.1 30.8613 28.2379 30.963 28.3396C31.0647 28.4412 31.2025 28.4984 31.3463 28.4984H35.4114C35.5552 28.4984 35.693 28.4412 35.7947 28.3396C35.8964 28.2379 35.9535 28.1 35.9535 27.9563V24.2681H39.6416C39.7854 24.2681 39.9233 24.211 40.0249 24.1094C40.1266 24.0077 40.1837 23.8698 40.1837 23.7261V19.661C40.1837 19.5172 40.1265 19.3794 40.0249 19.2777C39.9232 19.176 39.7854 19.1189 39.6416 19.1189ZM60.4769 35.8938H58.125V33.542C58.125 33.3824 58.0616 33.2294 57.9488 33.1166C57.836 33.0038 57.6829 32.9404 57.5234 32.9404H54.427C54.2674 32.9404 54.1144 33.0038 54.0016 33.1166C53.8888 33.2294 53.8254 33.3824 53.8254 33.542V35.8938H51.4734C51.3139 35.8938 51.1609 35.9572 51.048 36.07C50.9352 36.1828 50.8718 36.3358 50.8718 36.4954V39.5918C50.8718 39.7513 50.9352 39.9044 51.048 40.0172C51.1609 40.13 51.3139 40.1934 51.4734 40.1934H53.8254V42.5453C53.8254 42.7049 53.8888 42.8579 54.0016 42.9707C54.1144 43.0836 54.2674 43.1469 54.427 43.1469H57.5234C57.6829 43.1469 57.836 43.0836 57.9488 42.9707C58.0616 42.8579 58.125 42.7049 58.125 42.5453V40.1934H60.4769C60.6365 40.1934 60.7895 40.13 60.9023 40.0172C61.0151 39.9044 61.0785 39.7513 61.0785 39.5918V36.4954C61.0785 36.3358 61.0151 36.1828 60.9023 36.07C60.7895 35.9572 60.6365 35.8938 60.4769 35.8938ZM6.43363 35.8938H8.78544V33.542C8.78544 33.3824 8.84882 33.2294 8.96164 33.1166C9.07447 33.0038 9.22748 32.9404 9.38704 32.9404H12.4834C12.643 32.9404 12.796 33.0038 12.9088 33.1166C13.0217 33.2294 13.085 33.3824 13.085 33.542V35.8938H15.437C15.5965 35.8938 15.7496 35.9572 15.8624 36.07C15.9752 36.1828 16.0386 36.3358 16.0386 36.4954V39.5918C16.0386 39.7513 15.9752 39.9044 15.8624 40.0172C15.7496 40.13 15.5965 40.1934 15.437 40.1934H13.085V42.5453C13.085 42.7049 13.0217 42.8579 12.9088 42.9707C12.796 43.0836 12.643 43.1469 12.4834 43.1469H9.38704C9.22748 43.1469 9.07447 43.0836 8.96164 42.9707C8.84882 42.8579 8.78544 42.7049 8.78544 42.5453V40.1934H6.43363C6.27408 40.1934 6.12106 40.13 6.00824 40.0172C5.89541 39.9044 5.83203 39.7513 5.83203 39.5918V36.4954C5.83203 36.3358 5.89541 36.1828 6.00824 36.07C6.12106 35.9572 6.27408 35.8938 6.43363 35.8938Z" fill="#FD828A"/>
</svg>
