<svg width="70" height="70" viewBox="0 0 70 70" fill="none" xmlns="http://www.w3.org/2000/svg">
<g clip-path="url(#clip0_1014_352)">
<path d="M26.2002 70.0008H51.9385C54.1352 70.0008 55.9161 68.22 55.9161 66.0232V39.0859H16.2366L13.207 46.9254L22.5436 69.2297L26.2002 70.0008Z" fill="#FFE8B3"/>
<path d="M23.448 65.6001V39.0859H7.74219V66.0232C7.74219 68.22 9.52295 70.0008 11.7197 70.0008H14.2013C14.4226 70.0008 14.6369 69.9239 14.8077 69.7832C14.9785 69.6426 15.0951 69.447 15.1376 69.2298L16.1064 64.2717C16.1343 64.1293 16.3381 64.1293 16.3659 64.2717L17.3346 69.2298C17.3771 69.447 17.4937 69.6426 17.6645 69.7832C17.8353 69.9239 18.0497 70.0008 18.2709 70.0008H26.1998C24.5708 69.2064 23.448 67.5345 23.448 65.6001Z" fill="#E37858"/>
<path d="M10.0108 46.5645C13.4491 46.5645 16.2364 43.7772 16.2364 40.3389C16.2364 36.9006 13.4491 34.1133 10.0108 34.1133C6.57246 34.1133 3.78516 36.9006 3.78516 40.3389C3.78516 43.7772 6.57246 46.5645 10.0108 46.5645Z" fill="#FED2A4"/>
<path d="M53.6084 46.5645C57.0468 46.5645 59.8341 43.7772 59.8341 40.3389C59.8341 36.9006 57.0468 34.1133 53.6084 34.1133C50.1701 34.1133 47.3828 36.9006 47.3828 40.3389C47.3828 43.7772 50.1701 46.5645 53.6084 46.5645Z" fill="#FFBD86"/>
<path d="M50.1251 30.8242C52.5066 34.3493 53.8971 38.5988 53.8971 43.173C53.8971 55.371 44.0087 65.2595 31.8106 65.2595C31.7525 65.2595 31.6944 65.2592 31.6363 65.2588L26.9017 64.0275L12.25 45.1863L22.1077 26.6229L40.7445 25.4453L50.1251 30.8242Z" fill="#FED2A4"/>
<path d="M13.4646 30.8761C11.1039 34.3909 9.72656 38.6213 9.72656 43.1738C9.72656 55.3135 19.5211 65.1642 31.6388 65.258C24.3339 60.6234 19.4846 52.4652 19.4846 43.1738C19.4846 36.2383 22.1864 29.9344 26.5945 25.2559L13.4646 30.8761Z" fill="#FFBD86"/>
<path d="M51.4022 22.0196L48.2006 13.8804C48.052 13.5027 48.0299 13.0869 48.1376 12.6956C48.2454 12.3042 48.4771 11.9583 48.7982 11.7099L55.0947 6.83653C56.0839 6.0709 57.5312 6.46944 57.9891 7.63346L60.79 14.7538L59.1571 21.1359L51.4022 22.0196Z" fill="#FF89CA"/>
<path d="M51.4023 22.0196L58.4786 27.16C58.8071 27.3986 59.204 27.5242 59.6099 27.518C60.0157 27.5119 60.4087 27.3743 60.7297 27.1259L67.0263 22.2525C68.0155 21.4869 67.9926 19.986 66.9806 19.2509L60.7901 14.7539L51.4023 22.0196Z" fill="#FFB3DD"/>
<path d="M39.2558 15.4396H24.3688C23.121 15.4396 22.1094 14.4281 22.1094 13.1802V2.25941C22.1094 1.01158 23.121 0 24.3688 0H39.2558C40.5037 0 41.5152 1.01158 41.5152 2.25941V13.1802C41.5151 14.4281 40.5037 15.4396 39.2558 15.4396Z" fill="#5C85DA"/>
<path d="M34.4263 6.18484L30.8685 4.13064C29.6874 3.44869 28.2109 4.30113 28.2109 5.6649V9.7733C28.2109 11.1371 29.6874 11.9895 30.8685 11.3076L34.4263 9.25336C35.6074 8.57154 35.6074 6.86666 34.4263 6.18484Z" fill="#FBF198"/>
<path d="M20.4299 45.1866C22.7492 45.1866 24.6294 43.6893 24.6294 41.8423C24.6294 39.9953 22.7492 38.498 20.4299 38.498C18.1106 38.498 16.2305 39.9953 16.2305 41.8423C16.2305 43.6893 18.1106 45.1866 20.4299 45.1866Z" fill="#FFA1AC"/>
<path d="M43.1916 45.1866C45.5109 45.1866 47.3911 43.6893 47.3911 41.8423C47.3911 39.9953 45.5109 38.498 43.1916 38.498C40.8723 38.498 38.9922 39.9953 38.9922 41.8423C38.9922 43.6893 40.8723 45.1866 43.1916 45.1866Z" fill="#FFA1AC"/>
<path d="M36.72 39.7111C36.72 37.5881 34.5222 37.3887 31.8111 37.3887C29.1001 37.3887 26.9023 37.5881 26.9023 39.7111C26.9023 41.8339 29.1001 43.555 31.8111 43.555C34.5222 43.5548 36.72 41.8339 36.72 39.7111Z" fill="#3B4456"/>
<path d="M23.7862 28.8038C25.9789 28.1751 28.0348 27.4565 29.9114 26.6745C30.513 26.4241 31.1582 26.2952 31.8099 26.2952C32.4615 26.2952 33.1067 26.4241 33.7083 26.6745C36.9846 28.0398 40.8077 29.2117 44.9511 30.0495C46.678 30.3994 48.4182 30.6803 50.1676 30.8913C46.2042 24.9796 39.4618 21.0879 31.8099 21.0879C31.7518 21.0879 31.6937 21.0882 31.6356 21.0886L28.216 21.8614L23.2344 27.3101L23.7862 28.8038Z" fill="#ED9B84"/>
<path d="M31.6356 21.0898C24.0562 21.1489 17.3861 25.0241 13.4531 30.8905C15.2025 30.6794 16.9427 30.3986 18.6696 30.0487C20.3913 29.7014 22.0984 29.2856 23.787 28.8024C25.8294 25.7063 28.5043 23.0778 31.6356 21.0898Z" fill="#E37858"/>
<path d="M11.5182 7.54492C11.3295 7.21823 11.0641 6.94236 10.7449 6.74114C10.4258 6.53991 10.0625 6.41937 9.68632 6.38991C9.31018 6.36045 8.93252 6.42296 8.58593 6.57205C8.23934 6.72113 7.93423 6.95232 7.69694 7.24565L2.7566 13.3547C2.156 14.0973 2.07328 15.152 2.55084 15.9791L6.45813 22.7468C6.52743 22.867 6.61974 22.9724 6.72979 23.0568C6.83983 23.1413 6.96545 23.2033 7.09946 23.2392C7.23346 23.2751 7.37324 23.2843 7.51078 23.2661C7.64832 23.248 7.78094 23.2029 7.90106 23.1335C8.02119 23.0641 8.12648 22.9718 8.21093 22.8617C8.29538 22.7517 8.35732 22.6261 8.39322 22.4921C8.42912 22.3581 8.43828 22.2183 8.42018 22.0808C8.40207 21.9433 8.35706 21.8107 8.2877 21.6905L4.38041 14.9228C4.3591 14.8856 4.34949 14.8428 4.35286 14.8001C4.35623 14.7573 4.3724 14.7166 4.39928 14.6831L9.33975 8.574C9.361 8.54677 9.38878 8.52534 9.42052 8.51169C9.45226 8.49805 9.48692 8.49263 9.52131 8.49594C9.57217 8.4999 9.64244 8.5215 9.68865 8.60149L13.5694 15.3233C13.7118 15.5613 13.9421 15.7338 14.2105 15.8035C14.479 15.8732 14.764 15.8345 15.0042 15.6959C15.2444 15.5572 15.4205 15.3296 15.4943 15.0623C15.5682 14.7949 15.5339 14.5093 15.399 14.267L11.5182 7.54492Z" fill="#E83074"/>
<path d="M24.7144 33.7498L21.7391 33.2252C21.4648 33.1802 21.1838 33.2452 20.957 33.406C20.7303 33.5668 20.5761 33.8104 20.5278 34.0842C20.4795 34.3579 20.5411 34.6397 20.6991 34.8684C20.8572 35.097 21.099 35.2542 21.3721 35.3058L24.3474 35.8304C24.6233 35.8789 24.9071 35.8159 25.1366 35.6553C25.366 35.4947 25.5224 35.2495 25.5712 34.9737C25.5953 34.8371 25.5923 34.697 25.5623 34.5616C25.5322 34.4261 25.4759 34.2979 25.3963 34.1842C25.3167 34.0706 25.2155 33.9737 25.0985 33.8992C24.9815 33.8246 24.851 33.7739 24.7144 33.7498ZM43.1066 34.082C43.0826 33.9453 43.0319 33.8147 42.9574 33.6977C42.8829 33.5806 42.786 33.4794 42.6724 33.3998C42.5587 33.3203 42.4304 33.2639 42.295 33.2339C42.1595 33.2039 42.0194 33.201 41.8828 33.2252L38.9074 33.7498C38.7708 33.7738 38.6402 33.8246 38.5232 33.8991C38.4062 33.9737 38.305 34.0705 38.2255 34.1842C38.1459 34.2978 38.0895 34.426 38.0595 34.5615C38.0295 34.6969 38.0265 34.8369 38.0506 34.9735C38.0993 35.2494 38.2556 35.4946 38.4851 35.6552C38.7146 35.8159 38.9985 35.8788 39.2744 35.8302L42.2498 35.3056C42.3864 35.2816 42.5169 35.2308 42.6339 35.1563C42.7509 35.0818 42.8521 34.9849 42.9316 34.8713C43.0112 34.7577 43.0676 34.6295 43.0976 34.494C43.1276 34.3586 43.1307 34.2186 43.1066 34.082Z" fill="#3B4456"/>
<path d="M7.39524 25.4379C8.78795 24.6338 9.38039 23.0526 8.71849 21.9062C8.05659 20.7597 6.391 20.4822 4.99829 21.2863C3.60558 22.0904 3.01314 23.6716 3.67504 24.818C4.33694 25.9645 6.00253 26.242 7.39524 25.4379Z" fill="#FBF198"/>
<path d="M14.407 18.1567C15.7997 17.3526 16.3921 15.7714 15.7302 14.6249C15.0683 13.4785 13.4027 13.2009 12.01 14.005C10.6173 14.8091 10.0249 16.3903 10.6868 17.5368C11.3487 18.6832 13.0142 18.9607 14.407 18.1567Z" fill="#FBF198"/>
<path d="M22.8766 35.8633C22.7379 35.8633 22.6005 35.8906 22.4724 35.9437C22.3442 35.9967 22.2277 36.0745 22.1297 36.1726C22.0316 36.2707 21.9538 36.3872 21.9007 36.5153C21.8476 36.6435 21.8203 36.7809 21.8203 36.9196V38.6097C21.8203 38.7484 21.8476 38.8858 21.9007 39.0139C21.9538 39.1421 22.0316 39.2585 22.1297 39.3566C22.2277 39.4547 22.3442 39.5325 22.4724 39.5856C22.6005 39.6387 22.7379 39.666 22.8766 39.666C23.0153 39.666 23.1527 39.6387 23.2808 39.5856C23.409 39.5325 23.5255 39.4547 23.6236 39.3566C23.7216 39.2585 23.7994 39.1421 23.8525 39.0139C23.9056 38.8858 23.9329 38.7484 23.9329 38.6097V36.9196C23.9329 36.6394 23.8216 36.3708 23.6235 36.1727C23.4254 35.9746 23.1567 35.8633 22.8766 35.8633ZM40.7444 35.8633C40.6057 35.8633 40.4683 35.8906 40.3401 35.9437C40.212 35.9967 40.0955 36.0745 39.9974 36.1726C39.8993 36.2707 39.8215 36.3872 39.7685 36.5153C39.7154 36.6435 39.6881 36.7809 39.6881 36.9196V38.6097C39.6881 38.8898 39.7994 39.1585 39.9975 39.3566C40.1956 39.5547 40.4642 39.666 40.7444 39.666C41.0245 39.666 41.2932 39.5547 41.4913 39.3566C41.6894 39.1585 41.8007 38.8898 41.8007 38.6097V36.9196C41.8007 36.7809 41.7734 36.6435 41.7203 36.5153C41.6672 36.3872 41.5894 36.2707 41.4913 36.1726C41.3932 36.0745 41.2768 35.9967 41.1486 35.9437C41.0205 35.8906 40.8831 35.8633 40.7444 35.8633Z" fill="#3B4456"/>
</g>
<defs>
<clipPath id="clip0_1014_352">
<rect width="70" height="70" fill="white"/>
</clipPath>
</defs>
</svg>
