<svg width="70" height="56" viewBox="0 0 70 56" fill="none" xmlns="http://www.w3.org/2000/svg">
<path d="M34.9415 44.7313H16.8164L18.086 32.7277L16.8164 31.0518V29.9461C16.8164 27.7592 18.5892 25.9863 20.7762 25.9863H29.9402L31.1691 26.346C33.3561 26.346 35.1289 28.1189 35.1289 30.3058L34.9415 44.7313Z" fill="#F5D3E8"/>
<path d="M35.7462 29.9452L36.9986 34.662L35.7462 44.7305H32.6698V29.9452C32.6698 27.7594 30.8967 25.9863 28.7109 25.9863H31.7874C33.9731 25.9863 35.7462 27.7596 35.7462 29.9452Z" fill="#F2C5E1"/>
<path d="M53.8712 44.7312H35.7461V29.9461C35.7461 27.7592 37.5189 25.9863 39.7059 25.9863H48.8699L50.0988 26.346C52.2858 26.346 54.0586 28.1189 54.0586 30.3058L53.8712 44.7312Z" fill="#F5D3E8"/>
<path d="M50.7172 25.9863H47.6406C49.8263 25.9863 51.5995 27.7594 51.5995 29.9452V30.675C51.5995 31.3409 51.2693 31.9553 50.7336 32.351C49.093 33.5627 48.0266 35.5091 48.0266 37.7007V39.1116H51.103V44.7303H54.6759V29.9452C54.676 27.7587 52.9036 25.9863 50.7172 25.9863Z" fill="#F2C5E1"/>
<path d="M4.62127 55.0042H2.98434C2.7989 55.0042 2.62106 54.9306 2.48994 54.7994C2.35882 54.6683 2.28516 54.4905 2.28516 54.305V47.6425L2.91078 43.8359H5.33986L5.98326 47.6425L5.31662 54.3789C5.29839 54.5506 5.21727 54.7094 5.08888 54.8249C4.9605 54.9404 4.79393 55.0042 4.62127 55.0042Z" fill="#E198C5"/>
<path d="M49.1966 18.8513L45.1783 19.5722H21.5703C21.4785 19.5722 21.3875 19.5541 21.3027 19.519C21.2179 19.4838 21.1408 19.4323 21.0759 19.3674C21.011 19.3025 20.9595 19.2254 20.9243 19.1406C20.8892 19.0558 20.8711 18.9648 20.8711 18.873V1.69527C20.8711 1.60346 20.8892 1.51254 20.9243 1.42771C20.9595 1.34288 21.011 1.2658 21.0759 1.20088C21.1408 1.13595 21.2179 1.08445 21.3027 1.04932C21.3875 1.01418 21.4785 0.996094 21.5703 0.996094H46.742L49.4017 1.60832C49.5871 1.60832 49.765 1.68198 49.8961 1.81311C50.0272 1.94423 50.1009 2.12207 50.1009 2.3075L49.8958 18.1521C49.8958 18.3375 49.8221 18.5154 49.691 18.6465C49.5599 18.7776 49.3821 18.8513 49.1966 18.8513Z" fill="#FFF5D1"/>
<path d="M50.6246 1.69486V18.873C50.6247 18.9648 50.6066 19.0557 50.5715 19.1405C50.5364 19.2253 50.4849 19.3023 50.42 19.3672C50.3552 19.4321 50.2781 19.4836 50.1933 19.5187C50.1085 19.5538 50.0176 19.5718 49.9259 19.5718H44.2148C45.6109 19.5718 46.7414 18.4413 46.7414 17.0452V15.2801L45.7417 11.076L46.7414 5.28797V0.996094H49.9259C50.1112 0.996202 50.2888 1.06986 50.4198 1.20088C50.5509 1.3319 50.6245 1.50957 50.6246 1.69486Z" fill="#FFEEAC"/>
<path d="M46.7416 5.28756V10.1311L46.0306 10.5397C43.4278 10.5397 43.4278 11.9263 40.8234 11.9263C38.2206 11.9263 38.2206 10.5397 35.6163 10.5397C33.0135 10.5397 33.0135 11.9263 30.4093 11.9263C27.8064 11.9263 27.8064 10.5397 25.2034 10.5397L24.7539 10.1311V5.28756C24.7542 5.17928 24.7974 5.07552 24.874 4.99896C24.9505 4.92239 25.0543 4.87923 25.1626 4.87891H46.3329C46.4412 4.87927 46.5449 4.92244 46.6215 4.999C46.698 5.07556 46.7412 5.17929 46.7416 5.28756Z" fill="#FFDBD8"/>
<path d="M46.7416 10.1309V15.2794C46.7415 15.3878 46.6984 15.4917 46.6218 15.5683C46.5452 15.6449 46.4413 15.688 46.3329 15.6881H25.1626C25.0542 15.688 24.9503 15.6449 24.8737 15.5683C24.7971 15.4917 24.754 15.3878 24.7539 15.2794V10.1309H25.2034C27.8063 10.1309 27.8063 11.5175 30.4093 11.5175C33.0135 11.5175 33.0135 10.1309 35.6163 10.1309C38.2206 10.1309 38.2206 11.5175 40.8234 11.5175C43.4276 11.5175 43.4276 10.1309 46.0306 10.1309H46.7416Z" fill="#FFC4BF"/>
<path d="M5.33961 34.3079C5.06824 34.3079 4.80798 34.2 4.6161 34.0082C4.42421 33.8163 4.31641 33.556 4.31641 33.2846V21.6775C4.31641 21.4061 4.42421 21.1459 4.6161 20.954C4.80798 20.7621 5.06824 20.6543 5.33961 20.6543C5.61098 20.6543 5.87124 20.7621 6.06312 20.954C6.25501 21.1459 6.36281 21.4061 6.36281 21.6775V33.2846C6.36281 33.556 6.25501 33.8163 6.06312 34.0082C5.87124 34.2 5.61098 34.3079 5.33961 34.3079Z" fill="#ACD793"/>
<path d="M8.53237 41.651L5.34149 42.2433L2.01745 41.8089L1.16911 33.8671C1.1574 33.7714 1.16613 33.6743 1.19475 33.5823C1.22336 33.4902 1.27119 33.4053 1.33507 33.3331C1.39896 33.2609 1.47744 33.2032 1.56533 33.1636C1.65322 33.124 1.74851 33.1035 1.84491 33.1035H8.83807C8.93446 33.1035 9.02976 33.124 9.11765 33.1636C9.20554 33.2032 9.28402 33.2609 9.34791 33.3331C9.41179 33.4053 9.45962 33.4902 9.48823 33.5823C9.51684 33.6743 9.52558 33.7714 9.51387 33.8671L8.53237 41.651Z" fill="#76D1DA"/>
<path d="M5.14801 23.3443L3.99 22.1862C2.75898 20.9552 2.75898 18.9593 3.99 17.7281L5.14801 16.5701C5.19918 16.519 5.26857 16.4902 5.34092 16.4902C5.41327 16.4902 5.48266 16.519 5.53383 16.5701L6.69184 17.7281C7.92285 18.9591 7.92285 20.9551 6.69184 22.1862L5.53383 23.3443C5.48266 23.3954 5.41327 23.4241 5.34092 23.4241C5.26857 23.4241 5.19918 23.3954 5.14801 23.3443ZM10.4089 24.6263H8.66633C6.82979 24.6263 5.34092 26.1151 5.34092 27.9517C5.34092 26.1151 3.85205 24.6263 2.01551 24.6263H0.272891C0.237054 24.6263 0.201569 24.6333 0.16846 24.647C0.135351 24.6608 0.105268 24.6809 0.0799278 24.7062C0.0545876 24.7315 0.0344866 24.7616 0.0207726 24.7947C0.00705852 24.8278 0 24.8633 0 24.8992L0 26.6418C0 28.4783 1.48887 29.9672 3.32541 29.9672H7.35643C9.19297 29.9672 10.6818 28.4783 10.6818 26.6418V24.8992C10.6818 24.8633 10.6748 24.8278 10.6611 24.7947C10.6473 24.7616 10.6272 24.7315 10.6019 24.7062C10.5766 24.6809 10.5465 24.6608 10.5134 24.647C10.4803 24.6333 10.4448 24.6263 10.4089 24.6263Z" fill="#C9E5B8"/>
<path d="M6.35869 43.8359L5.98258 47.6423H2.28516V43.8359H6.35869Z" fill="#DD88BC"/>
<path d="M16.0552 43.9398L10.1685 44.5646H0.919453C0.808207 44.5646 0.701518 44.5204 0.622855 44.4418C0.544192 44.3631 0.5 44.2564 0.5 44.1452V41.4175C0.5 41.3063 0.544192 41.1996 0.622855 41.1209C0.701518 41.0422 0.808207 40.998 0.919453 40.998H10.1685L16.0552 41.8342V43.9398Z" fill="#D466A9"/>
<path d="M62.9785 54.654C62.8407 54.654 62.7043 54.6269 62.5771 54.5742C62.4498 54.5215 62.3342 54.4443 62.2368 54.3469C62.1394 54.2495 62.0622 54.1339 62.0095 54.0066C61.9568 53.8794 61.9297 53.743 61.9297 53.6053V15.5351C61.9297 15.2569 62.0402 14.9902 62.2369 14.7935C62.4335 14.5968 62.7003 14.4863 62.9785 14.4863C63.2566 14.4863 63.5234 14.5968 63.72 14.7935C63.9167 14.9902 64.0272 15.2569 64.0272 15.5351V53.6053C64.0272 53.8834 63.9167 54.1502 63.72 54.3468C63.5234 54.5435 63.2566 54.654 62.9785 54.654Z" fill="#F5D3E8"/>
<path d="M68.724 54.6546L65.2182 55.0042H57.6969L55.957 51.6928C55.957 51.4567 56.0508 51.2303 56.2177 51.0634C56.3846 50.8965 56.611 50.8027 56.8471 50.8027H66.7842L68.8245 50.9974C69.0605 50.9974 69.2869 51.0912 69.4538 51.2581C69.6207 51.425 69.7145 51.6514 69.7145 51.8875L69.614 53.7647C69.614 53.8816 69.591 53.9973 69.5462 54.1053C69.5015 54.2133 69.436 54.3114 69.3533 54.3941C69.2707 54.4767 69.1725 54.5422 69.0646 54.5869C68.9566 54.6317 68.8408 54.6547 68.724 54.6546Z" fill="#E89FCD"/>
<path d="M70.0008 51.6922V54.1142C70.0007 54.2311 69.9776 54.3468 69.9327 54.4547C69.8879 54.5627 69.8223 54.6608 69.7396 54.7433C69.6569 54.8259 69.5587 54.8914 69.4507 54.9361C69.3427 54.9807 69.2269 55.0036 69.11 55.0036H64.5625C65.7902 55.0036 66.7846 54.0093 66.7846 52.7828V50.8027H69.1102C69.3462 50.8027 69.5726 50.8963 69.7396 51.0631C69.9066 51.2299 70.0005 51.4562 70.0008 51.6922Z" fill="#E289C2"/>
<path d="M10.168 40.998H16.0552V44.5653H10.168V40.998Z" fill="#C74D9B"/>
<path d="M23.4657 37.7002V44.73H16.8164V31.0508C20.4829 31.0508 23.4657 34.0336 23.4657 37.7002Z" fill="#F2C5E1"/>
<path d="M35.1314 49.8748H19.668V40.15L23.4686 39.1113H30.4076L31.6389 39.4609C33.5678 39.4609 35.1314 41.0246 35.1314 42.9534V49.8748Z" fill="#D466A9"/>
<path d="M19.668 39.1113H23.4688V49.8748H19.668V39.1113ZM35.7496 42.6031L36.8043 45.5591L35.7496 49.8748H32.9528V42.6031C32.9528 40.6747 31.3894 39.1113 29.4596 39.1113H32.2565C34.1861 39.1113 35.7496 40.6747 35.7496 42.6031Z" fill="#C74D9B"/>
<path d="M51.1034 49.8748H35.7461V42.6038C35.7461 40.675 37.3097 39.1113 39.2386 39.1113H48.0269L51.1034 40.2684V49.8748Z" fill="#D466A9"/>
<path d="M48.0273 39.1113H52.3449V49.8748H48.0273V39.1113Z" fill="#C74D9B"/>
<path d="M51.1052 50.5343L48.0287 51.8864H23.4673L19.4297 50.6922V47.9283L23.4673 47.4277H48.0287L51.1052 48.3231V50.5343Z" fill="#CC3F9B"/>
<path d="M19.4297 47.4277H23.4669V51.8872H19.4297V47.4277ZM48.0282 47.4277H52.3458V51.8872H48.0282V47.4277Z" fill="#C62A8F"/>
<path d="M67.432 17.6487L64.9124 18.0407H57.7429C56.8352 18.0407 56.168 17.1893 56.385 16.308L58.4707 7.83557C58.5455 7.5319 58.7199 7.26207 58.966 7.06917C59.2122 6.87628 59.5159 6.77147 59.8286 6.77148H62.9801L65.5867 7.19367C65.8994 7.1937 66.2031 7.29853 66.4492 7.49142C66.6954 7.6843 66.8698 7.95412 66.9446 8.25775L68.7899 15.9159C69.0068 16.7973 68.3398 17.6487 67.432 17.6487Z" fill="#CC3F9B"/>
<path d="M68.2146 18.0401H64.2342C65.1418 18.0401 65.8085 17.1884 65.5916 16.3067L63.5058 7.8342C63.4311 7.53073 63.2567 7.26109 63.0106 7.06843C62.7646 6.87576 62.461 6.7712 62.1484 6.77148H66.1289C66.7717 6.77148 67.3329 7.20926 67.4862 7.8342L69.572 16.3067C69.789 17.1882 69.1222 18.0401 68.2146 18.0401Z" fill="#C62A8F"/>
<path d="M56.8589 54.3654L55.3146 55.0025H51.6603C51.5131 55.0025 51.372 54.944 51.268 54.84C51.1639 54.7359 51.1055 54.5948 51.1055 54.4477V37.6993C51.1055 36.2497 51.9694 35.0031 53.21 34.4427C53.21 34.4427 54.1786 34.4238 54.7024 34.4238C56.6758 34.4238 57.5321 36.412 57.5321 38.3854L57.4137 53.8105C57.4137 53.9577 57.3552 54.0988 57.2512 54.2029C57.1471 54.3069 57.006 54.3654 56.8589 54.3654Z" fill="#F5D3E8"/>
<path d="M58.2522 37.7V54.4486C58.2522 54.7548 58.0047 55.0023 57.6985 55.0023H55.3156V37.7C55.3156 36.7141 54.9157 35.8205 54.2696 35.173C53.9641 34.8672 53.6054 34.6198 53.2109 34.443C53.6723 34.2342 54.1729 34.1264 54.6793 34.127C55.6652 34.127 56.5588 34.5269 57.2063 35.173C57.8523 35.8205 58.2522 36.7141 58.2522 37.7Z" fill="#F2C5E1"/>
<path d="M19.8337 55.0032H13.797C13.6498 55.0032 13.5087 54.9448 13.4047 54.8407C13.3006 54.7367 13.2422 54.5956 13.2422 54.4484V37.7001C13.2422 35.7267 14.8419 34.127 16.8153 34.127C18.7887 34.127 20.3885 35.7267 20.3885 37.7001V54.4486C20.3885 54.5214 20.3741 54.5935 20.3462 54.6609C20.3184 54.7282 20.2775 54.7893 20.226 54.8408C20.1744 54.8923 20.1133 54.9332 20.046 54.961C19.9787 54.9889 19.9065 55.0032 19.8337 55.0032Z" fill="#F5D3E8"/>
</svg>
