<svg width="70" height="70" viewBox="0 0 70 70" fill="none" xmlns="http://www.w3.org/2000/svg">
<g clip-path="url(#clip0_1014_482)">
<path d="M66.3574 69.9995H3.64453C2.88943 69.9995 2.27734 69.3874 2.27734 68.6323V45.3926H67.7246V68.6323C67.7246 69.3874 67.1124 69.9995 66.3574 69.9995Z" fill="#FFE8B3"/>
<path d="M63.1719 45.3926V68.6323C63.1719 69.3874 62.5598 69.9995 61.8047 69.9995H66.3576C67.1127 69.9995 67.7247 69.3874 67.7247 68.6323V45.3926H63.1719Z" fill="#E37858"/>
<path d="M51.7971 0.00258392C44.2415 0.144771 38.0579 6.27087 37.8493 13.825C37.7676 16.7848 38.5905 19.5475 40.061 21.8575L39.1852 25.7537C39.002 26.5688 39.7302 27.2971 40.5453 27.1138L44.4415 26.238C46.7515 27.7085 49.5142 28.5314 52.4738 28.4497C60.028 28.241 66.1539 22.0576 66.2964 14.502C66.4486 6.42713 59.872 -0.149447 51.7971 0.00258392Z" fill="#FFE177"/>
<path d="M57.7778 1.18945C60.9053 3.87707 62.8866 7.86092 62.8866 12.308C62.8866 20.4014 56.3256 26.9624 48.2321 26.9624C47.1548 26.9624 46.1049 26.8451 45.0938 26.6245C47.265 27.8496 49.7887 28.5232 52.4762 28.449C60.0303 28.2404 66.1562 22.057 66.2987 14.5013C66.4105 8.55559 62.8742 3.42248 57.7778 1.18945Z" fill="#FFD15B"/>
<path d="M30.4359 30.5772L26.5155 29.6895V29.6897H13.6063V29.6895L9.68559 30.5772C6.18477 31.3699 3.69922 34.4809 3.69922 38.0704V43.575H36.4223V38.0704C36.4223 34.481 33.9368 31.3699 30.4359 30.5772Z" fill="#FF3B83"/>
<path d="M22.9576 42.2079L26.5147 29.6894L23.3325 28.9688H16.7876L13.6055 29.6894L17.1625 42.2079L20.06 44.1132L22.9576 42.2079Z" fill="#D8ECFE"/>
<path d="M30.4372 30.5774L29.457 30.3555C31.1245 31.7788 32.1552 33.8898 32.1552 36.2002V43.5752H36.4235V38.0706C36.4235 34.4812 33.938 31.3701 30.4372 30.5774Z" fill="#E83074"/>
<path d="M20.0614 32.2406C18.2541 32.2406 16.7891 30.7755 16.7891 28.9682V25.4824H23.3338V28.9682C23.3338 30.7755 21.8687 32.2406 20.0614 32.2406Z" fill="#F6A96C"/>
<path d="M12.4247 8.48438V13.4838L11.1875 16.3925L12.4247 19.3012V19.6647C12.4247 23.8816 15.8432 27.3 20.06 27.3C24.277 27.3 27.6953 23.8815 27.6953 19.6647V8.48438H12.4247Z" fill="#FED2A4"/>
<path d="M23.9959 8.48438V19.6648C23.9959 23.2421 21.5355 26.2436 18.2148 27.0722C18.8181 27.2234 19.4377 27.3 20.0596 27.3002C24.2765 27.3002 27.6949 23.8816 27.6949 19.6648V19.3013L28.779 16.3926L27.6949 13.4839V8.48438H23.9959Z" fill="#FFBD86"/>
<path d="M9.51562 16.3931H11.1871L12.4243 13.4844C12.4243 13.4844 20.161 13.3984 23.6116 10.4122C23.8872 10.1737 24.3104 10.2648 24.4662 10.5945C24.8851 11.4803 25.8264 12.9101 27.695 13.4844L29.8766 16.3931H30.6038V10.544C30.6038 4.72076 25.883 0 20.0596 0C14.2364 0 9.51562 4.72076 9.51562 10.544V16.3931Z" fill="#7A6D79"/>
<path d="M20.0625 0C19.2496 0 18.4594 0.0950195 17.6992 0.269199C22.384 1.34258 25.8799 5.53369 25.8799 10.544V12.477C26.4085 12.9366 27.0279 13.2798 27.6979 13.4843L29.8795 16.393H30.6067V10.544C30.6067 4.72076 25.8859 0 20.0625 0Z" fill="#685E68"/>
<path d="M29.1508 19.3018H27.6964V13.4844H29.1508C30.7573 13.4844 32.0595 14.7866 32.0595 16.3931C32.0595 17.9995 30.7571 19.3018 29.1508 19.3018ZM10.9712 19.3018H12.4256V13.4844H10.9712C9.36475 13.4844 8.0625 14.7866 8.0625 16.3931C8.0625 17.9995 9.36475 19.3018 10.9712 19.3018Z" fill="#F6A96C"/>
<path d="M52.0727 24.1864C57.5731 24.1864 62.0321 19.7274 62.0321 14.227C62.0321 8.72656 57.5731 4.26758 52.0727 4.26758C46.5723 4.26758 42.1133 8.72656 42.1133 14.227C42.1133 19.7274 46.5723 24.1864 52.0727 24.1864Z" fill="#EAF6FF"/>
<path d="M10.8965 44.6008C10.6245 44.6008 10.3637 44.4928 10.1714 44.3005C9.97913 44.1082 9.87109 43.8474 9.87109 43.5754V38.9043C9.87109 38.3379 10.3302 37.8789 10.8965 37.8789C11.4628 37.8789 11.9219 38.3379 11.9219 38.9043V43.5754C11.9219 43.8474 11.8138 44.1082 11.6215 44.3005C11.4292 44.4928 11.1684 44.6008 10.8965 44.6008ZM29.2223 44.6008C28.9503 44.6008 28.6895 44.4928 28.4972 44.3005C28.3049 44.1082 28.1969 43.8474 28.1969 43.5754V38.9043C28.1969 38.3379 28.656 37.8789 29.2223 37.8789C29.7886 37.8789 30.2477 38.3379 30.2477 38.9043V43.5754C30.2477 43.8474 30.1396 44.1082 29.9473 44.3005C29.755 44.4928 29.4942 44.6008 29.2223 44.6008Z" fill="#E83074"/>
<path d="M52.0723 20.8025C51.8003 20.8025 51.5395 20.6945 51.3472 20.5022C51.1549 20.3099 51.0469 20.0491 51.0469 19.7771V13.2324C51.0469 12.666 51.506 12.207 52.0723 12.207C52.6386 12.207 53.0977 12.666 53.0977 13.2324V19.7771C53.0977 20.0491 52.9896 20.3099 52.7973 20.5022C52.605 20.6945 52.3442 20.8025 52.0723 20.8025Z" fill="#60B7FF"/>
<path d="M52.0723 9.70508C52.6386 9.70508 53.0977 9.246 53.0977 8.67969C53.0977 8.11338 52.6386 7.6543 52.0723 7.6543C51.506 7.6543 51.0469 8.11338 51.0469 8.67969C51.0469 9.246 51.506 9.70508 52.0723 9.70508Z" fill="#60B7FF"/>
<path d="M68.8618 46.7598H1.13818C0.836318 46.7598 0.546817 46.6399 0.333366 46.4264C0.119915 46.2129 0 45.9234 0 45.6216L0 43.3452C0 43.0434 0.119915 42.7539 0.333366 42.5404C0.546817 42.3269 0.836318 42.207 1.13818 42.207H68.8618C69.1637 42.207 69.4532 42.3269 69.6666 42.5404C69.8801 42.7539 70 43.0434 70 43.3452V45.6216C70 45.9234 69.8801 46.2129 69.6666 46.4264C69.4532 46.6399 69.1637 46.7598 68.8618 46.7598Z" fill="#FFBD86"/>
<path d="M68.8615 42.207H64.3086C64.6105 42.207 64.9 42.3269 65.1134 42.5404C65.3269 42.7538 65.4468 43.0433 65.4468 43.3452V45.6216C65.4468 45.9234 65.3269 46.2129 65.1134 46.4264C64.9 46.6399 64.6105 46.7598 64.3086 46.7598H68.8615C69.1633 46.7598 69.4528 46.6399 69.6663 46.4264C69.8797 46.2129 69.9996 45.9234 69.9996 45.6216V43.3452C69.9996 43.0433 69.8797 42.7538 69.6663 42.5404C69.4528 42.3269 69.1633 42.207 68.8615 42.207Z" fill="#FED2A4"/>
</g>
<defs>
<clipPath id="clip0_1014_482">
<rect width="70" height="70" fill="white"/>
</clipPath>
</defs>
</svg>
