<svg width="70" height="70" viewBox="0 0 70 70" fill="none" xmlns="http://www.w3.org/2000/svg">
<path d="M6.5625 70C5.42992 70 4.51172 69.0818 4.51172 67.9492V65.4093C4.51172 64.8618 4.23979 64.3538 3.78438 64.0501C2.99805 63.5272 2.35334 62.8178 1.90773 61.9851C1.46212 61.1525 1.22945 60.2226 1.23047 59.2782V56.875C1.23047 55.7424 2.14868 54.8242 3.28125 54.8242C4.41383 54.8242 5.33203 55.7424 5.33203 56.875V59.2782C5.33203 59.8257 5.60397 60.3337 6.05938 60.6374C6.84571 61.1603 7.49042 61.8697 7.93603 62.7024C8.38164 63.535 8.61431 64.4649 8.61328 65.4093V67.9492C8.61328 69.0818 7.69508 70 6.5625 70ZM14.2188 67.6758C13.0862 67.6758 12.168 66.7576 12.168 65.625V63.2218C12.168 62.6743 11.896 62.1663 11.4406 61.8626C10.6543 61.3397 10.0096 60.6303 9.56398 59.7976C9.11837 58.965 8.8857 58.0351 8.88672 57.0907V54.6875C8.88672 53.5549 9.80492 52.6367 10.9375 52.6367C12.0701 52.6367 12.9883 53.5549 12.9883 54.6875V57.0907C12.9883 57.6382 13.2602 58.1462 13.7156 58.4499C14.5019 58.9728 15.1466 59.6822 15.5922 60.5148C16.0378 61.3474 16.2705 62.2773 16.2695 63.2216V65.625C16.2695 66.7576 15.3513 67.6758 14.2188 67.6758Z" fill="#FD7762"/>
<path d="M55.7813 67.6758C54.6487 67.6758 53.7305 66.7576 53.7305 65.625V63.2218C53.7294 62.2774 53.9621 61.3475 54.4077 60.5149C54.8533 59.6823 55.498 58.9729 56.2844 58.45C56.5083 58.301 56.6919 58.0989 56.8188 57.8618C56.9457 57.6247 57.012 57.3598 57.0117 57.0909V54.6875C57.0117 53.5549 57.9299 52.6367 59.0625 52.6367C60.1951 52.6367 61.1133 53.5549 61.1133 54.6875V57.0907C61.1143 58.0351 60.8816 58.965 60.436 59.7976C59.9904 60.6302 59.3457 61.3396 58.5594 61.8625C58.3355 62.0115 58.1519 62.2136 58.025 62.4507C57.8981 62.6878 57.8318 62.9527 57.832 63.2216V65.625C57.832 66.7576 56.9138 67.6758 55.7813 67.6758ZM63.4375 70C62.3049 70 61.3867 69.0818 61.3867 67.9492V65.4093C61.3857 64.4649 61.6184 63.535 62.064 62.7024C62.5096 61.8698 63.1543 61.1604 63.9406 60.6375C64.1645 60.4885 64.3481 60.2864 64.475 60.0493C64.6019 59.8122 64.6682 59.5473 64.668 59.2784V56.875C64.668 55.7424 65.5862 54.8242 66.7188 54.8242C67.8513 54.8242 68.7695 55.7424 68.7695 56.875V59.2782C68.7706 60.2226 68.5379 61.1525 68.0923 61.9851C67.6467 62.8177 67.002 63.5271 66.2156 64.05C65.9917 64.199 65.8081 64.4011 65.6812 64.6382C65.5543 64.8753 65.488 65.1402 65.4883 65.4091V67.9492C65.4883 69.0818 64.5701 70 63.4375 70Z" fill="#FD445F"/>
<path d="M43.75 11.7496L35 34.8633H8.75C7.61797 34.8633 6.69922 33.9445 6.69922 32.8125V18.0469C6.69922 12.3922 11.2984 7.79297 16.9531 7.79297H17.0393L17.1268 7.48262C18.3627 3.07754 22.4232 0 26.9992 0H35L43.75 11.7496Z" fill="#457897"/>
<path d="M63.3008 14.3555V32.8125C63.3008 33.9445 62.382 34.8633 61.25 34.8633H35V0H48.9453C56.8613 0 63.3008 6.43945 63.3008 14.3555Z" fill="#365C75"/>
<path d="M14.309 33.9062C14.309 37.301 12.3676 42.5195 12.3676 42.5195H9.84375C5.09414 42.5195 1.23047 38.6559 1.23047 33.9062C1.23047 29.1566 5.09414 25.293 9.84375 25.293H12.168C12.168 25.293 14.309 30.5115 14.309 33.9062Z" fill="#FDBBA7"/>
<path d="M68.7684 33.9062C68.7684 38.6559 64.9047 42.5195 60.1551 42.5195H57.6312C57.6312 42.5195 55.7773 37.4062 55.7773 33.9062C55.7773 30.4062 57.8309 25.293 57.8309 25.293H60.1551C64.9047 25.293 68.7684 29.1566 68.7684 33.9062Z" fill="#FDA38A"/>
<path d="M42.5195 47.2843L35 64.3947H32.1576C29.2933 64.3943 26.5094 63.4474 24.2389 61.7013L22.5736 60.4203C19.3539 57.9443 16.7043 54.7095 14.9105 51.066C13.1168 47.4224 12.168 43.3496 12.168 39.289V25.2931H14.4266C19.2445 25.2931 23.7781 23.1699 26.8625 19.4689C27.2139 19.0464 27.7197 18.7839 28.2666 18.7374C28.8121 18.6923 29.3549 18.8673 29.7719 19.2242C31.3637 20.5889 33.1201 21.7491 35 22.6777L42.5195 47.2843Z" fill="#FCCABB"/>
<path d="M57.832 25.2932V39.2891C57.832 43.3496 56.8832 47.4225 55.0895 51.066C53.2957 54.7096 50.6461 57.9443 47.4264 60.4203L45.7611 61.7014C43.4906 63.4475 40.7067 64.3944 37.8424 64.3947H35V22.6777C38.4754 24.3975 42.3005 25.2925 46.1781 25.2932H57.832Z" fill="#FDBBA7"/>
<path d="M36.5792 51.543L35.0001 53.4461C33.5236 53.4461 32.0456 53.9396 30.8124 54.9254C29.9279 55.6336 28.6372 55.49 27.9304 54.6055C27.2222 53.7209 27.3658 52.4303 28.2503 51.7234C30.1589 50.1963 32.5556 49.3555 35.0001 49.3555L36.5792 51.543Z" fill="#FDBBA7"/>
<path d="M42.0697 54.6055C41.665 55.1113 41.0689 55.3752 40.4674 55.3752C40.0176 55.3752 39.5664 55.2289 39.1877 54.9254C37.9545 53.9396 36.4766 53.4461 35 53.4461V49.3555C37.4445 49.3555 39.8412 50.1963 41.7498 51.7234C42.6344 52.4303 42.7779 53.7209 42.0697 54.6055Z" fill="#FDA38A"/>
<path d="M29.5296 42.4199C29.1387 42.4199 28.7436 42.3083 28.3939 42.0752C27.7596 41.6507 27.0135 41.4241 26.2502 41.4241C25.4869 41.4241 24.7409 41.6507 24.1065 42.0752C23.1645 42.7037 21.8909 42.4488 21.2626 41.5064C20.6343 40.564 20.8891 39.2908 21.8314 38.6625C24.5159 36.8729 27.9846 36.8729 30.669 38.6625C31.6114 39.2908 31.8661 40.564 31.2378 41.5064C30.8428 42.0991 30.1923 42.4197 29.5296 42.4199Z" fill="#FDBBA7"/>
<path d="M47.0296 42.4199C46.6387 42.4199 46.2436 42.3083 45.8939 42.0752C45.2596 41.6507 44.5135 41.4241 43.7502 41.4241C42.9869 41.4241 42.2409 41.6507 41.6065 42.0752C40.6644 42.7037 39.3909 42.4488 38.7626 41.5064C38.1343 40.564 38.3891 39.2908 39.3314 38.6625C42.0159 36.8729 45.4845 36.8729 48.169 38.6625C49.1114 39.2908 49.3661 40.564 48.7378 41.5064C48.3428 42.0991 47.6923 42.4197 47.0296 42.4199Z" fill="#FDA38A"/>
<path d="M40.5891 24.6641L35 32.6758H24.8828C21.4908 32.6758 18.7305 29.9154 18.7305 26.5234V19.4141C18.7305 16.0221 21.4908 13.2617 24.8828 13.2617H35L40.5891 24.6641Z" fill="#FDF3F3"/>
<path d="M51.2695 19.4141V26.5234C51.2695 29.9154 48.5092 32.6758 45.1172 32.6758H35V13.2617H45.1172C48.5092 13.2617 51.2695 16.0221 51.2695 19.4141Z" fill="#EBE4F0"/>
</svg>
