<svg width="64" height="66" viewBox="0 0 64 66" fill="none" xmlns="http://www.w3.org/2000/svg">
<path fill-rule="evenodd" clip-rule="evenodd" d="M31.4242 48.0914C21.5467 42.2891 3.37442 28.9723 3.13215 15.6846C2.86213 0.891587 19.4895 -5.81734 31.998 6.90174C44.5047 -5.81542 61.1313 0.889125 60.8638 15.6821C60.6238 28.9707 42.4497 42.2887 32.5718 48.0915C32.2077 48.3048 31.788 48.3048 31.4242 48.0914Z" fill="#FE646F"/>
<path fill-rule="evenodd" clip-rule="evenodd" d="M31.4256 48.0916C31.1603 47.9356 30.8958 47.7782 30.6321 47.6195C40.6569 41.5905 57.897 28.623 58.1307 15.6823C58.2906 6.84549 52.421 0.89604 45.003 0.248677C53.6574 -0.492475 61.0442 5.78305 60.8651 15.6823C60.625 28.971 42.451 42.2889 32.5731 48.0918C32.2091 48.305 31.7894 48.305 31.4256 48.0916ZM16.2617 0.248541C20.5398 0.615083 26.4947 3.99122 30.6322 8.19833C31.0731 7.7508 31.5291 7.31843 31.9994 6.90196C26.9638 1.78157 21.2613 -0.188276 16.2617 0.248541Z" fill="#FD4755"/>
<path fill-rule="evenodd" clip-rule="evenodd" d="M12.245 29.6854H26.0183C26.4036 29.6854 26.7351 29.5188 26.9649 29.2094C27.1948 28.9001 27.2586 28.5345 27.1474 28.1657C26.1091 24.7225 22.9134 22.2148 19.1316 22.2148C15.3499 22.2148 12.1542 24.7225 11.1158 28.1657C11.0045 28.5347 11.0685 28.9001 11.2982 29.2094C11.5282 29.5188 11.8597 29.6854 12.245 29.6854Z" fill="#6CF5C2"/>
<path fill-rule="evenodd" clip-rule="evenodd" d="M26.0191 29.6854C26.4044 29.6854 26.7359 29.5188 26.9658 29.2094C27.1956 28.9 27.2596 28.5345 27.1483 28.1657C26.1099 24.7225 22.9142 22.2148 19.1325 22.2148C18.7379 22.2148 18.3438 22.2425 17.9531 22.2976C21.2079 22.7565 23.8612 25.087 24.7895 28.1657C24.9008 28.5345 24.8368 28.9 24.607 29.2094C24.3773 29.5188 24.0456 29.6854 23.6603 29.6854H26.0191Z" fill="#00E499"/>
<path d="M23.1885 17.8498C23.8665 15.6127 22.6025 13.2494 20.3654 12.5715C18.1282 11.8935 15.765 13.1574 15.087 15.3946C14.409 17.6317 15.673 19.9949 17.9101 20.6729C20.1473 21.3509 22.5105 20.087 23.1885 17.8498Z" fill="#F6DCCD"/>
<path fill-rule="evenodd" clip-rule="evenodd" d="M19.1326 12.3828C21.4703 12.3828 23.3652 14.2779 23.3652 16.6155C23.3652 18.9531 21.4701 20.8482 19.1326 20.8482C18.9325 20.8482 18.7356 20.8339 18.543 20.8071C20.6014 20.5202 22.186 18.7531 22.186 16.6156C22.186 14.4782 20.6014 12.7111 18.543 12.4241C18.7383 12.3966 18.9354 12.3828 19.1326 12.3828Z" fill="#F1CBBC"/>
<path fill-rule="evenodd" clip-rule="evenodd" d="M38.2722 29.6757H52.0455C52.4308 29.6757 52.7623 29.509 52.9921 29.1996C53.222 28.8904 53.2858 28.5248 53.1747 28.1559C52.1363 24.7128 48.9406 22.2051 45.159 22.2051C41.3772 22.2051 38.1814 24.7128 37.1431 28.1559C37.0319 28.5249 37.0958 28.8904 37.3257 29.1996C37.5554 29.509 37.8869 29.6757 38.2722 29.6757Z" fill="#FFE177"/>
<path fill-rule="evenodd" clip-rule="evenodd" d="M52.0463 29.6757C52.4316 29.6757 52.7631 29.509 52.993 29.1996C53.2228 28.8902 53.2868 28.5248 53.1755 28.1559C52.1371 24.7128 48.9414 22.2051 45.1598 22.2051C44.7652 22.2051 44.3712 22.2327 43.9805 22.2878C47.2352 22.7468 49.8885 25.0773 50.8168 28.1559C50.9281 28.5248 50.8641 28.8902 50.6343 29.1996C50.4046 29.509 50.0729 29.6757 49.6877 29.6757H52.0463Z" fill="#FFD064"/>
<path d="M49.2862 17.5959C49.824 15.3209 48.4158 13.0408 46.1408 12.503C43.8659 11.9652 41.5857 13.3735 41.0479 15.6484C40.5102 17.9234 41.9184 20.2035 44.1934 20.7413C46.4683 21.2791 48.7485 19.8708 49.2862 17.5959Z" fill="#F6DCCD"/>
<path fill-rule="evenodd" clip-rule="evenodd" d="M45.16 12.373C47.4976 12.373 49.3927 14.2681 49.3927 16.6057C49.3927 18.9433 47.4976 20.8384 45.16 20.8384C44.9598 20.8384 44.7629 20.8242 44.5703 20.7974C46.6287 20.5104 48.2133 18.7433 48.2133 16.6059C48.2133 14.4684 46.6287 12.7013 44.5703 12.4143C44.7657 12.3869 44.9627 12.3731 45.16 12.373Z" fill="#F1CBBC"/>
<path fill-rule="evenodd" clip-rule="evenodd" d="M25.1122 30.9003H38.8855C39.2707 30.9003 39.6023 30.7336 39.8321 30.4242C40.0619 30.115 40.1258 29.7494 40.0146 29.3805C38.9763 25.9374 35.7806 23.4297 31.9988 23.4297C28.217 23.4297 25.0214 25.9374 23.983 29.3805C23.8717 29.7495 23.9357 30.115 24.1655 30.4242C24.3952 30.7336 24.7269 30.9003 25.1122 30.9003Z" fill="#8AC9FE"/>
<path fill-rule="evenodd" clip-rule="evenodd" d="M38.8863 30.9003C39.2716 30.9003 39.6031 30.7336 39.833 30.4242C40.0628 30.1148 40.1268 29.7494 40.0155 29.3805C38.9771 25.9374 35.7814 23.4297 31.9996 23.4297C31.6051 23.4297 31.211 23.4573 30.8203 23.5124C34.075 23.9714 36.7283 26.3019 37.6567 29.3805C37.768 29.7494 37.704 30.1148 37.4741 30.4242C37.2445 30.7336 36.9128 30.9003 36.5275 30.9003H38.8863Z" fill="#60B7FF"/>
<path d="M36.1222 18.8166C36.66 16.5416 35.2517 14.2615 32.9768 13.7237C30.7018 13.1859 28.4217 14.5942 27.8839 16.8691C27.3461 19.1441 28.7544 21.4242 31.0293 21.962C33.3043 22.4998 35.5844 21.0915 36.1222 18.8166Z" fill="#F6DCCD"/>
<path fill-rule="evenodd" clip-rule="evenodd" d="M31.9998 13.5977C34.3374 13.5977 36.2325 15.4927 36.2325 17.8303C36.2325 20.168 34.3374 22.063 31.9998 22.063C31.7997 22.063 31.6028 22.0488 31.4102 22.022C33.4686 21.735 35.0532 19.9679 35.0532 17.8305C35.0532 15.693 33.4686 13.9259 31.4102 13.6389C31.6055 13.6115 31.8025 13.5977 31.9998 13.5977Z" fill="#F1CBBC"/>
<path fill-rule="evenodd" clip-rule="evenodd" d="M38.6094 61.7521L38.5899 48.8174C38.5862 46.3899 38.9068 44.1087 40.7098 42.4838C42.7197 40.6719 46.3737 37.9281 49.1865 34.6022C50.4288 33.4822 52.3045 33.4199 53.487 34.6024C54.6698 35.7851 54.7086 37.3839 53.4874 38.9031L54.4443 37.7254C55.5408 36.3758 56.1257 34.8925 56.1191 33.1533L56.0716 20.7007C56.0349 11.021 63.1396 13.7044 63.2321 16.9689L63.8816 39.8927C63.9411 42.0009 63.182 43.8319 61.6904 45.3233L51.3215 55.6922V61.7493C51.3215 62.9138 50.3716 63.8637 49.2072 63.8636H40.7236C39.5603 63.8635 38.6112 62.9156 38.6094 61.7521Z" fill="#F6DCCD"/>
<path fill-rule="evenodd" clip-rule="evenodd" d="M53.9398 35.1582C54.6531 36.2606 54.5262 37.6105 53.4874 38.9028C51.7961 40.6054 50.0926 42.2978 48.3955 43.9949C47.941 44.4495 47.204 44.4495 46.7494 43.9949C46.2948 43.5403 46.2948 42.8034 46.7494 42.3488L53.9398 35.1582ZM38.6093 61.7518L38.5899 48.817C38.5862 46.3894 38.9068 44.1082 40.7098 42.4833C41.7851 41.514 43.331 40.2776 44.967 38.8284V63.8631H40.7238C39.5602 63.8631 38.6111 62.9153 38.6093 61.7518Z" fill="#F1CBBC"/>
<path fill-rule="evenodd" clip-rule="evenodd" d="M36.1082 59.0196L54.1287 59.1744C55 59.1819 55.7068 59.9009 55.6993 60.7722L55.6695 64.2413C55.662 65.1126 54.943 65.8194 54.0716 65.8119L36.0512 65.6572C35.1798 65.6496 34.473 64.9306 34.4805 64.0593L34.5103 60.5902C34.5179 59.7189 35.2369 59.0121 36.1082 59.0196Z" fill="#D1D1D6"/>
<path fill-rule="evenodd" clip-rule="evenodd" d="M47.775 60.3645L50.9646 60.3918L54.1187 60.4189C54.9882 60.4264 55.6939 61.1424 55.6893 62.0114L55.6999 60.7722C55.7075 59.9009 55.0006 59.1817 54.1293 59.1744L50.9646 59.1472L44.6099 59.0926L38.2481 59.038L36.1087 59.0196C35.3539 59.013 34.7135 59.5427 34.5508 60.2509L38.2548 60.2827L44.6095 60.3373L47.7742 60.3645H47.775Z" fill="#B1B1B5"/>
<path fill-rule="evenodd" clip-rule="evenodd" d="M37.1232 61.9494C37.0709 62.081 37.045 62.2215 37.047 62.3631C37.049 62.5046 37.0789 62.6444 37.1349 62.7744C37.191 62.9044 37.2721 63.022 37.3736 63.1207C37.4751 63.2193 37.5951 63.297 37.7266 63.3493C37.9248 63.4281 38.1418 63.4463 38.3503 63.4018C38.5589 63.3572 38.7495 63.2518 38.8981 63.0989C39.0467 62.946 39.1466 62.7524 39.1852 62.5427C39.2238 62.333 39.1993 62.1166 39.1149 61.9208C39.0305 61.725 38.8899 61.5586 38.711 61.4427C38.532 61.3268 38.3227 61.2666 38.1095 61.2696C37.8963 61.2727 37.6888 61.3389 37.5132 61.4599C37.3377 61.5809 37.2019 61.7513 37.1232 61.9494Z" fill="#685E68"/>
<path fill-rule="evenodd" clip-rule="evenodd" d="M25.3889 61.7521L25.4084 48.8174C25.4121 46.3899 25.0914 44.1087 23.2884 42.4838C21.2785 40.6719 17.6245 37.9281 14.8117 34.6022C13.5695 33.4822 11.6937 33.4199 10.5111 34.6024C9.32836 35.7851 9.28953 37.3839 10.5107 38.9031L9.55381 37.7254C8.45733 36.3758 7.87244 34.8925 7.87901 33.1533L7.92645 20.7007C7.96309 11.021 0.858362 13.7044 0.766077 16.9689L0.116526 39.8927C0.0570536 42.0009 0.816116 43.8319 2.30772 45.3233L12.6766 55.6922V61.7493C12.6766 62.9138 13.6264 63.8637 14.791 63.8636H23.2745C24.438 63.8635 25.3871 62.9156 25.3889 61.7521Z" fill="#F6DCCD"/>
<path fill-rule="evenodd" clip-rule="evenodd" d="M10.0582 35.1582C9.34493 36.2606 9.4718 37.6105 10.5106 38.9028C12.2021 40.6054 13.9055 42.2978 15.6025 43.9949C15.7106 44.103 15.8389 44.1887 15.9802 44.2472C16.1214 44.3057 16.2727 44.3358 16.4256 44.3358C16.5784 44.3358 16.7298 44.3057 16.871 44.2472C17.0122 44.1887 17.1406 44.103 17.2486 43.9949C17.3567 43.8868 17.4425 43.7585 17.501 43.6173C17.5594 43.476 17.5896 43.3247 17.5896 43.1718C17.5896 43.019 17.5594 42.8676 17.501 42.7264C17.4425 42.5852 17.3567 42.4569 17.2486 42.3488L10.0582 35.1582ZM25.3887 61.7518L25.4081 48.817C25.4118 46.3894 25.0911 44.1082 23.2882 42.4833C22.2129 41.514 20.667 40.2776 19.031 38.8284V63.8631H23.2742C24.4379 63.8631 25.387 62.9153 25.3887 61.7518Z" fill="#F1CBBC"/>
<path fill-rule="evenodd" clip-rule="evenodd" d="M27.888 59.0196L9.86756 59.1744C8.99625 59.1819 8.28941 59.9009 8.29693 60.7722L8.32674 64.2413C8.33426 65.1126 9.05326 65.8194 9.92457 65.8119L27.9451 65.6572C28.8164 65.6496 29.5232 64.9306 29.5157 64.0593L29.4859 60.5902C29.4784 59.7189 28.7594 59.0121 27.888 59.0196Z" fill="#D1D1D6"/>
<path fill-rule="evenodd" clip-rule="evenodd" d="M16.2218 60.3645L13.0323 60.3918L9.87822 60.4189C9.00869 60.4264 8.30295 61.1424 8.3076 62.0114L8.29693 60.7722C8.28941 59.9009 8.99625 59.1817 9.86756 59.1744L13.0323 59.1472L19.387 59.0926L25.7488 59.038L27.8882 59.0196C28.643 59.013 29.2834 59.5427 29.4461 60.2509L25.7421 60.2827L19.3874 60.3373L16.2227 60.3645H16.2218Z" fill="#B1B1B5"/>
<path fill-rule="evenodd" clip-rule="evenodd" d="M26.8728 61.9494C26.9251 62.081 26.951 62.2215 26.949 62.3631C26.947 62.5046 26.9171 62.6444 26.8611 62.7744C26.805 62.9044 26.7239 63.022 26.6224 63.1207C26.5209 63.2193 26.4009 63.297 26.2693 63.3493C26.0712 63.4281 25.8542 63.4463 25.6456 63.4018C25.4371 63.3572 25.2465 63.2518 25.0979 63.0989C24.9493 62.946 24.8494 62.7524 24.8108 62.5427C24.7722 62.333 24.7966 62.1166 24.881 61.9208C24.9655 61.725 25.106 61.5586 25.285 61.4427C25.464 61.3268 25.6733 61.2666 25.8865 61.2696C26.0997 61.2727 26.3072 61.3389 26.4828 61.4599C26.6583 61.5809 26.7941 61.7513 26.8728 61.9494Z" fill="#685E68"/>
</svg>
