<svg width="70" height="70" viewBox="0 0 70 70" fill="none" xmlns="http://www.w3.org/2000/svg">
<path d="M22.1484 0.957031H47.8516C48.7218 0.957031 49.5564 1.30273 50.1718 1.91809C50.7871 2.53344 51.1328 3.36804 51.1328 4.23828V14.082H18.8672V4.23828C18.8672 3.36804 19.2129 2.53344 19.8282 1.91809C20.4436 1.30273 21.2782 0.957031 22.1484 0.957031Z" fill="#465D8C"/>
<path d="M23.2422 5.33203H46.7578V9.70867H23.2422V5.33203Z" fill="#FFFBF4"/>
<path d="M54.7551 6.83789C52.7541 6.83789 51.132 8.45998 51.132 10.4609C51.132 12.4619 49.5099 14.084 47.509 14.084H22.4895C20.4885 14.084 18.8664 12.4619 18.8664 10.4609C18.8664 8.45998 17.2443 6.83789 15.2434 6.83789H14.8687C12.6609 6.83789 10.8711 8.6277 10.8711 10.8355V64.0433C10.8711 66.8047 13.1097 69.0433 15.8711 69.0433H54.1273C56.8888 69.0433 59.1273 66.8047 59.1273 64.0433V10.8355C59.1273 8.6277 57.3375 6.83789 55.1297 6.83789H54.7551Z" fill="#FFDDCF"/>
<path d="M44.3749 39.5387C45.5295 37.9631 46.2679 36.1218 46.522 34.1852C46.7761 32.2485 46.5376 30.279 45.8285 28.459L37.8906 33.0527L44.3749 39.5387Z" fill="#465D8C"/>
<path d="M33.2219 33.4107V21.1875C31.4815 21.456 29.8248 22.1165 28.3771 23.1191C26.9293 24.1217 25.7283 25.4401 24.8647 26.9749C24.0011 28.5096 23.4975 30.2205 23.392 31.9784C23.2865 33.7363 23.5818 35.4951 24.2556 37.1221C24.9294 38.7492 25.9641 40.2018 27.2815 41.3704C28.599 42.5389 30.1647 43.3929 31.8605 43.8677C33.5563 44.3425 35.3379 44.4258 37.0706 44.1112C38.8033 43.7966 40.4419 43.0925 41.8626 42.0519L33.2219 33.4107Z" fill="#97DE3D"/>
<path d="M36.7747 29.5927L44.0481 25.3817C42.2323 23.1243 39.6379 21.6275 36.7747 21.1855V29.5927ZM52.3262 50.8273H17.668C17.4141 50.8273 17.1707 50.7264 16.9912 50.547C16.8118 50.3675 16.7109 50.1241 16.7109 49.8702C16.7109 49.6164 16.8118 49.373 16.9912 49.1935C17.1707 49.014 17.4141 48.9132 17.668 48.9132H52.3262C52.58 48.9132 52.8234 49.014 53.0029 49.1935C53.1824 49.373 53.2832 49.6164 53.2832 49.8702C53.2832 50.1241 53.1824 50.3675 53.0029 50.547C52.8234 50.7264 52.58 50.8273 52.3262 50.8273ZM47.097 56.4005H22.8977C22.6439 56.4005 22.4005 56.2996 22.221 56.1202C22.0415 55.9407 21.9407 55.6973 21.9407 55.4434C21.9407 55.1896 22.0415 54.9462 22.221 54.7667C22.4005 54.5872 22.6439 54.4864 22.8977 54.4864H47.097C47.3508 54.4864 47.5942 54.5872 47.7737 54.7667C47.9532 54.9462 48.054 55.1896 48.054 55.4434C48.054 55.6973 47.9532 55.9407 47.7737 56.1202C47.5942 56.2996 47.3508 56.4005 47.097 56.4005ZM52.3262 61.9737H17.668C17.4141 61.9737 17.1707 61.8728 16.9912 61.6934C16.8118 61.5139 16.7109 61.2705 16.7109 61.0166C16.7109 60.7628 16.8118 60.5194 16.9912 60.3399C17.1707 60.1604 17.4141 60.0596 17.668 60.0596H52.3262C52.58 60.0596 52.8234 60.1604 53.0029 60.3399C53.1824 60.5194 53.2832 60.7628 53.2832 61.0166C53.2832 61.2705 53.1824 61.5139 53.0029 61.6934C52.8234 61.8728 52.58 61.9737 52.3262 61.9737Z" fill="#FF8659"/>
</svg>
