<svg width="70" height="70" viewBox="0 0 70 70" fill="none" xmlns="http://www.w3.org/2000/svg">
<path fill-rule="evenodd" clip-rule="evenodd" d="M39.2578 65.2589H59.704V57.2461H39.2578V65.2589Z" fill="#D1D1D6"/>
<path fill-rule="evenodd" clip-rule="evenodd" d="M42.488 57.2462H56.1899L56.1596 55.5957C56.1303 55.011 56.1584 55.1797 56.6381 54.7057L65.1722 46.2787C67.0134 44.6928 67.8913 42.7836 67.806 40.551C67.72 36.0296 68.0839 19.3105 67.0667 16.9944C65.5559 13.5548 60.0268 15.1127 60.1884 20.2059C60.0959 23.9383 60.5712 34.3467 58.9764 37.215C57.7781 23.7286 42.4985 41.4199 42.3711 47.3C42.3712 47.3006 42.4095 52.042 42.488 57.2462Z" fill="#F6DCCD"/>
<path fill-rule="evenodd" clip-rule="evenodd" d="M58.9765 37.2147C58.9171 36.4229 58.7723 35.6397 58.5448 34.8789L50.9203 42.9322C50.7254 43.1394 50.5917 43.3965 50.534 43.675C50.4762 43.9535 50.4968 44.2425 50.5932 44.5101C50.6897 44.7776 50.8584 45.0133 51.0806 45.1908C51.3027 45.3684 51.5697 45.481 51.852 45.5162C51.8463 45.3646 51.8743 45.2137 51.9339 45.0742C51.9934 44.9348 52.0831 44.8102 52.1965 44.7095C55.8726 41.4257 57.9114 38.9997 58.9765 37.2147ZM46.7196 57.245V38.753C44.2657 41.8302 42.415 45.269 42.3711 47.2994C42.3711 47.2994 42.4092 52.0408 42.4879 57.245H46.7196Z" fill="#F1CBBC"/>
<path fill-rule="evenodd" clip-rule="evenodd" d="M30.7391 65.2589H10.293V57.2461H30.7391V65.2589Z" fill="#D1D1D6"/>
<path fill-rule="evenodd" clip-rule="evenodd" d="M27.511 57.2458H13.8091L13.8394 55.5953C13.8687 55.0106 13.8406 55.1793 13.3609 54.7053L4.82692 46.2783C2.98577 44.6924 2.10785 42.7832 2.19317 40.5506C2.27916 36.0292 1.91522 19.3101 2.93227 16.994C4.44301 13.555 9.97205 15.1129 9.81045 20.2061C9.90301 23.9385 9.42764 34.3469 11.0225 37.2151C12.2208 23.7288 27.5004 41.42 27.6279 47.3002C27.6279 47.3002 27.5895 52.0416 27.511 57.2458Z" fill="#F6DCCD"/>
<path fill-rule="evenodd" clip-rule="evenodd" d="M11.0234 37.2147C11.0829 36.4229 11.2277 35.6397 11.4552 34.8789L19.0797 42.9326C19.2746 43.1398 19.4083 43.3969 19.466 43.6754C19.5237 43.9539 19.5032 44.2429 19.4067 44.5105C19.3103 44.778 19.1416 45.0137 18.9194 45.1913C18.6972 45.3688 18.4302 45.4814 18.148 45.5166C18.1536 45.365 18.1256 45.2141 18.0661 45.0747C18.0065 44.9352 17.9168 44.8107 17.8035 44.7099C14.1274 41.4257 12.0886 38.9997 11.0234 37.2147ZM23.2803 57.245V38.753C25.7341 41.8302 27.5849 45.269 27.6289 47.2994C27.6289 47.2994 27.5905 52.0408 27.512 57.245H23.2803Z" fill="#F1CBBC"/>
<path fill-rule="evenodd" clip-rule="evenodd" d="M24.3119 28.3758C26.6563 33.1577 30.747 36.0982 35.4681 38.2394C36.2606 37.9307 37.0264 37.5572 37.7575 37.1227C46.1351 32.1547 49.9118 20.0178 49.0531 10.5769L35.2926 4.74219L21.4453 10.5977C21.5283 16.3904 21.7892 23.2304 24.3119 28.3758Z" fill="#6CF5C2"/>
<path fill-rule="evenodd" clip-rule="evenodd" d="M29.9594 19.8637C29.7601 19.6574 29.6499 19.3811 29.6524 19.0943C29.6549 18.8076 29.7699 18.5332 29.9727 18.3304C30.1755 18.1277 30.4498 18.0126 30.7366 18.0101C31.0234 18.0076 31.2997 18.1179 31.5059 18.3171C31.9753 18.7865 32.4892 19.3656 32.99 19.9304C33.4002 20.3928 33.8002 20.8438 34.2491 21.2925C34.3665 21.408 34.5245 21.4727 34.6892 21.4727C34.8539 21.4727 35.012 21.408 35.1294 21.2925C36.4556 19.9664 37.1748 19.2396 37.8919 18.515C39.0123 17.3827 40.1307 16.2525 40.6537 15.7289C40.8599 15.5297 41.1362 15.4194 41.423 15.4219C41.7098 15.4244 41.9841 15.5394 42.1869 15.7422C42.3897 15.945 42.5047 16.2193 42.5072 16.5061C42.5097 16.7929 42.3995 17.0692 42.2002 17.2755C40.874 18.6016 40.1549 19.3284 39.4378 20.053C38.3174 21.1853 37.1992 22.3155 36.6761 22.8392C36.1485 23.365 35.4341 23.6602 34.6893 23.6602C33.9445 23.6602 33.23 23.365 32.7025 22.8392C32.303 22.4397 31.8364 21.9138 31.3579 21.3746C30.9237 20.8847 30.4781 20.3825 29.9594 19.8637Z" fill="white"/>
<path fill-rule="evenodd" clip-rule="evenodd" d="M39.4384 20.0525C38.318 21.1848 37.1998 22.3149 36.6767 22.8387C36.2978 23.2182 35.8177 23.4807 35.2937 23.5946V38.1595L35.4685 38.2394C36.261 37.9307 37.0267 37.5572 37.7579 37.1227C46.1355 32.1547 49.9122 20.0178 49.0534 10.5769L35.293 4.74219V21.1283C36.1618 20.2595 37.0281 19.3882 37.8919 18.5144C39.0123 17.3821 40.1306 16.252 40.6536 15.7284C40.8599 15.5291 41.1361 15.4189 41.4229 15.4214C41.7097 15.4239 41.984 15.5389 42.1868 15.7417C42.3896 15.9445 42.5046 16.2188 42.5071 16.5056C42.5096 16.7924 42.3994 17.0686 42.2001 17.2749C40.8751 18.6007 40.1558 19.3279 39.4384 20.0525Z" fill="#00E499"/>
</svg>
