<svg width="70" height="70" viewBox="0 0 70 70" fill="none" xmlns="http://www.w3.org/2000/svg">
<path d="M9.73438 30.1607C9.73438 23.4932 14.875 18.0879 21.2133 18.0879C27.5532 18.0879 32.6922 23.4932 32.6922 30.1607V42.449C32.6922 43.1477 32.4147 43.8178 31.9207 44.3119C31.4266 44.806 30.7566 45.0837 30.0579 45.0838H12.3681C11.6695 45.0835 10.9996 44.8058 10.5057 44.3117C10.0118 43.8176 9.73437 43.1476 9.73438 42.449V30.1607Z" fill="#BD8382"/>
<path d="M64.1203 14.6445V29.2789C64.1201 29.6923 64.0384 30.1015 63.88 30.4833C63.7215 30.865 63.4894 31.2119 63.1969 31.5039C62.9044 31.7959 62.5571 32.0274 62.1751 32.1852C61.793 32.343 61.3837 32.4239 60.9703 32.4234H36.5469L43.1914 27.2773V14.6445C43.1927 13.81 43.5252 13.0101 44.1158 12.4205C44.7064 11.8309 45.5069 11.4999 46.3414 11.5H60.9703C61.8048 11.4999 62.6053 11.8309 63.1959 12.4205C63.7865 13.0101 64.119 13.81 64.1203 14.6445Z" fill="#FEE07D"/>
<path d="M64.1203 53.2945V38.6602C64.1201 38.2468 64.0384 37.8376 63.88 37.4558C63.7215 37.074 63.4894 36.7272 63.1969 36.4352C62.9044 36.1432 62.5571 35.9116 62.1751 35.7539C61.793 35.5961 61.3837 35.5151 60.9703 35.5156H36.5469L43.1914 40.6617V53.2945C43.1927 54.1291 43.5252 54.929 44.1158 55.5185C44.7064 56.1081 45.5069 56.4392 46.3414 56.4391H60.9703C61.8048 56.4392 62.6053 56.1081 63.1959 55.5185C63.7865 54.929 64.119 54.1291 64.1203 53.2945Z" fill="#FF8086"/>
<path d="M30.5095 30.606V32.9575C30.5114 33.5607 30.4517 34.1624 30.3312 34.7535C29.9142 36.8665 28.777 38.7694 27.1136 40.1376C25.4502 41.5058 23.3637 42.2545 21.2099 42.256C20.4518 42.2569 19.6966 42.1634 18.9617 41.9777C17.2485 41.5503 15.6926 40.6436 14.476 39.3639C13.2594 38.0842 12.4326 36.4844 12.0924 34.7518C11.9719 34.1608 11.9122 33.559 11.9141 32.9559V30.6043C15.4229 30.1466 15.4174 24.9983 19.3937 25.3729C24.2582 21.5557 24.6486 30.606 30.5095 30.606Z" fill="#FFC4B7"/>
<path d="M36.5477 58.4992H5.87891L6.66094 52.2539C6.87442 50.5335 7.59071 48.9144 8.7201 47.5992C9.8495 46.284 11.3418 45.3312 13.0102 44.8602C13.393 44.7508 13.7758 44.6523 14.1586 44.5594C18.7956 43.4437 23.631 43.4437 28.268 44.5594C28.6508 44.6523 29.0336 44.7508 29.4109 44.8602H29.4164C31.0843 45.3321 32.576 46.2851 33.7053 47.6002C34.8345 48.9152 35.5512 50.5339 35.7656 52.2539L36.5477 58.4992Z" fill="#95D6A4"/>
<path d="M28.2695 44.5594C27.9578 46.5391 24.9172 48.0922 21.2148 48.0922C17.5125 48.0922 14.4719 46.5391 14.1602 44.5594C15.7372 44.1772 17.3432 43.9266 18.9617 43.8102V41.9453C20.4398 42.3099 21.9844 42.3099 23.4625 41.9453V43.8102C25.0828 43.9266 26.6907 44.1772 28.2695 44.5594Z" fill="#FDB0A0"/>
<path d="M47.5938 18.6641H50.8367V26.6244H47.5938V18.6641Z" fill="#9FD4FE"/>
<path d="M50.8359 19.8444L53.9619 14.9838C54.0596 14.8318 54.1939 14.7067 54.3525 14.6202C54.5112 14.5336 54.689 14.4882 54.8697 14.4883C55.0266 14.4882 55.1816 14.5223 55.3239 14.5882C55.4663 14.6542 55.5926 14.7504 55.6939 14.8701C55.7953 14.9899 55.8693 15.1303 55.9109 15.2816C55.9524 15.4329 55.9605 15.5914 55.9345 15.7461L55.5035 18.3328H57.1441C57.4028 18.3328 57.6583 18.3885 57.8935 18.4961C58.1286 18.6038 58.3379 18.7608 58.5069 18.9565C58.6759 19.1523 58.8008 19.3821 58.873 19.6305C58.9452 19.8788 58.963 20.1398 58.9253 20.3956L58.2417 25.0495C58.177 25.4873 57.9571 25.8872 57.6221 26.1764C57.2871 26.4655 56.8593 26.6246 56.4168 26.6245H50.8387L50.8359 19.8444Z" fill="#FFC4B7"/>
<path d="M58.9461 47.8685H55.7031V39.9082H58.9461V47.8685Z" fill="#9FD4FE"/>
<path d="M55.7018 46.69L52.5759 51.5517C52.4782 51.7038 52.3439 51.8288 52.1852 51.9154C52.0266 52.0019 51.8488 52.0473 51.6681 52.0472C51.5112 52.0472 51.3562 52.013 51.2139 51.947C51.0716 51.8811 50.9454 51.7849 50.8441 51.6651C50.7427 51.5454 50.6687 51.4051 50.6271 51.2538C50.5855 51.1026 50.5774 50.9441 50.6033 50.7894L51.0348 48.2027H49.3942C49.1355 48.2027 48.88 48.147 48.6448 48.0393C48.4097 47.9317 48.2004 47.7747 48.0314 47.5789C47.8624 47.3832 47.7376 47.1533 47.6653 46.905C47.5931 46.6567 47.5753 46.3957 47.613 46.1398L48.2993 41.4838C48.3639 41.046 48.5836 40.646 48.9185 40.3568C49.2535 40.0675 49.6812 39.9083 50.1237 39.9082H55.7018V46.69Z" fill="#FFC4B7"/>
</svg>
