<svg width="70" height="70" viewBox="0 0 70 70" fill="none" xmlns="http://www.w3.org/2000/svg">
<path d="M35.002 0L29.875 10.2539L35.002 20.5078C40.665 20.5078 45.2559 15.9169 45.2559 10.2539C45.2559 4.59088 40.665 0 35.002 0Z" fill="#FFCD37"/>
<path d="M24.7461 10.2539C24.7461 15.9169 29.337 20.5078 35 20.5078V0C29.337 0 24.7461 4.59088 24.7461 10.2539Z" fill="#FFDE7A"/>
<path d="M35.002 8.20312L29.875 18.457L35.002 28.7109C40.665 28.7109 45.2559 24.1201 45.2559 18.457C45.2559 12.794 40.665 8.20312 35.002 8.20312Z" fill="#FBA837"/>
<path d="M24.7461 18.457C24.7461 24.1201 29.337 28.7109 35 28.7109V8.20312C29.337 8.20312 24.7461 12.794 24.7461 18.457Z" fill="#FFCD37"/>
<path d="M35.002 16.4062L29.875 26.6602L35.002 36.9141C40.665 36.9141 45.2559 32.3232 45.2559 26.6602C45.2559 20.9971 40.665 16.4062 35.002 16.4062Z" fill="#FFCD37"/>
<path d="M24.7461 26.6602C24.7461 32.3232 29.337 36.9141 35 36.9141V16.4062C29.337 16.4062 24.7461 20.9971 24.7461 26.6602Z" fill="#FFDE7A"/>
<path d="M65.8984 4.10156C63.6331 4.10156 61.7969 5.93783 61.7969 8.20312V32.9223L25.4297 63.1641L35 70H57.6953V62.3782L70 43.9212V8.20312C70 5.93783 68.1637 4.10156 65.8984 4.10156Z" fill="#F8947A"/>
<path d="M37.3971 47.447L54.7951 30.049C56.3969 28.4472 58.9939 28.4472 60.5955 30.049C62.1973 31.6508 62.1973 34.2478 60.5955 35.8494L47.3047 49.1404V53.5939C47.3047 60.3896 41.7957 65.8986 35 65.8986L30.8984 59.5753L35 53.2521C35 50.9871 35.913 48.9315 37.3971 47.447Z" fill="#FAB290"/>
<path d="M26.7285 49.0719L8.20312 32.9223V8.20312C8.20312 5.93783 6.36686 4.10156 4.10156 4.10156C1.83627 4.10156 0 5.93783 0 8.20312V43.9212L12.3047 62.3782V70H35V65.8984L26.7285 49.0719Z" fill="#FAB290"/>
<path d="M32.6029 47.4469L15.2049 30.049C13.6031 28.4472 11.0061 28.4472 9.40447 30.049C7.80268 31.6508 7.80268 34.2478 9.40447 35.8494L22.6953 49.1403V53.5938C22.6953 60.3895 28.2043 65.8984 35 65.8984V53.252C35 50.9869 34.087 48.9314 32.6029 47.4469Z" fill="#FCD0A6"/>
</svg>
