<svg width="71" height="70" viewBox="0 0 71 70" fill="none" xmlns="http://www.w3.org/2000/svg">
<g clip-path="url(#clip0_1017_1502)">
<g clip-path="url(#clip1_1017_1502)">
<path d="M68.9496 34.4531C68.5178 34.4531 68.0888 34.317 67.7287 34.0504L49.2716 20.3785C48.9249 20.1217 48.668 19.762 48.5375 19.3507C48.4069 18.9394 48.4095 18.4975 48.5447 18.0877C48.68 17.678 48.941 17.3213 49.2907 17.0685C49.6404 16.8157 50.0609 16.6796 50.4924 16.6797H63.4807C67.6269 16.6797 71.0002 20.0529 71.0002 24.1992V32.4023C71.0002 32.6716 70.9472 32.9383 70.8441 33.1871C70.7411 33.4359 70.59 33.662 70.3996 33.8525C70.2092 34.0429 69.9831 34.194 69.7343 34.297C69.4855 34.4001 69.2189 34.4531 68.9496 34.4531Z" fill="#EEBF00"/>
<path d="M61.293 14.8732V33.3594H10.707V2.05078C10.707 0.918203 11.6252 0 12.7578 0H46.4197L50.7656 9.84375L61.293 14.8732Z" fill="#FFF5F5"/>
<path d="M61.293 33.3594V14.8732L50.7656 9.84375L46.4197 0H36V33.3594H61.293Z" fill="#EBEBF0"/>
<path d="M46.418 0V11.4553C46.418 13.3429 47.9483 14.8732 49.8359 14.8732H61.2912L46.418 0Z" fill="#D2DCE1"/>
<path d="M63.4805 70H8.51953C4.37326 70 1 66.6267 1 62.4805V21.4648C1 17.3186 4.37326 13.9453 8.51953 13.9453H27.1514C30.018 13.9453 32.595 15.5379 33.877 18.102L37.2675 24.8828H63.4805C67.6267 24.8828 71 28.2561 71 32.4023V62.4805C71 66.6267 67.6267 70 63.4805 70Z" fill="#FFEB99"/>
<path d="M63.4805 24.8826H37.2675L36 22.3477V69.9997H63.4805C67.6267 69.9997 71 66.6265 71 62.4802V32.4021C71 28.2558 67.6267 24.8826 63.4805 24.8826Z" fill="#FAD180"/>
<path d="M38.7344 60.4297H33.2656C32.133 60.4297 31.2148 59.5115 31.2148 58.3789V52.2266H25.0625C23.9299 52.2266 23.0117 51.3084 23.0117 50.1758V44.707C23.0117 43.5745 23.9299 42.6562 25.0625 42.6562H31.2148V36.5039C31.2148 35.3713 32.133 34.4531 33.2656 34.4531H38.7344C39.867 34.4531 40.7852 35.3713 40.7852 36.5039V42.6562H46.9375C48.0701 42.6562 48.9883 43.5745 48.9883 44.707V50.1758C48.9883 51.3084 48.0701 52.2266 46.9375 52.2266H40.7852V58.3789C40.7852 59.5115 39.867 60.4297 38.7344 60.4297Z" fill="#F69AC7"/>
<path d="M46.9375 42.6562H40.7852V36.5039C40.7852 35.3713 39.867 34.4531 38.7344 34.4531H36V60.4297H38.7344C39.867 60.4297 40.7852 59.5115 40.7852 58.3789V52.2266H46.9375C48.0701 52.2266 48.9883 51.3084 48.9883 50.1758V44.707C48.9883 43.5745 48.0701 42.6562 46.9375 42.6562Z" fill="#F05CA5"/>
</g>
</g>
<defs>
<clipPath id="clip0_1017_1502">
<rect width="70" height="70" fill="white" transform="translate(0.5)"/>
</clipPath>
<clipPath id="clip1_1017_1502">
<rect width="70" height="70" fill="white" transform="translate(1)"/>
</clipPath>
</defs>
</svg>
