<svg width="70" height="68" viewBox="0 0 70 68" fill="none" xmlns="http://www.w3.org/2000/svg">
<path d="M49.3211 36.466H19.0586V14.4902H50.9408V34.8463C50.9408 35.7408 50.2156 36.466 49.3211 36.466Z" fill="#D9DEF7"/>
<path d="M45.5769 11.1151C45.2968 11.1151 45.0281 11.0038 44.83 10.8057C44.6319 10.6076 44.5206 10.3389 44.5206 10.0588V4.66791C44.5203 4.44042 44.4298 4.22233 44.2689 4.06148C44.108 3.90064 43.8899 3.81016 43.6624 3.8099H40.1075C39.5239 3.8099 39.0511 3.33695 39.0511 2.75358C39.0511 2.17021 39.5239 1.69727 40.1075 1.69727H43.6624C45.3006 1.69727 46.6332 3.02992 46.6332 4.66791V10.0586C46.6333 10.1974 46.6059 10.3348 46.5529 10.4629C46.4998 10.5911 46.422 10.7076 46.3239 10.8057C46.2258 10.9038 46.1094 10.9816 45.9812 11.0347C45.853 11.0878 45.7156 11.1151 45.5769 11.1151ZM24.4196 11.2386C24.1394 11.2386 23.8708 11.1273 23.6727 10.9292C23.4746 10.7311 23.3633 10.4625 23.3633 10.1823V4.66791C23.3633 3.02992 24.6959 1.69727 26.3339 1.69727H30.3438C30.9274 1.69727 31.4002 2.17021 31.4002 2.75358C31.4002 3.33695 30.9274 3.8099 30.3438 3.8099H26.3339C26.1065 3.8102 25.8884 3.90069 25.7276 4.06153C25.5667 4.22238 25.4762 4.44044 25.4759 4.66791V10.1823C25.4759 10.4625 25.3646 10.7311 25.1665 10.9292C24.9684 11.1273 24.6998 11.2386 24.4196 11.2386Z" fill="#685E68"/>
<path d="M47.3775 14.4902V34.8463C47.3775 35.7409 46.6523 36.466 45.7578 36.466H49.3191C50.2138 36.466 50.9388 35.7408 50.9388 34.8463V14.4902H47.3775Z" fill="#BEC6ED"/>
<path d="M39.4089 5.0772H30.5894C29.306 5.0772 28.2656 4.0368 28.2656 2.75344C28.2656 1.47009 29.306 0.429688 30.5894 0.429688H39.4089C40.6923 0.429688 41.7327 1.47009 41.7327 2.75344C41.7327 4.0368 40.6923 5.0772 39.4089 5.0772Z" fill="#7BACDF"/>
<path d="M39.409 0.429688H35.8477C37.131 0.429688 38.1714 1.47009 38.1714 2.75344C38.1714 4.0368 37.131 5.0772 35.8477 5.0772H39.409C40.6923 5.0772 41.7327 4.0368 41.7327 2.75344C41.7327 1.47009 40.6923 0.429688 39.409 0.429688Z" fill="#5F99D7"/>
<path d="M51.8964 17.3911H18.1002C17.2057 17.3911 16.4805 16.6659 16.4805 15.7715V10.2466C16.4805 9.35215 17.2057 8.62695 18.1002 8.62695H51.8964C52.7909 8.62695 53.5161 9.35215 53.5161 10.2466V15.7715C53.5161 16.6659 52.7909 17.3911 51.8964 17.3911Z" fill="#7BACDF"/>
<path d="M51.8973 8.62695H48.3359C49.2306 8.62695 49.9556 9.35215 49.9556 10.2466V15.7715C49.9556 16.6659 49.2304 17.3911 48.3359 17.3911H51.8973C52.7919 17.3911 53.517 16.6659 53.517 15.7715V10.2468C53.517 9.35215 52.7918 8.62695 51.8973 8.62695Z" fill="#5F99D7"/>
<path d="M39.0018 25.1458H37.0034V23.1474C37.0034 22.9415 36.9216 22.7441 36.776 22.5985C36.6304 22.4529 36.433 22.3711 36.2271 22.3711H33.7697C33.5638 22.3711 33.3663 22.4529 33.2207 22.5985C33.0751 22.7441 32.9933 22.9415 32.9933 23.1474V25.1458H30.9949C30.893 25.1458 30.792 25.1659 30.6979 25.2049C30.6037 25.2439 30.5181 25.3011 30.446 25.3732C30.374 25.4453 30.3168 25.5309 30.2778 25.6251C30.2388 25.7193 30.2187 25.8202 30.2188 25.9221V28.3796C30.2188 28.5854 30.3005 28.7829 30.4461 28.9285C30.5916 29.074 30.7891 29.1559 30.9949 29.1559H32.9933V31.1543C32.9933 31.3602 33.0751 31.5577 33.2207 31.7032C33.3663 31.8488 33.5638 31.9306 33.7697 31.9306H36.2271C36.433 31.9306 36.6304 31.8488 36.776 31.7032C36.9216 31.5577 37.0034 31.3602 37.0034 31.1543V29.1559H39.0018C39.2077 29.1559 39.4052 29.0741 39.5508 28.9285C39.6963 28.7829 39.7781 28.5855 39.7781 28.3796V25.9221C39.7781 25.7163 39.6963 25.5188 39.5508 25.3732C39.4052 25.2276 39.2077 25.1458 39.0018 25.1458Z" fill="#EB5569"/>
<path d="M37.0045 25.1476V23.1492C37.0045 23.0473 36.9844 22.9463 36.9454 22.8522C36.9064 22.758 36.8492 22.6724 36.7771 22.6003C36.705 22.5283 36.6194 22.4711 36.5252 22.4321C36.431 22.3931 36.3301 22.373 36.2282 22.373H34.1875C34.2823 22.373 34.3762 22.3917 34.4639 22.428C34.5515 22.4643 34.6311 22.5174 34.6981 22.5845C34.7652 22.6516 34.8184 22.7312 34.8547 22.8188C34.891 22.9064 34.9096 23.0003 34.9096 23.0951V25.1478H36.9049C37.1116 25.1478 37.3098 25.2299 37.4559 25.376C37.6021 25.5222 37.6842 25.7204 37.6842 25.9271V28.3784C37.6842 28.5851 37.6021 28.7833 37.4559 28.9295C37.3098 29.0756 37.1116 29.1577 36.9049 29.1577H34.9096V31.2102C34.9096 31.4017 34.8335 31.5854 34.6981 31.7208C34.5627 31.8562 34.379 31.9323 34.1875 31.9323H36.2282C36.4341 31.9323 36.6315 31.8505 36.7771 31.7049C36.9227 31.5593 37.0045 31.3619 37.0045 31.156V29.1576H39.0029C39.2088 29.1576 39.4062 29.0758 39.5518 28.9302C39.6974 28.7846 39.7792 28.5871 39.7792 28.3812V25.9238C39.7792 25.7179 39.6974 25.5205 39.5518 25.3749C39.4062 25.2293 39.2088 25.1475 39.0029 25.1475L37.0045 25.1476Z" fill="#E53950"/>
<path d="M5.25755 67.4865L3.27266 66.5424C3.16888 66.4931 3.07584 66.4238 2.99884 66.3385C2.92185 66.2531 2.86242 66.1535 2.82394 66.0452C2.78546 65.9369 2.76869 65.8221 2.77459 65.7074C2.78048 65.5926 2.80893 65.4801 2.8583 65.3764L6.73357 57.2285L10.299 58.9243L6.42372 67.0721C6.32401 67.2817 6.14513 67.4431 5.92644 67.5208C5.70775 67.5985 5.46714 67.5862 5.25755 67.4865Z" fill="#F8A5AF"/>
<path d="M8.52297 58.0801L4.64446 66.2347C4.59552 66.3376 4.52679 66.4298 4.44221 66.5062C4.35762 66.5825 4.25882 66.6414 4.15146 66.6796C4.0441 66.7177 3.93027 66.7344 3.81648 66.7285C3.7027 66.7227 3.59117 66.6945 3.48828 66.6455L5.25585 67.4862C5.35962 67.5356 5.4721 67.564 5.58686 67.5699C5.70162 67.5758 5.81642 67.5591 5.9247 67.5206C6.03298 67.4821 6.13262 67.4227 6.21793 67.3457C6.30323 67.2687 6.37254 67.1756 6.42188 67.0719L10.2972 58.924L8.52297 58.0801Z" fill="#F58A97"/>
<path d="M15.2368 67.4865L17.2216 66.5424C17.3254 66.4931 17.4185 66.4238 17.4955 66.3385C17.5725 66.2531 17.6319 66.1535 17.6704 66.0452C17.7088 65.9369 17.7256 65.8221 17.7197 65.7074C17.7138 65.5926 17.6854 65.4801 17.636 65.3764L13.7607 57.2285L10.1953 58.9243L14.0706 67.0721C14.1199 67.1759 14.1893 67.2689 14.2746 67.3459C14.3599 67.4229 14.4596 67.4824 14.5678 67.5208C14.6761 67.5593 14.791 67.5761 14.9057 67.5702C15.0205 67.5643 15.133 67.5358 15.2368 67.4865Z" fill="#F8A5AF"/>
<path d="M15.8755 66.2347C15.9238 66.3362 15.9516 66.4463 15.9574 66.5587C15.9632 66.671 15.9468 66.7834 15.9091 66.8894C15.8714 66.9954 15.8133 67.0929 15.7379 67.1764C15.6625 67.2599 15.5714 67.3278 15.4699 67.3761L17.2226 66.5424C17.3264 66.4931 17.4195 66.4238 17.4965 66.3385C17.5735 66.2531 17.6329 66.1535 17.6714 66.0452C17.7098 65.9369 17.7266 65.8221 17.7207 65.7074C17.7148 65.5926 17.6864 65.4801 17.637 65.3764L13.7617 57.2285L11.9922 58.0702L15.8755 66.2347Z" fill="#F58A97"/>
<path d="M59.023 45.0725L40.1324 52.2177L37.7891 46.0224L56.6797 38.8772C58.3905 38.2301 60.3018 39.0924 60.949 40.8032C61.596 42.514 60.7337 44.4255 59.023 45.0725Z" fill="#FED2A4"/>
<path d="M60.9517 40.8022C60.3348 39.1711 58.5685 38.3124 56.9226 38.7966C56.9059 40.1184 56.0941 41.3571 54.7828 41.853L38.5391 47.9971L40.1351 52.2168L59.0257 45.0715C60.7365 44.4244 61.5989 42.5129 60.9517 40.8022Z" fill="#FFBD86"/>
<path d="M64.9847 47.2579L46.0939 54.4031L37.5273 48.8911L43.2676 48.3862L62.6412 41.0627C64.352 40.4157 66.2634 41.2779 66.9106 42.9887C67.5577 44.6994 66.6953 46.6109 64.9847 47.2579Z" fill="#FFE5C2"/>
<path d="M64.983 47.2578L46.0918 54.4027L42.7031 52.2225L61.6422 45.0705C63.3365 44.4311 64.1971 42.5523 63.5872 40.8551C65.0055 40.7594 66.3801 41.5903 66.9083 42.9889C67.5561 44.6987 66.6928 46.6099 64.983 47.2578Z" fill="#FED2A4"/>
<path d="M70 50.1929C70 51.5281 69.1845 52.7859 67.8606 53.2872C63.4984 54.9362 51.4308 59.1867 45.5651 61.2454C43.3977 62.0061 41.1036 62.3403 38.8092 62.2295L31.8567 61.8941C29.4741 61.7792 27.1187 61.3365 24.857 60.5785L18.6462 58.497L11.8622 59.8806L9.85487 59.2895L7.83322 60.7026L1.42983 62.0095C0.691113 62.16 0 61.5957 0 60.8419V40.2381C4.86221e-06 39.9526 0.102523 39.6766 0.288896 39.4603C0.475268 39.244 0.733104 39.1018 1.01547 39.0596L7.83646 38.0409L9.85473 38.5622L11.873 37.438L17.9334 34.8424C20.6855 34.4312 23.4967 34.8128 26.0403 35.9424L36.7676 40.7069C38.3202 41.3965 39.989 41.7871 41.6863 41.8582C44.0659 41.9578 47.2403 42.0907 47.2483 42.0916C50.8947 42.6225 50.7609 47.8506 46.9878 48.1182L39.8569 49.0506H39.8555L39.8245 49.0548L50.4595 52.3308L65.4437 47.0422L65.4874 47.0267C67.224 46.4126 69.1324 47.2999 69.7845 49.0224C69.9262 49.3964 69.9992 49.793 70 50.1929Z" fill="#FFE5C2"/>
<path d="M43.1152 46.5414L33.5186 48.7292C33.2854 48.7824 33.3261 49.1261 33.5652 49.1234L39.8565 49.0519L46.9883 48.1193C50.7608 47.8513 50.8953 42.6243 47.2489 42.0927C47.2452 42.0923 46.5892 42.0647 45.6516 42.0254C46.6039 43.7613 45.7439 46.3546 43.1152 46.5414Z" fill="#FED2A4"/>
<path d="M69.7856 49.0232C69.418 48.0349 68.5648 47.2507 67.5499 46.9655C66.9408 46.7902 66.2947 46.7902 65.6857 46.9655C65.773 47.1162 66.1279 48.2274 66.1279 48.6161C66.1279 49.9513 65.3124 51.209 63.9885 51.7104C58.5174 53.7781 42.7429 60.031 37.2305 62.1539L38.8102 62.2301C41.1045 62.3409 43.3985 62.0068 45.5659 61.2462C53.0021 58.622 60.4669 56.0301 67.8617 53.2879C69.1856 52.7865 70.0011 51.5288 70.0011 50.1936C70.0011 49.8048 69.9307 49.4091 69.7856 49.0232Z" fill="#FFE5C2"/>
<path d="M7.83717 60.7041L9.85459 59.5817L11.8729 59.8806L18.5622 58.5159L15.5836 57.2622C15.0555 57.0399 14.4726 56.9822 13.9111 57.0967L9.85473 57.9243V38.2383L7.83646 38.043L5.81819 38.3444V58.7479L1.6718 59.5938C1.36332 59.6567 1.04341 59.6323 0.748055 59.5233C0.452703 59.4143 0.193633 59.225 0 58.9768V60.8439C0 61.5977 0.691113 62.1621 1.42969 62.0114L7.83646 60.7045L7.83717 60.7041Z" fill="#FED2A4"/>
<path d="M11.8725 37.4395V59.8798L7.83594 60.7038V38.0423L11.8725 37.4395Z" fill="#F8A5AF"/>
<path d="M9.85547 37.7409V60.2918L11.8737 59.8798V37.4395L9.85547 37.7409Z" fill="#F58A97"/>
<path d="M50.4576 52.331L49.6498 52.7196C49.0252 53.02 48.3095 53.0707 47.6488 52.8613L35.7734 49.0973L39.8536 49.0508L39.8227 49.055L50.4576 52.331Z" fill="#FED2A4"/>
<path d="M61.1462 22.5912C60.866 22.5912 60.5973 22.4799 60.3992 22.2818C60.2011 22.0837 60.0898 21.815 60.0898 21.5349V17.6383C60.0898 17.055 60.5627 16.582 61.1462 16.582C61.7297 16.582 62.2025 17.055 62.2025 17.6383V21.5349C62.2025 21.815 62.0912 22.0837 61.8931 22.2818C61.695 22.4799 61.4263 22.5912 61.1462 22.5912Z" fill="#F8A5AF"/>
<path d="M63.0936 20.6439H59.1969C58.6134 20.6439 58.1406 20.1709 58.1406 19.5876C58.1406 19.0042 58.6134 18.5312 59.1969 18.5312H63.0936C63.3738 18.5312 63.6425 18.6425 63.8405 18.8406C64.0386 19.0387 64.1499 19.3074 64.1499 19.5876C64.1499 19.8677 64.0386 20.1364 63.8405 20.3345C63.6425 20.5326 63.3738 20.6439 63.0936 20.6439Z" fill="#F8A5AF"/>
<path d="M57.4255 31.8119C58.0035 31.8119 58.4721 31.3434 58.4721 30.7653C58.4721 30.1873 58.0035 29.7188 57.4255 29.7188C56.8475 29.7188 56.3789 30.1873 56.3789 30.7653C56.3789 31.3434 56.8475 31.8119 57.4255 31.8119Z" fill="#5F99D7"/>
</svg>
