<svg width="70" height="70" viewBox="0 0 70 70" fill="none" xmlns="http://www.w3.org/2000/svg">
<path d="M41.4541 69.6475L38.1332 69.9997H11.5038C10.1943 69.9997 9.13281 68.9382 9.13281 67.6287V61.5703H43.7153L43.8251 67.2765C43.8251 68.5859 42.7636 69.6475 41.4541 69.6475Z" fill="#D8ECFE"/>
<path d="M39.953 61.5703V67.6287C39.953 68.9382 38.8915 69.9997 37.582 69.9997H41.9487C43.2582 69.9997 44.3197 68.9382 44.3197 67.6287V61.5703H39.953Z" fill="#C4E2FF"/>
<path d="M15.3086 7.02148H37.0504V17.195H15.3086V7.02148Z" fill="#EAF6FF"/>
<path d="M34.5391 7.02148H38.1468V17.195H34.5391V7.02148Z" fill="#D8ECFE"/>
<path d="M39.6002 8.31482L34.6723 8.71063H13.4703C13.2834 8.71063 13.1042 8.63638 12.972 8.50424C12.8399 8.37209 12.7656 8.19286 12.7656 8.00598V2.75598C12.7656 1.23389 13.9996 0 15.5217 0H32.9862L37.4518 0.198379C38.9739 0.198379 40.2078 1.43227 40.2078 2.95436L40.3049 7.61018C40.3048 7.79705 40.2306 7.97626 40.0985 8.1084C39.9663 8.24054 39.7871 8.31479 39.6002 8.31482Z" fill="#FE93BB"/>
<path d="M37.9312 0H32.2969C33.819 0 35.0529 1.23389 35.0529 2.75598V8.12328C35.0529 8.46166 34.864 8.71049 34.5384 8.71049H39.9825C40.0751 8.71051 40.1667 8.69229 40.2522 8.65689C40.3377 8.62148 40.4154 8.56958 40.4808 8.50414C40.5463 8.43871 40.5982 8.36102 40.6336 8.27552C40.669 8.19002 40.6872 8.09838 40.6872 8.00584V2.75598C40.6872 1.23389 39.4533 0 37.9312 0Z" fill="#FE76A8"/>
<path d="M47.8414 58.6866C47.8414 61.0217 43.5583 64.0838 41.2231 64.0838L9.13441 64.0513C6.79926 64.0513 4.90625 62.1583 4.90625 59.8231V58.7812L6.31486 55.7876L4.90625 52.4261V48.5386L5.46967 47.4823L4.90625 46.426V42.5379L6.31486 36.3019L4.90625 30.0659V27.4314C4.90693 26.5513 5.07219 25.679 5.39352 24.8596L8.95832 23.2441H44.4936L47.2696 24.7878C47.591 25.6072 47.7562 26.4795 47.7569 27.3596L47.8414 58.6866Z" fill="#EAF6FF"/>
<path d="M48.0568 24.8596L44.492 23.2441L44.3944 24.8596C44.7157 25.679 44.881 26.5513 44.8817 27.4314V59.823C44.8817 62.1581 43.0109 64.0834 40.6758 64.0834L45.0206 64.0841C47.3559 64.0841 48.5442 62.158 48.5442 59.8227L48.5441 46.9018V27.4314C48.5435 26.5513 48.3782 25.679 48.0568 24.8596Z" fill="#D8ECFE"/>
<path d="M45.3297 22.0768L37.5612 15.7969L34.5375 15.5039H15.3081L7.45885 22.0039C6.53977 22.7652 5.82941 23.7478 5.39453 24.8592L44.3966 24.8589L47.2708 24.3097C46.8401 23.2112 46.2602 22.8468 45.3297 22.0768Z" fill="#D8ECFE"/>
<path d="M45.9956 22.0039L38.1463 15.5039H34.5391L42.3333 22.0039C43.2524 22.7651 43.9629 23.7476 44.398 24.8589L48.0599 24.8592C47.625 23.7478 46.9146 22.7653 45.9956 22.0039Z" fill="#C4E2FF"/>
<path d="M4.90639 52.4245H23.6937C24.4287 52.4245 25.0246 53.0204 25.0246 53.7554V57.4488C25.0246 58.1838 24.4287 58.7796 23.6937 58.7796H4.90639V52.4245ZM4.90625 30.0645H23.245C24.2278 30.0645 25.0246 30.8611 25.0246 31.844V40.757C25.0246 41.7397 24.2279 42.5365 23.245 42.5365H4.90625V30.0645Z" fill="#FE93BB"/>
<path d="M26.081 47.4822C26.0808 47.7623 25.9695 48.0309 25.7714 48.229C25.5734 48.427 25.3048 48.5384 25.0247 48.5385H4.90625V46.4258H25.0246C25.3047 46.4259 25.5733 46.5372 25.7714 46.7353C25.9695 46.9334 26.0809 47.2021 26.081 47.4822Z" fill="#D8ECFE"/>
<path d="M47.4641 55.5187C46.7709 56.3655 45.718 56.9062 44.5388 56.9062C43.0307 56.9062 41.7286 56.0218 41.1231 54.7436C40.9535 54.7618 40.2893 54.4082 40.1153 54.4082C39.6782 54.4082 39.7481 54.7141 39.3452 54.607C37.5194 54.1233 36.1115 52.614 35.7734 50.7324C35.7221 50.449 35.9946 50.214 35.9946 49.9158C35.9946 49.6232 35.7232 49.279 35.7722 49.0001C34.3574 48.4537 33.3535 47.0822 33.3535 45.4749C33.3535 44.9457 33.4616 44.4436 33.6574 43.9873C33.6619 43.977 33.6676 43.9657 33.6722 43.9543C33.415 43.7934 33.3129 43.4006 33.0937 43.1929C32.8725 42.9833 32.5348 42.9583 32.3598 42.7079C31.8244 41.9468 31.5377 41.0386 31.5391 40.108C31.5391 38.906 32.008 37.8133 32.7717 37.0018C32.5167 36.5589 32.7898 36.2811 32.7898 35.7337C32.7898 35.5926 32.3803 35.217 32.3996 35.0805C32.5407 34.0526 33.1998 33.1898 34.1046 32.7629C34.007 32.4236 33.9576 32.0723 33.9578 31.7192C33.9578 29.8593 35.3009 28.3147 37.0696 27.9994C37.0115 27.7365 37.3666 27.434 37.3666 27.153C37.3666 26.8298 37.0218 26.5459 37.0981 26.2465C37.5146 24.6131 38.9954 23.4043 40.7598 23.4043C41.3516 23.4043 41.9106 23.5408 42.4092 23.7832C42.4958 23.5064 43.0169 23.6107 43.1748 23.3747C43.3364 23.1333 43.1362 22.5526 43.3584 22.3673C43.9012 21.9131 44.5867 21.6648 45.2945 21.666C45.6993 21.6654 46.1 21.7464 46.4728 21.9043C46.8456 22.0621 47.1827 22.2935 47.4639 22.5846C47.9932 23.1275 47.9761 26.1463 47.9761 26.9658V51.9891C47.9762 52.8961 47.9967 54.8675 47.4641 55.5187Z" fill="#FE93BB"/>
<path d="M36.8986 34.5021C36.8986 34.6142 36.8766 34.7252 36.8337 34.8288C36.7909 34.9324 36.728 35.0266 36.6487 35.1059C36.5694 35.1852 36.4753 35.248 36.3717 35.2909C36.2681 35.3338 36.157 35.3558 36.0449 35.3557C35.032 35.3557 33.4657 36.2686 32.7713 37.0017C32.4362 36.4208 32.3052 35.7444 32.399 35.0804C33.3904 34.1538 34.6721 33.6484 36.0448 33.6484C36.2712 33.6484 36.4883 33.7384 36.6484 33.8985C36.8085 34.0585 36.8985 34.2757 36.8986 34.5021ZM36.7769 42.2594C36.7007 42.3845 36.5935 42.488 36.4657 42.5598C36.3379 42.6315 36.1938 42.6692 36.0472 42.6691C35.8959 42.6691 35.7422 42.6281 35.6033 42.5439C35.4315 42.4391 35.2706 42.3174 35.123 42.1807C34.382 42.661 33.8152 43.6241 33.6717 43.9541C33.155 43.631 32.7087 43.2071 32.3594 42.7078C32.6997 42.067 33.3405 41.285 34.2591 40.7079C34.2024 40.4754 34.1737 40.2369 34.1738 39.9976C34.1737 39.8855 34.1957 39.7744 34.2386 39.6708C34.2815 39.5672 34.3444 39.4731 34.4236 39.3938C34.5029 39.3145 34.5971 39.2517 34.7007 39.2088C34.8043 39.1659 34.9153 39.1439 35.0274 39.1439C35.2538 39.144 35.4709 39.234 35.631 39.3941C35.7911 39.5541 35.881 39.7712 35.8811 39.9976C35.8811 40.4461 36.1098 40.8524 36.4924 41.087C36.8952 41.3316 37.0216 41.8575 36.7769 42.2594ZM44.9402 25.2163C44.8021 25.3073 44.6402 25.3556 44.4747 25.3552C44.3326 25.3553 44.1927 25.32 44.0677 25.2524C43.9426 25.1848 43.8364 25.0871 43.7587 24.9681C43.4445 24.4866 42.8174 23.9869 42.4087 23.7832C42.5828 23.2299 42.9123 22.7384 43.358 22.3672C43.3774 22.3751 43.3956 22.3832 43.4138 22.3922C44.0945 22.7303 44.7079 23.2982 45.1882 24.0347C45.2496 24.1286 45.2919 24.2336 45.3127 24.3438C45.3335 24.454 45.3323 24.5672 45.3093 24.6769C45.2862 24.7867 45.2418 24.8908 45.1785 24.9834C45.1151 25.0759 45.0342 25.155 44.9402 25.2163ZM43.7463 28.162C43.6763 28.2496 43.5897 28.3226 43.4916 28.3767C43.3934 28.4308 43.2855 28.465 43.174 28.4774C43.0626 28.4898 42.9498 28.48 42.8422 28.4488C42.7345 28.4175 42.634 28.3653 42.5466 28.2952C42.2324 28.0425 41.841 27.9055 41.4379 27.907C40.459 27.907 39.6634 28.7038 39.6634 29.6827C39.6634 29.9091 39.5734 30.1262 39.4133 30.2863C39.2532 30.4464 39.0362 30.5363 38.8098 30.5364C38.6976 30.5365 38.5866 30.5144 38.483 30.4716C38.3794 30.4287 38.2853 30.3658 38.206 30.2865C38.1267 30.2072 38.0638 30.1131 38.0209 30.0095C37.9781 29.9059 37.956 29.7949 37.9561 29.6827C37.9555 29.0711 38.1169 28.4702 38.4239 27.9412C38.2257 27.9012 38.024 27.881 37.8218 27.8809C37.6363 27.8809 37.2732 27.9583 37.0695 27.9993C36.9421 27.4208 36.9519 26.8205 37.0979 26.2464C37.3176 26.2067 37.5623 26.1736 37.8218 26.1736C38.5082 26.1736 39.182 26.3249 39.8 26.6107C40.3036 26.3404 40.8664 26.1993 41.4379 26.1998C42.2284 26.2006 42.9952 26.4694 43.6131 26.9624C43.7007 27.0324 43.7737 27.1189 43.8278 27.2171C43.8819 27.3153 43.9161 27.4232 43.9285 27.5346C43.9408 27.646 43.9311 27.7588 43.8999 27.8665C43.8686 27.9741 43.8164 28.0745 43.7463 28.162ZM43.6324 39.2463C43.3273 39.4736 42.9567 39.5958 42.5762 39.5946C41.5975 39.5946 40.8012 38.7982 40.8012 37.8196C40.8012 37.348 40.4191 36.9659 39.9475 36.9659C39.476 36.9659 39.0939 37.348 39.0939 37.8196C39.0939 39.7398 40.656 41.302 42.5762 41.302C43.3233 41.304 44.0508 41.0638 44.6498 40.6174C44.8301 40.4819 44.9494 40.2806 44.9817 40.0574C45.014 39.8342 44.9568 39.6073 44.8224 39.4263C44.688 39.2452 44.4874 39.1246 44.2645 39.0909C44.0415 39.0572 43.8143 39.1131 43.6324 39.2463ZM44.1708 52.523C43.4637 53.0203 42.6198 53.2863 41.7554 53.2845C41.522 53.2845 41.2922 53.264 41.069 53.2276C41.0212 53.4394 40.9938 53.6555 40.9938 53.8765C40.9938 54.2157 41.0098 54.4309 41.1225 54.7438C40.5265 54.8071 39.9239 54.7608 39.3446 54.6072C39.3058 54.3656 39.2863 54.1212 39.2865 53.8765C39.2865 53.4417 39.3457 53.016 39.4641 52.6039C38.7038 52.1076 38.112 51.3734 37.7978 50.5072C37.3221 50.6731 36.8219 50.7582 36.3181 50.7587C36.128 50.7587 35.9459 50.7508 35.7728 50.7326C35.6698 50.1598 35.6695 49.5732 35.7717 49.0003C35.9083 49.0163 36.1576 49.0515 36.3181 49.0515C36.7528 49.0515 37.1752 48.9513 37.5588 48.7613C37.6058 48.1397 37.79 47.5362 38.098 46.9942C38.4059 46.4522 38.8302 45.9852 39.3401 45.6266C39.7259 45.3569 40.2587 45.4502 40.5295 45.8361C40.8004 46.2219 40.7071 46.7534 40.3212 47.0244C39.9916 47.2555 39.7226 47.5625 39.5368 47.9196C39.3509 48.2766 39.2538 48.6731 39.2536 49.0756C39.2536 50.4552 40.3759 51.5774 41.7554 51.5774C42.2733 51.5774 42.7685 51.4214 43.1896 51.1256C43.375 50.9986 43.6029 50.9499 43.824 50.9899C44.0451 51.03 44.2415 51.1556 44.3706 51.3394C44.4998 51.5233 44.5512 51.7507 44.5138 51.9722C44.4764 52.1938 44.3531 52.3917 44.1708 52.523Z" fill="#FE76A8"/>
<path d="M49.1696 55.5188C49.8628 56.3657 50.9189 56.4947 52.0981 56.4947C53.6063 56.4947 54.6172 55.7053 55.2227 54.4271C55.3922 54.4453 56.8309 54.2521 57.234 54.1452C59.0597 53.6615 60.1104 52.6388 60.4484 50.7573C60.4996 50.4739 60.685 48.9917 60.6361 48.713C62.0508 48.1666 63.0232 46.9556 63.0232 45.3483C63.0232 44.8191 62.7538 44.4107 62.5581 43.9543C62.5536 43.9441 64.6689 40.8367 64.6689 39.8692C64.6689 38.6671 64.4073 37.8135 63.6435 37.0019C63.8985 36.5591 63.973 35.109 63.9536 34.9724C63.8125 33.9446 63.1856 33.2189 62.2807 32.7921C62.3762 32.4597 62.3653 31.8946 62.3653 31.5326C62.3653 29.6727 60.5326 28.2244 59.5628 27.9994C59.6209 27.7365 59.2659 27.434 59.2659 27.153C59.2659 26.8297 59.6107 26.5459 59.5344 26.2465C59.1178 24.6131 57.637 23.4043 55.8727 23.4043C55.2808 23.4043 54.7219 23.5408 54.2233 23.7832C54.1366 23.5064 53.6156 23.6107 53.4577 23.3747C53.2961 23.1333 53.4962 22.5526 53.274 22.3672C52.7312 21.9131 52.0457 21.6648 51.338 21.666C50.9333 21.6654 50.5327 21.7464 50.1601 21.9043C49.7875 22.0621 49.4507 22.2935 49.1696 22.5846C48.6404 23.1275 48.6564 26.1463 48.6564 26.9658V51.9891C48.6562 52.8963 48.6368 54.8676 49.1696 55.5188Z" fill="#FE93BB"/>
<path d="M63.2812 45.4754C63.2812 44.9462 63.1731 44.4441 62.9773 43.9878C62.9728 43.9775 62.9671 43.9662 62.9626 43.9548C63.2197 43.7939 63.3219 43.4011 63.541 43.1934C63.7622 42.9838 64.0999 42.9588 64.2749 42.7085C64.8103 41.9474 65.097 41.0392 65.0956 40.1086C65.0956 38.9066 64.6267 37.8139 63.863 37.0024C64.118 36.5596 63.8449 36.2817 63.8449 35.7343C63.8449 35.5932 64.2544 35.2177 64.2351 35.0811C64.094 34.0532 63.4349 33.1904 62.5301 32.7636C62.6277 32.4242 62.6771 32.0729 62.677 31.7198C62.677 29.8599 61.3338 28.3153 59.5651 28C59.5651 28 62.7887 33.3173 61.2774 40.988C59.7359 48.8121 50.9221 55.5196 49.1719 55.5196C49.865 56.3664 50.9168 56.9071 52.096 56.9071C53.6042 56.9071 54.9063 56.0227 55.5118 54.7445C55.6813 54.7627 56.3455 54.4091 56.5196 54.4091C56.9566 54.4091 56.8868 54.715 57.2897 54.6079C59.1154 54.1242 60.5234 52.6148 60.8615 50.7333C60.9127 50.4499 60.6403 50.2149 60.6403 49.9167C60.6403 49.6241 60.9116 49.2799 60.8627 49.001C62.2773 48.4542 63.2812 47.0827 63.2812 45.4754Z" fill="#FE76A8"/>
<path d="M59.7344 34.5021C59.7343 34.6142 59.7563 34.7253 59.7992 34.8289C59.8421 34.9325 59.905 35.0266 59.9842 35.1059C60.0635 35.1852 60.1577 35.2481 60.2613 35.2909C60.3649 35.3338 60.4759 35.3559 60.588 35.3558C60.8994 35.3558 61.2632 35.4418 61.6375 35.5825C62.4815 35.8996 63.2009 36.1937 63.6819 36.7016C63.9368 36.2588 64.0202 36.0744 64.0202 35.5268C64.0202 35.3857 64.093 35.0733 64.0736 34.9367C63.2887 34.2031 62.482 33.8785 61.432 33.7147C61.1528 33.6709 60.8707 33.6487 60.588 33.6484C60.3617 33.6485 60.1446 33.7385 59.9845 33.8986C59.8244 34.0586 59.7344 34.2757 59.7344 34.5021Z" fill="#FE76A8"/>
<path d="M64.2649 35.4981C64.2649 35.357 64.2547 35.217 64.2354 35.0804C63.4505 34.3468 62.4836 33.8785 61.4336 33.7148C61.5307 34.3339 61.5993 34.9572 61.6391 35.5826C62.4832 35.8997 63.3821 36.4939 63.8631 37.0017C64.1268 36.5445 64.2654 36.0259 64.2649 35.4981Z" fill="#FE5694"/>
<path d="M59.8551 42.2581C59.9314 42.3833 60.0385 42.4868 60.1663 42.5585C60.2941 42.6303 60.4382 42.668 60.5848 42.6679C60.7362 42.6679 60.8898 42.6269 61.0287 42.5426C61.2005 42.4379 61.3614 42.3162 61.509 42.1795C62.2501 42.6598 62.7461 43.4762 62.8895 43.8062C63.4063 43.4829 63.8473 43.067 64.1957 42.5683C63.8554 41.9275 63.2916 41.2836 62.373 40.7065C62.4287 40.4778 62.4583 40.2399 62.4583 39.9962C62.4583 39.8841 62.4363 39.7731 62.3934 39.6695C62.3506 39.5659 62.2877 39.4717 62.2084 39.3925C62.1291 39.3132 62.035 39.2503 61.9314 39.2074C61.8278 39.1645 61.7167 39.1425 61.6046 39.1426C61.3782 39.1427 61.1611 39.2326 61.001 39.3927C60.841 39.5528 60.751 39.7699 60.7509 39.9962C60.7509 40.4447 60.5222 40.851 60.1397 41.0856C59.7367 41.3304 59.6104 41.8563 59.8551 42.2581Z" fill="#FE76A8"/>
<path d="M64.2727 42.7084C63.9324 42.0676 63.2916 41.2856 62.3729 40.7085C62.4287 40.4798 62.4583 40.2419 62.4583 39.9983C62.4583 39.882 62.4347 39.767 62.3887 39.6603C62.3427 39.5535 62.2754 39.4573 62.1909 39.3775C62.1064 39.2976 62.0065 39.2359 61.8973 39.1961C61.7881 39.1563 61.672 39.1392 61.5559 39.146C61.4888 39.7637 61.3951 40.3783 61.2748 40.988C61.1645 41.5432 61.0205 42.0912 60.8438 42.629C60.9085 42.6082 60.9705 42.5799 61.0286 42.5445C61.2004 42.4397 61.3613 42.3181 61.5089 42.1814C62.2499 42.6617 62.8167 43.6247 62.9602 43.9548C63.477 43.6317 63.9234 43.2079 64.2727 42.7084Z" fill="#FE5694"/>
<path d="M51.6919 25.2163C51.8301 25.3073 51.992 25.3556 52.1574 25.3552C52.4363 25.3552 52.7095 25.2186 52.8734 24.9681C53.1876 24.4866 53.8147 23.9869 54.2234 23.7832C54.0493 23.2299 53.7198 22.7384 53.2742 22.3672C53.2553 22.3748 53.2367 22.3832 53.2184 22.3922C52.5377 22.7303 51.9242 23.2982 51.4439 24.0347C51.3825 24.1286 51.3402 24.2336 51.3194 24.3438C51.2987 24.454 51.2998 24.5672 51.3229 24.6769C51.3459 24.7867 51.3904 24.8908 51.4537 24.9834C51.517 25.0759 51.598 25.155 51.6919 25.2163ZM52.8859 28.162C52.9558 28.2496 53.0424 28.3226 53.1406 28.3767C53.2388 28.4308 53.3467 28.465 53.4581 28.4774C53.5696 28.4898 53.6823 28.48 53.79 28.4488C53.8977 28.4175 53.9981 28.3653 54.0856 28.2952C54.3997 28.0425 54.7911 27.9055 55.1942 27.907C56.1731 27.907 56.9687 28.7038 56.9687 29.6827C56.9688 29.9091 57.0587 30.1262 57.2188 30.2863C57.3789 30.4464 57.596 30.5363 57.8224 30.5364C57.9345 30.5365 58.0455 30.5144 58.1492 30.4716C58.2528 30.4287 58.3469 30.3658 58.4262 30.2865C58.5055 30.2072 58.5683 30.1131 58.6112 30.0095C58.6541 29.9059 58.6761 29.7949 58.6761 29.6827C58.6767 29.0711 58.5153 28.4702 58.2082 27.9412C58.4064 27.9012 58.6081 27.881 58.8103 27.8809C58.9958 27.8809 59.359 27.9583 59.5627 27.9993C59.69 27.4208 59.6803 26.8205 59.5342 26.2464C59.3145 26.2067 59.0698 26.1736 58.8103 26.1736C58.124 26.1736 57.4501 26.3249 56.8321 26.6107C56.3285 26.3404 55.7658 26.1993 55.1942 26.1998C54.4038 26.2006 53.6369 26.4694 53.019 26.9624C52.9314 27.0324 52.8585 27.1189 52.8044 27.2171C52.7503 27.3153 52.716 27.4232 52.7037 27.5346C52.6913 27.646 52.701 27.7588 52.7323 27.8665C52.7636 27.9741 52.8158 28.0745 52.8859 28.162ZM52.9998 39.2463C53.3049 39.4736 53.6755 39.5958 54.0559 39.5946C55.0347 39.5946 55.8309 38.7982 55.8309 37.8196C55.8309 37.348 56.2131 36.9659 56.6846 36.9659C57.1562 36.9659 57.5383 37.348 57.5383 37.8196C57.5383 39.7398 55.9761 41.302 54.0559 41.302C53.3089 41.304 52.5813 41.0638 51.9823 40.6174C51.8021 40.4819 51.6828 40.2806 51.6504 40.0574C51.6181 39.8342 51.6754 39.6073 51.8098 39.4263C51.9441 39.2452 52.1447 39.1246 52.3677 39.0909C52.5906 39.0572 52.8179 39.1131 52.9998 39.2463ZM52.4614 52.523C52.7363 52.7163 53.0336 52.8758 53.3466 52.9981C53.8343 53.188 54.3533 53.2851 54.8766 53.2844C55.11 53.2844 55.3398 53.2638 55.563 53.2275C55.6108 53.4393 55.6382 53.6554 55.6382 53.8763C55.6382 54.2155 55.6789 54.2501 55.5663 54.5632C55.7358 54.5814 55.9883 54.6339 56.1625 54.6339C56.5996 54.6339 56.9073 54.5554 57.3102 54.4484C57.3489 54.2082 57.3456 54.1234 57.3456 53.8763C57.3456 53.4416 57.2864 53.0158 57.168 52.6038C57.9283 52.1075 58.5202 51.3733 58.8344 50.507C59.3101 50.673 59.8103 50.758 60.3141 50.7586C60.5041 50.7586 60.5133 50.7689 60.6862 50.7507C60.7375 50.4673 60.8433 50.1576 60.8433 49.8594C60.8433 49.5668 60.7728 49.2949 60.7238 49.016C60.5872 49.032 60.4746 49.0513 60.3141 49.0513C59.8793 49.0513 59.457 48.9511 59.0734 48.761C59.0304 48.1933 58.8731 47.6402 58.6107 47.1349C58.2987 46.5334 57.8464 46.0159 57.2919 45.6263C56.9061 45.3566 56.3733 45.45 56.1025 45.8358C55.8316 46.2216 55.9249 46.7532 56.3108 47.0241C56.6403 47.2553 56.9093 47.5623 57.0952 47.9193C57.281 48.2763 57.3781 48.6727 57.3785 49.0752C57.3785 50.4439 56.2739 51.5592 54.9093 51.5769L54.8765 51.5771C54.3586 51.5771 53.8634 51.4212 53.4423 51.1253C53.3506 51.0598 53.2468 51.0132 53.137 50.988C53.0271 50.9628 52.9134 50.9597 52.8023 50.9787C52.6912 50.9977 52.585 51.0385 52.4898 51.0988C52.3946 51.159 52.3122 51.2375 52.2475 51.3298C52.1827 51.422 52.1369 51.5261 52.1126 51.6362C52.0883 51.7462 52.086 51.86 52.1059 51.9709C52.1258 52.0818 52.1674 52.1877 52.2285 52.2825C52.2895 52.3772 52.3686 52.459 52.4614 52.523Z" fill="#FE76A8"/>
<path d="M54.911 51.5765C54.4076 52.0693 53.8861 52.5433 53.3477 52.9975C53.8356 53.1876 54.3547 53.2848 54.8784 53.2841C55.1117 53.2841 55.3416 53.2636 55.5647 53.2272C55.6125 53.439 55.6399 53.6552 55.6399 53.8761C55.6399 54.2153 55.6239 54.4305 55.5112 54.7434C56.1072 54.8067 56.7098 54.7604 57.2891 54.6069C57.3278 54.3666 57.3472 54.1231 57.3472 53.8761C57.3472 53.4413 57.288 53.0156 57.1696 52.6035C57.9299 52.1072 58.5218 51.373 58.836 50.5068C59.3117 50.6727 59.8118 50.7578 60.3157 50.7584C60.5057 50.7584 60.6878 50.7504 60.8609 50.7322C60.9639 50.1594 60.9643 49.5728 60.862 48.9999C60.7254 49.0159 60.4762 49.0512 60.3157 49.0512C59.8809 49.0512 59.4586 48.9509 59.0749 48.7609C59.032 48.1932 58.8746 47.64 58.6123 47.1348C58.2223 47.7233 57.8078 48.2951 57.3698 48.8488C57.3766 48.9237 57.38 48.9992 57.38 49.0751C57.38 50.4434 56.2755 51.5587 54.911 51.5765Z" fill="#FE5694"/>
<path d="M49.171 22.584V55.5182C48.8997 55.1866 48.6845 54.5729 48.5375 54.0501C48.4751 53.8282 48.1617 53.8282 48.0994 54.0501C47.9524 54.5729 47.736 55.1868 47.4648 55.5182V22.584C47.7365 22.8626 47.9542 23.4096 48.1017 23.8761C48.1688 24.0883 48.4682 24.0883 48.5354 23.8761C48.6827 23.4096 48.8993 22.8626 49.171 22.584Z" fill="#FE76A8"/>
</svg>
