<svg width="70" height="70" viewBox="0 0 70 70" fill="none" xmlns="http://www.w3.org/2000/svg">
<path fill-rule="evenodd" clip-rule="evenodd" d="M58.2535 38.3545C59.3072 38.6054 60.314 39.0228 61.2362 39.5909L63.1745 38.7302L65.4587 41.0145L64.5982 42.952C65.1665 43.8745 65.5839 44.8816 65.835 45.9355L67.8125 46.6968V49.9273L65.8346 50.6887C65.5837 51.7423 65.1662 52.7492 64.5981 53.6713L65.4589 55.6096L63.1746 57.894L61.237 57.0335C60.3146 57.6017 59.3074 58.0192 58.2535 58.2703L57.4924 60.2478H54.2619L53.5005 58.2699C52.4469 58.0189 51.44 57.6015 50.5178 57.0334L48.5796 57.8942L46.2952 55.6099L47.1557 53.6723C46.5874 52.7499 46.1699 51.7427 45.9189 50.6888L43.9414 49.9277V46.6972L45.9192 45.9359C46.1701 44.8821 46.5876 43.8751 47.1558 42.9529L46.295 41.0149L48.5793 38.7304L50.5176 39.5913C51.4398 39.0232 52.4467 38.6058 53.5004 38.3549L54.2618 36.377H57.4922L58.2535 38.3545Z" fill="#FFE177"/>
<path fill-rule="evenodd" clip-rule="evenodd" d="M62.5223 39.0197L63.1731 38.7307L65.4575 41.015L64.597 42.9526C65.1652 43.875 65.5827 44.8821 65.8338 45.9361L67.8111 46.6972V49.9277L65.8332 50.6891C65.5823 51.7428 65.1649 52.7497 64.5967 53.6719L65.4575 55.61L63.1732 57.8944L62.5223 57.6054L64.5176 55.6101L63.6568 53.672C64.2249 52.7498 64.6423 51.7429 64.8933 50.6892L66.8712 49.9278V46.6973L64.8937 45.9362C64.6427 44.8823 64.2252 43.8751 63.6569 42.9527L64.5174 41.0151L62.5223 39.0197ZM48.2891 39.0196L48.5781 38.7306L50.5163 39.5915C50.3792 39.6674 50.2439 39.7465 50.1104 39.8287L48.2891 39.0196ZM58.2523 38.3549C59.3059 38.6059 60.3128 39.0234 61.235 39.5915L60.7009 39.8287C59.7785 39.2608 58.3662 38.6057 57.3124 38.3549L56.551 36.377H57.4909L58.2523 38.3549ZM50.5163 57.0335L48.5782 57.8943L48.2892 57.6053L50.1106 56.7963C50.2441 56.8786 50.3795 56.9576 50.5163 57.0335ZM61.2356 57.0338C60.3132 57.602 59.3061 58.0195 58.2522 58.2705L57.4911 60.248H56.5511L57.3122 58.2705C58.3663 58.0197 59.779 57.3648 60.7016 56.7966L61.2356 57.0338Z" fill="#FFD064"/>
<path d="M62.634 49.9337C63.5156 46.2041 61.2069 42.4658 57.4772 41.5842C53.7475 40.7025 50.0093 43.0113 49.1276 46.741C48.246 50.4706 50.5548 54.2089 54.2844 55.0905C58.0141 55.9722 61.7523 53.6634 62.634 49.9337Z" fill="#ECEFF1"/>
<path fill-rule="evenodd" clip-rule="evenodd" d="M55.8767 41.373C56.0347 41.373 56.1912 41.3788 56.3467 41.3892C52.7336 41.6309 49.8774 44.6379 49.8774 48.3122C49.8774 51.9867 52.7336 54.9935 56.3467 55.2354C56.1902 55.246 56.0335 55.2514 55.8767 55.2515C52.0443 55.2515 48.9375 52.1447 48.9375 48.3122C48.9374 44.48 52.0443 41.373 55.8767 41.373Z" fill="#D1D1D6"/>
<path fill-rule="evenodd" clip-rule="evenodd" d="M67.8108 19.8542V5.12613C67.8108 3.50766 66.4908 2.1875 64.8721 2.1875H43.3488C41.7303 2.1875 40.4102 3.50766 40.4102 5.12613V19.8542C40.4102 21.4726 41.7302 22.7928 43.3488 22.7928H45.8354V27.7588C45.8354 27.9299 45.934 28.0759 46.0926 28.1397C46.1684 28.1713 46.2521 28.1789 46.3324 28.1617C46.4126 28.1445 46.4858 28.1032 46.542 28.0433L51.5858 22.7929H64.8721C66.4908 22.7928 67.8108 21.4726 67.8108 19.8542Z" fill="#FE646F"/>
<path fill-rule="evenodd" clip-rule="evenodd" d="M67.8112 19.8542V5.12613C67.8112 3.50766 66.4911 2.1875 64.8725 2.1875H63.5053C65.1238 2.1875 66.444 3.50766 66.444 5.12613V19.8542C66.444 21.4726 65.1239 22.7928 63.5053 22.7928H64.8725C66.4911 22.7928 67.8112 21.4726 67.8112 19.8542ZM45.8359 27.3556V27.7588C45.8359 27.9299 45.9345 28.0759 46.0931 28.1397C46.1689 28.1713 46.2526 28.1789 46.3329 28.1617C46.4132 28.1445 46.4863 28.1032 46.5425 28.0433L51.5863 22.7929H50.2191L45.8359 27.3556Z" fill="#FD4755"/>
<path fill-rule="evenodd" clip-rule="evenodd" d="M54.1129 17.1144C54.8675 17.1144 55.4792 17.7261 55.4792 18.4805C55.4792 19.2351 54.8675 19.8466 54.1129 19.8466C53.3585 19.8466 52.7468 19.2351 52.7468 18.4805C52.7468 17.726 53.3585 17.1144 54.1129 17.1144ZM54.1131 14.6756C53.8369 14.6756 53.5716 14.5685 53.3728 14.3768C53.174 14.1851 53.0574 13.9238 53.0473 13.6478L52.7779 6.18295C52.7671 5.88271 52.8674 5.62035 53.0761 5.4042C53.2846 5.18791 53.5432 5.07812 53.8436 5.07812H54.3828C54.6832 5.07812 54.9417 5.18805 55.1504 5.4042C55.359 5.62035 55.4593 5.88285 55.4485 6.18295L55.1789 13.6478C55.1688 13.9238 55.0521 14.1851 54.8534 14.3767C54.6546 14.5684 54.3892 14.6756 54.1131 14.6756ZM8.32322 67.8133H31.1343C31.4923 67.8133 31.8004 67.6855 32.0534 67.4327L39.351 60.1352C39.6041 59.8821 39.7316 59.5739 39.7316 59.2162V28.0648C39.7316 27.3493 39.1473 26.765 38.4318 26.765H8.32322C7.60764 26.765 7.02344 27.3489 7.02344 28.0648V66.5137C7.02344 67.2294 7.60736 67.8133 8.32322 67.8133Z" fill="#ECEFF1"/>
<path fill-rule="evenodd" clip-rule="evenodd" d="M36.6211 62.8615L39.3488 60.1338C39.6018 59.8808 39.7294 59.5726 39.7294 59.2148V28.0635C39.7294 27.348 39.1451 26.7637 38.4296 26.7637H36.6211V62.8615Z" fill="#D1D1D6"/>
<path fill-rule="evenodd" clip-rule="evenodd" d="M31.6719 67.7001C31.8138 67.6344 31.9427 67.5436 32.0525 67.4322L39.3501 60.1347C39.4616 60.0249 39.5524 59.8959 39.6181 59.7539H32.3217C32.1495 59.7542 31.9844 59.8228 31.8626 59.9446C31.7408 60.0664 31.6722 60.2315 31.6719 60.4037V67.7001Z" fill="#D1D1D6"/>
<path fill-rule="evenodd" clip-rule="evenodd" d="M36.6211 62.8623L39.3488 60.1347C39.4603 60.0249 39.551 59.8959 39.6167 59.7539H36.6211V62.8623Z" fill="#837683"/>
<path fill-rule="evenodd" clip-rule="evenodd" d="M14.2148 61.0315C13.9248 61.0315 13.6466 60.9163 13.4414 60.7112C13.2363 60.506 13.1211 60.2278 13.1211 59.9378C13.1211 59.6477 13.2363 59.3695 13.4414 59.1644C13.6466 58.9592 13.9248 58.844 14.2148 58.844H25.7263C26.0164 58.844 26.2946 58.9592 26.4997 59.1644C26.7048 59.3695 26.82 59.6477 26.82 59.9378C26.82 60.2278 26.7048 60.506 26.4997 60.7112C26.2946 60.9163 26.0164 61.0315 25.7263 61.0315H14.2148ZM14.2148 35.7305C13.9248 35.7305 13.6466 35.6152 13.4414 35.4101C13.2363 35.205 13.1211 34.9268 13.1211 34.6367C13.1211 34.3466 13.2363 34.0684 13.4414 33.8633C13.6466 33.6582 13.9248 33.543 14.2148 33.543H32.5354C32.8255 33.543 33.1037 33.6582 33.3088 33.8633C33.5139 34.0684 33.6292 34.3466 33.6292 34.6367C33.6292 34.9268 33.5139 35.205 33.3088 35.4101C33.1037 35.6152 32.8255 35.7305 32.5354 35.7305H14.2148ZM18.8306 42.0558C18.5405 42.0558 18.2623 41.9405 18.0572 41.7354C17.8521 41.5303 17.7369 41.2521 17.7369 40.962C17.7369 40.6719 17.8521 40.3937 18.0572 40.1886C18.2623 39.9835 18.5405 39.8683 18.8306 39.8683H32.5354C32.8255 39.8683 33.1037 39.9835 33.3088 40.1886C33.5139 40.3937 33.6292 40.6719 33.6292 40.962C33.6292 41.2521 33.5139 41.5303 33.3088 41.7354C33.1037 41.9405 32.8255 42.0558 32.5354 42.0558H18.8306ZM23.3751 48.3809C23.0851 48.3809 22.8069 48.2657 22.6017 48.0606C22.3966 47.8554 22.2814 47.5772 22.2814 47.2872C22.2814 46.9971 22.3966 46.7189 22.6017 46.5138C22.8069 46.3087 23.0851 46.1934 23.3751 46.1934H32.5354C32.8255 46.1934 33.1037 46.3087 33.3088 46.5138C33.5139 46.7189 33.6292 46.9971 33.6292 47.2872C33.6292 47.5772 33.5139 47.8554 33.3088 48.0606C33.1037 48.2657 32.8255 48.3809 32.5354 48.3809H23.3751ZM18.8306 54.7062C18.5405 54.7062 18.2623 54.591 18.0572 54.3859C17.8521 54.1807 17.7369 53.9025 17.7369 53.6125C17.7369 53.3224 17.8521 53.0442 18.0572 52.8391C18.2623 52.6339 18.5405 52.5187 18.8306 52.5187H32.5354C32.8255 52.5187 33.1037 52.6339 33.3088 52.8391C33.5139 53.0442 33.6292 53.3224 33.6292 53.6125C33.6292 53.9025 33.5139 54.1807 33.3088 54.3859C33.1037 54.591 32.8255 54.7062 32.5354 54.7062H18.8306Z" fill="#A79BA7"/>
<path fill-rule="evenodd" clip-rule="evenodd" d="M11.2759 41.7693C11.2772 41.1715 11.9648 40.8398 12.4336 41.2108L19.4279 46.7443C19.7904 47.0313 19.7891 47.5819 19.4253 47.8669L12.4046 53.3675C11.9339 53.7361 11.2483 53.4013 11.2496 52.8034L11.2551 50.5123L2.5967 50.4855C2.48809 50.485 2.3841 50.4415 2.30743 50.3646C2.23076 50.2877 2.18764 50.1835 2.1875 50.0749V44.444C2.1875 44.3307 2.22797 44.2332 2.30822 44.1532C2.38848 44.0732 2.48609 44.0331 2.5993 44.0335L11.2704 44.0603L11.2759 41.7693Z" fill="#8AC9FE"/>
<path fill-rule="evenodd" clip-rule="evenodd" d="M18.3291 45.875L19.428 46.7444C19.7906 47.0314 19.7892 47.5819 19.4254 47.867L12.4046 53.3675C11.9339 53.7361 11.2483 53.4012 11.2496 52.8034L11.252 51.8321L18.0581 46.4998C18.1519 46.4266 18.2258 46.3311 18.2732 46.2219C18.3205 46.1128 18.3397 45.9935 18.3291 45.875ZM11.2551 50.508L11.2584 49.145L2.1875 49.1212V50.0749C2.18764 50.1835 2.23076 50.2876 2.30743 50.3645C2.3841 50.4415 2.48809 50.4849 2.5967 50.4854L11.2551 50.508Z" fill="#60B7FF"/>
</svg>
