<svg width="70" height="70" viewBox="0 0 70 70" fill="none" xmlns="http://www.w3.org/2000/svg">
<g clip-path="url(#clip0_1017_2983)">
<path d="M38.3275 31.0742V44.2209L35.9372 45.416L33.5469 44.2209V31.0742H38.3275Z" fill="#898890"/>
<path d="M41.9125 22.1704V28.6843C41.9084 30.0025 40.8404 31.0705 39.5222 31.0746H32.3513C31.0324 31.0705 29.9646 30.0025 29.961 28.6843V22.1704C29.9594 21.9541 30.0217 21.7421 30.1402 21.5612C30.2329 21.3929 30.3692 21.2527 30.5346 21.1551C32.1584 20.0778 34.0055 19.383 35.9367 19.123C37.8679 19.3832 39.7149 20.078 41.3388 21.1551C41.504 21.2528 41.6401 21.393 41.7328 21.5612C41.8511 21.7422 41.9136 21.9541 41.9125 22.1704Z" fill="#57565C"/>
<path d="M69.8442 52.0362L63.3071 69.9993L56.5664 67.5494L57.3791 65.3027L62.2912 51.8211L63.104 49.5742L69.8442 52.0362Z" fill="#EC407A"/>
<path d="M9.64324 15.537V19.1224H0.0820312V0H9.64324V15.537Z" fill="#D81B60"/>
<path d="M34.2279 54.3308C34.2458 54.1294 34.2944 53.9322 34.3713 53.7455C34.5863 53.1533 34.9536 52.6282 35.4362 52.2232C35.9188 51.8182 36.4996 51.5476 37.1201 51.4385L50.5777 49.0599L53.3624 48.5703L62.29 51.8208L57.378 65.3024L55.143 64.4896L47.8885 66.9277L44.5178 65.7086L23.3401 57.9996C21.6845 57.4364 20.648 55.7926 20.8541 54.0559C20.9301 53.5277 21.1231 53.0232 21.4189 52.5791C21.7147 52.135 22.1059 51.7625 22.5639 51.4887C23.022 51.215 23.5354 51.047 24.0666 50.997C24.5979 50.9469 25.1336 51.016 25.6347 51.1993L34.2279 54.3308Z" fill="#FFC477"/>
<path d="M47.7573 11.8202L38.041 2.10317C37.3746 1.43541 36.5828 0.905867 35.7111 0.544945C34.8394 0.184023 33.9051 -0.00116759 32.9616 5.53883e-06H20.4009L12.0348 3.58546H9.64453V15.537H12.0348C12.0348 18.1783 15.6203 20.3176 19.2057 20.3176C22.7912 20.3176 26.3766 18.1783 26.3766 15.537H34.7427C36.7228 15.537 38.3282 13.9316 38.3282 11.9515L43.1088 16.7321C43.3905 17.0147 43.7229 17.2418 44.0886 17.4014C44.5292 17.6104 45.0115 17.7166 45.4991 17.712C46.0675 17.715 46.6275 17.5741 47.1268 17.3025C47.6262 17.0308 48.0487 16.6373 48.355 16.1584C48.7587 15.4737 48.9193 14.6728 48.8108 13.8854C48.7023 13.098 48.331 12.3703 47.7573 11.8202Z" fill="#FFDAAA"/>
<path d="M37.1325 23.9022C37.1325 24.2192 37.0066 24.5231 36.7824 24.7473C36.5583 24.9714 36.2543 25.0973 35.9373 25.0973C35.6204 25.0973 35.3164 24.9714 35.0922 24.7473C34.8681 24.5231 34.7422 24.2192 34.7422 23.9022C34.7422 23.5852 34.8681 23.2812 35.0922 23.0571C35.3164 22.8329 35.6204 22.707 35.9373 22.707C36.2543 22.707 36.5583 22.8329 36.7824 23.0571C37.0066 23.2812 37.1325 23.5852 37.1325 23.9022Z" fill="#C6C5CA"/>
<path d="M33.5469 31.0749H38.3275V33.4652H33.5469V31.0749ZM38.3275 23.904C38.3275 25.224 37.2572 26.2943 35.9372 26.2943C34.6171 26.2943 33.5469 25.224 33.5469 23.904C33.5469 22.5839 34.6171 21.5137 35.9372 21.5137C37.2572 21.5137 38.3275 22.5839 38.3275 23.904Z" fill="#787680"/>
<path d="M35.9362 23.8097C35.9376 23.9806 35.9024 24.1497 35.8329 24.3058C35.7635 24.4619 35.6613 24.6013 35.5334 24.7145C35.4055 24.8278 35.2548 24.9123 35.0914 24.9624C34.928 25.0125 34.7559 25.027 34.5864 25.0049C29.8793 24.3238 26.3838 20.293 26.375 15.537H28.7653C28.7735 19.098 31.3861 22.1168 34.9091 22.635C35.1926 22.6753 35.4523 22.8161 35.6407 23.0317C35.8292 23.2473 35.9341 23.5233 35.9362 23.8097ZM41.6728 21.4923C41.4766 21.2848 41.3618 21.0135 41.3495 20.7281C41.3371 20.4428 41.428 20.1626 41.6056 19.9389C42.2485 19.1188 42.6979 18.1641 42.9204 17.146L42.9362 17.0812C43.1456 16.0888 43.1439 15.0635 42.931 14.0718C42.7181 13.0802 42.299 12.1444 41.7007 11.3255C41.1025 10.5063 40.3386 9.82221 39.4587 9.31768C38.5788 8.81315 37.6025 8.49947 36.5934 8.39703C35.0789 8.25461 33.5586 8.60195 32.2562 9.38796L31.011 7.34545C34.2959 5.35776 38.452 5.53181 41.5595 7.78721C44.6671 10.0426 46.1207 13.9404 45.2488 17.6799C44.9465 19.0492 44.3367 20.3317 43.4655 21.4305C43.3578 21.5616 43.2234 21.6683 43.0713 21.7435C42.9191 21.8186 42.7527 21.8605 42.5831 21.8664C42.4135 21.8722 42.2446 21.8419 42.0877 21.7774C41.9307 21.7129 41.7893 21.6157 41.6728 21.4923Z" fill="#898890"/>
<path d="M19.2031 20.2328C19.2049 19.9433 19.3116 19.6642 19.5035 19.4474C19.6954 19.2307 19.9595 19.0909 20.2467 19.0541C22.8434 18.7137 25.1381 17.1656 25.1789 15.5799C25.1743 15.2577 25.2974 14.9467 25.5214 14.7149C25.7453 14.4831 26.0518 14.3493 26.374 14.3428H34.7401C36.0135 14.3416 37.0633 13.3436 37.1304 12.072C37.129 11.7382 37.0612 11.408 36.9311 11.1005C36.8009 10.7931 36.611 10.5146 36.3724 10.2812C36.1339 10.0476 35.8513 9.86378 35.5412 9.74034C35.231 9.6169 34.8994 9.55634 34.5656 9.56218H22.7886C22.4716 9.56218 22.1676 9.43626 21.9435 9.21213C21.7194 8.98799 21.5934 8.684 21.5934 8.36703C21.5934 8.05005 21.7194 7.74606 21.9435 7.52193C22.1676 7.29779 22.4716 7.17187 22.7886 7.17188H34.5009C37.0458 7.18831 39.1852 9.08606 39.505 11.6104C39.5611 12.3804 39.4294 13.1525 39.121 13.8604C38.8127 14.5682 38.3371 15.1905 37.735 15.6739C36.8182 16.3839 35.6854 16.7578 34.526 16.7331H27.3947C26.6465 19.2429 23.6155 21.0177 20.532 21.4249C20.3644 21.444 20.1947 21.4273 20.034 21.3759C19.8734 21.3246 19.7254 21.2399 19.5999 21.1273C19.4743 21.0146 19.3741 20.8767 19.3057 20.7225C19.2373 20.5683 19.2024 20.4014 19.2031 20.2328Z" fill="#FFC477"/>
<path d="M37.743 59.7576C35.4245 59.7511 33.4416 58.0885 33.0307 55.8061C32.9339 55.2546 32.9379 54.6901 33.0424 54.1401C33.0811 53.8664 33.1503 53.5978 33.2485 53.3394C33.5365 52.5511 34.0264 51.8522 34.6692 51.3126C35.312 50.773 36.0852 50.4116 36.9115 50.2646L53.1533 47.3963C53.3596 47.3581 53.5724 47.3767 53.769 47.45L56.8311 48.5647C57.1294 48.6728 57.3726 48.8949 57.5074 49.1821C57.6416 49.4697 57.6562 49.7988 57.5482 50.0972C57.4402 50.3953 57.2182 50.6383 56.931 50.7728C56.6439 50.9073 56.3151 50.9222 56.0169 50.8142L53.2549 49.8088L37.3882 52.607C36.9692 52.6756 36.5751 52.8521 36.2449 53.1191C35.9146 53.386 35.6594 53.7342 35.5044 54.1296C35.4618 54.2342 35.4315 54.3426 35.4128 54.4535C35.4083 54.4938 35.4012 54.5334 35.3925 54.573C35.3389 54.8451 35.3368 55.1248 35.3865 55.3976C35.6282 56.6892 36.8607 57.5482 38.1557 57.3275L50.4333 55.1661C50.7451 55.1111 51.0661 55.1821 51.3256 55.3635C51.5851 55.5448 51.7621 55.8218 51.8176 56.1336C51.8724 56.4456 51.8011 56.7667 51.6193 57.0262C51.4376 57.2858 51.1603 57.4626 50.8483 57.5178L38.5652 59.6847C38.294 59.7325 38.0191 59.7564 37.743 59.7576Z" fill="#FFB655"/>
</g>
<defs>
<clipPath id="clip0_1017_2983">
<rect width="70" height="70" fill="white"/>
</clipPath>
</defs>
</svg>
