<svg width="70" height="70" viewBox="0 0 70 70" fill="none" xmlns="http://www.w3.org/2000/svg">
<path d="M62.4023 45.7743V47.0645L36.269 62.2586L25.0964 55.7939C23.8337 55.0802 22.818 53.3233 22.8317 51.8821L22.8455 46.2272C22.8455 45.4998 22.3376 44.6076 21.6925 44.237L14.7063 40.2017C13.4435 39.4743 12.4278 37.7174 12.4415 36.29L12.4964 17.2527L38.6298 2.05859L39.7415 2.70369L39.6866 21.7409C39.6866 22.4684 40.2082 23.3743 40.8396 23.7449L47.8259 27.7802C49.0886 28.4939 50.1043 30.2508 50.0906 31.6919L50.0768 37.3331C50.0768 38.0606 50.5847 38.9527 51.2298 39.3233L62.4023 45.7743Z" fill="#DEDFFB"/>
<path d="M36.2697 60.9652L62.4031 45.7793L62.399 47.064L36.2656 62.2513L36.2697 60.9652Z" fill="#E9E7FC"/>
<path d="M51.231 39.3288C50.5913 38.9582 50.078 38.0633 50.0808 37.3359L50.0972 31.6906C50.1013 30.2563 49.0857 28.4994 47.8325 27.7747L40.8421 23.7394C40.208 23.3729 39.6892 22.4739 39.6919 21.7465L39.7468 2.70508L13.6135 17.891L13.5586 36.9337C13.5572 37.6612 14.076 38.5602 14.7088 38.9253L21.6992 42.9606C22.9537 43.6853 23.968 45.4435 23.9639 46.8778L23.9474 52.5231C23.946 53.2506 24.4594 54.1455 25.0976 54.5147L36.2715 60.9657L62.4049 45.7798L51.231 39.3288Z" fill="#F3F1FC"/>
<path d="M13.6097 17.8918L13.5561 36.9359C13.5548 37.6633 14.0736 38.5624 14.7063 38.9275L21.6967 42.9628C22.9512 43.6875 23.9656 45.4457 23.9614 46.88L23.945 52.5253C23.9436 53.2528 24.4569 54.1477 25.0952 54.5169L36.2691 60.9678L36.2663 62.2539L25.0924 55.8029C23.8379 55.0782 22.8222 53.3214 22.8277 51.8788L22.8428 46.2349C22.8442 45.5075 22.3322 44.6112 21.6926 44.242L14.7022 40.2067C13.4477 39.482 12.4334 37.7251 12.4375 36.2894L12.4924 17.248L13.6097 17.8918Z" fill="#DEDFFB"/>
<path d="M12.4922 17.2458L38.6255 2.05859L39.7441 2.70369L13.6108 17.8909L12.4922 17.2458Z" fill="#E9E7FC"/>
<path d="M59.1346 45.3476L35.509 59.0785L34.8941 58.7148L58.5197 44.9838L59.1346 45.3476ZM56.8274 44.0052L33.1893 57.7376L32.5744 57.3738L56.2001 43.6415L56.8274 44.0052ZM54.4954 42.6642L30.8697 56.3952L30.2548 56.0315L53.8805 42.3129L54.4954 42.6642ZM52.1744 41.3219L28.5501 55.0529L27.9366 54.7029L51.5472 40.9705L52.1744 41.3219ZM49.9674 39.9301L26.2305 53.7105L25.7295 53.4223L25.6156 53.3482L49.5556 39.4401C49.6805 39.6158 49.8178 39.7791 49.9674 39.9301ZM48.8776 37.8603L25.2011 51.6297V50.9023L48.8268 37.1713V37.3346C48.8268 37.5089 48.8405 37.6846 48.8776 37.8603ZM48.8392 34.4742L48.8254 35.2017L25.2148 48.934V48.2066L48.8392 34.4742ZM48.8392 31.7909V32.5184L25.1627 46.2631C25.1458 46.0418 25.1044 45.8232 25.0392 45.6111L48.8392 31.7909ZM48.3505 30.1109L24.3995 44.0299C24.295 43.8491 24.1814 43.6736 24.0592 43.5042L47.9992 29.5838C48.1364 29.7485 48.2503 29.9229 48.3505 30.1109ZM46.5443 28.468L22.8554 42.2374C22.6892 42.1036 22.5135 41.982 22.3297 41.8736L22.279 41.8489L45.917 28.1042L46.5443 28.468ZM44.2109 27.127L20.588 40.8703L19.9607 40.5066L43.5988 26.7756L44.2109 27.127ZM41.8913 25.7846L18.2533 39.528L17.6397 39.1656L41.2654 25.4333L41.8913 25.7846ZM39.6595 24.3929L15.9337 38.187L15.3325 37.8356C15.3188 37.8356 15.3188 37.8219 15.3064 37.8219L39.2203 23.9289C39.3576 24.1046 39.4962 24.2666 39.6595 24.3929ZM38.5066 22.3725L14.8164 36.1556V35.4144L38.4325 21.6972V21.748C38.4325 21.9483 38.4572 22.1625 38.508 22.3752L38.5066 22.3725ZM38.4435 19.0001L38.4297 19.7276L14.8301 33.4462V32.7325L38.4435 19.0001ZM38.4435 16.3044V17.0442L14.8301 30.7629L14.8439 30.0231L38.4435 16.3044ZM38.4558 13.6211V14.3485L14.8425 28.0672V27.3397L38.4558 13.6211Z" fill="#DEDFFB"/>
<path d="M57.2172 44.3879L52.7838 46.9546L48.6662 44.5664L48.625 20.6291L53.0583 18.0762L57.176 20.4644L57.2172 44.3879Z" fill="#DF3260"/>
<path d="M48.6289 20.6309L48.6618 44.5599L52.7767 46.9509L52.7424 23.0218L48.6289 20.6309Z" fill="#E93565"/>
<path d="M52.7422 23.0213L52.7765 46.9503L57.2085 44.3905L57.1741 20.4629L52.7422 23.0213Z" fill="#DF3260"/>
<path d="M48.6289 20.6307L52.7424 23.0217L57.1758 20.4632L53.0609 18.0723L48.6289 20.6307Z" fill="#F45170"/>
<path d="M48.4177 49.3433L44.053 51.8551L40.004 49.508L39.9766 27.4786L44.3413 24.9531L48.3903 27.3139L48.4177 49.3433Z" fill="#FCBA1E"/>
<path d="M39.9688 27.4805L40.0031 49.5085L44.0535 51.8624L44.0205 29.8344L39.9688 27.4805Z" fill="#FFD06C"/>
<path d="M44.0195 29.8339L44.0525 51.8619L48.4213 49.3392L48.3884 27.3125L44.0195 29.8339Z" fill="#FCBA1E"/>
<path d="M39.9688 27.4804L44.0205 29.8343L48.3893 27.3129L44.3389 24.959L39.9688 27.4804Z" fill="#FFDE9B"/>
<path d="M39.7856 53.9965L35.5719 56.4259L31.6876 54.1749L31.6602 34.3279L35.8602 31.8984L39.7445 34.1631L39.7856 53.9965Z" fill="#5EC363"/>
<path d="M31.6523 34.3242L31.6853 54.1713L35.5723 56.4305L35.5408 36.5834L31.6523 34.3242Z" fill="#72D561"/>
<path d="M35.543 36.5843L35.5745 56.4313L39.78 54.0019L39.7471 34.1562L35.543 36.5843Z" fill="#5EC363"/>
<path d="M31.6523 34.3245L35.5408 36.5837L39.7449 34.1557L35.8578 31.8965L31.6523 34.3245Z" fill="#78E75A"/>
<path d="M65.4507 25.1178L63.3782 25.008L60.0017 32.8315L43.6409 42.3021L36.8331 56.0276L33.5527 57.9217L32.0703 57.057L40.7036 39.1453L57.0233 29.7021L59.2605 24.6786H59.0546L57.5585 23.8002L63.6938 16.457L65.1899 17.3217L65.4507 25.1178Z" fill="#497BFE"/>
<path d="M58.5234 30.5648L57.0273 29.696L59.6503 23.8242L61.1464 24.693L58.5234 30.5648Z" fill="#5094FF"/>
<path d="M59.0496 24.6725L57.5549 23.8037L63.6943 16.4551L65.189 17.3239L59.0496 24.6725ZM42.207 40.0108L40.7109 39.1419L57.0292 29.6961L58.5253 30.5649L42.207 40.0108Z" fill="#57B3FE"/>
<path d="M33.5586 57.9204L32.0625 57.0502L40.7096 39.1426L42.2043 40.0114L33.5586 57.9204Z" fill="#5094FF"/>
<path d="M65.1862 17.3242L65.447 25.1176L63.3758 25.0105L60.0062 32.8258L43.6345 42.3032L36.8362 56.0274L33.5586 57.9201L42.2043 40.0111L58.5211 30.5652L61.1427 24.6934L59.0468 24.6728L65.1862 17.3242Z" fill="#497BFE"/>
<path d="M20.1419 16.1953L14.8672 19.263V25.3832L20.1419 22.3183V16.1953Z" fill="#DEDFFB"/>
<path d="M22.875 14.6071V20.7314L38.4809 11.6644V5.5332L22.875 14.6071Z" fill="#DBA660"/>
<path d="M4.64062 55.2048L4.64749 56.9411C4.65023 57.9664 5.32553 58.9917 6.672 59.774C9.38553 61.3511 13.7928 61.3511 16.5228 59.774C17.8926 58.9834 18.5761 57.9444 18.5734 56.9068L18.5665 55.1719C18.5693 56.2095 17.8294 57.1607 16.4596 57.9513C13.7283 59.527 9.38415 59.4817 6.672 57.9046C5.32553 57.1223 4.64337 56.2301 4.64062 55.2048Z" fill="#FFD06C"/>
<path d="M6.6667 58.0398C7.19925 58.3513 7.79768 58.5984 8.43728 58.7837C8.94101 58.9347 9.46395 59.0445 10.002 59.1131C10.2902 59.157 10.5853 59.1817 10.8845 59.1996C12.1954 59.2812 13.5105 59.1378 14.773 58.7754C15.3805 58.5984 15.9654 58.3515 16.5161 58.0398C19.2406 56.4682 19.253 53.9139 16.5394 52.3382C15.9823 52.0205 15.3893 51.7703 14.773 51.5929C7.94866 49.5615 0.947285 54.7196 6.6667 58.0398Z" fill="#F9A83D"/>
<path d="M11.5827 58.4736C13.2655 58.4736 14.8411 58.0989 16.0202 57.4167C17.099 56.7949 17.6947 56.0002 17.6947 55.1795C17.6974 54.3655 17.11 53.5749 16.0421 52.9546C11.7804 50.4771 5.51193 52.5798 5.50781 55.1946C5.50781 56.0085 6.09389 56.7991 7.16036 57.4181C8.33115 58.0989 9.90134 58.4736 11.5827 58.4736Z" fill="#FFD06C"/>
<path d="M11.9443 56.5328L11.8565 57.1312C10.9808 57.0955 10.2122 56.9253 9.56158 56.6179L9.09217 56.891L8.67766 56.6522L9.14021 56.3832C8.72021 56.1169 8.49374 55.8369 8.46492 55.5459C8.43198 55.2536 8.60355 54.9969 8.97825 54.78C9.35433 54.5604 9.75923 54.463 10.1875 54.4808C10.6198 54.5014 11.14 54.6222 11.7549 54.8418L11.7741 54.8528L12.9847 54.1487C12.5695 53.9765 12.1301 53.8696 11.6822 53.8316L11.8565 53.2441C12.5647 53.321 13.1741 53.4885 13.6847 53.7424L14.0141 53.5502L14.4273 53.7904L14.1061 53.9771C14.5041 54.231 14.7128 54.5028 14.7375 54.791C14.7663 55.0792 14.592 55.3304 14.22 55.5459C13.8494 55.7628 13.4555 55.8602 13.0424 55.8383C12.6237 55.8163 12.1173 55.701 11.512 55.4841L10.263 56.2116C10.7077 56.3969 11.269 56.5039 11.9443 56.5328ZM9.8306 55.9837L10.989 55.3085C10.7364 55.2207 10.4734 55.1663 10.2067 55.1465C10.0318 55.1413 9.85893 55.1845 9.70707 55.2714C9.55747 55.3592 9.49433 55.4677 9.51904 55.5926C9.541 55.7202 9.64256 55.8506 9.82923 55.9824M13.4171 54.3765L12.3039 55.0243C12.6224 55.1204 12.8667 55.1671 13.0355 55.1698C13.2071 55.1698 13.3622 55.1287 13.5063 55.0463C13.6518 54.9612 13.7177 54.8596 13.7039 54.7402C13.6902 54.6208 13.5941 54.4973 13.4171 54.3765Z" fill="#F9A83D"/>
<path d="M4.64062 52.8064L4.64749 54.5426C4.65023 55.5679 5.32553 56.5932 6.672 57.3756C9.38553 58.9527 13.7928 58.9527 16.5228 57.3756C17.8926 56.585 18.5761 55.546 18.5734 54.5083L18.5665 52.7734C18.5693 53.8111 17.8294 54.7623 16.4596 55.5528C13.7283 57.1285 9.38415 57.0832 6.672 55.5062C5.32553 54.7238 4.64337 53.8317 4.64062 52.8064Z" fill="#FFD06C"/>
<path d="M6.6648 55.6412C7.19735 55.9528 7.79578 56.1999 8.43539 56.3865C8.93912 56.5375 9.46206 56.6459 10.0001 56.7159C10.2883 56.7571 10.5834 56.7846 10.8826 56.801C12.1935 56.8827 13.5086 56.7392 14.7711 56.3769C15.3786 56.1999 15.9635 55.953 16.5142 55.6412C19.2387 54.0697 19.2511 51.5154 16.5375 49.9397C9.915 46.1171 0.233038 51.9065 6.6648 55.6412Z" fill="#F9A83D"/>
<path d="M11.5827 56.0776C13.2655 56.0776 14.8411 55.7029 16.0202 55.0207C17.099 54.399 17.6947 53.6043 17.6947 52.7835C17.6974 51.9696 17.11 51.179 16.0421 50.5586C12.1413 48.2911 5.51193 49.9684 5.50781 52.7986C5.50781 53.6125 6.09389 54.4031 7.16036 55.0221C8.33115 55.7029 9.90134 56.0776 11.5827 56.0776Z" fill="#FFD06C"/>
<path d="M11.9458 54.133L11.8579 54.7328C10.9823 54.6971 10.2136 54.5269 9.56304 54.2194L9.09363 54.4939L8.67912 54.2537L9.14167 53.9847C8.35932 53.4879 8.18089 52.8455 8.97971 52.3816C9.85814 51.8696 10.7846 52.0975 11.7564 52.4434L11.7756 52.4543L12.9862 51.7502C12.5709 51.5781 12.1316 51.4711 11.6836 51.4332L11.8579 50.8457C12.5662 50.9226 13.1756 51.09 13.6862 51.3439L14.0156 51.1518L14.4287 51.392L14.1076 51.5786C14.5056 51.8326 14.7142 52.1043 14.7389 52.3926C14.7678 52.6808 14.5934 52.932 14.2215 53.1475C13.8509 53.3643 13.457 53.4618 13.0438 53.4398C12.6252 53.4179 12.1187 53.3026 11.5134 53.0857L10.2644 53.8132C10.7091 53.9985 11.2705 54.1055 11.9458 54.1343V54.133ZM9.83206 53.5839L10.9905 52.9114C9.57951 52.4708 9.16912 53.1145 9.83069 53.5839M13.4185 51.9781L12.3054 52.6259C12.6238 52.722 12.8681 52.7686 13.037 52.7714C13.2085 52.7714 13.3636 52.7302 13.5078 52.6479C13.6532 52.5628 13.7191 52.4612 13.7054 52.3418C13.6917 52.2224 13.5956 52.0988 13.4185 51.9781Z" fill="#F9A83D"/>
<path d="M4.64062 50.4099L4.64749 52.1462C4.65023 53.1715 5.32553 54.1968 6.672 54.9791C9.38553 56.5562 13.7928 56.5562 16.5228 54.9791C17.8926 54.1885 18.5761 53.1495 18.5734 52.1119L18.5665 50.377C18.5693 51.4146 17.8294 52.3658 16.4596 53.1564C13.7283 54.7321 9.38415 54.6868 6.672 53.1097C5.32553 52.3273 4.64337 51.4352 4.64062 50.4099Z" fill="#FFD06C"/>
<path d="M6.66671 53.2432C7.65495 53.8196 9.10711 54.3 10.8846 54.403C12.1954 54.4846 13.5106 54.3412 14.773 53.9789C15.3805 53.8018 15.9655 53.5549 16.5161 53.2432C19.2406 51.6716 19.253 49.1173 16.5395 47.5416C14.6824 46.4697 12.1308 46.1581 10.0006 46.471C9.46534 46.5397 8.94103 46.6536 8.43867 46.8004C7.83238 46.9785 7.24845 47.2253 6.69828 47.5361C3.96691 49.1132 3.95319 51.6675 6.66671 53.2432Z" fill="#F9A83D"/>
<path d="M16.0188 52.6231C17.099 52 17.6933 51.2053 17.6961 50.3859C17.7002 47.6957 11.3 45.7837 7.19056 48.1568C6.10624 48.7814 5.50919 49.5788 5.50781 50.3996C5.50507 53.0939 11.9039 54.9976 16.0188 52.6231Z" fill="#FFD06C"/>
<path d="M11.9458 51.7359L11.8579 52.3343C10.9823 52.2986 10.2136 52.1284 9.56304 51.821L9.09363 52.0955L8.67912 51.8553L9.14167 51.5863C8.35932 51.0894 8.18089 50.4471 8.97971 49.9831C10.1779 49.2859 11.4887 50.0216 11.7756 50.0559L12.9862 49.3518C12.5709 49.1796 12.1316 49.0727 11.6836 49.0347L11.8579 48.4473C12.5662 48.5255 13.1756 48.6916 13.6862 48.9455L14.0156 48.7533L14.4287 48.9935L14.1076 49.1802C15.6476 50.1643 14.194 51.6453 11.5134 50.6873L10.2644 51.4147C10.7091 51.6 11.2705 51.7071 11.9458 51.7359ZM9.83206 51.1869L10.9905 50.5116C9.57951 50.0724 9.16912 50.7161 9.83069 51.1855M13.4185 49.5796L12.3054 50.2275C13.6052 50.6131 14.0472 50.0065 13.4185 49.5796Z" fill="#F9A83D"/>
<path d="M4.64062 48.0115L4.64749 49.7477C4.65023 50.773 5.32553 51.7983 6.672 52.5807C9.38553 54.1577 13.7928 54.1577 16.5228 52.5807C17.8926 51.7901 18.5761 50.7524 18.5734 49.7134L18.5665 47.9785C18.5693 49.0162 17.8294 49.9673 16.4596 50.7579C12.1745 53.2313 4.65023 51.392 4.64062 48.0115Z" fill="#FFD06C"/>
<path d="M14.7703 51.5824C15.3787 51.4055 15.9646 51.1586 16.5161 50.8467C19.2393 49.2751 19.2516 46.7208 16.5381 45.1451C15.9809 44.8275 15.3879 44.5773 14.7716 44.3998C13.2219 43.9542 11.5951 43.8433 9.99927 44.0745C9.46398 44.1432 8.93966 44.2571 8.43731 44.404C7.83101 44.582 7.24708 44.8288 6.69692 45.1396C0.925349 48.4694 7.90202 53.6179 14.7703 51.5824Z" fill="#F9A83D"/>
<path d="M16.0188 50.2247C17.099 49.6015 17.6933 48.8068 17.696 47.9874C17.696 47.1721 17.11 46.3815 16.0421 45.7611C14.8713 45.0804 13.2998 44.707 11.617 44.707C9.93566 44.707 8.36409 45.0804 7.19056 45.7584C6.10625 46.3829 5.50919 47.1804 5.50781 48.0011C5.5037 50.856 12.1304 52.4688 16.0188 50.2247Z" fill="#FFD06C"/>
<path d="M11.9458 49.3394L11.8579 49.9378C10.9823 49.9022 10.2136 49.732 9.56304 49.4245L9.09363 49.699L8.67912 49.4588L9.14167 49.1898C8.35932 48.6929 8.18089 48.0506 8.97971 47.5867C10.1779 46.8894 11.4887 47.6251 11.7756 47.6594L12.9862 46.9553C12.5709 46.7831 12.1316 46.6762 11.6836 46.6382L11.8579 46.0508C12.5662 46.129 13.1756 46.2951 13.6862 46.549L14.0156 46.3582L14.4287 46.5971L14.1076 46.7837C15.6476 47.7678 14.194 49.2488 11.5134 48.2908L10.2644 49.0182C10.7091 49.2035 11.2705 49.3106 11.9458 49.3394ZM9.83206 48.7904L10.9905 48.1151C9.56991 47.6731 9.17324 48.321 9.83069 48.789M13.4185 47.1831L12.3054 47.831C13.6052 48.2167 14.0472 47.61 13.4185 47.1831Z" fill="#F9A83D"/>
<path d="M4.64062 45.613L4.64749 47.3493C4.65847 50.9769 12.202 52.6775 16.5228 50.1822C17.8926 49.3916 18.5761 48.354 18.5734 47.315L18.5665 45.5801C18.5693 46.6177 17.8294 47.5689 16.4596 48.3595C13.7283 49.9352 9.38415 49.8899 6.672 48.3128C5.32553 47.5305 4.64337 46.6383 4.64062 45.613Z" fill="#FFD06C"/>
<path d="M6.66671 48.4483C9.30201 49.9896 13.7148 50.0555 16.5175 48.4483C19.2406 46.8767 19.253 44.3224 16.5395 42.7467C15.9823 42.4291 15.3893 42.1789 14.773 42.0014C13.2233 41.5557 11.5965 41.4449 10.0006 41.6761C9.46534 41.7447 8.94103 41.8587 8.43867 42.0055C7.83238 42.1835 7.24845 42.4304 6.69828 42.7412C3.96691 44.3183 3.95319 46.8726 6.66671 48.4483Z" fill="#F9A83D"/>
<path d="M17.696 45.5909C17.696 44.7756 17.11 43.9851 16.0421 43.3647C14.8713 42.6853 13.2998 42.3105 11.617 42.3105C9.93566 42.3105 8.36409 42.6839 7.19056 43.3619C6.10624 43.9864 5.50919 44.7839 5.50781 45.6047C5.50781 46.4186 6.09389 47.2092 7.16036 47.8282C11.4221 50.3056 17.6919 48.2043 17.696 45.5909Z" fill="#FFD06C"/>
<path d="M11.9443 46.941L11.8565 47.5394C10.9808 47.5037 10.2122 47.3335 9.56158 47.0261L9.09217 47.3006L8.67766 47.0604L9.14021 46.7914C8.72021 46.5251 8.49374 46.2451 8.46492 45.9541C8.43198 45.6618 8.60355 45.4051 8.97825 45.1882C9.35433 44.9686 9.75923 44.8712 10.1875 44.8904C10.9067 44.9233 11.6355 45.2198 11.7741 45.261L12.9847 44.5569C12.5695 44.3847 12.1301 44.2777 11.6822 44.2398L11.8565 43.6523C12.5647 43.7306 13.1741 43.8967 13.6847 44.1506L14.0141 43.9598L14.4273 44.1986L14.1061 44.3853C14.5041 44.6392 14.7128 44.911 14.7375 45.1992C14.7965 45.788 13.7849 46.7035 11.512 45.8923L10.263 46.6198C10.7077 46.8051 11.269 46.9121 11.9443 46.941ZM9.8306 46.3919L10.989 45.7167C10.7364 45.6289 10.4734 45.5745 10.2067 45.5547C10.0318 45.5495 9.85893 45.5927 9.70707 45.6796C9.55747 45.7674 9.49433 45.8759 9.51904 46.0008C9.541 46.1284 9.64256 46.2588 9.82923 46.3906M13.4171 44.7847L12.3039 45.4325C13.6037 45.8182 14.0457 45.2116 13.4171 44.7847Z" fill="#F9A83D"/>
<path d="M4.64062 43.2165L4.64749 44.9528C4.65023 45.9781 5.32553 47.0034 6.672 47.7857C9.38553 49.3628 13.7928 49.3628 16.5228 47.7857C17.8926 46.9952 18.5761 45.9575 18.5734 44.9185L18.5665 43.1836C18.5693 44.2212 17.8294 45.1724 16.4596 45.963C13.7283 47.5387 9.38415 47.4934 6.672 45.9163C5.32553 45.134 4.64337 44.2418 4.64062 43.2165Z" fill="#FFD06C"/>
<path d="M6.66671 46.0509C7.19926 46.3624 7.79769 46.6095 8.4373 46.7962C10.8804 47.5318 14.2157 47.3726 16.5175 46.0509C19.2406 44.4793 19.253 41.925 16.5395 40.3493C15.9823 40.0317 15.3893 39.7815 14.773 39.604C13.2232 39.1588 11.5964 39.0484 10.0006 39.2801C9.46534 39.3487 8.94103 39.4613 8.43867 39.6095C7.83237 39.7875 7.24844 40.0343 6.69828 40.3452C3.96691 41.9209 3.95319 44.4752 6.66671 46.0509Z" fill="#F9A83D"/>
<path d="M16.0188 45.4298C17.099 44.8066 17.6933 44.0119 17.696 43.1925C17.696 42.3772 17.11 41.5866 16.0421 40.9662C14.8713 40.2868 13.2998 39.9121 11.617 39.9121C9.93566 39.9121 8.36409 40.2854 7.19056 40.9635C6.10624 41.588 5.50919 42.3854 5.50781 43.2062C5.50781 44.0201 6.09389 44.8107 7.16036 45.4298C9.58291 46.838 13.5798 46.838 16.0188 45.4298Z" fill="#FFD06C"/>
<path d="M12.941 44.2214L11.6906 43.4939C11.0867 43.7108 10.5788 43.8261 10.1602 43.848C9.74843 43.87 9.35451 43.7725 8.98255 43.557C8.61196 43.3402 8.43627 43.0904 8.46372 42.8008C8.49117 42.5125 8.69706 42.2408 9.09509 41.9868L8.77529 41.8002L9.1898 41.5614L9.51921 41.7535C10.0284 41.4982 10.6378 41.3321 11.3461 41.2539L11.5204 41.8414C11.0345 41.8894 10.6008 41.9951 10.2178 42.1598L11.4284 42.8625L11.4476 42.8516C12.0625 42.6319 12.5827 42.5112 13.0151 42.4919C13.4433 42.4727 13.8482 42.5702 14.2243 42.7898C14.599 43.0067 14.772 43.2633 14.7376 43.5543C14.7102 43.8467 14.4823 44.1267 14.0623 44.3929L14.5249 44.6619L14.1104 44.9008L13.641 44.6276C12.9904 44.9351 12.2231 45.1053 11.3461 45.141L11.2582 44.5425C11.9335 44.5151 12.4935 44.4067 12.941 44.2214ZM13.3733 43.9921C13.5586 43.8604 13.6616 43.7314 13.6835 43.6037C13.7082 43.4774 13.6451 43.369 13.4955 43.2812C13.3432 43.1941 13.1698 43.1508 12.9945 43.1563C12.7283 43.1761 12.4657 43.2306 12.2135 43.3182L13.3733 43.9921ZM9.78549 42.3863C9.60706 42.5084 9.51372 42.6306 9.49862 42.75C9.4849 42.8708 9.55215 42.971 9.69627 43.0547C9.84039 43.1384 9.99549 43.1782 10.1671 43.1782C10.3359 43.1782 10.5788 43.1288 10.9 43.0341L9.78549 42.3863Z" fill="#F9A83D"/>
<g opacity="0.25">
<path d="M10.8808 39.1871V47.211C12.1918 47.2922 13.5069 47.1483 14.7693 46.7855V39.603C13.5069 39.2408 12.1913 39.1001 10.8808 39.1871ZM8.43359 39.6071V46.7951C8.93595 46.9461 9.46026 47.0559 9.9983 47.1245V39.279C9.46026 39.3477 8.93595 39.4588 8.43359 39.6071Z" fill="white"/>
</g>
<path d="M16.707 62.1906L16.7139 63.9268C16.7166 64.9521 17.3906 65.9761 18.7384 66.7598C21.4506 68.3355 25.8578 68.3355 28.5892 66.7598C29.9576 65.9692 30.6425 64.9302 30.6398 63.8925L30.6329 62.1562C30.6357 63.1939 29.8945 64.1464 28.5261 64.9357C25.7947 66.5127 21.4506 66.4674 18.7384 64.8904C17.3906 64.108 16.7098 63.2159 16.707 62.1906Z" fill="#FFD06C"/>
<path d="M18.7343 65.0243C19.2669 65.3359 19.8653 65.5829 20.5049 65.7682C21.0073 65.9192 21.5316 66.029 22.0696 66.0976C23.666 66.3206 25.2915 66.2056 26.8406 65.76C27.4481 65.5829 28.0331 65.336 28.5837 65.0243C31.3082 63.4527 31.3206 60.897 28.6057 59.3214C28.0485 59.0042 27.4555 58.7545 26.8392 58.5774C25.2899 58.132 23.6636 58.0211 22.0682 58.2521C21.5316 58.3208 21.0073 58.4347 20.5049 58.5816C19.8986 58.7596 19.3147 59.0064 18.7645 59.3172C16.0331 60.8929 16.0194 63.4486 18.7343 65.0243Z" fill="#F9A83D"/>
<path d="M23.653 65.46C25.3358 65.46 26.9115 65.0839 28.0905 64.4031C29.1693 63.78 29.765 62.9853 29.765 62.1658C29.7664 61.3519 29.1789 60.56 28.1124 59.9409C25.6926 58.5355 21.6944 58.5313 19.2595 59.9368C18.1766 60.5627 17.5795 61.3588 17.5781 62.1809C17.5781 62.9949 18.1642 63.7841 19.2307 64.4045C20.4015 65.0853 21.9717 65.46 23.653 65.46Z" fill="#FFD06C"/>
<path d="M24.0149 63.5158L23.9271 64.1156C23.05 64.0799 22.2828 63.9097 21.6322 63.6022L21.1628 63.8754L20.7483 63.6366L21.2108 63.3675C20.7908 63.0999 20.5643 62.8213 20.5355 62.5289C20.5012 62.2366 20.6741 61.9799 21.0488 61.763C21.4249 61.5434 21.8298 61.4473 22.2581 61.4652C22.6904 61.4858 23.2106 61.6066 23.8255 61.8262L23.8447 61.8371L25.0553 61.133C24.6401 60.9604 24.2008 60.853 23.7528 60.8146L23.9271 60.2285C24.6353 60.3054 25.2447 60.4715 25.7553 60.7267L26.0834 60.5346L26.4979 60.7748L26.1767 60.9615C27.7167 61.9456 26.2632 63.4252 23.5826 62.4685L22.3336 63.196C22.7783 63.3813 23.3396 63.4883 24.0149 63.5158ZM21.8998 62.9667L23.0596 62.2942C21.6487 61.8522 21.2383 62.4973 21.8998 62.9667ZM25.4877 61.3609L24.3732 62.0087C25.673 62.393 26.1163 61.7891 25.4877 61.3609Z" fill="#F9A83D"/>
<path d="M16.707 59.7921L16.7139 61.5284C16.7166 62.5537 17.3906 63.5776 18.7384 64.3613C21.4506 65.937 25.8578 65.937 28.5892 64.3613C29.9576 63.5708 30.6425 62.5317 30.6398 61.4941L30.6329 59.7578C30.6357 60.7955 29.8945 61.748 28.5261 62.5372C25.7947 64.1143 21.4506 64.069 18.7384 62.4919C17.3906 61.7096 16.7098 60.8174 16.707 59.7921Z" fill="#FFD06C"/>
<path d="M18.7343 62.6259C20.741 63.8008 24.0131 64.1988 26.8392 63.3615C27.4477 63.1847 28.0336 62.9378 28.5851 62.6259C31.3082 61.0543 31.3206 58.4986 28.6057 56.9229C28.0485 56.6058 27.4555 56.356 26.8392 56.179C25.2899 55.7335 23.6636 55.6227 22.0682 55.8537C21.5316 55.9223 21.0073 56.0363 20.5049 56.1831C19.8986 56.3611 19.3147 56.608 18.7645 56.9188C16.0331 58.4945 16.0194 61.0502 18.7343 62.6259Z" fill="#F9A83D"/>
<path d="M28.0905 62.0053C29.1693 61.3808 29.765 60.5861 29.765 59.7681C29.7664 58.9528 29.1789 58.1622 28.1124 57.5418C26.9417 56.861 25.3701 56.4863 23.686 56.4863C22.006 56.4863 20.433 56.8597 19.2595 57.5377C18.1766 58.1636 17.5795 58.9597 17.5781 59.7818C17.5781 60.5957 18.1642 61.385 19.2307 62.0053C21.6532 63.4136 25.6501 63.4136 28.0905 62.0053Z" fill="#FFD06C"/>
<path d="M24.0149 61.1187L23.9271 61.7171C23.05 61.6815 22.2828 61.5113 21.6322 61.2038L21.1628 61.4769L20.7483 61.2381L21.2108 60.9691C20.7908 60.7015 20.5643 60.4228 20.5355 60.1318C20.5012 59.8381 20.6741 59.5828 21.0488 59.3646C21.4249 59.145 21.8298 59.0489 22.2581 59.0667C22.6904 59.0873 23.2106 59.2081 23.8255 59.4277L23.8447 59.4387L25.0553 58.7346C24.6401 58.562 24.2008 58.4546 23.7528 58.4162L23.9271 57.8301C24.6353 57.9069 25.2447 58.073 25.7553 58.3283L26.0834 58.1362L26.4979 58.3764L26.1767 58.563C26.5747 58.8169 26.7834 59.0887 26.8081 59.3756C26.8671 59.9658 25.8541 60.8813 23.5826 60.0701L22.3336 60.7975C22.7783 60.9828 23.3396 61.0913 24.0149 61.1187ZM21.8998 60.5697L23.0596 59.8944C21.6487 59.4552 21.2383 60.1003 21.8998 60.5697ZM25.4877 58.9624L24.3732 59.6103C25.673 59.9946 26.1163 59.3907 25.4877 58.9624Z" fill="#F9A83D"/>
<path d="M16.707 57.3937L16.7139 59.13C16.7166 60.1553 17.3906 61.1792 18.7384 61.9629C21.4506 63.5386 25.8578 63.5386 28.5892 61.9629C29.9576 61.1723 30.6425 60.1333 30.6398 59.0956L30.6329 57.3594C30.6357 58.397 29.8945 59.3496 28.5261 60.1388C25.7947 61.7158 21.4506 61.6706 18.7384 60.0935C17.3906 59.3111 16.7098 58.419 16.707 57.3937Z" fill="#FFD06C"/>
<path d="M18.7343 60.228C20.741 61.4043 24.0131 61.8023 26.8392 60.9651C27.4477 60.7882 28.0336 60.5413 28.5851 60.2294C31.3082 58.6578 31.3206 56.1035 28.6057 54.5264C28.0485 54.2093 27.4555 53.9595 26.8392 53.7825C25.2899 53.3371 23.6636 53.2262 22.0682 53.4572C21.5316 53.5258 21.0073 53.6398 20.5049 53.7866C19.8986 53.9647 19.3147 54.2115 18.7645 54.5223C16.0331 56.098 16.0194 58.6523 18.7343 60.228Z" fill="#F9A83D"/>
<path d="M28.0905 59.6089C29.1693 58.9844 29.765 58.1896 29.765 57.3716C29.7664 56.5563 29.1789 55.7657 28.1124 55.1453C26.9417 54.4645 25.3701 54.0898 23.686 54.0898C22.006 54.0898 20.433 54.4632 19.2595 55.1412C18.1766 55.7671 17.5795 56.5632 17.5781 57.3853C17.5781 58.1993 18.1642 58.9885 19.2307 59.6089C21.6532 61.0171 25.6501 61.0171 28.0905 59.6089Z" fill="#FFD06C"/>
<path d="M24.0149 58.7222L23.9271 59.3207C23.05 59.285 22.2828 59.1148 21.6322 58.8073L21.1628 59.0805L20.7483 58.8416L21.2108 58.5726C20.7908 58.305 20.5643 58.0263 20.5355 57.7354C20.5012 57.4416 20.6741 57.1863 21.0488 56.9681C21.4249 56.7485 21.8298 56.6524 22.2581 56.6703C22.6904 56.6908 23.2106 56.8116 23.8255 57.0312L23.8447 57.0422L25.0553 56.3381C24.6401 56.1655 24.2008 56.0581 23.7528 56.0197L23.9271 55.4336C24.6353 55.5105 25.2447 55.6765 25.7553 55.9318L26.0834 55.7397L26.4979 55.9799L26.1767 56.1665C26.5747 56.4205 26.7834 56.6922 26.8081 56.9791C26.8369 57.2673 26.6612 57.5199 26.2906 57.7354C25.92 57.9508 25.5261 58.0497 25.113 58.0277C24.6943 58.0057 24.1865 57.8905 23.5826 57.6736L22.3336 58.401C22.7783 58.5863 23.3396 58.6934 24.0149 58.7222ZM21.8998 58.1732L23.0596 57.4979C22.8071 57.4097 22.5441 57.3548 22.2773 57.3346C22.1023 57.3298 21.9294 57.3735 21.7777 57.4608C21.6281 57.5473 21.5649 57.6571 21.5896 57.782C21.6116 57.9097 21.7132 58.0414 21.8998 58.1732ZM25.4877 56.5659L24.3732 57.2138C24.693 57.3099 24.9373 57.3565 25.1061 57.3579C25.2777 57.3579 25.4328 57.3167 25.5769 57.2344C25.721 57.1507 25.7883 57.0491 25.7732 56.9297C25.7594 56.8103 25.6647 56.6881 25.4877 56.5659Z" fill="#F9A83D"/>
<path d="M16.707 54.9972L16.7139 56.7335C16.7166 57.7588 17.3906 58.7841 18.7384 59.5664C21.4506 61.1421 25.8578 61.1421 28.5892 59.5664C29.9576 58.7758 30.6425 57.7368 30.6398 56.6992L30.6329 54.9629C30.6357 56.0005 29.8945 56.9531 28.5261 57.7423C25.7947 59.3194 21.4506 59.2741 18.7384 57.697C17.3906 56.9147 16.7098 56.0225 16.707 54.9972Z" fill="#FFD06C"/>
<path d="M18.7343 57.8309C19.2669 58.1425 19.8653 58.3896 20.5049 58.5749C22.3167 59.1211 24.7269 59.1925 26.8392 58.5666C27.4477 58.3898 28.0336 58.1429 28.5851 57.8309C31.3082 56.2594 31.3206 53.7051 28.6057 52.128C28.0485 51.8108 27.4555 51.5611 26.8392 51.3841C25.2899 50.9386 23.6636 50.8277 22.0682 51.0588C21.5316 51.1274 21.0073 51.2413 20.5049 51.3882C19.8986 51.5662 19.3147 51.8131 18.7645 52.1239C16.0331 53.6996 16.0194 56.2553 18.7343 57.8309Z" fill="#F9A83D"/>
<path d="M23.653 58.2645C25.3358 58.2645 26.9115 57.8898 28.0905 57.2104C29.1693 56.5859 29.765 55.7912 29.765 54.9732C29.7664 54.1579 29.1789 53.3673 28.1124 52.7469C26.9417 52.0661 25.3701 51.6914 23.686 51.6914C22.006 51.6914 20.433 52.0647 19.2595 52.7428C18.1766 53.3687 17.5795 54.1647 17.5781 54.9869C17.5781 55.8008 18.1642 56.5914 19.2307 57.2104C20.4015 57.8912 21.9717 58.2645 23.653 58.2645Z" fill="#FFD06C"/>
<path d="M24.0149 56.3238L23.9271 56.9222C23.05 56.8865 22.2828 56.7163 21.6322 56.4089L21.1628 56.682L20.7483 56.4432L21.2108 56.1742C20.7908 55.9065 20.5643 55.6279 20.5355 55.3369C20.5012 55.0432 20.6741 54.7879 21.0488 54.5697C21.4249 54.3514 21.8298 54.254 22.2581 54.2718C22.6904 54.2924 23.2106 54.4132 23.8255 54.6328L23.8447 54.6438L25.0553 53.9397C24.6401 53.767 24.2008 53.6596 23.7528 53.6212L23.9271 53.0352C24.6353 53.112 25.2447 53.2781 25.7553 53.5334L26.0834 53.3412L26.4979 53.5814L26.1767 53.7681C26.5747 54.022 26.7834 54.2938 26.8081 54.5806C26.8369 54.8689 26.6612 55.1214 26.2906 55.3369C25.92 55.5524 25.5261 55.6512 25.113 55.6293C24.6943 55.6073 24.1865 55.492 23.5826 55.2752L22.3336 56.0026C22.7783 56.1879 23.3396 56.295 24.0149 56.3238ZM21.8998 55.7748L23.0596 55.0995C22.8071 55.0113 22.5441 54.9563 22.2773 54.9361C22.1023 54.9314 21.9294 54.9751 21.7777 55.0624C21.6281 55.1489 21.5649 55.2587 21.5896 55.3836C21.6116 55.5112 21.7132 55.6416 21.8998 55.7734M25.4877 54.1675L24.3732 54.8154C24.693 54.9114 24.9373 54.9581 25.1061 54.9595C25.2777 54.9595 25.4328 54.9183 25.5769 54.8359C25.721 54.7522 25.7883 54.6506 25.7732 54.5312C25.7594 54.4118 25.6647 54.2897 25.4877 54.1675Z" fill="#F9A83D"/>
<path d="M16.707 52.5988L16.7139 54.335C16.7166 55.3603 17.3906 56.3856 18.7384 57.168C21.4506 58.7437 25.8578 58.7437 28.5892 57.168C29.9576 56.3774 30.6425 55.3384 30.6398 54.3007L30.6329 52.5645C30.6357 53.6021 29.8945 54.5546 28.5261 55.3439C25.7947 56.9209 21.4506 56.8756 18.7384 55.2986C17.3906 54.5162 16.7098 53.6241 16.707 52.5988Z" fill="#FFD06C"/>
<path d="M18.7343 55.4325C19.2669 55.7441 19.8653 55.9911 20.5049 56.1764C21.0073 56.3274 21.5316 56.4372 22.0696 56.5058C22.3578 56.5498 22.6529 56.5745 22.9522 56.5923C24.2626 56.6738 25.5772 56.5304 26.8392 56.1682C27.4477 55.9913 28.0336 55.7444 28.5851 55.4325C31.3082 53.8609 31.3206 51.3066 28.6057 49.7296C28.0485 49.4124 27.4555 49.1627 26.8392 48.9856C25.2899 48.5402 23.6636 48.4293 22.0682 48.6603C21.5316 48.729 21.0073 48.8429 20.5049 48.9898C19.8986 49.1678 19.3147 49.4146 18.7645 49.7254C16.0331 51.3011 16.0194 53.8568 18.7343 55.4325Z" fill="#F9A83D"/>
<path d="M23.653 55.8675C25.3358 55.8675 26.9115 55.4914 28.0905 54.8106C29.1693 54.1875 29.765 53.3928 29.765 52.5734C29.7664 51.7594 29.1789 50.9675 28.1124 50.3485C26.9417 49.6677 25.3701 49.293 23.686 49.293C22.006 49.293 20.433 49.6663 19.2595 50.3443C18.1766 50.9702 17.5795 51.7663 17.5781 52.5885C17.5781 53.4024 18.1642 54.193 19.2307 54.812C20.4015 55.4928 21.9717 55.8675 23.653 55.8675Z" fill="#FFD06C"/>
<path d="M25.0102 53.6028L23.7611 52.8767C23.1572 53.0922 22.6494 53.2089 22.2308 53.2308C21.8176 53.2528 21.4237 53.154 21.0531 52.9385C20.6825 52.723 20.5055 52.4718 20.5343 52.1836C20.5604 51.8953 20.7676 51.6236 21.1657 51.3697L20.8458 51.183L21.2604 50.9442L21.5884 51.135C22.099 50.8797 22.7084 50.7136 23.4166 50.6367L23.5896 51.2228C23.1051 51.2708 22.67 51.3765 22.2884 51.5412L23.499 52.2453L23.5168 52.2344C24.1331 52.0148 24.6533 51.894 25.0843 51.8734C25.5139 51.8555 25.9174 51.953 26.2949 52.1712C26.6682 52.3895 26.8411 52.6448 26.8082 52.9371C26.7794 53.2295 26.5529 53.5081 26.1329 53.7757L26.5955 54.0448L26.1809 54.2836L25.7102 54.0091C25.0609 54.3179 24.2923 54.4895 23.4166 54.5238L23.3288 53.9253C24.0041 53.8979 24.5641 53.7895 25.0102 53.6028ZM25.4439 53.375C25.6292 53.2432 25.7321 53.1128 25.7541 52.9851C25.7788 52.8602 25.7157 52.7518 25.566 52.664C25.4139 52.5764 25.2405 52.5327 25.0651 52.5377C24.7987 52.5585 24.5362 52.6138 24.2841 52.7024L25.4439 53.375ZM21.856 51.7691C21.6776 51.8912 21.5829 52.0134 21.5692 52.1328C21.5555 52.2522 21.6213 52.3524 21.7655 52.4375C21.9096 52.5212 22.066 52.561 22.2376 52.561C22.4064 52.561 22.6494 52.5116 22.9692 52.4169L21.856 51.7691Z" fill="#F9A83D"/>
<g opacity="0.25">
<path d="M22.9512 48.5698V56.5937C24.2616 56.6747 25.5763 56.5308 26.8382 56.1682V48.9857C25.5763 48.6237 24.2611 48.483 22.9512 48.5698ZM20.5039 48.9898V56.1779C21.0063 56.3288 21.5306 56.4386 22.0672 56.5073V48.6604C21.5306 48.729 21.0063 48.8429 20.5039 48.9898Z" fill="white"/>
</g>
</svg>
