<svg width="70" height="70" viewBox="0 0 70 70" fill="none" xmlns="http://www.w3.org/2000/svg">
<g clip-path="url(#clip0_1017_3252)">
<path d="M49.1673 0C43.6951 0 38.7166 2.30155 34.9993 6.0638C31.282 2.30155 26.3035 0 20.8313 0C9.32648 0 0 10.1679 0 22.7107C0 53.6477 34.9993 70 34.9993 70C34.9993 70 69.6575 53.878 69.9986 22.7107C70.1358 10.1689 60.6721 0 49.1673 0Z" fill="#FA7592"/>
<path d="M49.166 0C48.2111 0 47.2716 0.0716901 46.3508 0.207324C56.5418 1.70648 64.4892 11.2101 64.3633 22.7107C64.0819 48.4197 40.452 63.891 32.1836 68.5217C33.9361 69.5037 34.998 70 34.998 70C34.998 70 69.6561 53.878 69.9973 22.7107C70.1344 10.1689 60.6708 0 49.166 0Z" fill="#F55577"/>
<path d="M42.3981 39.3989C41.7028 39.1387 41.2407 38.4765 41.2416 37.7341V37.7203C41.2416 34.2439 38.4234 31.4258 34.9471 31.4258C31.4707 31.4258 28.6526 34.2439 28.6526 37.7203C28.6526 37.7572 28.6528 37.7941 28.6535 37.8308C28.6662 38.5437 28.2427 39.1949 27.5823 39.4634C25.2103 40.4272 23.5586 42.7945 23.6607 45.5355C23.7831 48.822 26.4658 51.4858 29.753 51.5866C30.7207 51.6163 31.6409 51.4273 32.4683 51.0654C34.1231 50.3414 36.0205 50.3416 37.6754 51.0655C38.5021 51.427 39.4216 51.6161 40.3885 51.5868C43.6876 51.4866 46.3764 48.8044 46.4838 45.5054C46.5745 42.7147 44.8483 40.3155 42.3981 39.3989Z" fill="#F9F2D7"/>
<path d="M30.108 29.0835C32.932 28.2276 34.3279 24.586 33.2259 20.9497C32.1239 17.3134 28.9412 15.0594 26.1172 15.9152C23.2932 16.771 21.8973 20.4127 22.9993 24.049C24.1013 27.6853 27.284 29.9393 30.108 29.0835Z" fill="#F9F2D7"/>
<path d="M22.6752 38.4288C24.8907 37.3039 25.5124 34.0792 24.0638 31.2264C22.6153 28.3736 19.645 26.9729 17.4295 28.0979C15.214 29.2228 14.5923 32.4474 16.0408 35.3002C17.4894 38.1531 20.4597 39.5538 22.6752 38.4288Z" fill="#F9F2D7"/>
<path d="M47.0032 23.9155C48.1053 20.2792 46.7093 16.6376 43.8853 15.7818C41.0613 14.9259 37.8787 17.1799 36.7766 20.8163C35.6746 24.4526 37.0705 28.0942 39.8945 28.95C42.7185 29.8059 45.9012 27.5519 47.0032 23.9155Z" fill="#F9F2D7"/>
<path d="M53.9779 35.1564C55.4265 32.3036 54.8047 29.079 52.5893 27.954C50.3738 26.829 47.4035 28.2298 45.9549 31.0826C44.5063 33.9354 45.128 37.16 47.3435 38.285C49.559 39.4099 52.5293 38.0092 53.9779 35.1564Z" fill="#F9F2D7"/>
</g>
<defs>
<clipPath id="clip0_1017_3252">
<rect width="70" height="70" fill="white"/>
</clipPath>
</defs>
</svg>
