<svg width="70" height="70" viewBox="0 0 70 70" fill="none" xmlns="http://www.w3.org/2000/svg">
<path d="M13.125 12.0312H56.875V57.9688H13.125V12.0312Z" fill="#E9EEF2"/>
<path d="M19.6875 20.7812H28.4375V29.5312H19.6875V20.7812ZM51.4062 28.4375H32.8125C32.5224 28.4375 32.2442 28.3223 32.0391 28.1171C31.834 27.912 31.7188 27.6338 31.7188 27.3438C31.7188 27.0537 31.834 26.7755 32.0391 26.5704C32.2442 26.3652 32.5224 26.25 32.8125 26.25H51.4062C51.6963 26.25 51.9745 26.3652 52.1796 26.5704C52.3848 26.7755 52.5 27.0537 52.5 27.3438C52.5 27.6338 52.3848 27.912 52.1796 28.1171C51.9745 28.3223 51.6963 28.4375 51.4062 28.4375ZM51.4062 35H18.5938C18.3037 35 18.0255 34.8848 17.8204 34.6796C17.6152 34.4745 17.5 34.1963 17.5 33.9062C17.5 33.6162 17.6152 33.338 17.8204 33.1329C18.0255 32.9277 18.3037 32.8125 18.5938 32.8125H51.4062C51.6963 32.8125 51.9745 32.9277 52.1796 33.1329C52.3848 33.338 52.5 33.6162 52.5 33.9062C52.5 34.1963 52.3848 34.4745 52.1796 34.6796C51.9745 34.8848 51.6963 35 51.4062 35ZM51.4062 39.375H18.5938C18.3037 39.375 18.0255 39.2598 17.8204 39.0546C17.6152 38.8495 17.5 38.5713 17.5 38.2812C17.5 37.9912 17.6152 37.713 17.8204 37.5079C18.0255 37.3027 18.3037 37.1875 18.5938 37.1875H51.4062C51.6963 37.1875 51.9745 37.3027 52.1796 37.5079C52.3848 37.713 52.5 37.9912 52.5 38.2812C52.5 38.5713 52.3848 38.8495 52.1796 39.0546C51.9745 39.2598 51.6963 39.375 51.4062 39.375ZM51.4062 43.75H18.5938C18.3037 43.75 18.0255 43.6348 17.8204 43.4296C17.6152 43.2245 17.5 42.9463 17.5 42.6562C17.5 42.3662 17.6152 42.088 17.8204 41.8829C18.0255 41.6777 18.3037 41.5625 18.5938 41.5625H51.4062C51.6963 41.5625 51.9745 41.6777 52.1796 41.8829C52.3848 42.088 52.5 42.3662 52.5 42.6562C52.5 42.9463 52.3848 43.2245 52.1796 43.4296C51.9745 43.6348 51.6963 43.75 51.4062 43.75Z" fill="#D0D2D4"/>
<path d="M24.0625 26.25C23.9189 26.2502 23.7766 26.222 23.6439 26.167C23.5111 26.1121 23.3906 26.0314 23.2891 25.9297L20.0079 22.6484C19.8027 22.4433 19.6875 22.1651 19.6875 21.875C19.6875 21.5849 19.8027 21.3067 20.0079 21.1016C20.213 20.8965 20.4912 20.7812 20.7813 20.7812C21.0714 20.7812 21.3496 20.8965 21.5547 21.1016L24.0625 23.6096L29.8516 17.8204C30.0567 17.6152 30.3349 17.5 30.625 17.5C30.9151 17.5 31.1933 17.6152 31.3984 17.8204C31.6036 18.0255 31.7188 18.3037 31.7188 18.5938C31.7188 18.8839 31.6036 19.1621 31.3984 19.3672L24.8359 25.9297C24.7345 26.0314 24.6139 26.1121 24.4812 26.167C24.3485 26.222 24.2062 26.2502 24.0625 26.25Z" fill="#3DC285"/>
<path d="M43.75 50.3125C43.6064 50.3127 43.4641 50.2845 43.3313 50.2296C43.1986 50.1746 43.0781 50.0939 42.9766 49.9922L41.5625 48.578L40.1484 49.9922C39.9433 50.1973 39.6651 50.3126 39.375 50.3126C39.0849 50.3126 38.8067 50.1973 38.6016 49.9922C38.3965 49.7871 38.2813 49.5089 38.2813 49.2188C38.2812 48.9287 38.3965 48.6505 38.6016 48.4454L40.7891 46.2579C40.8907 46.1563 41.0113 46.0757 41.144 46.0208C41.2767 45.9658 41.4189 45.9375 41.5625 45.9375C41.7062 45.9375 41.8484 45.9658 41.9811 46.0208C42.1138 46.0757 42.2344 46.1563 42.3359 46.2579L43.75 47.6721L44.0704 47.3516C44.2327 47.1893 44.4419 47.0821 44.6686 47.0453C44.8952 47.0085 45.1276 47.0439 45.333 47.1465L47.2895 48.125H51.4063C51.6964 48.125 51.9746 48.2403 52.1797 48.4454C52.3848 48.6505 52.5 48.9287 52.5 49.2188C52.5 49.5089 52.3848 49.7871 52.1797 49.9922C51.9746 50.1973 51.6964 50.3125 51.4063 50.3125H47.0313C46.8615 50.3126 46.694 50.273 46.5421 50.197L45.0598 49.4559L44.5234 49.9922C44.422 50.0939 44.3014 50.1746 44.1687 50.2296C44.036 50.2845 43.8937 50.3127 43.75 50.3125Z" fill="#D0D2D4"/>
<path d="M60.498 56.911L35 66.7179L16.4062 62.3429L8.75 63.4367L6.5625 55.7804L8.75 48.1201L14.2188 48.1242L32.9682 47.132C33.5408 47.1033 34.1056 47.2743 34.5661 47.6157C35.0266 47.9571 35.3544 48.4478 35.4934 49.004C35.5723 49.3193 35.5882 49.6471 35.5404 49.9687C35.4925 50.2902 35.3818 50.5992 35.2146 50.8779C35.0473 51.1566 34.8268 51.3997 34.5656 51.5932C34.3044 51.7867 34.0077 51.9269 33.6923 52.0058L27.6804 53.5088L36.0938 56.8742L58.5977 51.0035C59.3301 50.8124 60.107 50.8952 60.7827 51.2364C61.4584 51.5775 61.9863 52.1535 62.2675 52.8563C62.4203 53.2384 62.4958 53.6471 62.4894 54.0586C62.4831 54.4701 62.395 54.8763 62.2304 55.2535C62.0658 55.6307 61.8279 55.9715 61.5305 56.256C61.2331 56.5405 60.8822 56.7632 60.498 56.911Z" fill="#F0C6A4"/>
<path d="M22.9689 55.7815C22.7019 55.7815 22.444 55.6839 22.244 55.5069C22.044 55.33 21.9157 55.086 21.8831 54.8209C21.8506 54.5559 21.9162 54.2881 22.0675 54.068C22.2188 53.848 22.4454 53.6909 22.7045 53.6264L27.0795 52.5326C27.2192 52.4966 27.3647 52.4886 27.5075 52.5091C27.6504 52.5296 27.7877 52.5781 27.9117 52.6519C28.0357 52.7257 28.1439 52.8233 28.23 52.9391C28.3161 53.0549 28.3784 53.1866 28.4134 53.3266C28.4484 53.4665 28.4554 53.6121 28.4339 53.7547C28.4124 53.8974 28.3629 54.0344 28.2882 54.1579C28.2135 54.2814 28.1151 54.3888 27.9987 54.4741C27.8823 54.5594 27.7502 54.6208 27.61 54.6548L23.235 55.7485C23.148 55.7704 23.0586 55.7814 22.9689 55.7815Z" fill="#E0B999"/>
<path d="M9.50347 11.9945L35.0015 2.1875L53.5953 6.5625L61.2515 5.46875L63.439 13.125L61.2515 20.7854L55.7828 20.7812L37.0333 21.7734C36.4607 21.8021 35.896 21.6311 35.4354 21.2897C34.9749 20.9483 34.6471 20.4576 34.5081 19.9015C34.4292 19.5861 34.4133 19.2583 34.4611 18.9368C34.509 18.6152 34.6197 18.3063 34.7869 18.0275C34.9542 17.7488 35.1747 17.5057 35.4359 17.3122C35.6971 17.1187 35.9939 16.9785 36.3092 16.8997L42.3212 15.3966L33.9078 12.0312L11.4039 17.902C10.6715 18.093 9.8945 18.0102 9.21882 17.669C8.54315 17.3279 8.01519 16.7519 7.73405 16.0491C7.58118 15.667 7.50573 15.2583 7.51209 14.8468C7.51845 14.4353 7.6065 14.0291 7.77111 13.6519C7.93572 13.2747 8.17363 12.9339 8.47101 12.6494C8.7684 12.3649 9.11934 12.1423 9.50347 11.9945Z" fill="#F0C6A4"/>
<path d="M42.6564 16.4066C42.3894 16.4066 42.1315 16.309 41.9315 16.132C41.7315 15.9551 41.6032 15.7111 41.5706 15.446C41.5381 15.181 41.6037 14.9132 41.755 14.6931C41.9063 14.4731 42.1329 14.316 42.392 14.2515L46.767 13.1577C47.0476 13.0897 47.3437 13.1354 47.5907 13.2849C47.8378 13.4343 48.0157 13.6754 48.0857 13.9555C48.1558 14.2356 48.1122 14.532 47.9645 14.7801C47.8168 15.0282 47.5771 15.2079 47.2975 15.2799L42.9225 16.3736C42.8355 16.3955 42.7461 16.4065 42.6564 16.4066Z" fill="#E0B999"/>
<path d="M8.75 65.625H2.1875V45.9375H8.75V65.625Z" fill="#EC407A"/>
<path d="M61.25 3.28125H67.8125V22.9688H61.25V3.28125Z" fill="#D81B60"/>
</svg>
