<svg width="70" height="70" viewBox="0 0 70 70" fill="none" xmlns="http://www.w3.org/2000/svg">
<path d="M26.8298 5.63377H13.872C13.798 5.63379 13.7247 5.61923 13.6564 5.59092C13.588 5.56261 13.5259 5.52111 13.4736 5.46879C13.4213 5.41647 13.3798 5.35435 13.3514 5.28598C13.3231 5.21762 13.3086 5.14435 13.3086 5.07035V0.563281C13.3086 0.41389 13.3679 0.270617 13.4736 0.164981C13.5792 0.0593455 13.7225 0 13.8719 0L26.8298 0C26.9792 3.62442e-05 27.1225 0.0594078 27.2282 0.165061C27.3338 0.270715 27.3932 0.414001 27.3932 0.563418V5.07035C27.3932 5.21977 27.3338 5.36305 27.2282 5.46871C27.1225 5.57436 26.9792 5.63373 26.8298 5.63377Z" fill="#EC407A"/>
<path d="M14.3672 5.63477H26.3387V29.5783H14.3672V5.63477Z" fill="#EDE7E5"/>
<path d="M56.745 30.2515V68.3244H12.8438V30.2515L34.7946 15.5938L56.745 30.2515Z" fill="#EDE7E5"/>
<path d="M52.5195 27.4297V68.324H56.7445V30.2512L52.5195 27.4297Z" fill="#DBD3D0"/>
<path d="M65.2708 33.2848V36.2243C65.2708 37.4083 63.9443 38.1075 62.9681 37.4388L35.4904 18.6192C35.2863 18.4795 35.0448 18.4048 34.7976 18.4048C34.5504 18.4048 34.3089 18.4795 34.1048 18.6192L6.62766 37.4388C5.6508 38.1073 4.32422 37.4083 4.32422 36.2243V33.2848C4.3243 32.7866 4.44578 32.2959 4.67813 31.8552C4.91049 31.4145 5.24674 31.0371 5.65777 30.7556L34.1048 11.2709C34.3089 11.1313 34.5503 11.0566 34.7975 11.0566C35.0447 11.0566 35.2862 11.1313 35.4902 11.2709L63.9373 30.7556C64.3483 31.0371 64.6846 31.4145 64.9169 31.8552C65.1493 32.2959 65.2708 32.7866 65.2708 33.2848Z" fill="#EC407A"/>
<path d="M63.9374 30.756L61.0454 28.7752V29.7312C61.0454 30.9152 59.7188 31.6142 58.7425 30.9456L35.6874 14.7797C35.4266 14.5968 35.1159 14.4984 34.7974 14.498C34.4789 14.4977 34.1679 14.5952 33.9067 14.7776L4.32422 35.4232V36.2248C4.32422 37.4088 5.6508 38.1079 6.62766 37.4392L34.1047 18.6196C34.3087 18.48 34.5502 18.4053 34.7974 18.4053C35.0446 18.4053 35.2861 18.48 35.4901 18.6196L62.9674 37.4392C63.9441 38.1078 65.2707 37.4088 65.2707 36.2248V33.2859C65.2707 32.7876 65.1493 32.2968 64.9169 31.856C64.6846 31.4152 64.3485 31.0376 63.9374 30.756Z" fill="#D81B60"/>
<path d="M34.8564 38.4494C34.8734 38.4711 34.8951 38.4887 34.9199 38.5008C34.9447 38.5128 34.9719 38.5191 34.9995 38.5191C35.0271 38.5191 35.0543 38.5128 35.0791 38.5008C35.1039 38.4887 35.1257 38.4711 35.1427 38.4494C35.7349 37.7007 38.1643 35 42.3941 35C46.7713 35 49.7887 38.7368 49.7887 43.0888C49.7887 48.1009 45.7176 54.0263 35.1618 59.188C35.1113 59.2125 35.0559 59.2252 34.9998 59.2252C34.9437 59.2252 34.8883 59.2125 34.8378 59.188C24.2815 54.0263 20.2109 48.1009 20.2109 43.0888C20.2109 38.7368 23.2278 35 27.6055 35C31.8348 35 34.2641 37.7007 34.8564 38.4494Z" fill="#EC407A"/>
<path d="M42.3935 35C41.5753 35 40.8249 35.102 40.1418 35.2703C43.4264 36.2022 45.5626 39.4274 45.5626 43.0888C45.5626 47.7795 41.9967 53.2701 32.8867 58.1861C33.53 58.5331 34.1803 58.8672 34.837 59.188C34.8875 59.2125 34.9429 59.2253 34.9991 59.2253C35.0552 59.2253 35.1107 59.2125 35.1612 59.188C45.717 54.0263 49.788 48.1009 49.788 43.0888C49.7875 38.7368 46.7706 35 42.3935 35Z" fill="#D81B60"/>
<path d="M63.1164 57.0739C62.5701 56.2076 61.6724 55.6004 60.6198 55.4861C60.3414 55.4556 60.1049 55.2597 60.0114 54.9852C59.4298 53.2714 57.8602 52.043 56.0145 52.043C53.5429 52.043 51.6577 54.2102 51.7794 56.675C51.7987 57.061 51.5327 57.4064 51.1647 57.4615C49.0579 57.7756 47.4648 59.6983 47.5376 61.9775C47.6138 64.3745 49.576 66.2409 51.8793 66.2409H63.1944C65.4913 66.2409 67.4487 64.3824 67.5325 61.9931C67.6159 59.6181 65.8946 57.6427 63.6836 57.4338C63.4502 57.4119 63.2452 57.2774 63.1164 57.0738V57.0739Z" fill="#9CCC65"/>
<path d="M63.6839 57.4338C63.4511 57.4119 63.246 57.2773 63.1172 57.0738C62.5709 56.2076 61.6732 55.6004 60.6206 55.4861C60.3423 55.4556 60.1057 55.2597 60.0122 54.9852C59.4306 53.2714 57.8611 52.043 56.0154 52.043C55.2693 52.0415 54.5371 52.2447 53.8984 52.6305C54.77 53.1523 55.4477 53.9848 55.7868 54.9852C55.8803 55.2597 56.1168 55.4556 56.3952 55.4861C57.4478 55.6004 58.346 56.2076 58.8918 57.0738C59.0205 57.2773 59.2255 57.4119 59.4591 57.4338C61.6699 57.642 63.3907 59.6181 63.308 61.9931C63.2242 64.3824 61.2673 66.2409 58.9699 66.2409H63.1953C65.4922 66.2409 67.4496 64.3824 67.5329 61.9931C67.6163 59.6181 65.8955 57.642 63.6839 57.4338Z" fill="#7CB342"/>
<path d="M6.8839 57.0739C7.43023 56.2076 8.32793 55.6004 9.38052 55.4861C9.65888 55.4556 9.89541 55.2597 9.98892 54.9852C10.5705 53.2714 12.1401 52.043 13.9858 52.043C16.4574 52.043 18.3426 54.2102 18.2209 56.675C18.2016 57.061 18.4675 57.4064 18.8356 57.4615C20.9424 57.7756 22.5355 59.6983 22.4627 61.9775C22.3864 64.3745 20.4243 66.2409 18.121 66.2409H6.80584C4.50896 66.2409 2.55156 64.3824 2.46775 61.9931C2.38435 59.6181 4.10564 57.6427 6.31666 57.4338C6.55004 57.4119 6.75511 57.2774 6.8839 57.0738V57.0739Z" fill="#9CCC65"/>
<path d="M18.8333 57.4615C18.4653 57.4066 18.1993 57.061 18.2186 56.6749C18.3403 54.2102 16.4551 52.043 13.9835 52.043C13.2155 52.043 12.4961 52.2583 11.875 52.6299C13.2181 53.4385 14.0764 54.9868 13.993 56.6749C13.9739 57.0604 14.2398 57.4066 14.6077 57.4615C16.7146 57.7756 18.3078 59.6983 18.2352 61.9775C18.1587 64.3739 16.1967 66.2409 13.8932 66.2409H18.1181C20.4221 66.2409 22.3837 64.3739 22.4606 61.9775C22.5332 59.6983 20.9401 57.7756 18.8333 57.4617V57.4615Z" fill="#7CB342"/>
<path d="M22.5762 15.7249C22.5762 16.2904 22.1168 16.7503 21.5508 16.7503H14.3672V14.6995H21.5508C22.1168 14.6995 22.5762 15.1589 22.5762 15.7249ZM26.3386 9.25781V11.3086H23.1694C22.6034 11.3086 22.144 10.8495 22.144 10.2832C22.144 9.71568 22.6034 9.25781 23.1694 9.25781H26.3386Z" fill="#D1C6C2"/>
<path d="M67.8872 70.0008H2.11271C0.945818 70.0008 0 69.055 0 67.8881C0 66.7212 0.945818 65.7754 2.11271 65.7754H67.8872C69.054 65.7754 69.9999 66.7212 69.9999 67.8881C69.9999 69.055 69.054 70.0008 67.8872 70.0008Z" fill="#FFC477"/>
<path d="M67.8857 65.7754H63.6602C64.8271 65.7754 65.7729 66.7212 65.7729 67.8881C65.7729 69.055 64.8272 70.0008 63.6602 70.0008H67.8856C69.0525 70.0008 69.9983 69.055 69.9983 67.8881C69.9983 66.7212 69.0525 65.7754 67.8856 65.7754H67.8857Z" fill="#C27455"/>
</svg>
