<svg width="70" height="70" viewBox="0 0 70 70" fill="none" xmlns="http://www.w3.org/2000/svg">
<g clip-path="url(#clip0_1017_2732)">
<path d="M18.8671 70H0V62.207C0 61.9532 0.10083 61.7098 0.280308 61.5303C0.459786 61.3508 0.703211 61.25 0.957031 61.25H18.8671V70Z" fill="#FFF292"/>
<path d="M2.81695 61.25V70.0007H0V62.207C0 61.9532 0.10083 61.7098 0.280308 61.5303C0.459786 61.3508 0.703211 61.25 0.957031 61.25H2.81695Z" fill="#F9E77D"/>
<path d="M36.3671 69.9999H17.5V53.457C17.5 53.2032 17.6008 52.9598 17.7803 52.7803C17.9598 52.6008 18.2032 52.5 18.457 52.5H36.3671V69.9999Z" fill="#AEE69C"/>
<path d="M20.317 52.5V70H17.5V53.457C17.5 53.2032 17.6008 52.9598 17.7803 52.7803C17.9598 52.6008 18.2032 52.5 18.457 52.5H20.317Z" fill="#89DAA4"/>
<path d="M53.8671 69.9999H35V44.707C35 44.4532 35.1008 44.2098 35.2803 44.0303C35.4598 43.8508 35.7032 43.75 35.957 43.75H53.8671V69.9999Z" fill="#9BD8F9"/>
<path d="M37.817 43.75V70.0007H35V44.707C35 44.4532 35.1008 44.2098 35.2803 44.0303C35.4598 43.8508 35.7032 43.75 35.957 43.75H37.817Z" fill="#73C3F9"/>
<path d="M32.4118 21.8749H47.1179C47.3717 21.8749 47.6152 21.774 47.7946 21.5946C47.9741 21.4151 48.075 21.1717 48.075 20.9178V8.75H32.4118C31.6474 8.75 31.1914 9.60189 31.6155 10.2379L34.9985 15.3125L31.6155 20.3871C31.1914 21.023 31.6474 21.8749 32.4118 21.8749Z" fill="#F25A74"/>
<path d="M37.815 15.312L33.4404 21.8739H32.4118C31.6474 21.8739 31.1914 21.022 31.6155 20.386L34.9982 15.312L31.6155 10.2379C31.1916 9.60189 31.6474 8.75 32.4118 8.75H33.4404L37.815 15.312Z" fill="#E83D5A"/>
<path d="M44.707 17.4999H60.4296V4.375H44.707C44.4532 4.375 44.2098 4.47583 44.0303 4.65531C43.8508 4.83479 43.75 5.07821 43.75 5.33203V16.5428C43.75 16.7967 43.8508 17.0401 44.0303 17.2196C44.2098 17.399 44.4532 17.4999 44.707 17.4999Z" fill="#F25A74"/>
<path d="M46.567 4.375V17.5004H44.707C44.4532 17.5004 44.2098 17.3996 44.0303 17.2201C43.8508 17.0406 43.75 16.7972 43.75 16.5434V5.33203C43.75 5.07821 43.8508 4.83479 44.0303 4.65531C44.2098 4.47583 44.4532 4.375 44.707 4.375H46.567Z" fill="#E83D5A"/>
<path d="M63.4375 36.3781H59.0625V0.957031C59.0625 0.703211 59.1633 0.459786 59.3428 0.280308C59.5223 0.10083 59.7657 0 60.0195 0H62.4805C62.7343 0 62.9777 0.10083 63.1572 0.280308C63.3367 0.459786 63.4375 0.703211 63.4375 0.957031V36.3781Z" fill="#46778C"/>
<path d="M61.1752 0V36.3784H59.0625V0.957031C59.0625 0.703211 59.1633 0.459786 59.3428 0.280308C59.5223 0.10083 59.7657 0 60.0195 0L61.1752 0Z" fill="#3A6684"/>
<path d="M69.9999 69.9997H52.5V35.957C52.5 35.7032 52.6008 35.4598 52.7803 35.2803C52.9598 35.1008 53.2032 35 53.457 35H69.0428C69.2967 35 69.5401 35.1008 69.7196 35.2803C69.899 35.4598 69.9999 35.7032 69.9999 35.957V69.9997Z" fill="#FFF0A6"/>
<path d="M55.317 35V70H52.5V35.957C52.5 35.7032 52.6008 35.4598 52.7803 35.2803C52.9598 35.1008 53.2032 35 53.457 35H55.317Z" fill="#EFC356"/>
</g>
<defs>
<clipPath id="clip0_1017_2732">
<rect width="70" height="70" fill="white"/>
</clipPath>
</defs>
</svg>
