<svg width="70" height="56" viewBox="0 0 70 56" fill="none" xmlns="http://www.w3.org/2000/svg">
<path d="M45.1442 10.8983C45.1442 5.33443 40.6338 0.824219 35.0701 0.824219C29.5063 0.824219 24.9961 5.33458 24.9961 10.8983V28.5818H30.0601V10.8983C30.0601 8.13568 32.3077 5.88824 35.0701 5.88824C37.8325 5.88824 40.0801 8.13583 40.0801 10.8983V28.1889H45.1442V10.8983Z" fill="#E5E1E5"/>
<path d="M52.6139 32.9952C52.6139 33.5607 52.5858 34.1206 52.5324 34.6734L51.1426 48.1015H18.1476L17.6047 34.6734C17.5611 34.2176 17.5343 33.7562 17.5259 33.2906C17.4387 28.01 19.6865 23.2512 23.3045 19.9793C23.6126 19.7008 24.0135 19.5488 24.4284 19.5488H45.7086C46.1236 19.5488 46.5259 19.7022 46.8339 19.9807C50.383 23.1907 52.6139 27.8313 52.6139 32.9952Z" fill="#F79595"/>
<path d="M52.5762 31.86H27.0817C25.3637 31.86 24.1015 30.2384 24.5331 28.5754C25.4059 25.2122 27.2518 22.2405 29.7523 19.9793C30.0603 19.7007 30.4612 19.5488 30.8762 19.5488H24.4284C24.0135 19.5488 23.6126 19.7007 23.3045 19.9793C19.6865 23.2512 17.4387 28.01 17.5259 33.2906C17.5343 33.7562 17.5611 34.2176 17.6047 34.6734L18.1476 48.1015H51.1426L52.5324 34.6734C52.5858 34.1206 52.6139 33.5607 52.6139 32.9952C52.6139 32.6136 52.6003 32.2353 52.5762 31.86Z" fill="#FE646F"/>
<path d="M38.726 34.6723L37.8755 31.9865C37.767 31.6439 37.8462 31.2731 38.0749 30.9958C38.6764 30.2669 39.0178 29.3153 38.9572 28.2832C38.8428 26.3379 37.262 24.7515 35.3172 24.6308C33.0533 24.4902 31.1734 26.2849 31.1734 28.5184C31.172 29.4213 31.4857 30.2965 32.0603 30.993C32.2896 31.2715 32.3709 31.6429 32.2619 31.9868L31.4115 34.6723L30.0586 38.5236H40.2919L38.726 34.6723Z" fill="#F37C7C"/>
<path d="M32.2619 31.9872L31.4115 34.6727L30.0586 38.5241H40.2919L38.7258 34.6727L37.8753 31.987C37.8621 31.9451 37.8516 31.9025 37.8438 31.8594H32.2932C32.2856 31.9026 32.2751 31.9454 32.2619 31.9872Z" fill="#EE6161"/>
<path d="M66.3463 55.1755H3.65369C1.63582 55.1755 0 53.5398 0 51.522V38.3275C0 36.3096 1.63582 34.6738 3.65369 34.6738H66.3463C68.3642 34.6738 70 36.3096 70 38.3275V51.522C70 53.5398 68.3642 55.1755 66.3463 55.1755Z" fill="#EFEDEF"/>
<path d="M35.0009 47.496C36.421 47.496 37.5722 46.3448 37.5722 44.9248C37.5722 43.5047 36.421 42.3535 35.0009 42.3535C33.5809 42.3535 32.4297 43.5047 32.4297 44.9248C32.4297 46.3448 33.5809 47.496 35.0009 47.496Z" fill="#8AC9FE"/>
<path d="M23.5595 47.496C24.9796 47.496 26.1308 46.3448 26.1308 44.9248C26.1308 43.5047 24.9796 42.3535 23.5595 42.3535C22.1395 42.3535 20.9883 43.5047 20.9883 44.9248C20.9883 46.3448 22.1395 47.496 23.5595 47.496Z" fill="#8AC9FE"/>
<path d="M12.1181 47.496C13.5382 47.496 14.6894 46.3448 14.6894 44.9248C14.6894 43.5047 13.5382 42.3535 12.1181 42.3535C10.6981 42.3535 9.54688 43.5047 9.54688 44.9248C9.54688 46.3448 10.6981 47.496 12.1181 47.496Z" fill="#8AC9FE"/>
<path d="M46.4384 47.496C47.8585 47.496 49.0097 46.3448 49.0097 44.9248C49.0097 43.5047 47.8585 42.3535 46.4384 42.3535C45.0184 42.3535 43.8672 43.5047 43.8672 44.9248C43.8672 46.3448 45.0184 47.496 46.4384 47.496Z" fill="#8AC9FE"/>
<path d="M57.8799 47.496C59.2999 47.496 60.4511 46.3448 60.4511 44.9248C60.4511 43.5047 59.2999 42.3535 57.8799 42.3535C56.4598 42.3535 55.3086 43.5047 55.3086 44.9248C55.3086 46.3448 56.4598 47.496 57.8799 47.496Z" fill="#8AC9FE"/>
</svg>
