<svg width="70" height="70" viewBox="0 0 70 70" fill="none" xmlns="http://www.w3.org/2000/svg">
<path d="M3.5 18.6653V52.4986C3.5 53.1175 3.74583 53.711 4.18342 54.1486C4.621 54.5861 5.21449 54.832 5.83333 54.832H34.1833L57.1667 34.8353V18.6653H39.6667L32.165 13.9765C31.6101 13.6297 30.9725 13.438 30.3184 13.4211C29.6643 13.4043 29.0176 13.563 28.4457 13.8808L19.8333 18.6653H3.5Z" fill="#D4E6E7"/>
<path d="M57.1667 15.166V16.3327H37.3333L34.1262 14.1954C33.0033 13.4468 31.684 13.0473 30.3345 13.0473C28.985 13.0473 27.6657 13.4468 26.5428 14.1954L23.3333 16.3327H3.5V15.166L6.55667 2.9277C6.68248 2.42319 6.97384 1.97544 7.38416 1.65607C7.79448 1.3367 8.30004 1.16415 8.82 1.16603H51.8467C52.3666 1.16415 52.8722 1.3367 53.2825 1.65607C53.6928 1.97544 53.9842 2.42319 54.11 2.9277L57.1667 15.166Z" fill="#3B7AC8"/>
<path d="M59.5013 17.4994C59.5013 18.1183 59.2555 18.7118 58.8179 19.1494C58.3803 19.5869 57.7868 19.8328 57.168 19.8328H41.0038C39.3641 19.8328 37.7527 19.4049 36.329 18.5914L32.0776 16.1624C31.5468 15.8591 30.946 15.6995 30.3346 15.6995C29.7233 15.6995 29.1225 15.8591 28.5916 16.1624L24.3403 18.5914C22.9166 19.4049 21.3052 19.8328 19.6655 19.8328H3.5013C2.88246 19.8328 2.28897 19.5869 1.85139 19.1494C1.4138 18.7118 1.16797 18.1183 1.16797 17.4994C1.16797 16.8806 1.4138 16.2871 1.85139 15.8495C2.28897 15.4119 2.88246 15.1661 3.5013 15.1661H19.3096C20.4184 15.1671 21.5067 14.8684 22.4596 14.3016L28.5438 10.6849C29.087 10.3619 29.7073 10.1914 30.3393 10.1914C30.9713 10.1914 31.5916 10.3619 32.1348 10.6849L38.219 14.3016C39.1719 14.8684 40.2603 15.1671 41.369 15.1661H57.168C57.7868 15.1661 58.3803 15.4119 58.8179 15.8495C59.2555 16.2871 59.5013 16.8806 59.5013 17.4994Z" fill="#30649D"/>
<path d="M17.5026 39.666H10.5026C9.85827 39.666 9.33594 40.1884 9.33594 40.8327V47.8327C9.33594 48.477 9.85827 48.9993 10.5026 48.9993H17.5026C18.1469 48.9993 18.6693 48.477 18.6693 47.8327V40.8327C18.6693 40.1884 18.1469 39.666 17.5026 39.666Z" fill="#3B7AC8"/>
<path d="M17.5026 25.666H10.5026C9.85827 25.666 9.33594 26.1884 9.33594 26.8327V33.8327C9.33594 34.477 9.85827 34.9993 10.5026 34.9993H17.5026C18.1469 34.9993 18.6693 34.477 18.6693 33.8327V26.8327C18.6693 26.1884 18.1469 25.666 17.5026 25.666Z" fill="#3B7AC8"/>
<path d="M33.8346 25.666H26.8346C26.1903 25.666 25.668 26.1884 25.668 26.8327V33.8327C25.668 34.477 26.1903 34.9993 26.8346 34.9993H33.8346C34.479 34.9993 35.0013 34.477 35.0013 33.8327V26.8327C35.0013 26.1884 34.479 25.666 33.8346 25.666Z" fill="#3B7AC8"/>
<path d="M45.0489 34.9993H43.1706C42.8612 34.9993 42.5644 34.8764 42.3456 34.6576C42.1268 34.4388 42.0039 34.1421 42.0039 33.8327V26.8327C42.0039 26.5233 42.1268 26.2265 42.3456 26.0077C42.5644 25.7889 42.8612 25.666 43.1706 25.666H50.1706C50.48 25.666 50.7767 25.7889 50.9955 26.0077C51.2143 26.2265 51.3372 26.5233 51.3372 26.8327V33.8327" fill="#3B7AC8"/>
<path d="M37.3346 40.8327V52.091L34.1846 54.8327H25.668V40.8327C25.668 40.5233 25.7909 40.2265 26.0097 40.0077C26.2285 39.7889 26.5252 39.666 26.8346 39.666H36.168C36.4774 39.666 36.7741 39.7889 36.9929 40.0077C37.2117 40.2265 37.3346 40.5233 37.3346 40.8327Z" fill="#8F5C4A"/>
<path d="M51.3359 68.832C61.0009 68.832 68.8359 60.997 68.8359 51.332C68.8359 41.667 61.0009 33.832 51.3359 33.832C41.671 33.832 33.8359 41.667 33.8359 51.332C33.8359 60.997 41.671 68.832 51.3359 68.832Z" fill="#E8C042"/>
<path d="M47.2617 55.7189L57.4817 54.7949L57.6917 57.1189L47.4717 58.0418L47.2617 55.7189Z" fill="#8F5C4A"/>
<path d="M58.4699 61.8757C56.7663 58.0093 55.6431 53.9124 55.1367 49.7178L57.4514 49.4238C57.925 53.3759 58.9793 57.2364 60.5804 60.8805L58.4699 61.8757Z" fill="#A6725C"/>
<path d="M46.4923 52.9186C46.1951 52.918 45.9093 52.8039 45.6933 52.5997C45.4773 52.3955 45.3474 52.1165 45.3301 51.8197C45.3128 51.523 45.4095 51.2308 45.6003 51.0029C45.7912 50.775 46.0618 50.6285 46.357 50.5934C54.0138 49.6963 57.3622 47.8413 57.3948 47.8226C57.6633 47.6687 57.9818 47.6277 58.2805 47.7086C58.5791 47.7896 58.8334 47.9858 58.9873 48.2543C59.1413 48.5227 59.1823 48.8413 59.1013 49.1399C59.0204 49.4386 58.8241 49.6928 58.5557 49.8468C58.4075 49.9319 54.8352 51.9468 46.6288 52.9116C46.5835 52.9163 46.5379 52.9186 46.4923 52.9186Z" fill="#8F5C4A"/>
<path d="M47.8247 63.9905C47.5201 63.9906 47.2275 63.8715 47.0095 63.6588C46.7915 63.446 46.6654 63.1564 46.6581 62.8519C46.4125 55.4591 44.8725 48.1667 42.1081 41.3059C41.9919 41.0248 41.99 40.7095 42.1029 40.427C42.2157 40.1446 42.4344 39.9174 42.7124 39.7939C42.9903 39.6704 43.3055 39.6603 43.5908 39.7657C43.876 39.8712 44.1088 40.0839 44.2396 40.3585C47.1533 47.4926 48.7628 55.0919 48.9914 62.7947C48.9953 62.9479 48.9689 63.1004 48.9139 63.2434C48.8588 63.3865 48.7761 63.5172 48.6704 63.6283C48.5648 63.7393 48.4383 63.8285 48.2982 63.8907C48.1581 63.9528 48.0071 63.9867 47.8539 63.9905H47.8247Z" fill="#A6725C"/>
<path d="M51.0495 64.166C45.46 64.166 42.7848 62.941 42.674 62.8885C42.4016 62.7529 42.193 62.5163 42.0927 62.2291C41.9923 61.9419 42.0081 61.6268 42.1367 61.3511C42.2652 61.0753 42.4965 60.8607 42.781 60.753C43.0655 60.6453 43.3809 60.653 43.6598 60.7745C46.0341 61.5909 48.5415 61.95 51.0495 61.8327C57.6796 61.8327 61.0723 59.1983 61.1061 59.1727C61.3478 58.9904 61.6509 58.9092 61.9513 58.9463C62.2517 58.9833 62.526 59.1356 62.7162 59.3711C62.9064 59.6066 62.9976 59.9067 62.9706 60.2082C62.9436 60.5097 62.8005 60.7889 62.5715 60.9868C62.4116 61.1175 58.5698 64.166 51.0495 64.166Z" fill="#8F5C4A"/>
</svg>
