<svg width="70" height="70" viewBox="0 0 70 70" fill="none" xmlns="http://www.w3.org/2000/svg">
<g clip-path="url(#clip0_1017_2795)">
<path d="M10.2305 20.0137L16.4732 26.2564C21.2146 21.515 27.7646 18.5824 34.9998 18.5824V9.75391C25.3268 9.75391 16.5696 13.6747 10.2305 20.0137Z" fill="#F6E266"/>
<path d="M59.7693 20.0137L53.5266 26.2564C48.7852 21.515 42.2352 18.5824 35 18.5824V9.75391C44.6731 9.75391 53.4304 13.6747 59.7693 20.0137Z" fill="#E49542"/>
<path d="M59.7677 20.0156L53.5273 26.256C57.9723 30.701 60.8277 36.7358 61.1672 43.4343C61.2053 44.1876 61.8193 44.7826 62.5736 44.7826H68.5899C69.3918 44.7826 70.0326 44.1144 69.9995 43.3132C69.6242 34.2249 65.7842 26.0321 59.7677 20.0156Z" fill="#C8EA73"/>
<path d="M62.839 23.5293C62.9388 24.3822 62.9893 25.2401 62.9902 26.0988C62.9902 30.0352 61.9544 33.785 60.082 37.1949C60.695 39.2245 61.0588 41.3211 61.1655 43.4386C61.2037 44.1906 61.8196 44.783 62.5728 44.783H68.5881C69.3898 44.783 70.0308 44.115 69.9977 43.314C69.691 35.8879 67.0695 29.0609 62.839 23.5293Z" fill="#B7E445"/>
<path d="M10.233 20.0165L16.4734 26.2569C12.0284 30.7019 9.17301 36.7367 8.83353 43.4352C8.79539 44.1886 8.18138 44.7836 7.42711 44.7836H1.4108C0.608941 44.7836 -0.0318599 44.1153 0.00122601 43.3141C0.376519 34.2259 4.21654 26.033 10.233 20.0165ZM62.9913 17.8497C62.8524 17.8499 62.7149 17.8226 62.5866 17.7695C62.4583 17.7164 62.3418 17.6384 62.2437 17.5402C54.9667 10.2629 45.2914 6.25512 35 6.25512C34.7196 6.25512 34.4507 6.14373 34.2524 5.94546C34.0541 5.74718 33.9428 5.47827 33.9428 5.19787C33.9428 4.91747 34.0541 4.64856 34.2524 4.45029C34.4507 4.25201 34.7196 4.14063 35 4.14062C45.8562 4.14062 56.0625 8.36824 63.7388 16.0447C63.8867 16.1926 63.9873 16.381 64.0281 16.5861C64.0689 16.7912 64.048 17.0037 63.968 17.1969C63.8879 17.3901 63.7524 17.5552 63.5786 17.6714C63.4047 17.7876 63.2004 17.8496 62.9913 17.8497Z" fill="#DD5790"/>
<path d="M63.7378 16.0459C63.5598 15.8679 63.3241 15.7593 63.0731 15.7396C62.8222 15.7199 62.5724 15.7903 62.3687 15.9383L29.9472 39.4991C29.8237 39.589 29.721 39.7046 29.6464 39.8379C29.5718 39.9713 29.527 40.1192 29.515 40.2715C29.503 40.4239 29.5242 40.577 29.577 40.7204C29.6299 40.8637 29.7132 40.9939 29.8212 41.102L38.6817 49.9626C38.7897 50.0707 38.9199 50.154 39.0633 50.2069C39.2067 50.2598 39.3598 50.281 39.5122 50.269C39.6645 50.257 39.8125 50.2121 39.9458 50.1375C40.0792 50.0628 40.1947 49.9601 40.2845 49.8364L63.8454 17.415C63.9934 17.2113 64.0639 16.9615 64.0442 16.7106C64.0245 16.4596 63.9158 16.2239 63.7378 16.0459Z" fill="#4073C8"/>
<path d="M34.9987 44.7845C38.9308 44.7845 42.1184 41.5968 42.1184 37.6647C42.1184 33.7326 38.9308 30.5449 34.9987 30.5449C31.0665 30.5449 27.8789 33.7326 27.8789 37.6647C27.8789 41.5968 31.0665 44.7845 34.9987 44.7845Z" fill="#F1D0A5"/>
<path d="M38.5411 31.4883C39.161 32.5655 39.4866 33.7868 39.4853 35.0296C39.4853 38.9617 36.2977 42.1493 32.3655 42.1493C31.1227 42.1507 29.9014 41.825 28.8242 41.2052C30.0528 43.3429 32.3573 44.7836 34.9998 44.7836C38.932 44.7836 42.1196 41.596 42.1196 37.6639C42.1194 35.0214 40.6787 32.7168 38.5411 31.4883Z" fill="#F1B986"/>
<path d="M23.0391 50.479V55.3347C23.0391 56.1132 23.6702 56.7443 24.4486 56.7443H45.5517C46.3302 56.7443 46.9613 56.1132 46.9613 55.3347V50.479C46.9613 47.3334 44.4112 44.7832 41.2654 44.7832H28.7348C25.5891 44.7833 23.0391 47.3334 23.0391 50.479Z" fill="#9DC6FB"/>
<path d="M41.2651 44.7832H37.8477C40.9934 44.7832 43.5435 47.3333 43.5435 50.479V56.7445H45.5513C46.3298 56.7445 46.9609 56.1134 46.9609 55.3349V50.4792C46.9609 47.3333 44.4108 44.7832 41.2651 44.7832Z" fill="#80B4FB"/>
<path d="M45.5516 65.8573H24.4486C23.6702 65.8573 23.0391 65.2262 23.0391 64.4478V62.7104C23.0391 61.9319 23.6702 61.3008 24.4486 61.3008H45.5517C46.3302 61.3008 46.9613 61.9319 46.9613 62.7104V64.4478C46.9613 65.2262 46.3302 65.8573 45.5516 65.8573Z" fill="#4073C8"/>
<path d="M30.0754 56.7451V53.8971C30.0754 53.6167 29.964 53.3478 29.7658 53.1495C29.5675 52.9512 29.2986 52.8398 29.0182 52.8398C28.7378 52.8398 28.4689 52.9512 28.2706 53.1495C28.0723 53.3478 27.9609 53.6167 27.9609 53.8971V56.7451H30.0754ZM42.0365 53.8971C42.0365 53.6167 41.9252 53.3478 41.7269 53.1495C41.5286 52.9512 41.2597 52.8398 40.9793 52.8398C40.6989 52.8398 40.43 52.9512 40.2317 53.1495C40.0334 53.3478 39.9221 53.6167 39.9221 53.8971V56.7451H42.0365V53.8971Z" fill="#80B4FB"/>
<path d="M68.9428 50.2707H62.2237C61.9433 50.2707 61.6744 50.1594 61.4761 49.9611C61.2779 49.7628 61.1665 49.4939 61.1665 49.2135C61.1665 48.9331 61.2779 48.6642 61.4761 48.4659C61.6744 48.2676 61.9433 48.1563 62.2237 48.1563H68.9428C69.2232 48.1563 69.4921 48.2676 69.6903 48.4659C69.8886 48.6642 70 48.9331 70 49.2135C70 49.4939 69.8886 49.7628 69.6903 49.9611C69.4921 50.1594 69.2232 50.2707 68.9428 50.2707ZM67.1811 54.8274H64.0485C63.7681 54.8274 63.4992 54.7161 63.3009 54.5178C63.1026 54.3195 62.9912 54.0506 62.9912 53.7702C62.9912 53.4898 63.1026 53.2209 63.3009 53.0226C63.4992 52.8243 63.7681 52.713 64.0485 52.713H67.1811C67.4615 52.713 67.7304 52.8243 67.9287 53.0226C68.127 53.2209 68.2384 53.4898 68.2384 53.7702C68.2384 54.0506 68.127 54.3195 67.9287 54.5178C67.7304 54.7161 67.4615 54.8274 67.1811 54.8274ZM1.05725 50.2707H7.77629C8.05669 50.2707 8.3256 50.1594 8.52388 49.9611C8.72215 49.7628 8.83354 49.4939 8.83354 49.2135C8.83354 48.9331 8.72215 48.6642 8.52388 48.4659C8.3256 48.2676 8.05669 48.1563 7.77629 48.1563H1.05725C0.776847 48.1562 0.507932 48.2676 0.30966 48.4659C0.111388 48.6642 8.84306e-09 48.9331 8.84306e-09 49.2135C-1.79495e-05 49.3523 0.0273163 49.4898 0.0804415 49.6181C0.133567 49.7464 0.211442 49.8629 0.30962 49.9611C0.407798 50.0593 0.524355 50.1372 0.652634 50.1903C0.780913 50.2434 0.918401 50.2708 1.05725 50.2707ZM2.81887 54.8274H5.9515C6.2319 54.8274 6.50082 54.7161 6.69909 54.5178C6.89736 54.3195 7.00875 54.0506 7.00875 53.7702C7.00875 53.4898 6.89736 53.2209 6.69909 53.0226C6.50082 52.8243 6.2319 52.713 5.9515 52.713H2.81887C2.53847 52.713 2.26955 52.8243 2.07128 53.0226C1.87301 53.2209 1.76162 53.4898 1.76162 53.7702C1.76162 54.0506 1.87301 54.3195 2.07128 54.5178C2.26955 54.7161 2.53847 54.8274 2.81887 54.8274Z" fill="#4073C8"/>
</g>
<defs>
<clipPath id="clip0_1017_2795">
<rect width="70" height="70" fill="white"/>
</clipPath>
</defs>
</svg>
