<svg width="70" height="70" viewBox="0 0 70 70" fill="none" xmlns="http://www.w3.org/2000/svg">
<g clip-path="url(#clip0_1014_784)">
<path d="M56.6718 66.4286L65.8374 66.5711V49.7988H55.9219L56.6718 66.4286Z" fill="#FFB09E"/>
<path d="M46.733 46.3605C45.7522 46.3939 44.8134 45.9617 44.2218 45.1788L38.7962 37.9991C37.5223 36.3132 35.1214 35.9781 33.4377 37.2511C31.7563 38.5223 31.4274 40.9155 32.703 42.5966L38.6404 50.4213L43.7754 57.1885C48.0103 62.7652 51.7789 61.5841 56.8063 61.0682L58.8596 56.2275C58.8594 47.0582 49.5712 46.264 46.733 46.3605Z" fill="#FFCEBF"/>
<path d="M46.7345 46.3605C45.7536 46.3939 44.8148 45.9617 44.2232 45.1788L38.7977 37.9991C37.5237 36.3132 35.1228 35.9781 33.4391 37.2511C33.3029 37.3545 33.1736 37.4669 33.0523 37.5875C33.6562 37.8495 34.1819 38.2634 34.5782 38.789L40.0038 45.9687C40.5954 46.7515 41.5342 47.1837 42.515 47.1503C45.3532 47.0538 54.6414 47.848 54.6414 57.0173L52.7394 61.5017C54.0187 61.4199 55.361 61.2166 56.8076 61.0682L58.8607 56.2274C58.8609 47.0582 49.5726 46.264 46.7345 46.3605ZM21.382 52.0898L6.17329 44.1554C4.10938 43.0786 1.56094 43.8795 0.481275 45.9438C-0.598393 48.0082 0.199635 50.5548 2.2634 51.6314L17.4723 59.5659C19.0994 60.4148 21.0272 60.0969 22.2995 58.9129C22.6502 58.5863 22.9426 58.2024 23.1641 57.7775C24.244 55.713 23.4459 53.1666 21.382 52.0898Z" fill="#FFB09E"/>
<path d="M60.2313 61.6441C60.2313 54.816 54.9579 50.7329 47.7788 51.2875C40.5997 51.8422 30.1972 58.9106 30.1972 58.9106L13.623 45.9063C11.7906 44.4686 9.13823 44.7867 7.69845 46.6167C6.25894 48.4468 6.57736 51.096 8.4098 52.5337L29.5229 69.0994C29.9739 69.4532 30.4922 69.7114 31.0462 69.8585C31.6002 70.0055 32.1784 70.0382 32.7455 69.9546L48.7868 67.5906L56.6732 66.4283C58.9784 66.0884 60.2313 63.9715 60.2313 61.6441Z" fill="#FFCEBF"/>
<path d="M50.283 51.2871C53.4986 52.9674 55.5021 56.1298 55.5021 60.3367C55.5021 62.664 54.2492 64.781 51.9438 65.1207L44.0575 66.283L28.8008 68.5313L29.5247 69.0994C29.9757 69.4532 30.494 69.7114 31.048 69.8584C31.6021 70.0055 32.1802 70.0382 32.7473 69.9546L48.7887 67.5905L56.675 66.4283C58.9804 66.0886 60.2332 63.9716 60.2332 61.6442C60.2332 55.6376 56.1518 51.757 50.283 51.2871Z" fill="#FFB09E"/>
<path d="M69.4519 66.571H63.9594V49.7987H69.4519C69.597 49.7987 69.7361 49.8563 69.8386 49.9589C69.9412 50.0614 69.9988 50.2005 69.9988 50.3456V66.0242C69.9988 66.1692 69.9411 66.3083 69.8386 66.4108C69.736 66.5134 69.5969 66.571 69.4519 66.571ZM24.7102 0C28.6474 0 31.9282 1.31387 34.4343 2.98471C34.6013 3.09648 34.7978 3.15614 34.9988 3.15614C35.1998 3.15614 35.3963 3.09648 35.5633 2.98471C38.0694 1.31387 41.3502 0 45.2874 0C53.9408 0 60.7204 7.57859 60.7204 17.252C60.7204 23.4482 57.686 35.4188 37.3625 45.997C36.6215 46.3861 35.8102 46.5782 34.9988 46.5782C34.1874 46.5782 33.3761 46.3861 32.6351 45.997C12.3117 35.4188 9.27734 23.4484 9.27734 17.252C9.27734 7.57859 16.0568 0 24.7102 0Z" fill="#FE646F"/>
<path d="M45.2879 0C44.5286 0 43.7943 0.0499023 43.0846 0.14082C50.749 1.21625 56.4956 8.34613 56.4956 17.252C56.4956 23.4482 53.4612 35.4188 33.1377 45.997C33.055 46.0404 32.9711 46.0805 32.8867 46.1191C33.5499 46.4219 34.2704 46.5784 34.9994 46.5782C35.8228 46.5789 36.6339 46.3795 37.363 45.997C57.6865 35.4188 60.7209 23.4484 60.7209 17.252C60.7209 7.57859 53.9413 0 45.2879 0Z" fill="#FD4755"/>
<path d="M43.1883 29.183C43.1883 33.4057 39.5217 33.7055 34.9985 33.7055C30.4753 33.7055 26.8086 33.4057 26.8086 29.183C26.8086 24.9603 30.4753 21.5371 34.9985 21.5371C39.5217 21.5371 43.1883 24.9603 43.1883 29.183Z" fill="#FFEAD8"/>
<path d="M34.9994 21.5371C34.2687 21.5371 33.5609 21.6276 32.8867 21.7952C36.3856 22.6652 38.9639 25.6424 38.9639 29.183C38.9639 32.7236 36.3856 33.5059 32.8867 33.6664C33.5609 33.6973 34.2687 33.7055 34.9994 33.7055C39.5225 33.7055 43.1893 33.4057 43.1893 29.183C43.1893 24.9603 39.5225 21.5371 34.9994 21.5371Z" fill="#FFE3CB"/>
<path d="M35.0012 17.5453C36.5098 17.5453 37.7328 16.3223 37.7328 14.8137C37.7328 13.305 36.5098 12.082 35.0012 12.082C33.4925 12.082 32.2695 13.305 32.2695 14.8137C32.2695 16.3223 33.4925 17.5453 35.0012 17.5453Z" fill="#FFEAD8"/>
<path d="M26.6535 20.6859C28.1622 20.6859 29.3852 19.4629 29.3852 17.9543C29.3852 16.4457 28.1622 15.2227 26.6535 15.2227C25.1449 15.2227 23.9219 16.4457 23.9219 17.9543C23.9219 19.4629 25.1449 20.6859 26.6535 20.6859Z" fill="#FFEAD8"/>
<path d="M43.3488 20.6859C44.8575 20.6859 46.0805 19.4629 46.0805 17.9543C46.0805 16.4457 44.8575 15.2227 43.3488 15.2227C41.8402 15.2227 40.6172 16.4457 40.6172 17.9543C40.6172 19.4629 41.8402 20.6859 43.3488 20.6859Z" fill="#FFEAD8"/>
</g>
<defs>
<clipPath id="clip0_1014_784">
<rect width="70" height="70" fill="white"/>
</clipPath>
</defs>
</svg>
