<svg width="70" height="70" viewBox="0 0 70 70" fill="none" xmlns="http://www.w3.org/2000/svg">
<g clip-path="url(#clip0_1017_2764)">
<path d="M40.8902 40.8859C40.6512 40.8861 40.4193 40.8049 40.2326 40.6557L27.999 30.9112C27.7832 30.7355 27.6454 30.4818 27.6155 30.2051C27.5856 29.9284 27.6661 29.6511 27.8395 29.4335C28.0129 29.2158 28.2652 29.0753 28.5415 29.0425C28.8179 29.0097 29.096 29.0873 29.3155 29.2584L41.5491 39.0029C41.7205 39.1395 41.8453 39.3259 41.906 39.5365C41.9668 39.7471 41.9605 39.9714 41.8881 40.1783C41.8157 40.3852 41.6808 40.5644 41.502 40.6912C41.3232 40.818 41.1094 40.8861 40.8902 40.8859ZM40.6969 63.4257C40.4579 63.4258 40.226 63.3446 40.0393 63.1954L28.643 54.1178C28.4271 53.9422 28.2893 53.6884 28.2594 53.4118C28.2296 53.1351 28.3101 52.8578 28.4834 52.6401C28.6568 52.4224 28.9091 52.2819 29.1855 52.2492C29.4618 52.2164 29.7399 52.294 29.9594 52.465L41.3556 61.5426C41.4642 61.6291 41.5546 61.736 41.6218 61.8574C41.689 61.9788 41.7316 62.1122 41.7472 62.2501C41.7628 62.388 41.7511 62.5276 41.7128 62.6609C41.6745 62.7943 41.6102 62.9187 41.5238 63.0273C41.4249 63.1517 41.2992 63.2522 41.156 63.3212C41.0128 63.3902 40.8559 63.4259 40.6969 63.4257Z" fill="#FFD15B"/>
<path d="M52.0205 63.2424V63.9109C52.0205 64.9346 51.1907 65.2011 50.1668 65.2011L46.2283 65.7645H23.7647L19.8264 65.3419C18.8027 65.3419 17.9727 64.9346 17.9727 63.9107V63.2423C17.9727 62.2186 18.8025 61.9521 19.8264 61.9521L24.1934 61.3887H45.7997L50.1668 61.9521C51.1905 61.9522 52.0205 62.2187 52.0205 63.2424Z" fill="#C59191"/>
<path d="M12.963 53.1664L14.3079 40.0018C14.3433 39.6548 14.5063 39.3333 14.7652 39.0995C15.024 38.8657 15.3605 38.7363 15.7093 38.7363H19.4641L17.8631 54.4079H14.0842C13.4164 54.408 12.895 53.8308 12.963 53.1664ZM57.0316 53.1664L55.6866 40.0018C55.6512 39.6548 55.4883 39.3333 55.2294 39.0995C54.9705 38.8657 54.6341 38.7363 54.2853 38.7363H50.5304L52.1314 54.4079H55.9103C56.5782 54.408 57.0995 53.8308 57.0316 53.1664Z" fill="#B98080"/>
<path d="M51.2555 51.9074V52.5323C51.2555 53.5681 50.416 53.8443 49.3802 53.8443L45.1181 54.4077H24.8796L20.6176 53.8443C19.5818 53.8443 18.7422 53.5681 18.7422 52.5323V51.9074C18.7422 50.8716 19.5818 50.5954 20.6176 50.5954L25.3082 50.032H44.6895L49.3802 50.5954C50.416 50.5954 51.2555 50.8716 51.2555 51.9074ZM50.4004 40.5492V41.1741C50.4004 42.2099 49.5608 42.6269 48.525 42.6269L44.0056 43.0495H25.9921L21.4727 42.4861C20.437 42.4861 19.5974 42.2099 19.5974 41.1741V40.5492C19.5974 39.5134 20.437 39.2372 21.4727 39.2372L26.4207 38.6738H43.577L48.525 39.2372C49.5608 39.2372 50.4004 39.5134 50.4004 40.5492Z" fill="#C59191"/>
<path d="M23.7647 65.766L24.1934 61.3902H19.8264C18.8027 61.3902 17.9727 62.2201 17.9727 63.244V63.9124C17.9727 64.9361 18.8025 65.7661 19.8264 65.7661H23.7647V65.766ZM24.8774 54.4078L25.306 50.032H20.6153C19.5795 50.032 18.7399 50.8716 18.7399 51.9074V52.5323C18.7399 53.5681 19.5795 54.4077 20.6153 54.4077L24.8774 54.4078ZM26.4185 38.6738H21.4705C20.4347 38.6738 19.5951 39.5134 19.5951 40.5492V41.1741C19.5951 42.2099 20.4347 43.0495 21.4705 43.0495H25.9898L26.4185 38.6738ZM50.1668 61.3902H45.7997L46.2283 65.766H50.1668C51.1905 65.766 52.0205 64.9361 52.0205 63.9122V63.2438C52.0205 62.2201 51.1905 61.3902 50.1668 61.3902ZM49.3779 50.032H44.6872L45.1158 54.4078H49.3779C50.4137 54.4078 51.2533 53.5682 51.2533 52.5325V51.9075C51.2533 50.8716 50.4137 50.032 49.3779 50.032ZM48.5227 38.6738H43.5747L44.0034 43.0496H48.5227C49.5585 43.0496 50.3981 42.2101 50.3981 41.1743V40.5493C50.3981 39.5134 49.5585 38.6738 48.5227 38.6738Z" fill="#B98080"/>
<path d="M15.6394 69.3817L19.3803 31.1899L21.8079 29.386L23.7561 31.1899L20.0044 69.4915C19.9908 69.6308 19.9258 69.76 19.8221 69.854C19.7185 69.948 19.5835 70.0001 19.4436 70.0001H16.2001C16.1215 70.0001 16.0437 69.9836 15.9719 69.9517C15.9 69.9198 15.8356 69.8733 15.7828 69.8151C15.73 69.7568 15.6899 69.6882 15.6652 69.6135C15.6406 69.5389 15.6317 69.4599 15.6394 69.3817ZM49.992 69.4915L46.2403 31.1899L48.2065 29.002L50.6161 31.1899L54.357 69.3817C54.3647 69.4599 54.3559 69.5389 54.3312 69.6136C54.3065 69.6882 54.2664 69.7569 54.2136 69.8151C54.1608 69.8734 54.0964 69.9199 54.0245 69.9518C53.9526 69.9836 53.8749 70.0001 53.7962 70.0001H50.5527C50.4128 70.0001 50.2779 69.948 50.1742 69.854C50.0706 69.76 50.0056 69.6307 49.992 69.4915Z" fill="#FFE177"/>
<path d="M54.7634 27.9681V30.0364C54.7634 30.2676 54.6715 30.4894 54.508 30.653C54.3444 30.8165 54.1226 30.9084 53.8914 30.9084L50.2289 31.1901H15.8212C15.5899 31.1901 15.3681 31.0983 15.2046 30.9347C15.0411 30.7712 14.9492 30.5494 14.9492 30.3181V27.6864C14.9492 27.5719 14.9718 27.4585 15.0156 27.3527C15.0594 27.247 15.1236 27.1508 15.2046 27.0699C15.2856 26.9889 15.3817 26.9247 15.4875 26.8808C15.5933 26.837 15.7067 26.8145 15.8212 26.8145H50.2288L53.8912 27.0962C54.0057 27.0962 54.1191 27.1187 54.225 27.1625C54.3308 27.2063 54.4269 27.2705 54.5079 27.3515C54.5889 27.4325 54.6531 27.5286 54.697 27.6344C54.7408 27.7402 54.7634 27.8536 54.7634 27.9681Z" fill="#C59191"/>
<path d="M54.1752 26.8145H49.9492C50.1805 26.8145 50.4023 26.9063 50.5658 27.0699C50.7293 27.2334 50.8212 27.4552 50.8212 27.6864V30.3181C50.8212 30.5494 50.7293 30.7712 50.5658 30.9347C50.4023 31.0983 50.1805 31.1901 49.9492 31.1901H54.1752C54.4065 31.1901 54.6283 31.0983 54.7918 30.9347C54.9553 30.7712 55.0472 30.5494 55.0472 30.3181V27.6864C55.0472 27.5719 55.0247 27.4585 54.9808 27.3527C54.937 27.2469 54.8728 27.1508 54.7918 27.0698C54.7109 26.9888 54.6147 26.9246 54.5089 26.8808C54.4031 26.837 54.2897 26.8144 54.1752 26.8145Z" fill="#B98080"/>
<path d="M12.8251 13.4566H6.31424C6.03406 13.4566 5.76535 13.3453 5.56723 13.1472C5.36911 12.9491 5.25781 12.6804 5.25781 12.4002C5.25781 12.12 5.36911 11.8513 5.56723 11.6532C5.76535 11.4551 6.03406 11.3438 6.31424 11.3438H12.8251C13.1052 11.3438 13.3739 11.4551 13.5721 11.6532C13.7702 11.8513 13.8815 12.12 13.8815 12.4002C13.8815 12.6804 13.7702 12.9491 13.5721 13.1472C13.3739 13.3453 13.1052 13.4566 12.8251 13.4566Z" fill="#FFD15B"/>
<path d="M15.8974 7.98195C15.7122 7.98194 15.5303 7.93303 15.37 7.84017L9.73149 4.58476C9.61134 4.51539 9.50602 4.42303 9.42156 4.31296C9.3371 4.20289 9.27515 4.07726 9.23925 3.94324C9.20335 3.80923 9.19419 3.66945 9.21231 3.5319C9.23043 3.39434 9.27547 3.26171 9.34485 3.14156C9.41421 3.02139 9.50656 2.91606 9.61663 2.83159C9.7267 2.74712 9.85233 2.68517 9.98636 2.64926C10.1204 2.61336 10.2602 2.60421 10.3977 2.62234C10.5353 2.64047 10.6679 2.68552 10.7881 2.75492L16.4266 6.01033C16.6282 6.12658 16.7858 6.30617 16.8749 6.52118C16.964 6.7362 16.9796 6.97462 16.9192 7.1994C16.8589 7.42419 16.726 7.62275 16.5412 7.76426C16.3565 7.90577 16.1301 7.98229 15.8974 7.98195ZM10.2607 22.1848C10.028 22.1851 9.8018 22.1085 9.61709 21.967C9.43239 21.8254 9.29957 21.6269 9.23925 21.4022C9.17893 21.1775 9.19447 20.9391 9.28348 20.7241C9.37249 20.5091 9.52997 20.3295 9.73149 20.2132L15.37 16.9578C15.6125 16.8217 15.8988 16.7866 16.1669 16.8602C16.435 16.9337 16.6633 17.11 16.8023 17.3508C16.9413 17.5915 16.9799 17.8774 16.9095 18.1464C16.8392 18.4153 16.6657 18.6458 16.4266 18.7877L10.7879 22.0432C10.6277 22.136 10.4459 22.1848 10.2607 22.1848Z" fill="#FFE177"/>
<path d="M63.6805 13.4566H57.1697C56.8895 13.4566 56.6208 13.3453 56.4227 13.1472C56.2246 12.9491 56.1133 12.6804 56.1133 12.4002C56.1133 12.12 56.2246 11.8513 56.4227 11.6532C56.6208 11.4551 56.8895 11.3438 57.1697 11.3438H63.6805C63.9607 11.3438 64.2294 11.4551 64.4275 11.6532C64.6257 11.8513 64.737 12.12 64.737 12.4002C64.737 12.6804 64.6257 12.9491 64.4275 13.1472C64.2294 13.3453 63.9607 13.4566 63.6805 13.4566Z" fill="#FFD15B"/>
<path d="M54.0998 7.98222C53.8671 7.98245 53.6408 7.90586 53.4561 7.76435C53.2714 7.62283 53.1386 7.4243 53.0783 7.19957C53.018 6.97485 53.0335 6.73649 53.1225 6.5215C53.2115 6.30652 53.369 6.12692 53.5705 6.0106L59.2091 2.75519C59.4515 2.61907 59.7378 2.58399 60.0059 2.65755C60.274 2.73111 60.5023 2.90738 60.6414 3.14814C60.7804 3.38891 60.8189 3.67476 60.7486 3.94374C60.6782 4.21272 60.5047 4.44313 60.2656 4.58503L54.6271 7.84044C54.4669 7.93334 54.285 7.98225 54.0998 7.98222ZM59.7364 22.1851C59.5512 22.1851 59.3693 22.1362 59.2091 22.0433L53.5705 18.7879C53.4504 18.7186 53.3451 18.6262 53.2606 18.5161C53.1761 18.4061 53.1142 18.2804 53.0783 18.1464C53.0424 18.0124 53.0332 17.8726 53.0514 17.7351C53.0695 17.5975 53.1145 17.4649 53.1839 17.3447C53.2532 17.2245 53.3456 17.1192 53.4556 17.0347C53.5657 16.9502 53.6914 16.8883 53.8254 16.8524C53.9594 16.8165 54.0992 16.8073 54.2368 16.8255C54.3743 16.8436 54.507 16.8887 54.6271 16.9581L60.2656 20.2135C60.3858 20.2829 60.4911 20.3752 60.5756 20.4853C60.66 20.5954 60.722 20.721 60.7579 20.855C60.7938 20.989 60.8029 21.1288 60.7848 21.2664C60.7667 21.4039 60.7217 21.5365 60.6523 21.6567C60.5596 21.8175 60.4261 21.9511 60.2653 22.0438C60.1045 22.1366 59.9221 22.1853 59.7364 22.1851ZM35.6776 0.396519L39.0249 6.33517C39.0798 6.43262 39.1551 6.5171 39.2456 6.58285C39.3361 6.64861 39.4397 6.69409 39.5493 6.71621L40.6147 6.93113L45.2578 8.11744C45.8526 8.23748 46.0878 8.9614 45.6771 9.4082L41.518 13.7824C41.4422 13.8647 41.3852 13.9624 41.3506 14.0688C41.316 14.1752 41.3048 14.2878 41.3177 14.399L42.0754 20.9864C42.1451 21.5892 41.5292 22.0366 40.9774 21.7841L35.323 19.0984C35.2212 19.0519 35.1107 19.0278 34.9988 19.0278C34.8869 19.0278 34.7764 19.0519 34.6746 19.0984L28.9978 21.7841C28.446 22.0366 27.8302 21.5892 27.8998 20.9864L28.0298 16.1222L28.1607 14.9904C28.1735 14.8793 28.1622 14.7667 28.1277 14.6603C28.0931 14.5539 28.0361 14.4562 27.9604 14.3738L23.3468 9.35529C22.9361 8.90863 23.1714 8.18457 23.7661 8.06453L30.4484 6.71621C30.558 6.69409 30.6616 6.64861 30.7521 6.58285C30.8426 6.5171 30.9179 6.43262 30.9728 6.33517L34.3205 0.396519C34.6184 -0.132173 35.3797 -0.132173 35.6776 0.396519Z" fill="#FFE177"/>
<path d="M46.6491 9.3558C47.0598 8.909 46.8245 8.18508 46.2297 8.06504L40.6128 6.93164C40.4043 12.241 36.0365 16.4817 30.6762 16.4817C29.7815 16.4816 28.8908 16.3608 28.0284 16.1226L27.3765 21.7626C27.3069 22.3654 27.9227 22.8129 28.4745 22.5604L34.673 19.7235C34.7748 19.6769 34.8853 19.6528 34.9972 19.6528C35.1091 19.6528 35.2196 19.6769 35.3214 19.7235L41.5199 22.5604C42.0716 22.8129 42.6875 22.3654 42.6179 21.7626L41.8352 14.9907C41.8224 14.8795 41.8336 14.7669 41.8682 14.6605C41.9027 14.5542 41.9598 14.4564 42.0355 14.3741L46.6491 9.3558Z" fill="#FFD15B"/>
</g>
<defs>
<clipPath id="clip0_1017_2764">
<rect width="70" height="70" fill="white"/>
</clipPath>
</defs>
</svg>
