<svg width="70" height="70" viewBox="0 0 70 70" fill="none" xmlns="http://www.w3.org/2000/svg">
<g clip-path="url(#clip0_1017_370)">
<path d="M10.892 54.3418H8.56078C3.84043 54.3418 0 58.1821 0 62.9024V69.9992H9.61584L10.892 54.3418Z" fill="#9EDBA7"/>
<path d="M59.1094 54.3418H61.4406C66.1609 54.3418 70.0013 58.1821 70.0013 62.9026V69.9992H60.3855L59.1094 54.3418Z" fill="#7BC5B0"/>
<path d="M60.3855 23.9258L35.0013 20.8496L33.543 45.2084L35.0013 68.6327L43.5774 70H60.3855V23.9258Z" fill="#F9BBD0"/>
<path d="M9.61719 23.9258V70H26.4253L35.0013 68.6327V20.8496L9.61719 23.9258Z" fill="#FBD1DF"/>
<path d="M16.3164 28.5742H20.418V41.4258H16.3164V28.5742Z" fill="#FFF7F7"/>
<path d="M49.582 28.5742H53.6836V41.4258H49.582V28.5742Z" fill="#F3E8E5"/>
<path d="M16.3164 48.9902H20.418V61.8418H16.3164V48.9902Z" fill="#FFF7F7"/>
<path d="M49.582 48.9902H53.6836V61.8418H49.582V48.9902Z" fill="#F3E8E5"/>
<path d="M60.3855 4.375H35.0013L33.543 14.5834L35.0013 23.9258H60.3855V4.375Z" fill="#CF3F59"/>
<path d="M9.61719 4.375H35.0013V23.9258H9.61719V4.375Z" fill="#E26058"/>
<path d="M17.1484 0H27.4639V14.5834H17.1484V0Z" fill="#CF3F59"/>
<path d="M41.5254 55.8573C41.5254 52.2536 38.6039 49.332 35.0001 49.332L33.6328 59.5177L35.0001 69.9994H39.4747L41.5254 55.8573Z" fill="#5A5F64"/>
<path d="M35.0019 49.332C31.3981 49.332 28.4766 52.2536 28.4766 55.8573L30.5273 69.9994H35.0019V49.332Z" fill="#696E73"/>
<path d="M35.0013 47.2812L33.543 49.4461L35.0013 51.3828C37.4686 51.3828 39.4759 53.3901 39.4759 55.8573V69.9994H43.5774V55.8573C43.5774 51.1285 39.7302 47.2812 35.0013 47.2812Z" fill="#F3E8E5"/>
<path d="M35.0019 47.2812C30.273 47.2812 26.4258 51.1285 26.4258 55.8573V69.9994H30.5273V55.8573C30.5273 53.3901 32.5346 51.3828 35.0019 51.3828V47.2812Z" fill="#FFF7F7"/>
<path d="M37.0521 28.5742H35.0013L33.543 35L35.0013 41.4258H37.0521V28.5742Z" fill="#F3E8E5"/>
<path d="M32.9492 28.5742H35V41.4258H32.9492V28.5742Z" fill="#FFF7F7"/>
</g>
<defs>
<clipPath id="clip0_1017_370">
<rect width="70" height="70" rx="5" fill="white"/>
</clipPath>
</defs>
</svg>
