<svg width="110" height="110" viewBox="0 0 110 110" fill="none" xmlns="http://www.w3.org/2000/svg">
<path d="M30.8079 96.8938L27.9443 90.9184C27.8132 90.6446 27.6072 90.4134 27.3503 90.2517L27.3139 90.2288C27.0703 90.0752 26.7899 89.9898 26.502 89.9814C26.2141 89.9731 25.9292 90.0421 25.6771 90.1813C23.4683 91.3997 21.8617 92.569 20.7922 93.4512L15.2688 82.9011C15.1638 82.7008 15.0179 82.5249 14.8406 82.3847C14.6632 82.2445 14.4583 82.1433 14.2392 82.0875C14.0201 82.0316 13.7917 82.0226 13.5689 82.0608C13.3461 82.0991 13.1338 82.1838 12.9459 82.3094L0.714407 90.4956C0.484686 90.6495 0.298442 90.86 0.173591 91.1067C0.0487411 91.3534 -0.0105132 91.6281 0.00152891 91.9044C0.0135711 92.1806 0.0965044 92.4492 0.24235 92.6841C0.388196 92.919 0.592046 93.1125 0.834289 93.2458L9.84589 98.2022V108.157C9.84605 108.441 9.92129 108.72 10.064 108.966C10.2067 109.211 10.4117 109.415 10.6584 109.555C10.9051 109.696 11.1846 109.769 11.4686 109.767C11.7527 109.765 12.0311 109.688 12.2758 109.544L30.1744 98.9774C30.5215 98.7723 30.7791 98.4446 30.8964 98.0588C31.0137 97.6731 30.9821 97.2574 30.8079 96.8938ZM109.285 90.4956L97.0532 82.3094C96.8653 82.1836 96.653 82.0987 96.4301 82.0604C96.2073 82.0221 95.9788 82.0311 95.7597 82.0869C95.5406 82.1428 95.3356 82.2441 95.1583 82.3844C94.9809 82.5247 94.8351 82.7007 94.7303 82.9011L89.2069 93.4512C88.1374 92.569 86.5306 91.3997 84.3218 90.1813C84.0696 90.0421 83.7847 89.973 83.4968 89.9814C83.2089 89.9897 82.9285 90.0752 82.6849 90.2288L82.6486 90.2517C82.3918 90.4137 82.1859 90.6447 82.0545 90.9184L79.1911 96.8938C79.0169 97.2574 78.9853 97.6731 79.1027 98.0588C79.22 98.4445 79.4777 98.7722 79.8249 98.9772L97.7233 109.544C97.9678 109.688 98.2464 109.766 98.5306 109.768C98.8147 109.77 99.0944 109.697 99.341 109.556C99.5877 109.415 99.7927 109.211 99.9353 108.965C100.078 108.72 100.153 108.441 100.153 108.157V98.202L109.165 93.2456C109.407 93.1123 109.611 92.9188 109.757 92.6839C109.903 92.449 109.985 92.1805 109.998 91.9043C110.01 91.628 109.95 91.3533 109.825 91.1066C109.701 90.8599 109.514 90.6495 109.285 90.4956Z" fill="#B32425"/>
<path d="M30.8098 96.895L27.9461 90.9196C27.6879 90.381 27.145 90.029 26.5479 90.0058C26.5479 90.0058 26.4998 90.0039 26.4177 90.0039C26.1449 90.0039 25.8766 90.0733 25.6379 90.2054C21.2052 92.6577 19.2119 94.9058 19.129 95.0003C18.9404 95.216 18.8127 95.478 18.759 95.7594C18.7053 96.0408 18.7277 96.3314 18.8237 96.6013C18.9197 96.8712 19.0859 97.1106 19.3053 97.2948C19.5247 97.479 19.7893 97.6013 20.0717 97.6491L29.0872 99.1794C29.3783 99.2289 29.6773 99.1974 29.9517 99.0883C30.226 98.9793 30.4651 98.7969 30.6429 98.5611C30.8208 98.3254 30.9305 98.0453 30.9599 97.7515C30.9893 97.4576 30.9374 97.1613 30.8098 96.895ZM90.8737 95.0003C90.7907 94.9058 88.7974 92.6579 84.3648 90.2054C84.1261 90.0732 83.8577 90.0039 83.5849 90.0039C83.5035 90.0039 83.4551 90.0058 83.4551 90.0058C82.8581 90.0286 82.3147 90.3805 82.0565 90.9196L79.1931 96.895C79.0653 97.1613 79.0133 97.4575 79.0426 97.7513C79.0718 98.0452 79.1814 98.3253 79.3591 98.5611C79.5369 98.7969 79.7761 98.9793 80.0506 99.0883C80.325 99.1973 80.6241 99.2288 80.9152 99.1792L89.9305 97.6489C90.2129 97.601 90.4774 97.4786 90.6968 97.2945C90.9162 97.1103 91.0825 96.8709 91.1786 96.6011C91.2747 96.3313 91.2971 96.0407 91.2435 95.7593C91.1899 95.4779 91.0622 95.2159 90.8737 95.0003Z" fill="#8C1E23"/>
<path d="M23.7347 71.0085C23.5494 70.626 23.2206 70.3323 22.8197 70.1912C22.4189 70.0501 21.9785 70.073 21.5945 70.255C13.7686 73.9662 10.3736 77.8826 10.2331 78.0472C10.0245 78.2918 9.89378 78.5932 9.85779 78.9126C9.8218 79.2321 9.88217 79.555 10.0312 79.8399L18.9143 96.8078C19.0512 97.0678 19.2566 97.2855 19.5083 97.4372C19.7599 97.589 20.0483 97.6691 20.3421 97.6689C20.5703 97.6685 20.7957 97.62 21.0038 97.5265C21.2119 97.433 21.3979 97.2966 21.5496 97.1262C21.5588 97.1159 22.4929 96.0758 24.509 94.683C26.3722 93.3959 29.5665 91.5362 34.2043 89.9848C34.461 89.8989 34.6919 89.7497 34.8757 89.551C35.0595 89.3523 35.1902 89.1105 35.2559 88.848C35.3216 88.5854 35.32 88.3105 35.2514 88.0487C35.1827 87.7868 35.0493 87.5465 34.8632 87.3499C30.4924 82.7308 26.7479 77.2329 23.7347 71.0085ZM99.7699 78.0472C99.6294 77.8822 96.2342 73.9662 88.4087 70.255C88.0248 70.0729 87.5844 70.0499 87.1835 70.191C86.7827 70.3321 86.4538 70.626 86.2687 71.0085C83.2548 77.2334 79.5103 82.7314 75.1395 87.3497C74.9535 87.5463 74.82 87.7866 74.7514 88.0485C74.6827 88.3103 74.6812 88.5852 74.7469 88.8477C74.8125 89.1103 74.9433 89.3521 75.1271 89.5508C75.3109 89.7495 75.5418 89.8987 75.7985 89.9846C80.4363 91.5362 83.6306 93.3959 85.4937 94.6828C87.51 96.0756 88.444 97.1157 88.4489 97.1208C88.6212 97.318 88.839 97.4702 89.0834 97.5642C89.3278 97.6583 89.5914 97.6913 89.8514 97.6605C90.1115 97.6297 90.3601 97.5359 90.5757 97.3873C90.7913 97.2387 90.9675 97.0398 91.0889 96.8078L99.972 79.8399C100.121 79.5549 100.181 79.232 100.145 78.9126C100.109 78.5932 99.9785 78.2918 99.7699 78.0472Z" fill="#E93234"/>
<path d="M99.7665 78.0472C99.626 77.8822 96.2308 73.9662 88.4053 70.255C88.0213 70.0729 87.581 70.0499 87.1801 70.191C86.7792 70.3321 86.4504 70.626 86.2652 71.0085C83.2514 77.2334 79.5069 82.7314 75.1361 87.3497C74.9501 87.5463 74.8166 87.7866 74.748 88.0485C74.6793 88.3103 74.6778 88.5852 74.7434 88.8477C74.8091 89.1103 74.9399 89.3521 75.1237 89.5508C75.3075 89.7495 75.5384 89.8987 75.795 89.9846C80.4329 91.5362 83.6272 93.3959 85.4903 94.6828C87.5066 96.0756 88.4405 97.1157 88.4455 97.1208C88.6178 97.318 88.8356 97.4702 89.08 97.5642C89.3243 97.6583 89.588 97.6913 89.848 97.6605C90.1081 97.6297 90.3567 97.5359 90.5723 97.3873C90.7879 97.2387 90.9641 97.0398 91.0855 96.8078L99.9686 79.8399C100.117 79.5549 100.178 79.232 100.142 78.9126C100.106 78.5932 99.975 78.2918 99.7665 78.0472Z" fill="#E93234"/>
<path d="M74.7464 88.8477C74.6808 88.5851 74.6823 88.3102 74.751 88.0484C74.8196 87.7865 74.9531 87.5462 75.1391 87.3496C79.5104 82.7307 83.2549 77.2328 86.2678 71.0084C86.4531 70.6259 86.782 70.3322 87.1829 70.191C87.5837 70.0499 88.0241 70.0729 88.4081 70.2549C90.4869 71.2408 92.2502 72.2405 93.7257 73.1811C92.0993 76.4473 90.2871 79.5153 88.2871 82.3659C85.8745 85.8046 83.1915 88.9317 80.2492 91.7395C78.7981 91.0749 77.3123 90.4891 75.7981 89.9846C75.5414 89.8987 75.3105 89.7495 75.1268 89.5508C74.943 89.352 74.8122 89.1103 74.7464 88.8477ZM35.2566 88.8477C35.3223 88.5851 35.3207 88.3102 35.2521 88.0484C35.1834 87.7865 35.0499 87.5462 34.8639 87.3496C30.4929 82.7307 26.7482 77.2328 23.7352 71.0084C23.5499 70.6259 23.221 70.3322 22.8202 70.191C22.4193 70.0499 21.979 70.0729 21.5949 70.2549C19.5161 71.2408 17.7529 72.2405 16.2773 73.1811C17.9039 76.4473 19.7159 79.5153 21.7161 82.3659C24.1288 85.8046 26.8118 88.9317 29.7541 91.7395C31.2051 91.0749 32.691 90.4891 34.2052 89.9846C34.4618 89.8987 34.6927 89.7494 34.8764 89.5507C35.0602 89.352 35.1909 89.1102 35.2566 88.8477Z" fill="#B32425"/>
<path d="M98.446 18.0536C98.4081 17.6854 98.2445 17.3415 97.9828 17.0797C97.721 16.8179 97.3771 16.6543 97.0089 16.6163C84.1879 15.2938 73.7381 11.0179 67.2298 7.66423C60.155 4.01855 56.0706 0.64013 56.0311 0.607259C55.7413 0.36509 55.3756 0.232422 54.9979 0.232422C54.6202 0.232422 54.2545 0.36509 53.9647 0.607259C53.804 0.741751 37.6009 14.0773 12.9869 16.6166C12.6187 16.6545 12.2748 16.8182 12.0131 17.08C11.7514 17.3417 11.5878 17.6856 11.5498 18.0539C11.4802 18.731 9.89274 34.8564 14.2942 53.6361C16.8906 64.7132 21.0483 74.3794 26.6518 82.3656C33.6912 92.3986 43.0281 99.78 54.4024 104.305C54.7847 104.457 55.2107 104.457 55.593 104.305C66.9673 99.78 76.3042 92.3986 83.3435 82.3656C88.9473 74.3792 93.1047 64.7134 95.7011 53.6361C100.103 34.8561 98.5154 18.7308 98.446 18.0536Z" fill="#F5BA3D"/>
<path d="M98.4483 18.0538C98.4104 17.6855 98.2468 17.3416 97.9851 17.0798C97.7234 16.818 97.3795 16.6544 97.0112 16.6165C95.7104 16.4816 94.4131 16.3144 93.1206 16.1152C93.4152 21.768 93.5806 35.0651 90.0832 49.9879C87.4028 61.4236 83.1106 71.4025 77.3255 79.6471C70.1942 89.8112 60.7774 97.3369 49.332 102.029C50.9892 102.86 52.6817 103.62 54.4047 104.305C54.787 104.457 55.213 104.457 55.5954 104.305C66.9696 99.7801 76.3065 92.3987 83.3459 82.3658C88.9496 74.3794 93.1071 64.7135 95.7035 53.6362C100.105 34.8563 98.5177 18.731 98.4483 18.0538Z" fill="#F2A325"/>
<path d="M88.4775 26.1783C88.4396 25.8101 88.276 25.4662 88.0143 25.2044C87.7525 24.9426 87.4086 24.779 87.0404 24.741C68.4571 22.824 56.1521 12.7334 56.0311 12.6326C55.7413 12.3905 55.3756 12.2578 54.998 12.2578C54.6203 12.2578 54.2546 12.3905 53.9648 12.6326C53.8434 12.7343 41.5904 22.8186 22.9555 24.741C22.5873 24.779 22.2434 24.9427 21.9817 25.2044C21.7199 25.4662 21.5564 25.8101 21.5184 26.1783C21.4651 26.6968 20.2496 39.0432 23.6172 53.4111C25.6063 61.8974 28.7937 69.3054 33.0903 75.4298C38.4967 83.1347 45.6673 88.8038 54.4024 92.2787C54.7847 92.4307 55.2107 92.4307 55.5931 92.2787C64.3286 88.8038 71.499 83.1349 76.9051 75.4298C81.2022 69.3054 84.3894 61.8974 86.3783 53.4111C89.7464 39.0428 88.5308 26.6968 88.4775 26.1783Z" fill="#FFDB57"/>
<path d="M50.3407 66.1443C49.1912 66.1443 48.0888 65.6877 47.2759 64.875L37.4178 55.0169C35.7253 53.3243 35.7253 50.5799 37.4178 48.8872C39.1104 47.1946 41.8546 47.1946 43.5473 48.8872L50.3407 55.6805L66.9919 39.0293C68.6845 37.3367 71.4287 37.3365 73.1214 39.0291C74.814 40.7216 74.814 43.466 73.1214 45.1588L53.4054 64.8746C53.003 65.2771 52.5252 65.5964 51.9994 65.8143C51.4735 66.0322 50.9099 66.1443 50.3407 66.1443Z" fill="#00B76C"/>
</svg>
