<svg width="70" height="70" viewBox="0 0 70 70" fill="none" xmlns="http://www.w3.org/2000/svg">
<g clip-path="url(#clip0_1017_2078)">
<path d="M30.5612 17.2602C30.7815 19.3317 30.5056 21.4259 29.7563 23.3696C29.0069 25.3134 27.8057 27.0508 26.2518 28.4383C24.2477 30.1595 22.7377 32.383 21.8768 34.8805C21.8112 35.0555 22.7737 35.0008 13.1268 35.0008C12.2443 32.409 10.6982 30.0936 8.64246 28.2852C7.06387 26.8543 5.85734 25.0607 5.12708 23.0592C4.39682 21.0577 4.16479 18.9085 4.45102 16.7973C4.73725 14.686 5.53314 12.6762 6.76995 10.9414C8.00676 9.20655 9.6473 7.7989 11.5499 6.84C13.4525 5.8811 15.5599 5.39978 17.6901 5.43762C19.8203 5.47545 21.9093 6.0313 23.7766 7.05715C25.644 8.083 27.2335 9.54802 28.4079 11.3257C29.5824 13.1033 30.3064 15.1401 30.5175 17.2602H30.5612Z" fill="#D9D9D9"/>
<path d="M16.4067 38.5984L12.0317 24.3797C11.9808 24.2124 11.9708 24.0353 12.0025 23.8634C12.0341 23.6914 12.1066 23.5296 12.2137 23.3914C12.3208 23.2532 12.4595 23.1427 12.6182 23.0691C12.7768 22.9956 12.9507 22.9612 13.1254 22.9688H21.8754C22.0501 22.9612 22.2241 22.9956 22.3827 23.0691C22.5414 23.1427 22.6801 23.2532 22.7872 23.3914C22.8943 23.5296 22.9667 23.6914 22.9984 23.8634C23.0301 24.0353 23.0201 24.2124 22.9692 24.3797L18.5942 38.5984C18.5942 38.8885 18.479 39.1667 18.2738 39.3718C18.0687 39.577 17.7905 39.6922 17.5004 39.6922C17.2104 39.6922 16.9322 39.577 16.727 39.3718C16.5219 39.1667 16.4067 38.8885 16.4067 38.5984ZM14.602 25.1562L17.5004 34.5625L20.3989 25.1562H14.602ZM61.2504 15.3125V37.1875H39.3754V10.9375C39.3754 10.3573 39.6059 9.80094 40.0161 9.3907C40.4264 8.98047 40.9828 8.75 41.5629 8.75H54.6879L61.2504 15.3125Z" fill="#F3F3F3"/>
<path d="M52.5 30.7016V28.361C52.5015 28.0833 52.4479 27.8082 52.3423 27.5514C52.2367 27.2947 52.0813 27.0614 51.885 26.8651C51.6887 26.6688 51.4554 26.5133 51.1986 26.4078C50.9419 26.3022 50.6667 26.2486 50.3891 26.25C49.9509 26.2476 49.5244 26.1082 49.1694 25.8512C48.8144 25.5943 48.5486 25.2327 48.4094 24.8172C48.2342 24.3294 48.0334 23.8511 47.8078 23.3844C47.614 22.9906 47.5478 22.5461 47.6183 22.1129C47.6889 21.6796 47.8928 21.2792 48.2016 20.9672C48.595 20.5699 48.8157 20.0334 48.8157 19.4742C48.8157 18.9151 48.595 18.3786 48.2016 17.9813L46.55 16.3297C46.1527 15.9363 45.6162 15.7156 45.0571 15.7156C44.4979 15.7156 43.9614 15.9363 43.5641 16.3297C43.2521 16.6385 42.8517 16.8424 42.4184 16.913C41.9852 16.9835 41.5407 16.9173 41.1469 16.7235C40.6802 16.4979 40.2019 16.2971 39.7141 16.1219C39.2986 15.9827 38.937 15.7169 38.6801 15.3619C38.4231 15.0069 38.2837 14.5804 38.2813 14.1422C38.2784 13.5832 38.0551 13.048 37.6598 12.6527C37.2646 12.2575 36.7293 12.0342 36.1703 12.0313H33.8297C33.5521 12.0298 33.2769 12.0834 33.0202 12.189C32.7634 12.2946 32.5301 12.45 32.3338 12.6463C32.1375 12.8426 31.9821 13.0759 31.8765 13.3327C31.7709 13.5894 31.7173 13.8646 31.7188 14.1422C31.7164 14.5804 31.5769 15.0069 31.32 15.3619C31.0631 15.7169 30.7015 15.9827 30.286 16.1219C29.7981 16.2971 29.3198 16.4979 28.8532 16.7235C28.4593 16.9173 28.0149 16.9835 27.5816 16.913C27.1484 16.8424 26.7479 16.6385 26.436 16.3297C26.0387 15.9363 25.5021 15.7156 24.943 15.7156C24.3839 15.7156 23.8473 15.9363 23.45 16.3297L21.7985 17.9813C21.4051 18.3786 21.1844 18.9151 21.1844 19.4742C21.1844 20.0334 21.4051 20.5699 21.7985 20.9672C22.1073 21.2792 22.3111 21.6796 22.3817 22.1129C22.4523 22.5461 22.386 22.9906 22.1922 23.3844C21.9666 23.8511 21.7658 24.3294 21.5907 24.8172C21.4514 25.2327 21.1857 25.5943 20.8307 25.8512C20.4757 26.1082 20.0492 26.2476 19.611 26.25C19.052 26.2529 18.5167 26.4762 18.1215 26.8715C17.7262 27.2667 17.5029 27.802 17.5 28.361V30.7016C17.4986 30.9792 17.5522 31.2544 17.6578 31.5111C17.7633 31.7679 17.9188 32.0012 18.1151 32.1975C18.3114 32.3938 18.5447 32.5492 18.8014 32.6548C19.0582 32.7604 19.3333 32.814 19.611 32.8125C20.0492 32.8149 20.4757 32.9544 20.8307 33.2113C21.1857 33.4683 21.4514 33.8298 21.5907 34.2453C21.7658 34.7332 21.9666 35.2115 22.1922 35.6782C22.386 36.072 22.4523 36.5164 22.3817 36.9497C22.3111 37.3829 22.1073 37.7834 21.7985 38.0953C21.4051 38.4927 21.1844 39.0292 21.1844 39.5883C21.1844 40.1474 21.4051 40.684 21.7985 41.0813L23.45 42.7328C23.8473 43.1262 24.3839 43.3469 24.943 43.3469C25.5021 43.3469 26.0387 43.1262 26.436 42.7328C26.7479 42.424 27.1484 42.2202 27.5816 42.1496C28.0149 42.079 28.4593 42.1453 28.8532 42.3391C29.3198 42.5647 29.7981 42.7655 30.286 42.9407C30.7015 43.0799 31.0631 43.3456 31.32 43.7006C31.5769 44.0556 31.7164 44.4821 31.7188 44.9203C31.7217 45.4793 31.945 46.0146 32.3402 46.4098C32.7355 46.8051 33.2707 47.0284 33.8297 47.0313H36.1703C36.448 47.0327 36.7231 46.9791 36.9799 46.8735C37.2366 46.768 37.4699 46.6125 37.6662 46.4162C37.8625 46.2199 38.018 45.9866 38.1235 45.7299C38.2291 45.4731 38.2827 45.198 38.2813 44.9203C38.2837 44.4821 38.4231 44.0556 38.6801 43.7006C38.937 43.3456 39.2986 43.0799 39.7141 42.9407C40.2019 42.7655 40.6802 42.5647 41.1469 42.3391C41.5407 42.1453 41.9852 42.079 42.4184 42.1496C42.8517 42.2202 43.2521 42.424 43.5641 42.7328C43.9692 43.1111 44.5028 43.3215 45.0571 43.3215C45.6113 43.3215 46.1449 43.1111 46.55 42.7328L48.2016 41.0813C48.595 40.684 48.8157 40.1474 48.8157 39.5883C48.8157 39.0292 48.595 38.4927 48.2016 38.0953C47.8928 37.7834 47.6889 37.3829 47.6183 36.9497C47.5478 36.5164 47.614 36.072 47.8078 35.6782C48.0334 35.2115 48.2342 34.7332 48.4094 34.2453C48.5486 33.8298 48.8144 33.4683 49.1694 33.2113C49.5244 32.9544 49.9509 32.8149 50.3891 32.8125C50.9481 32.8097 51.4833 32.5863 51.8786 32.1911C52.2738 31.7958 52.4972 31.2606 52.5 30.7016Z" fill="#FFAC00"/>
<path d="M35 37.1875C39.2284 37.1875 42.6562 33.7597 42.6562 29.5312C42.6562 25.3028 39.2284 21.875 35 21.875C30.7716 21.875 27.3438 25.3028 27.3438 29.5312C27.3438 33.7597 30.7716 37.1875 35 37.1875Z" fill="#F3F3F3"/>
<path d="M6.5625 32.8125H35V70H8.75C8.16984 70 7.61344 69.7695 7.2032 69.3593C6.79297 68.9491 6.5625 68.3927 6.5625 67.8125V32.8125Z" fill="#93E6E5"/>
<path d="M35.0016 32.8125H63.4391V67.8125C63.4391 68.3927 63.2087 68.9491 62.7984 69.3593C62.3882 69.7695 61.8318 70 61.2516 70H35.0016V32.8125ZM6.56414 32.8125L1.54382 38.6641C1.40792 38.823 1.3204 39.0175 1.29164 39.2246C1.26289 39.4317 1.29409 39.6427 1.38157 39.8326C1.46904 40.0225 1.60912 40.1833 1.7852 40.2961C1.96128 40.4088 2.16599 40.4688 2.37507 40.4688H25.5298C26.1045 40.4692 26.6736 40.3564 27.2047 40.1368C27.7358 39.9173 28.2185 39.5952 28.6251 39.1891L35.0016 32.8125H6.56414Z" fill="#50D9D7"/>
<path d="M63.4375 32.8125L68.4578 38.6641C68.5937 38.823 68.6812 39.0175 68.71 39.2246C68.7388 39.4317 68.7075 39.6427 68.6201 39.8326C68.5326 40.0225 68.3925 40.1833 68.2164 40.2961C68.0404 40.4088 67.8357 40.4688 67.6266 40.4688H44.4719C43.8972 40.4692 43.328 40.3564 42.7969 40.1368C42.2658 39.9173 41.7832 39.5952 41.3766 39.1891L35 32.8125H63.4375Z" fill="#00BEBD"/>
<path d="M17.5 62.3438H10.9375C10.3334 62.3438 9.84375 62.8334 9.84375 63.4375V65.625C9.84375 66.2291 10.3334 66.7188 10.9375 66.7188H17.5C18.1041 66.7188 18.5938 66.2291 18.5938 65.625V63.4375C18.5938 62.8334 18.1041 62.3438 17.5 62.3438Z" fill="#F3F3F3"/>
<path d="M40.4688 66.7188C41.6769 66.7188 42.6562 65.7394 42.6562 64.5312C42.6562 63.3231 41.6769 62.3438 40.4688 62.3438C39.2606 62.3438 38.2812 63.3231 38.2812 64.5312C38.2812 65.7394 39.2606 66.7188 40.4688 66.7188Z" fill="#F3F3F3"/>
<path d="M48.125 66.7188C49.3331 66.7188 50.3125 65.7394 50.3125 64.5312C50.3125 63.3231 49.3331 62.3438 48.125 62.3438C46.9169 62.3438 45.9375 63.3231 45.9375 64.5312C45.9375 65.7394 46.9169 66.7188 48.125 66.7188Z" fill="#F3F3F3"/>
<path d="M61.25 15.3125H56.875C56.2948 15.3125 55.7384 15.082 55.3282 14.6718C54.918 14.2616 54.6875 13.7052 54.6875 13.125V8.75L61.25 15.3125Z" fill="#D9D9D9"/>
<path d="M64.5318 30.6256C64.3146 30.6268 64.1019 30.5634 63.9208 30.4433C63.7398 30.3232 63.5986 30.1519 63.5153 29.9513C63.432 29.7506 63.4103 29.5297 63.4531 29.3167C63.4958 29.1037 63.601 28.9082 63.7553 28.7553L68.1303 24.3803C68.3362 24.1743 68.6156 24.0586 68.9068 24.0586C69.1981 24.0586 69.4774 24.1743 69.6834 24.3803C69.8893 24.5862 70.005 24.8656 70.005 25.1568C70.005 25.4481 69.8893 25.7274 69.6834 25.9334L65.3084 30.3084C65.2062 30.4097 65.085 30.49 64.9517 30.5444C64.8185 30.5988 64.6758 30.6264 64.5318 30.6256ZM64.5318 24.0631C64.3146 24.0643 64.1019 24.0009 63.9208 23.8808C63.7398 23.7607 63.5986 23.5894 63.5153 23.3888C63.432 23.1881 63.4103 22.9672 63.4531 22.7542C63.4958 22.5412 63.601 22.3457 63.7553 22.1928L65.9428 20.0053C66.1487 19.7993 66.4281 19.6836 66.7193 19.6836C67.0106 19.6836 67.2899 19.7993 67.4959 20.0053C67.7018 20.2112 67.8176 20.4906 67.8176 20.7818C67.8176 21.0731 67.7018 21.3524 67.4959 21.5584C65.1115 23.9428 65.1224 24.0631 64.5318 24.0631ZM5.46932 30.6256C5.32537 30.6264 5.18268 30.5988 5.04942 30.5444C4.91616 30.49 4.79496 30.4097 4.69276 30.3084L0.317756 25.9334C0.111799 25.7274 -0.00390625 25.4481 -0.00390625 25.1568C-0.00390625 24.8656 0.111799 24.5862 0.317756 24.3803C0.523714 24.1743 0.803052 24.0586 1.09432 24.0586C1.38559 24.0586 1.66492 24.1743 1.87088 24.3803L6.24588 28.7553C6.40013 28.9082 6.50533 29.1037 6.54806 29.3167C6.59079 29.5297 6.56913 29.7506 6.48582 29.9513C6.40251 30.1519 6.26134 30.3232 6.0803 30.4433C5.89927 30.5634 5.68656 30.6268 5.46932 30.6256Z" fill="#FFAC00"/>
<path d="M64.5312 12.0312C65.1353 12.0312 65.625 11.5416 65.625 10.9375C65.625 10.3334 65.1353 9.84375 64.5312 9.84375C63.9272 9.84375 63.4375 10.3334 63.4375 10.9375C63.4375 11.5416 63.9272 12.0312 64.5312 12.0312Z" fill="#50D9D7"/>
<path d="M2.1875 14.2188C2.79156 14.2188 3.28125 13.7291 3.28125 13.125C3.28125 12.5209 2.79156 12.0312 2.1875 12.0312C1.58344 12.0312 1.09375 12.5209 1.09375 13.125C1.09375 13.7291 1.58344 14.2188 2.1875 14.2188Z" fill="#50D9D7"/>
<path d="M14.2188 2.1875C14.8228 2.1875 15.3125 1.69781 15.3125 1.09375C15.3125 0.489689 14.8228 0 14.2188 0C13.6147 0 13.125 0.489689 13.125 1.09375C13.125 1.69781 13.6147 2.1875 14.2188 2.1875Z" fill="#50D9D7"/>
<path d="M35 5.46875C35.6041 5.46875 36.0938 4.97906 36.0938 4.375C36.0938 3.77094 35.6041 3.28125 35 3.28125C34.3959 3.28125 33.9062 3.77094 33.9062 4.375C33.9062 4.97906 34.3959 5.46875 35 5.46875Z" fill="#50D9D7"/>
<path d="M50.3125 5.46875C50.9166 5.46875 51.4062 4.97906 51.4062 4.375C51.4062 3.77094 50.9166 3.28125 50.3125 3.28125C49.7084 3.28125 49.2188 3.77094 49.2188 4.375C49.2188 4.97906 49.7084 5.46875 50.3125 5.46875Z" fill="#50D9D7"/>
</g>
<defs>
<clipPath id="clip0_1017_2078">
<rect width="70" height="70" fill="white"/>
</clipPath>
</defs>
</svg>
