<svg width="70" height="70" viewBox="0 0 70 70" fill="none" xmlns="http://www.w3.org/2000/svg">
<path d="M35.002 0L40.9391 18.1865L35.002 44.8902C34.4578 44.8902 33.9369 44.6742 33.5514 44.29L26.0455 36.7828H17.8902C13.9145 36.7828 10.6797 33.548 10.6797 29.5723V7.21055C10.6797 3.23477 13.9145 0 17.8902 0H35.002Z" fill="#E6EEFF"/>
<path d="M59.3223 7.21055V29.5723C59.3223 33.548 56.0875 36.7828 52.1117 36.7828H43.9564L36.4506 44.29C36.0656 44.6742 35.5439 44.8901 35 44.8902V0H52.1117C56.0875 0 59.3223 3.23477 59.3223 7.21055Z" fill="#CCDDFF"/>
<path d="M35.0015 10.3556L39.1235 19.1644L35.0015 30.6638C34.7936 30.6636 34.5869 30.6321 34.3884 30.5703C33.9715 30.4401 33.6923 30.2063 33.5468 30.0636L24.8625 21.371C21.9718 18.2397 22.165 13.4 25.0592 10.6606C27.6916 8.16917 31.9735 7.96874 35.0015 10.3556Z" fill="#FF80AA"/>
<path d="M45.1377 21.3709C42.2398 24.2719 39.342 27.1729 36.4442 30.074C36.3231 30.1937 36.1875 30.2976 36.0404 30.3834C35.629 30.6232 35.2279 30.6609 35.0041 30.6635H35V10.3554C38.0513 7.79429 42.6382 8.09083 45.3336 11.0219C48.0275 13.9516 47.9412 18.5438 45.1377 21.3709Z" fill="#FF4D88"/>
<path d="M23.9494 62.2843L19.4705 69.9993H8.20032C6.96848 69.9993 6.01501 68.9209 6.16376 67.6979C6.97997 60.9872 12.7496 55.6316 19.4705 55.6603L23.9494 62.2843Z" fill="#00EECE"/>
<path d="M19.4688 69.9993H30.7389C31.9707 69.9993 32.9242 68.9209 32.7754 67.6979C31.9592 60.9872 26.1896 55.6316 19.4688 55.6603V69.9993Z" fill="#00CCB1"/>
<path d="M19.4723 43.2637L22.3688 49.3924L19.4723 55.6613C16.0717 55.6613 13.2734 52.8631 13.2734 49.4625C13.2734 46.0619 16.0717 43.2637 19.4723 43.2637Z" fill="#FFDDCE"/>
<path d="M25.6676 49.4625C25.6676 52.8576 22.8762 55.6549 19.4783 55.6613H19.4688V43.2637C22.8702 43.2648 25.6676 46.0638 25.6676 49.4625Z" fill="#FFCCBD"/>
<path d="M55.008 62.2843L50.5291 69.9993H39.2589C38.0271 69.9993 37.0736 68.9209 37.2224 67.6979C38.0386 60.9872 43.8082 55.6316 50.5291 55.6603L55.008 62.2843Z" fill="#FFBB33"/>
<path d="M50.5312 69.9993H61.8014C63.0332 69.9993 63.9867 68.9209 63.838 67.6979C63.0217 60.9872 57.2521 55.6316 50.5312 55.6603V69.9993Z" fill="#FF9933"/>
<path d="M50.5309 43.2637L53.4274 49.3924L50.5309 55.6613C47.1303 55.6613 44.332 52.8631 44.332 49.4625C44.332 46.0619 47.1303 43.2637 50.5309 43.2637Z" fill="#E99A8B"/>
<path d="M56.7301 49.4625C56.7301 52.8576 53.9387 55.6549 50.5408 55.6613H50.5312V43.2637C53.9327 43.2648 56.7301 46.0638 56.7301 49.4625Z" fill="#D58678"/>
</svg>
