<svg width="68" height="68" viewBox="0 0 68 68" fill="none" xmlns="http://www.w3.org/2000/svg">
<path d="M67.5756 41.2566C67.3576 40.7423 67.0301 40.2818 66.6158 39.9071C66.2016 39.5323 65.7107 39.2524 65.1773 39.0868C64.6438 38.9212 64.0807 38.8739 63.5271 38.9482C62.9735 39.0225 62.4427 39.2166 61.9718 39.517C60.201 40.707 55.4246 44.0872 54.2253 44.937C54.0859 43.2532 52.6339 41.5464 50.9577 41.9292C48.3694 42.5237 46.2994 44.1884 40.3341 41.9063C31.8171 38.648 23.1732 43.0099 23.1732 43.0099C23.1732 43.0099 7.23507 49.6527 4.8064 50.6245C3.23258 51.2782 1.9262 52.4451 1.09971 53.9355C0.273218 55.4258 -0.0247686 57.152 0.254209 58.8331C0.521272 60.4316 0.98432 61.991 1.63288 63.4761C2.43338 65.2862 3.91506 66.7079 5.75672 67.4329C7.59837 68.1578 9.65156 68.1277 11.4712 67.3491L26.9324 60.7795C28.0318 60.3082 29.2402 60.1507 30.4237 60.3245C36.1538 61.1814 46.3279 59.2023 51.5812 56.0545C56.7272 52.9488 61.6553 49.4955 66.3309 45.7185C66.9924 45.2089 67.4711 44.4989 67.6954 43.6946C67.9198 42.8903 67.8778 42.035 67.5756 41.2566Z" fill="#FFCCBC"/>
<path d="M63.6029 7.03785C63.2429 6.68098 62.7564 6.48076 62.2494 6.48076C61.7425 6.48076 61.256 6.68098 60.8959 7.03785L57.8022 10.1315C57.4493 10.4917 57.2527 10.9767 57.2553 11.481C57.2578 11.9853 57.4593 12.4682 57.816 12.8248C58.1726 13.1814 58.6556 13.3828 59.1599 13.3853C59.6642 13.3877 60.1491 13.1911 60.5093 12.838L63.6029 9.74433C63.9598 9.38434 64.16 8.89797 64.16 8.39109C64.16 7.88421 63.9598 7.39784 63.6029 7.03785ZM63.6029 24.3486L60.5093 21.2566C60.1491 20.9035 59.6642 20.7069 59.1599 20.7093C58.6556 20.7118 58.1726 20.9132 57.816 21.2698C57.4593 21.6264 57.2578 22.1093 57.2553 22.6136C57.2527 23.1179 57.4493 23.6029 57.8022 23.9631L60.8959 27.0568C61.073 27.2374 61.2841 27.3812 61.5171 27.4798C61.75 27.5784 62.0002 27.6298 62.2532 27.6311C62.5062 27.6324 62.7569 27.5835 62.9908 27.4873C63.2248 27.3911 63.4374 27.2495 63.6163 27.0706C63.7952 26.8918 63.9368 26.6792 64.0331 26.4453C64.1293 26.2113 64.1782 25.9606 64.177 25.7077C64.1758 25.4547 64.1244 25.2045 64.0259 24.9715C63.9273 24.7385 63.7836 24.5274 63.6029 24.3503V24.3486ZM4.39607 7.03785C4.75616 6.68098 5.24262 6.48076 5.74959 6.48076C6.25656 6.48076 6.74301 6.68098 7.1031 7.03785L10.1968 10.1315C10.5498 10.4917 10.7463 10.9767 10.7438 11.481C10.7412 11.9853 10.5397 12.4682 10.183 12.8248C9.82639 13.1814 9.34342 13.3828 8.8391 13.3853C8.33478 13.3877 7.84987 13.1911 7.48974 12.838L4.39607 9.74269C4.03973 9.38277 3.83984 8.89675 3.83984 8.39027C3.83984 7.88379 4.03973 7.39777 4.39607 7.03785ZM4.39607 24.3486L7.48974 21.2566C7.84987 20.9035 8.33478 20.7069 8.8391 20.7093C9.34342 20.7118 9.82639 20.9132 10.183 21.2698C10.5397 21.6264 10.7412 22.1093 10.7438 22.6136C10.7463 23.1179 10.5498 23.6029 10.1968 23.9631L7.1031 27.0535C6.74298 27.4065 6.25806 27.6032 5.75374 27.6007C5.24942 27.5983 4.76646 27.3969 4.40981 27.0403C4.05316 26.6837 3.85165 26.2008 3.84908 25.6965C3.84651 25.1921 4.04308 24.7072 4.39607 24.347V24.3486ZM34.7072 32.275L42.0561 33.8446C42.5209 33.9434 43.0014 33.9435 43.4663 33.8447C43.9312 33.7459 44.3701 33.5504 44.7546 33.271C45.1391 32.9916 45.4605 32.6345 45.6981 32.2229C45.9357 31.8113 46.084 31.3543 46.1336 30.8816L46.9123 23.4075C46.9617 22.933 47.1108 22.4744 47.3498 22.0616L51.1129 15.5576C51.3506 15.1461 51.4992 14.6891 51.549 14.2164C51.5987 13.7437 51.5485 13.2659 51.4017 12.8138C51.2548 12.3618 51.0145 11.9457 50.6965 11.5925C50.3784 11.2393 49.9896 10.9569 49.5554 10.7637L42.6877 7.71379C42.2517 7.52017 41.8615 7.23673 41.5426 6.88199L36.5195 1.29566C36.2018 0.942001 35.8133 0.659167 35.3791 0.465552C34.945 0.271936 34.4749 0.171875 33.9995 0.171875C33.5241 0.171875 33.0541 0.271936 32.6199 0.465552C32.1857 0.659167 31.7972 0.942001 31.4795 1.29566L26.4565 6.88472C26.1375 7.23946 25.7473 7.5229 25.3113 7.71652L18.4436 10.7637C18.0094 10.9569 17.6206 11.2393 17.3026 11.5925C16.9845 11.9457 16.7442 12.3618 16.5974 12.8138C16.4505 13.2659 16.4003 13.7437 16.4501 14.2164C16.4998 14.6891 16.6484 15.1461 16.8861 15.5576L20.6492 22.0616C20.8882 22.4744 21.0373 22.933 21.0867 23.4075L21.8654 30.8816C21.915 31.3543 22.0634 31.8113 22.3009 32.2229C22.5385 32.6345 22.8599 32.9916 23.2444 33.271C23.6289 33.5504 24.0678 33.7459 24.5327 33.8447C24.9976 33.9435 25.4781 33.9434 25.9429 33.8446L33.2919 32.275C33.7584 32.1755 34.2406 32.1755 34.7072 32.275Z" fill="#FFC107"/>
<path d="M42.0717 7.35564L34.0015 18.4681V0.171892C34.477 0.170359 34.9474 0.269794 35.3817 0.463622C35.8159 0.65745 36.204 0.941255 36.5204 1.29627L41.5484 6.88095C41.7035 7.05929 41.8791 7.21863 42.0717 7.35564ZM20.9388 22.7108L34.0015 18.4681L23.2488 33.2715C22.8625 32.9937 22.5394 32.6372 22.3009 32.2255C22.0624 31.8137 21.9139 31.3561 21.8652 30.8828L21.0914 23.4108C21.067 23.1725 21.0158 22.9377 20.9388 22.7108ZM34.0015 18.4681L16.6016 12.8107C16.7473 12.3596 16.9866 11.9443 17.304 11.592C17.6213 11.2397 18.0094 10.9584 18.4429 10.7665L25.316 7.71713C25.5321 7.61644 25.7381 7.49539 25.9313 7.35564L34.0015 18.4681ZM44.7541 33.2715C44.3716 33.553 43.9336 33.7499 43.4691 33.8492C43.0047 33.9485 42.5244 33.9478 42.0602 33.8474L34.7075 32.2773C34.4755 32.2275 34.2388 32.2029 34.0015 32.204V18.4681L44.7541 33.2715ZM51.1132 15.5555L47.3518 22.0633C47.2331 22.269 47.1366 22.4868 47.0641 22.713L34.0015 18.4681L51.4014 12.8167C51.5497 13.2677 51.6006 13.7449 51.5509 14.217C51.5013 14.6891 51.3521 15.1453 51.1132 15.5555Z" fill="#FFA000"/>
<path d="M55.8793 45.2159C55.8766 44.7704 55.8141 44.3273 55.6933 43.8984C55.0486 44.3534 54.225 44.9375 54.225 44.9375C54.4919 47.096 51.297 48.9953 50.1338 49.5859C48.876 50.2252 44.7405 50.3882 43.0244 50.1328C42.8087 50.1046 42.5906 50.1633 42.4181 50.2959C42.2456 50.4285 42.1328 50.6242 42.1046 50.8399C42.0764 51.0557 42.135 51.2738 42.2676 51.4463C42.4002 51.6188 42.5959 51.7316 42.8117 51.7598C44.9948 52.0234 48.4926 52.0934 50.7961 51.086C50.8491 51.062 55.8678 48.8039 55.8793 45.2159Z" fill="#FFAB91"/>
</svg>
