<svg width="70" height="70" viewBox="0 0 70 70" fill="none" xmlns="http://www.w3.org/2000/svg">
<path d="M52.0961 30.4159L37.0458 56.2113H32.9448L17.8945 30.4159L19.4935 29.3088C22.7747 27.1352 24.7428 23.4854 24.7428 19.5484V18.7285H45.2473V19.5484C45.2473 23.4854 47.2159 27.1352 50.4972 29.3088L52.0961 30.4159Z" fill="#FFE6B3"/>
<path d="M52.0932 30.4159L37.043 56.2113H34.9922V18.7285H45.2445V19.5483C45.2445 23.4852 47.2131 27.1351 50.4943 29.3086L52.0932 30.4159Z" fill="#FFCA80"/>
<path d="M37.0445 37.182V56.2105L34.9938 59.6965L32.9437 56.2107V37.182H37.0445ZM20.6406 8.33875V20.7781H49.3472V8.33875H20.6406ZM32.9437 28.9801H37.0447V33.0812H32.9437V28.9801ZM24.7416 0.136719H28.8427V4.23773H24.7416V0.136719ZM32.9437 0.136719H37.0447V4.23773H32.9437V0.136719Z" fill="#FFCA80"/>
<path d="M41.1484 0.136719H45.2489V4.23773H41.1484V0.136719Z" fill="#FF9100"/>
<path d="M42.6647 64.4129C41.1474 65.315 35.2007 68.5139 34.9956 68.6367C34.586 68.3906 28.5981 65.1509 27.7778 64.6591C13.2605 56.3754 7.23214 45.9585 8.21638 30.9082L12.3174 31.1539C11.4153 44.6464 16.6646 53.5864 29.7875 61.1322C31.8377 62.2804 33.7657 63.2646 34.9956 63.9616C36.4722 63.1418 38.3586 62.1982 40.6139 60.886C49.6363 55.6368 58.7404 48.0093 57.715 31.2773L61.7749 31.0311C63.0053 50.1006 52.2196 58.8769 42.6647 64.4129Z" fill="#FFE6B3"/>
<path d="M42.6652 64.413C41.1479 65.3151 35.2012 68.5141 34.9961 68.6368V63.9617C36.4727 63.142 38.3591 62.1983 40.6144 60.8861C49.6368 55.6369 58.7409 48.0094 57.7155 31.2775L61.7753 31.0312C63.0058 50.1008 52.2201 58.877 42.6652 64.413Z" fill="#FFCA80"/>
<path d="M22.6922 70.1262C21.0766 70.1262 17.2185 69.8917 11.7365 63.8382C15.4621 59.7244 18.8267 57.6869 22.6922 57.6869C24.3076 57.6869 28.165 57.7846 33.6472 63.8382C29.9216 67.9521 26.5576 70.1262 22.6922 70.1262ZM5.58359 52.4746C4.26016 51.5478 1.01678 49.2558 0 41.1528C5.4116 39.9171 9.46996 40.1788 12.638 42.394C13.9608 43.3211 17.0652 45.6128 18.0821 53.7161C17.6549 53.7556 10.8296 56.1445 5.58359 52.4746ZM11.3285 36.8576C6.02738 35.2218 2.62063 33.0343 0.98752 29.5309C0.304883 28.0666 -1.23689 24.5283 1.93225 17.002C7.23324 18.6377 10.64 20.8252 12.2732 24.3287C12.9557 25.793 14.4977 29.3312 11.3285 36.8576Z" fill="#FFE6B3"/>
<path d="M47.3029 70.1262C45.6873 70.1262 41.8298 69.8917 36.3477 63.8382C40.0732 59.7244 43.4373 57.6869 47.3029 57.6869C48.9184 57.6869 52.7765 57.7846 58.2585 63.8382C54.5329 67.9521 51.1684 70.1262 47.3029 70.1262ZM51.9086 53.7163C52.5997 48.2122 54.1852 44.6127 57.3512 42.3942C58.6762 41.4702 62.1438 39.3672 69.9913 41.153C69.2985 46.6582 67.7119 50.2566 64.5466 52.4745C59.348 56.1083 52.3226 53.7547 51.9086 53.7163ZM58.6666 36.8576C56.5127 31.7419 56.0892 27.8325 57.7219 24.3287C58.4044 22.8642 60.2591 19.41 68.0627 17.002C70.2166 22.1176 70.6401 26.0269 69.0074 29.5309C68.3255 30.9947 66.4708 34.4496 58.6666 36.8576Z" fill="#FFCA80"/>
<path d="M34.9961 0.136719H37.0469V4.23773H34.9961V0.136719ZM34.9961 28.9801H37.0469V33.0812H34.9961V28.9801ZM37.0469 56.2105L34.9961 59.6965V37.182H37.0469V56.2105ZM34.9961 8.33875H49.3495V20.7781H34.9962L34.9961 8.33875Z" fill="#FF9100"/>
</svg>
