<svg width="16" height="16" viewBox="0 0 16 16" fill="none" xmlns="http://www.w3.org/2000/svg">
<rect width="16" height="16" rx="8" fill="#FDDFE8"/>
<path d="M5.41752 8.44449C3.82207 5.62305 7.18171 4.3059 9.06096 4C8.96124 4.17274 9.2751 5.30156 9.44449 5.84437C6.24593 6.34101 5.42711 7.78472 5.41752 8.44449Z" fill="#09DBB8"/>
<path d="M10.8469 7.55551C12.2828 10.377 9.25912 11.6941 7.56779 12C7.65754 11.8273 7.37507 10.6984 7.22261 10.1556C10.1013 9.65899 10.8383 8.21528 10.8469 7.55551Z" fill="#FF3B83"/>
<path d="M6.51618 7.38748C7.74804 7.57592 9.87171 7.2819 10.7796 7.11133C10.1155 7.66364 10.1444 8.38652 10.1444 8.47586C7.51129 9.09315 6.21142 8.88468 5.89062 8.70329C6.28328 8.24844 6.47127 7.63657 6.51618 7.38748Z" fill="#B30499"/>
<circle cx="10.5573" cy="4.66667" r="0.666674" fill="#FFB300"/>
<circle cx="5.66667" cy="10.444" r="0.666674" fill="#00CCFF"/>
<circle cx="11.6671" cy="5.33312" r="0.444449" fill="#FF3B83"/>
<circle cx="5.22222" cy="11.7769" r="0.222225" fill="#09DBB8"/>
<circle cx="6.33507" cy="11.5558" r="0.444449" fill="#FFB300"/>
<circle cx="10.7765" cy="6.22179" r="0.444449" fill="#00CCFF"/>
</svg>
