<svg width="24" height="24" viewBox="0 0 24 24" fill="none" xmlns="http://www.w3.org/2000/svg">
<g clip-path="url(#clip0_1767_18556)">
<path d="M23.794 16.0678L21.52 13.7936L16.8158 18.4978C15.9761 19.3375 14.9222 19.885 13.7774 20.0899L16.7746 23.0871C17.0491 23.3618 17.4945 23.3618 17.7689 23.0871L23.794 17.0623C24.0687 16.7876 24.0687 16.3423 23.794 16.0678ZM20.5937 12.7312C21.3863 11.9388 21.3865 10.6491 20.5948 9.85612L20.592 9.8534C20.3997 9.66054 20.1704 9.50835 19.918 9.40588C20.1341 8.85932 20.1797 7.93499 19.4639 7.21907C19.4621 7.2172 19.4602 7.21518 19.4583 7.21335C19.2667 7.02244 19.0389 6.87169 18.7882 6.76991C19.0043 6.22368 19.0501 5.29916 18.3347 4.58362L18.3334 4.58235C18.1373 4.38623 17.9083 4.23501 17.6587 4.13409C17.8748 3.58752 17.9204 2.66301 17.2046 1.94709C17.2044 1.94709 17.2044 1.9469 17.2042 1.9469L17.2037 1.94634C16.4107 1.1533 15.1205 1.1533 14.3274 1.94634L12.9943 3.27937L13.676 3.96107C14.8119 5.09704 14.8119 6.94532 13.6762 8.08129C13.2938 8.46341 12.8242 8.72601 12.3122 8.85107C12.186 9.36672 11.9205 9.83774 11.5446 10.2126C11.1629 10.5944 10.6939 10.8568 10.1825 10.9821C10.0575 11.4933 9.79486 11.9624 9.4133 12.344C9.0315 12.7258 8.56256 12.9882 8.05111 13.1134C7.92609 13.6246 7.6635 14.0938 7.28189 14.4755C6.73167 15.0256 6 15.3288 5.22178 15.3288C4.44361 15.3288 3.71194 15.0257 3.16167 14.4753L2.47997 13.7936L0.206016 16.0678C-0.0686719 16.3425 -0.0686719 16.7876 0.206016 17.0623L6.23086 23.0871C6.50555 23.3618 6.95067 23.3616 7.22536 23.0871L11.5382 18.7745H12.7533C13.9124 18.7745 15.002 18.3229 15.8216 17.5035L20.5937 12.7312Z" fill="white"/>
<path d="M4.15756 13.4817C4.74607 14.0703 5.7004 14.0703 6.28892 13.4817C6.87757 12.8932 6.87757 11.939 6.28892 11.3503C6.87757 11.939 7.83176 11.939 8.42042 11.3503C9.00893 10.7618 9.00893 9.80748 8.42042 9.21897C9.00893 9.80748 9.96331 9.80748 10.5518 9.21897C11.1403 8.63045 11.1403 7.67612 10.5518 7.08761C11.1403 7.67612 12.0946 7.67612 12.6831 7.08761C13.2718 6.49895 13.2718 5.54476 12.6831 4.95606L9.67798 1.95095C9.08951 1.36244 8.13518 1.36244 7.54667 1.95095C6.95815 2.53947 6.95815 3.49379 7.54667 4.08231L7.92312 4.45895C7.33461 3.87025 6.38028 3.87025 5.79176 4.45895C5.20329 5.04747 5.20329 6.00179 5.79176 6.59031L6.5449 7.3434C5.95639 6.75489 5.00206 6.75489 4.41354 7.3434C3.82484 7.93192 3.82484 8.88625 4.41354 9.47476L5.16664 10.228C4.57798 9.63939 3.62379 9.63939 3.03514 10.228C2.44662 10.8166 2.44662 11.7707 3.03514 12.3594L4.15756 13.4817ZM13.3345 0.952467C13.4378 0.849559 13.5475 0.753245 13.6629 0.664092L13.2517 0.252857C13.1473 0.14852 13.0128 0.0796432 12.8672 0.0559788C12.7215 0.0323143 12.5721 0.0550608 12.4401 0.120998L10.7047 0.988748L12.0014 2.28569L13.3345 0.952467Z" fill="white"/>
</g>
<defs>
<clipPath id="clip0_1767_18556">
<rect width="24" height="24" fill="white"/>
</clipPath>
</defs>
</svg>
