<svg width="1262" height="133" viewBox="0 0 1262 133" fill="none" xmlns="http://www.w3.org/2000/svg">
<path fill-rule="evenodd" clip-rule="evenodd" d="M0 50.3729V78.4517C0 108.275 24.1766 132.452 54 132.452H89.7379C111.907 132.452 130.047 113.983 130.047 91.4123C130.047 68.8417 111.909 50.371 89.7379 50.371C84.6999 50.371 80.6159 46.2869 80.6159 41.249V41.0824C80.6159 18.5098 62.4765 0.0429688 40.307 0.0429688C18.1375 0.0429688 0 18.5118 0 41.0824V50.371V50.3729Z" fill="#F9CED0"/>
<path fill-rule="evenodd" clip-rule="evenodd" d="M287.178 50.3729V132.452H197.44C175.27 132.452 157.133 113.983 157.133 91.4123C157.133 68.8417 175.27 50.371 197.44 50.371H206.562V41.0824C206.562 18.5098 224.701 0.0429688 246.871 0.0429688C269.04 0.0429688 287.178 18.5118 287.178 41.0824V50.371V50.3729Z" fill="#F9CED0"/>
<path fill-rule="evenodd" clip-rule="evenodd" d="M319.938 50.3729V132.452H409.675C431.845 132.452 449.982 113.983 449.982 91.4123C449.982 68.8417 431.845 50.371 409.675 50.371H400.553V41.0824C400.553 18.5098 382.414 0.0429688 360.246 0.0429688C338.079 0.0429688 319.938 18.5118 319.938 41.0824V50.371V50.3729Z" fill="#F9CED0"/>
<path fill-rule="evenodd" clip-rule="evenodd" d="M612.113 50.3729V132.452H522.375C500.204 132.452 482.066 113.983 482.066 91.4123C482.066 68.8417 500.204 50.371 522.375 50.371H531.497V41.0824C531.497 18.5098 549.637 0.0429688 571.804 0.0429688C593.972 0.0429688 612.113 18.5118 612.113 41.0824V50.371V50.3729Z" fill="#F9CED0"/>
<path fill-rule="evenodd" clip-rule="evenodd" d="M644.883 50.3729V132.452H734.621C756.792 132.452 774.93 113.983 774.93 91.4123C774.93 68.8417 756.792 50.371 734.621 50.371H725.499V41.0824C725.499 18.5098 707.359 0.0429688 685.192 0.0429688C663.024 0.0429688 644.883 18.5118 644.883 41.0824V50.371V50.3729Z" fill="#F9CED0"/>
<path fill-rule="evenodd" clip-rule="evenodd" d="M937.057 50.3729V132.452H847.319C825.149 132.452 807.012 113.983 807.012 91.4123C807.012 68.8417 825.149 50.371 847.319 50.371H856.441V41.0824C856.441 18.5098 874.58 0.0429688 896.75 0.0429688C918.919 0.0429688 937.057 18.5118 937.057 41.0824V50.371V50.3729Z" fill="#F9CED0"/>
<path fill-rule="evenodd" clip-rule="evenodd" d="M969.82 50.3729V132.452H1059.56C1081.73 132.452 1099.87 113.983 1099.87 91.4123C1099.87 68.8417 1081.73 50.371 1059.56 50.371H1050.44V41.0824C1050.44 18.5098 1032.3 0.0429688 1010.13 0.0429688C987.958 0.0429688 969.82 18.5118 969.82 41.0824V50.371V50.3729Z" fill="#F9CED0"/>
<path fill-rule="evenodd" clip-rule="evenodd" d="M1262 50.3729V72.4517C1262 105.589 1235.14 132.452 1202 132.452H1172.26C1150.09 132.452 1131.95 113.983 1131.95 91.4123C1131.95 68.8417 1150.09 50.371 1172.26 50.371C1177.3 50.371 1181.38 46.287 1181.38 41.2491V41.0824C1181.38 18.5098 1199.52 0.0429688 1221.69 0.0429688C1243.86 0.0429688 1262 18.5118 1262 41.0824V50.371V50.3729Z" fill="#F9CED0"/>
</svg>
