<svg width="24" height="24" viewBox="0 0 24 24" fill="none" xmlns="http://www.w3.org/2000/svg">
<path d="M23.6139 12.8731C23.651 13.7592 23.3351 14.6238 22.7355 15.2773C22.136 15.9307 21.3017 16.3197 20.4157 16.3588C20.3639 16.3612 20.3121 16.3624 20.2605 16.3624C20.0251 16.3622 19.7904 16.3367 19.5604 16.2864C18.8781 17.3399 17.9834 18.2394 16.9336 18.9273C15.8837 19.6153 14.7018 20.0765 13.4635 20.2815C13.3171 20.7118 13.0249 21.0774 12.6375 21.3151C12.25 21.5528 11.7917 21.6477 11.3418 21.5833C10.8918 21.519 10.4785 21.2994 10.1733 20.9626C9.86803 20.6259 9.69004 20.193 9.67008 19.7389C9.65012 19.2848 9.78943 18.838 10.0639 18.4758C10.3385 18.1135 10.7309 17.8585 11.1735 17.7549C11.6161 17.6513 12.0809 17.7056 12.4877 17.9084C12.8945 18.1112 13.2176 18.4497 13.4013 18.8655C15.1447 18.5431 16.7196 17.6191 17.8516 16.2547C18.9837 14.8902 19.601 13.1717 19.5961 11.3988C19.5961 7.21031 16.1885 3.80273 12 3.80273C7.81145 3.80273 4.40387 7.21031 4.40387 11.3988C4.40364 12.694 4.73465 13.9677 5.36542 15.0989C5.3868 15.1362 5.40284 15.1763 5.41309 15.2181C5.47402 15.3875 5.4675 15.5737 5.3949 15.7384C5.32229 15.9031 5.18916 16.0335 5.02304 16.1028C4.61629 16.274 4.17941 16.3621 3.7381 16.362C3.68617 16.362 3.63412 16.3608 3.58196 16.3584C2.69635 16.3188 1.86257 15.9297 1.26345 15.2763C0.664339 14.6229 0.348783 13.7585 0.38598 12.8728C0.400933 12.5196 0.392589 12.2045 0.384433 11.8997C0.376839 11.6128 0.368917 11.3161 0.381948 11.0065C0.420839 10.1417 0.792852 9.32544 1.42007 8.72876C2.04728 8.13208 2.88105 7.80124 3.74673 7.80553C5.13685 4.62497 8.31278 2.39648 12 2.39648C15.6872 2.39648 18.8631 4.62497 20.2532 7.80558C21.119 7.80064 21.953 8.1312 22.5804 8.72789C23.2077 9.32458 23.5796 10.141 23.6179 11.006C23.631 11.316 23.6231 11.6127 23.6154 11.8996C23.6074 12.2044 23.599 12.5197 23.6139 12.8731ZM17.8971 11.3988C17.8967 12.3023 17.6889 13.1936 17.2896 14.004C16.8903 14.8144 16.3102 15.5223 15.594 16.073C14.8779 16.6238 14.0448 17.0027 13.159 17.1805C12.2733 17.3584 11.3585 17.3304 10.4852 17.0988L8.09832 18.4773C7.97789 18.5468 7.83953 18.5791 7.70075 18.57C7.56197 18.5609 7.42901 18.5109 7.31867 18.4262C7.20833 18.3416 7.12558 18.2261 7.08088 18.0944C7.03618 17.9627 7.03154 17.8207 7.06754 17.6864L7.67757 15.4107C6.66733 14.3187 6.10522 12.8864 6.10309 11.3988C6.10309 8.14627 8.74829 5.50036 12 5.50036C15.2516 5.50036 17.8971 8.14627 17.8971 11.3988ZM10.3605 11.3988C10.3605 11.2123 10.2864 11.0335 10.1546 10.9016C10.0227 10.7698 9.84387 10.6957 9.65739 10.6957H9.65621C9.51721 10.696 9.38139 10.7374 9.26594 10.8148C9.15048 10.8923 9.06056 11.0022 9.00755 11.1307C8.95453 11.2592 8.94079 11.4005 8.96807 11.5368C8.99535 11.6731 9.06242 11.7983 9.16081 11.8965C9.25919 11.9947 9.38448 12.0615 9.52084 12.0885C9.65719 12.1156 9.7985 12.1016 9.9269 12.0483C10.0553 11.995 10.165 11.9049 10.2422 11.7893C10.3194 11.6737 10.3607 11.5378 10.3607 11.3988H10.3605ZM12.7032 11.3988C12.7032 11.3758 12.7019 11.3528 12.6995 11.3299C12.6973 11.3069 12.6938 11.2841 12.6892 11.2615C12.685 11.239 12.6794 11.2167 12.6723 11.1949C12.6658 11.1729 12.6578 11.1513 12.6494 11.1298C12.6409 11.1082 12.6306 11.088 12.6198 11.0679C12.6091 11.0476 12.5974 11.0279 12.5847 11.0088C12.5719 10.9895 12.5581 10.9709 12.5434 10.953C12.5289 10.9351 12.5135 10.9181 12.497 10.902C12.4811 10.8855 12.4637 10.8701 12.4459 10.8551C12.4281 10.841 12.4093 10.827 12.3901 10.8143C12.371 10.8016 12.3513 10.7899 12.3311 10.7791C12.3109 10.7684 12.2898 10.7585 12.2687 10.7496C12.2476 10.7408 12.226 10.7331 12.2041 10.7266C12.1602 10.7126 12.1149 10.7034 12.0691 10.6995C12.0002 10.6928 11.9307 10.6961 11.8628 10.7093C11.8402 10.7139 11.8178 10.7197 11.7958 10.7266C11.7739 10.7331 11.7523 10.7408 11.7311 10.7496C11.71 10.7585 11.6889 10.7684 11.6688 10.7791C11.6486 10.7899 11.6289 10.8016 11.6097 10.8143C11.5712 10.8398 11.5354 10.8692 11.5029 10.902C11.4864 10.9181 11.4709 10.9351 11.4564 10.953C11.4419 10.9709 11.4283 10.9896 11.4157 11.0088C11.4028 11.0279 11.3909 11.0476 11.38 11.0679C11.3692 11.088 11.3595 11.1086 11.3509 11.1298C11.342 11.1511 11.3342 11.1728 11.3275 11.1949C11.321 11.2165 11.3154 11.239 11.3107 11.2615C11.306 11.2841 11.3026 11.3069 11.3003 11.3299C11.298 11.3529 11.297 11.3759 11.297 11.3988C11.297 11.4218 11.298 11.4452 11.3003 11.4682C11.3026 11.491 11.3061 11.5137 11.3107 11.5362C11.3154 11.5587 11.321 11.5812 11.3275 11.6032C11.3342 11.6251 11.342 11.6467 11.3509 11.6679C11.3595 11.6892 11.3692 11.71 11.38 11.7302C11.3908 11.7504 11.403 11.7701 11.4157 11.7893C11.4283 11.8084 11.4419 11.8269 11.4564 11.8446C11.471 11.8626 11.4865 11.8798 11.5029 11.8962C11.5193 11.9121 11.5361 11.928 11.5544 11.9426C11.572 11.9572 11.5905 11.9708 11.6097 11.9834C11.6289 11.996 11.6486 12.0082 11.6688 12.019C11.7095 12.0402 11.752 12.0578 11.7958 12.0715C11.8178 12.078 11.8403 12.0837 11.8628 12.0884C11.908 12.0976 11.954 12.1022 12.0002 12.102C12.1864 12.1015 12.365 12.0275 12.497 11.8962C12.5294 11.8633 12.5588 11.8275 12.5847 11.7893C12.5973 11.7701 12.6091 11.7504 12.6198 11.7302C12.6306 11.7101 12.6405 11.689 12.6494 11.6679C12.6583 11.6468 12.6658 11.6248 12.6723 11.6032C12.6793 11.5812 12.685 11.5588 12.6892 11.5362C12.6938 11.5137 12.6972 11.491 12.6995 11.4682C12.7019 11.4451 12.7031 11.4219 12.7031 11.3987L12.7032 11.3988ZM15.047 11.3988C15.047 11.2123 14.9729 11.0335 14.841 10.9016C14.7092 10.7698 14.5303 10.6957 14.3439 10.6957H14.3425C14.2035 10.696 14.0677 10.7374 13.9522 10.8149C13.8368 10.8923 13.7469 11.0022 13.6939 11.1307C13.6409 11.2592 13.6271 11.4005 13.6544 11.5368C13.6817 11.6731 13.7488 11.7983 13.8472 11.8965C13.9455 11.9947 14.0708 12.0615 14.2072 12.0885C14.3435 12.1156 14.4848 12.1016 14.6132 12.0483C14.7416 11.995 14.8514 11.9049 14.9286 11.7893C15.0058 11.6737 15.047 11.5378 15.047 11.3988Z" fill="white"/>
</svg>
