<svg width="30" height="30" viewBox="0 0 30 30" fill="none" xmlns="http://www.w3.org/2000/svg">
<path d="M21.6109 0H6.10034C5.43762 0 4.90039 0.537228 4.90039 1.20002V28.8C4.90039 29.4627 5.43762 30 6.10041 30H25.7003C26.363 30 26.9003 29.4628 26.9003 28.8V5.28944L21.6109 0Z" fill="#E1E6E9"/>
<path d="M26.8996 16.5332H3.09961V24.7524H26.8996V16.5332Z" fill="#27A2DB"/>
<path d="M11.706 18.8166C12.1908 19.2554 12.4326 19.8657 12.4326 20.6477C12.4326 21.4293 12.1978 22.0481 11.7277 22.5036C11.2575 22.9594 10.538 23.1872 9.5696 23.1872H7.90039V18.1582H9.627C10.5286 18.1582 11.2218 18.3777 11.706 18.8166ZM11.5766 20.669C11.5766 19.5179 10.9173 18.9424 9.5983 18.9424H8.74935V22.3885H9.69196C10.3009 22.3885 10.7675 22.2436 11.0913 21.9532C11.415 21.6632 11.5766 21.2352 11.5766 20.669Z" fill="#EBF0F3"/>
<path d="M17.7353 22.4937C17.2271 22.9902 16.5989 23.2385 15.8506 23.2385C15.1024 23.2385 14.4742 22.9902 13.966 22.4937C13.4572 21.9976 13.2031 21.3787 13.2031 20.6378C13.2031 19.8966 13.4572 19.278 13.966 18.7815C14.4742 18.285 15.1024 18.0371 15.8506 18.0371C16.5989 18.0371 17.2271 18.285 17.7353 18.7815C18.2441 19.278 18.4981 19.8966 18.4981 20.6378C18.4981 21.3787 18.2441 21.9975 17.7353 22.4937ZM17.1135 19.3462C16.7704 18.9914 16.3494 18.8141 15.8506 18.8141C15.3518 18.8141 14.9308 18.9914 14.5878 19.3462C14.2453 19.7013 14.0737 20.1316 14.0737 20.6378C14.0737 21.1439 14.2453 21.5743 14.5878 21.929C14.9309 22.2841 15.3518 22.4615 15.8506 22.4615C16.3495 22.4615 16.7704 22.2841 17.1135 21.929C17.456 21.5743 17.6275 21.1439 17.6275 20.6378C17.6275 20.1317 17.456 19.7013 17.1135 19.3462Z" fill="#EBF0F3"/>
<path d="M21.865 22.4182C22.1571 22.4182 22.4089 22.3693 22.6203 22.271C22.831 22.1727 23.0518 22.0155 23.2824 21.7997L23.8287 22.3609C23.2964 22.9508 22.6501 23.2458 21.8901 23.2458C21.1296 23.2458 20.499 23.0011 19.9979 22.5119C19.4967 22.0228 19.2461 21.4039 19.2461 20.6557C19.2461 19.9074 19.5014 19.2841 20.0125 18.785C20.523 18.2865 21.1682 18.0371 21.9475 18.0371C22.7267 18.0371 23.3778 18.3249 23.9006 18.9004L23.3614 19.4903C23.1214 19.2602 22.8948 19.0995 22.6811 19.0082C22.4679 18.9171 22.2174 18.8715 21.9293 18.8715C21.4211 18.8715 20.9943 19.036 20.6489 19.3644C20.3034 19.6929 20.1307 20.1127 20.1307 20.6235C20.1307 21.1343 20.3023 21.5611 20.6453 21.9039C20.9885 22.247 21.3948 22.4182 21.865 22.4182Z" fill="#EBF0F3"/>
<path d="M3.09961 24.752L4.89964 26.4257V24.752H3.09961Z" fill="#2D93BA"/>
<path d="M21.6114 5.28944H26.9008L21.6113 0L21.6114 5.28944Z" fill="#EBF0F3"/>
<path d="M22.6289 5.28906L26.9007 7.76751V5.28906H22.6289Z" fill="#D5D6DB"/>
</svg>
