<svg width="32" height="42" viewBox="0 0 32 42" fill="none" xmlns="http://www.w3.org/2000/svg">
<path d="M0 26C0 34.8366 7.16344 42 16 42C24.8366 42 32 34.8366 32 26C32 17.1634 24.8366 10 16 10C7.16344 10 0 17.1634 0 26Z" fill="#1877F2"/>
<path d="M24 26C24 21.6 20.4 18 16 18C11.6 18 8 21.6 8 26C8 30 10.9 33.3 14.7 33.9V28.3H12.7V26H14.7V24.2C14.7 22.2 15.9 21.1 17.7 21.1C18.6 21.1 19.5 21.3 19.5 21.3V23.3H18.5C17.5 23.3 17.2 23.9 17.2 24.5V26H19.4L19 28.3H17.1V34C21.1 33.4 24 30 24 26Z" fill="white"/>
</svg>
