<svg width="1466" height="456" viewBox="0 0 1466 456" fill="none" xmlns="http://www.w3.org/2000/svg">
<g filter="url(#filter0_d_1_17)">
<path opacity="0.39" d="M169.313 60.7486C137.549 70.5664 60.2795 83.0326 5.31783 54.3548" stroke="black" stroke-width="2" stroke-dasharray="10 10"/>
<path opacity="0.39" d="M132 43.9793C136.011 63.0666 164.789 82.0994 247.814 5.53195C266.698 1.98717 300.256 14.5303 283.41 93.0609C278.898 108.876 261.15 138.542 226.255 130.689C207.872 134.779 170.504 153.266 168.098 194.495C166.761 211.673 174.816 248.158 217.732 256.665C230.099 254.484 259.546 264.027 278.397 319.653C283.745 342.013 287.622 390.985 260.348 408C248.817 409.636 224.15 410.454 217.732 400.638" stroke="black" stroke-width="2" stroke-dasharray="9 9"/>
<path d="M177.812 272.667C165.838 261.718 162.014 218.153 161.599 197.739C163.928 194.847 170.377 189.142 173.715 191C185.118 192.487 220.443 204.215 237.524 210.981C237.496 210.959 237.468 210.937 237.44 210.915C231.171 206.054 235.172 209.048 237.956 211.152C237.813 211.096 237.669 211.038 237.524 210.981C243.702 215.815 243.017 220.09 241.895 221.629C237.949 230.217 197.529 259.232 177.812 272.667Z" fill="#09DBB8"/>
<path d="M155 409.459C160.011 394.194 198.464 372.792 217.065 364C220.709 364.898 225.416 369.612 227.314 371.857C232.734 381.651 235.99 419.476 236.969 437.622C236.978 437.588 236.986 437.554 236.994 437.52C238.816 429.888 237.753 434.714 236.994 438.081C236.986 437.93 236.978 437.777 236.969 437.622C235.134 445.163 230.912 446.311 229.022 445.939C219.456 445.939 175.688 421.619 155 409.459Z" fill="#B30499"/>
<path d="M113.177 58.2394C115.656 42.205 149.803 14.8827 166.567 3.2258C170.265 3.56207 175.602 7.55016 177.809 9.50216C184.644 18.4592 193.793 55.775 197.613 73.7668C197.616 73.7317 197.619 73.6965 197.621 73.6612C198.194 65.7493 197.919 70.7386 197.71 74.2223C197.678 74.0719 197.646 73.92 197.613 73.7668C197.013 81.5893 193.074 83.3875 191.171 83.3062C181.836 84.7802 135.285 67.2092 113.177 58.2394Z" fill="#FF3B83"/>
<path opacity="0.39" d="M1280 370.5C1317 398 1405 451.6 1461 446" stroke="black" stroke-width="2" stroke-dasharray="10 10"/>
<path opacity="0.39" d="M1351 40.0235C1346.99 57.1737 1318.21 74.2749 1235.19 5.47797C1216.3 2.29292 1182.74 13.5631 1199.59 84.1241C1204.1 98.3338 1221.85 124.989 1256.74 117.933C1275.13 121.608 1312.5 138.219 1314.9 175.264C1316.24 190.699 1308.18 223.481 1265.27 231.125C1252.9 229.165 1223.45 237.74 1204.6 287.721C1199.26 307.811 1195.38 351.813 1222.65 367.102C1234.18 368.572 1258.85 369.307 1265.27 360.487" stroke="black" stroke-width="2" stroke-dasharray="9 9"/>
<path d="M1369.82 58.2394C1367.34 42.205 1333.2 14.8827 1316.43 3.2258C1312.74 3.56207 1307.4 7.55016 1305.19 9.50216C1298.36 18.4592 1289.21 55.775 1285.39 73.7668C1285.38 73.7317 1285.38 73.6965 1285.38 73.6612C1284.81 65.7493 1285.08 70.7386 1285.29 74.2223C1285.32 74.0719 1285.35 73.92 1285.39 73.7668C1285.99 81.5893 1289.93 83.3875 1291.83 83.3062C1301.16 84.7802 1347.72 67.2092 1369.82 58.2394Z" fill="#FFB300"/>
<path d="M1312.64 244.542C1310.22 228.497 1276.19 201.035 1259.47 189.31C1255.77 189.631 1250.42 193.597 1248.21 195.54C1241.33 204.469 1232.03 241.747 1228.14 259.723C1228.14 259.688 1228.13 259.653 1228.13 259.618C1227.59 251.703 1227.84 256.694 1228.04 260.178C1228.07 260.028 1228.1 259.876 1228.14 259.723C1228.71 267.548 1232.64 269.362 1234.54 269.289C1243.87 270.801 1290.49 253.421 1312.64 244.542Z" fill="#B30499"/>
<path d="M1328 372.459C1322.99 357.194 1284.54 335.792 1265.94 327C1262.29 327.898 1257.58 332.612 1255.69 334.857C1250.27 344.651 1247.01 382.476 1246.03 400.622C1246.02 400.588 1246.01 400.554 1246.01 400.52C1244.18 392.888 1245.25 397.714 1246.01 401.081C1246.01 400.93 1246.02 400.777 1246.03 400.622C1247.87 408.163 1252.09 409.311 1253.98 408.939C1263.54 408.939 1307.31 384.619 1328 372.459Z" fill="#00CCFF"/>
</g>
<defs>
<filter id="filter0_d_1_17" x="0.855225" y="3.2258" width="1464.24" height="452.114" filterUnits="userSpaceOnUse" color-interpolation-filters="sRGB">
<feFlood flood-opacity="0" result="BackgroundImageFix"/>
<feColorMatrix in="SourceAlpha" type="matrix" values="0 0 0 0 0 0 0 0 0 0 0 0 0 0 0 0 0 0 127 0" result="hardAlpha"/>
<feOffset dy="4"/>
<feGaussianBlur stdDeviation="2"/>
<feComposite in2="hardAlpha" operator="out"/>
<feColorMatrix type="matrix" values="0 0 0 0 0 0 0 0 0 0 0 0 0 0 0 0 0 0 0.25 0"/>
<feBlend mode="normal" in2="BackgroundImageFix" result="effect1_dropShadow_1_17"/>
<feBlend mode="normal" in="SourceGraphic" in2="effect1_dropShadow_1_17" result="shape"/>
</filter>
</defs>
</svg>
