<svg width="1231" height="525" viewBox="0 0 1231 525" fill="none" xmlns="http://www.w3.org/2000/svg">
<path d="M47.0012 524.001C78.5143 476.536 160.856 377.992 238.116 363.536C277.665 350.287 356.565 331.634 355.777 363.012C352.028 379.357 330.093 414.882 272.345 426.222C245.964 427.071 203.421 414.081 244.301 355.336C270.472 330.12 333.006 275.657 373.773 259.529" stroke="#FF3B83" stroke-opacity="0.9" stroke-dasharray="4 4"/>
<path d="M931 219C965.973 162.567 1050.34 56.196 1108.05 82.1705C1139.2 86.0354 1199.2 106.289 1190.02 156.383C1182.91 180.347 1157.89 223.638 1114.61 205.085C1096.03 189.624 1070.02 141.54 1114.61 72.8935C1139.74 48.929 1198.21 1 1231 1" stroke="#FF3B83" stroke-opacity="0.8" stroke-dasharray="4 4"/>
</svg>
