<svg width="24" height="24" viewBox="0 0 24 24" fill="none" xmlns="http://www.w3.org/2000/svg">
<path fill-rule="evenodd" clip-rule="evenodd" d="M16.558 2.801L16.439 2.447C16.3229 2.09851 16.1002 1.79538 15.8022 1.58055C15.5043 1.36571 15.1463 1.25007 14.779 1.25H9.221C8.85369 1.25007 8.49571 1.36571 8.19778 1.58055C7.89985 1.79538 7.67707 2.09851 7.561 2.447L7.442 2.801C7.31488 3.1835 7.25005 3.58393 7.25 3.987V4C7.25 4.464 7.434 4.909 7.763 5.237C8.091 5.566 8.536 5.75 9 5.75H15C15.464 5.75 15.909 5.566 16.237 5.237C16.566 4.909 16.75 4.464 16.75 4V3.987C16.75 3.584 16.685 3.183 16.558 2.801Z" fill="white"/>
<path fill-rule="evenodd" clip-rule="evenodd" d="M17.549 2.75L17.75 3.987V4.009C17.7471 4.73662 17.4561 5.43348 16.9408 5.94715C16.4254 6.46081 15.7276 6.74948 15 6.75H9C8.271 6.75 7.571 6.46 7.055 5.945C6.5398 5.42878 6.25031 4.72933 6.25 4V3.987C6.25 3.569 6.305 3.153 6.414 2.75H6C5.27065 2.75 4.57118 3.03973 4.05546 3.55546C3.53973 4.07118 3.25 4.77065 3.25 5.5V20C3.25 20.7293 3.53973 21.4288 4.05546 21.9445C4.57118 22.4603 5.27065 22.75 6 22.75H18C18.7293 22.75 19.4288 22.4603 19.9445 21.9445C20.4603 21.4288 20.75 20.7293 20.75 20V5.5C20.75 4.77065 20.4603 4.07118 19.9445 3.55546C19.4288 3.03973 18.7293 2.75 18 2.75H17.549ZM7.5 18.5H16.5C16.6989 18.5 16.8897 18.421 17.0303 18.2803C17.171 18.1397 17.25 17.9489 17.25 17.75C17.25 17.5511 17.171 17.3603 17.0303 17.2197C16.8897 17.079 16.6989 17 16.5 17H7.5C7.30109 17 7.11032 17.079 6.96967 17.2197C6.82902 17.3603 6.75 17.5511 6.75 17.75C6.75 17.9489 6.82902 18.1397 6.96967 18.2803C7.11032 18.421 7.30109 18.5 7.5 18.5ZM7.5 14.75H16.5C16.6989 14.75 16.8897 14.671 17.0303 14.5303C17.171 14.3897 17.25 14.1989 17.25 14C17.25 13.8011 17.171 13.6103 17.0303 13.4697C16.8897 13.329 16.6989 13.25 16.5 13.25H7.5C7.30109 13.25 7.11032 13.329 6.96967 13.4697C6.82902 13.6103 6.75 13.8011 6.75 14C6.75 14.1989 6.82902 14.3897 6.96967 14.5303C7.11032 14.671 7.30109 14.75 7.5 14.75ZM9 11H15C15.1989 11 15.3897 10.921 15.5303 10.7803C15.671 10.6397 15.75 10.4489 15.75 10.25C15.75 10.0511 15.671 9.86032 15.5303 9.71967C15.3897 9.57902 15.1989 9.5 15 9.5H9C8.80109 9.5 8.61032 9.57902 8.46967 9.71967C8.32902 9.86032 8.25 10.0511 8.25 10.25C8.25 10.4489 8.32902 10.6397 8.46967 10.7803C8.61032 10.921 8.80109 11 9 11Z" fill="white"/>
</svg>
