<svg width="32" height="48" viewBox="0 0 32 48" fill="none" xmlns="http://www.w3.org/2000/svg">
<path d="M0 32C0 40.8366 7.16344 48 16 48C24.8366 48 32 40.8366 32 32C32 23.1634 24.8366 16 16 16C7.16344 16 0 23.1634 0 32Z" fill="#F00073"/>
<path d="M15.9992 25.1992C18.1992 25.1992 18.4992 25.1992 19.3992 25.1992C20.1992 25.1992 20.5992 25.3992 20.8992 25.4992C21.2992 25.6992 21.5992 25.7992 21.8992 26.0992C22.1992 26.3992 22.3992 26.6992 22.4992 27.0992C22.5992 27.3992 22.6992 27.7992 22.7992 28.5992C22.7992 29.4992 22.7992 29.6992 22.7992 31.9992C22.7992 34.2992 22.7992 34.4992 22.7992 35.3992C22.7992 36.1992 22.5992 36.5992 22.4992 36.8992C22.2992 37.2992 22.1992 37.5992 21.8992 37.8992C21.5992 38.1992 21.2992 38.3992 20.8992 38.4992C20.5992 38.5992 20.1992 38.6992 19.3992 38.7992C18.4992 38.7992 18.2992 38.7992 15.9992 38.7992C13.6992 38.7992 13.4992 38.7992 12.5992 38.7992C11.7992 38.7992 11.3992 38.5992 11.0992 38.4992C10.6992 38.2992 10.3992 38.1992 10.0992 37.8992C9.79922 37.5992 9.59922 37.2992 9.49922 36.8992C9.39922 36.5992 9.29922 36.1992 9.19922 35.3992C9.19922 34.4992 9.19922 34.2992 9.19922 31.9992C9.19922 29.6992 9.19922 29.4992 9.19922 28.5992C9.19922 27.7992 9.39922 27.3992 9.49922 27.0992C9.69922 26.6992 9.79922 26.3992 10.0992 26.0992C10.3992 25.7992 10.6992 25.5992 11.0992 25.4992C11.3992 25.3992 11.7992 25.2992 12.5992 25.1992C13.4992 25.1992 13.7992 25.1992 15.9992 25.1992ZM15.9992 23.6992C13.6992 23.6992 13.4992 23.6992 12.5992 23.6992C11.6992 23.6992 11.0992 23.8992 10.5992 24.0992C10.0992 24.2992 9.59922 24.5992 9.09922 25.0992C8.59922 25.5992 8.39922 25.9992 8.09922 26.5992C7.89922 27.0992 7.79922 27.6992 7.69922 28.5992C7.69922 29.4992 7.69922 29.7992 7.69922 31.9992C7.69922 34.2992 7.69922 34.4992 7.69922 35.3992C7.69922 36.2992 7.89922 36.8992 8.09922 37.3992C8.29922 37.8992 8.59922 38.3992 9.09922 38.8992C9.59922 39.3992 9.99922 39.5992 10.5992 39.8992C11.0992 40.0992 11.6992 40.1992 12.5992 40.2992C13.4992 40.2992 13.7992 40.2992 15.9992 40.2992C18.1992 40.2992 18.4992 40.2992 19.3992 40.2992C20.2992 40.2992 20.8992 40.0992 21.3992 39.8992C21.8992 39.6992 22.3992 39.3992 22.8992 38.8992C23.3992 38.3992 23.5992 37.9992 23.8992 37.3992C24.0992 36.8992 24.1992 36.2992 24.2992 35.3992C24.2992 34.4992 24.2992 34.1992 24.2992 31.9992C24.2992 29.7992 24.2992 29.4992 24.2992 28.5992C24.2992 27.6992 24.0992 27.0992 23.8992 26.5992C23.6992 26.0992 23.3992 25.5992 22.8992 25.0992C22.3992 24.5992 21.9992 24.3992 21.3992 24.0992C20.8992 23.8992 20.2992 23.7992 19.3992 23.6992C18.4992 23.6992 18.2992 23.6992 15.9992 23.6992Z" fill="white"/>
<path d="M15.9992 27.6992C13.5992 27.6992 11.6992 29.5992 11.6992 31.9992C11.6992 34.3992 13.5992 36.2992 15.9992 36.2992C18.3992 36.2992 20.2992 34.3992 20.2992 31.9992C20.2992 29.5992 18.3992 27.6992 15.9992 27.6992ZM15.9992 34.7992C14.4992 34.7992 13.1992 33.5992 13.1992 31.9992C13.1992 30.4992 14.3992 29.1992 15.9992 29.1992C17.4992 29.1992 18.7992 30.3992 18.7992 31.9992C18.7992 33.4992 17.4992 34.7992 15.9992 34.7992Z" fill="white"/>
<path d="M20.3992 28.5992C20.9515 28.5992 21.3992 28.1515 21.3992 27.5992C21.3992 27.0469 20.9515 26.5992 20.3992 26.5992C19.8469 26.5992 19.3992 27.0469 19.3992 27.5992C19.3992 28.1515 19.8469 28.5992 20.3992 28.5992Z" fill="white"/>
</svg>
