<svg width="25" height="25" viewBox="0 0 25 25" fill="none" xmlns="http://www.w3.org/2000/svg">
<path d="M14.457 21.9382C13.8128 22.0715 13.1566 22.1378 12.4987 22.1361C10.593 22.1361 8.73009 21.571 7.14555 20.5122C5.56102 19.4535 4.32602 17.9486 3.59674 16.188C2.86746 14.4273 2.67664 12.49 3.04843 10.6209C3.42021 8.75179 4.3379 7.03492 5.68543 5.68739C7.03297 4.33985 8.74984 3.42217 10.6189 3.05038C12.488 2.6786 14.4254 2.86941 16.186 3.59869C17.9467 4.32797 19.4515 5.56297 20.5103 7.1475C21.569 8.73204 22.1341 10.595 22.1341 12.5007C22.1325 13.1263 22.0732 13.7505 21.957 14.3652C21.9275 14.5639 21.9756 14.7663 22.0913 14.9304C22.2071 15.0945 22.3816 15.2078 22.5786 15.2466C22.7756 15.2855 22.98 15.247 23.1494 15.1391C23.3188 15.0313 23.4402 14.8623 23.4883 14.6673C23.6252 13.9532 23.6949 13.2278 23.6966 12.5007C23.6966 10.2859 23.0399 8.12091 21.8094 6.27943C20.579 4.43794 18.8301 3.00267 16.784 2.15513C14.7378 1.30759 12.4863 1.08583 10.3141 1.5179C8.14191 1.94998 6.14664 3.01648 4.58058 4.58253C3.01452 6.14859 1.94803 8.14387 1.51595 10.3161C1.08388 12.4882 1.30563 14.7398 2.15318 16.7859C3.00072 18.8321 4.43599 20.5809 6.27747 21.8114C8.11896 23.0418 10.284 23.6986 12.4987 23.6986C13.2615 23.7008 14.0225 23.624 14.7695 23.4694C14.8701 23.4489 14.9656 23.4088 15.0506 23.3513C15.1357 23.2939 15.2086 23.2203 15.2652 23.1347C15.3217 23.0491 15.3609 22.9532 15.3804 22.8524C15.3999 22.7517 15.3994 22.6481 15.3789 22.5475C15.3584 22.447 15.3183 22.3515 15.2608 22.2664C15.2034 22.1814 15.1298 22.1085 15.0442 22.0519C14.9586 21.9953 14.8627 21.9562 14.7619 21.9366C14.6612 21.9171 14.5576 21.9176 14.457 21.9382Z" fill="#FF3B83"/>
<path d="M15.0627 10.3346L12.1043 8.85544C11.735 8.66799 11.3237 8.5786 10.9099 8.59585C10.4961 8.61309 10.0937 8.73639 9.74126 8.95392C9.38882 9.17145 9.0982 9.4759 8.89729 9.83806C8.69637 10.2002 8.59191 10.6079 8.59391 11.0221V13.9804C8.58914 14.397 8.69213 14.8077 8.89289 15.1728C9.09366 15.5378 9.38538 15.8447 9.73974 16.0638C10.1221 16.2991 10.5616 16.4252 11.0106 16.4284C11.3729 16.4208 11.7289 16.3318 12.0522 16.1679L15.0106 14.6888C15.4147 14.4891 15.7549 14.1804 15.9928 13.7975C16.2307 13.4146 16.3568 12.9729 16.3568 12.5221C16.3568 12.0713 16.2307 11.6296 15.9928 11.2467C15.7549 10.8638 15.4147 10.5551 15.0106 10.3554L15.0627 10.3346ZM22.3022 16.6679L18.8647 20.97C18.8417 20.9978 18.8131 21.0205 18.7808 21.0366C18.7486 21.0527 18.7133 21.062 18.6772 21.0638C18.641 21.0661 18.6047 21.0608 18.5706 21.0482C18.5365 21.0357 18.5054 21.0161 18.4793 20.9909L16.1772 18.7513C16.1054 18.6776 16.0196 18.619 15.9248 18.579C15.8299 18.539 15.7281 18.5184 15.6252 18.5184C15.5222 18.5184 15.4204 18.539 15.3256 18.579C15.2307 18.619 15.1449 18.6776 15.0731 18.7513C14.9268 18.8978 14.8446 19.0963 14.8446 19.3034C14.8446 19.5104 14.9268 19.709 15.0731 19.8554L17.3752 22.1575C17.7188 22.4981 18.183 22.689 18.6668 22.6888H18.7502C19.0067 22.6739 19.2571 22.6049 19.4851 22.4865C19.7131 22.368 19.9135 22.2026 20.0731 22.0013L23.5314 17.7096C23.6572 17.545 23.7144 17.3382 23.6911 17.1324C23.6678 16.9266 23.5658 16.7377 23.4064 16.6054C23.3299 16.5369 23.2405 16.4842 23.1436 16.4503C23.0466 16.4164 22.9439 16.4019 22.8414 16.4077C22.7388 16.4135 22.6384 16.4395 22.5459 16.4841C22.4534 16.5288 22.3706 16.5912 22.3022 16.6679Z" fill="#FF3B83"/>
</svg>
