<svg width="19" height="19" viewBox="0 0 19 19" fill="none" xmlns="http://www.w3.org/2000/svg">
<path d="M16.1306 4.97527C15.5767 4.24759 14.7944 3.7272 13.9092 3.4977C13.024 3.26819 12.0873 3.3429 11.2497 3.70981C10.4999 4.03334 9.83129 4.57882 9.289 5.30269C8.74671 4.57705 8.07806 4.03157 7.32834 3.70981C6.4907 3.3429 5.55405 3.26819 4.66884 3.4977C3.78363 3.7272 3.00126 4.24759 2.44741 4.97527C1.86335 5.74056 1.55469 6.69699 1.55469 7.74086C1.55469 9.24312 2.45059 10.8912 4.21727 12.6413C5.65688 14.0667 7.35808 15.2341 8.24372 15.803C8.55577 16.0027 8.91851 16.1088 9.289 16.1088C9.65949 16.1088 10.0222 16.0027 10.3343 15.803C11.2192 15.2341 12.9211 14.0667 14.3607 12.6413C16.1274 10.8919 17.0233 9.24312 17.0233 7.74086C17.0233 6.69699 16.7146 5.74056 16.1306 4.97527Z" fill="#F9595F"/>
</svg>
