<svg width="17" height="17" viewBox="0 0 17 17" fill="none" xmlns="http://www.w3.org/2000/svg">
<g clip-path="url(#clip0_1134_544)">
<path d="M8.65928 14.9834C8.42293 14.9834 8.19514 14.8977 8.01756 14.7422C7.34696 14.1558 6.70044 13.6048 6.13001 13.1187L6.1271 13.1162C4.45473 11.6911 3.01058 10.4603 2.00577 9.2479C0.882561 7.89258 0.359375 6.60746 0.359375 5.20357C0.359375 3.8396 0.827088 2.58123 1.67624 1.66013C2.53554 0.728141 3.71461 0.214844 4.99666 0.214844C5.95487 0.214844 6.83239 0.51779 7.60484 1.11519C7.99464 1.41671 8.34797 1.78576 8.65928 2.21622C8.97069 1.78576 9.32392 1.41671 9.71386 1.11519C10.4863 0.51779 11.3638 0.214844 12.322 0.214844C13.604 0.214844 14.7832 0.728141 15.6425 1.66013C16.4916 2.58123 16.9592 3.8396 16.9592 5.20357C16.9592 6.60743 16.4361 7.89255 15.3129 9.24777C14.3081 10.4603 12.8641 11.6909 11.192 13.1159C10.6205 13.6028 9.973 14.1547 9.30087 14.7425C9.12325 14.8978 8.89526 14.9834 8.65928 14.9834ZM4.99666 1.18723C3.98945 1.18723 3.06417 1.58922 2.39104 2.31919C1.70792 3.06022 1.33163 4.08455 1.33163 5.20357C1.33163 6.3843 1.77046 7.44027 2.75438 8.62748C3.70537 9.77501 5.11989 10.9804 6.7577 12.3762L6.76071 12.3787C7.33327 12.8667 7.98235 13.4199 8.65789 14.0106C9.33747 13.4188 9.98756 12.8647 10.5613 12.376C12.1989 10.9802 13.6133 9.77501 14.5643 8.62748C15.5481 7.44027 15.9869 6.3843 15.9869 5.20357C15.9869 4.08451 15.6106 3.06019 14.9275 2.31919C14.2545 1.58922 13.3291 1.18723 12.322 1.18723C11.5842 1.18723 10.9067 1.4218 10.3086 1.88429C9.77555 2.29666 9.40423 2.81793 9.18649 3.18268C9.07457 3.37024 8.87751 3.48219 8.65928 3.48219C8.44105 3.48219 8.24399 3.37024 8.13204 3.18268C7.91449 2.81793 7.54314 2.29666 7.00993 1.88429C6.41182 1.4218 5.73438 1.18723 4.99666 1.18723Z" fill="white"/>
</g>
<defs>
<clipPath id="clip0_1134_544">
<rect width="16.5998" height="16.5998" fill="white" transform="translate(0.359375 0.212891)"/>
</clipPath>
</defs>
</svg>
