<svg width="292" height="202" viewBox="0 0 292 202" fill="none" xmlns="http://www.w3.org/2000/svg">
<path d="M237 149C209.372 110.688 142.718 38.4725 97.1311 56.1065C72.5246 58.7305 25.1246 72.4805 32.377 106.489C37.9891 122.759 57.7607 152.149 91.9508 139.553C106.628 129.057 127.177 96.4126 91.9508 49.8084C72.0929 33.5389 25.9016 1 -1.07288e-06 1" stroke="#FF3B83" stroke-opacity="0.8" stroke-dasharray="4 4"/>
<path d="M290.5 169.5C290.5 186.599 276.419 200.5 259 200.5C241.581 200.5 227.5 186.599 227.5 169.5C227.5 152.401 241.581 138.5 259 138.5C276.419 138.5 290.5 152.401 290.5 169.5Z" stroke="#FCE1E4" stroke-width="3"/>
<circle cx="259.502" cy="169.011" r="22" transform="rotate(-139.605 259.502 169.011)" fill="#FCE1E4"/>
</svg>
