<svg width="77" height="133" viewBox="0 0 77 133" fill="none" xmlns="http://www.w3.org/2000/svg">
<g clip-path="url(#clip0_1859_541)">
<path d="M3.55078 106.786C3.55078 106.786 7.32975 117.398 37.7333 116.086C68.1369 114.775 73.8389 102.868 73.8389 102.868C73.8389 102.868 56.6449 95.6371 35.1777 97.4889C13.7062 99.3407 3.55497 106.79 3.55497 106.79L3.55078 106.786Z" fill="#C48956"/>
<path d="M18.5312 112.086H36.9527V128.144C36.9527 129.896 35.5324 131.32 33.777 131.32H18.5312V112.086Z" fill="#C48956"/>
<path d="M18.5323 131.319H10.6602C10.6602 128.106 15.4614 125.5 18.6748 125.5H26.6894L18.5323 131.319Z" fill="#C48956"/>
<path d="M12.3356 130.053C12.3356 130.053 12.1974 130.061 12.122 130.082C12.034 130.107 11.946 130.132 11.8622 130.174C11.6904 130.254 11.5271 130.363 11.3762 130.497C11.2296 130.635 11.0955 130.799 10.9782 130.979C10.8609 131.159 10.7646 131.36 10.6766 131.569L10.6682 131.586C10.5928 131.762 10.3917 131.846 10.2157 131.771C10.0565 131.704 9.97273 131.528 10.0146 131.364C10.0775 131.109 10.1571 130.849 10.2702 130.597C10.3833 130.346 10.5258 130.103 10.7059 129.877C10.8902 129.655 11.1081 129.45 11.3595 129.282C11.4852 129.198 11.6192 129.127 11.7617 129.064C11.9167 129.001 12.034 128.955 12.2602 128.917L12.4781 128.884C12.8091 128.834 13.1191 129.06 13.1694 129.391C13.2196 129.722 12.9934 130.032 12.6624 130.082C12.5493 130.099 12.4404 130.082 12.344 130.044L12.3356 130.053Z" fill="#A55E2F"/>
<path d="M15.1109 130.399C15.1109 130.399 15.0062 130.454 14.9517 130.491C14.8889 130.537 14.826 130.588 14.7716 130.642C14.6543 130.755 14.5495 130.885 14.4657 131.028C14.3861 131.174 14.3065 131.329 14.2605 131.501C14.206 131.669 14.1809 131.853 14.1599 132.037V132.062C14.1348 132.251 13.963 132.389 13.7745 132.368C13.6069 132.351 13.477 132.213 13.4644 132.05C13.4477 131.824 13.4393 131.589 13.4686 131.354C13.4896 131.12 13.5524 130.881 13.632 130.65C13.7158 130.42 13.8331 130.198 13.9839 129.993C14.0552 129.888 14.139 129.792 14.2269 129.695C14.3275 129.599 14.3987 129.519 14.5579 129.415L14.7758 129.268C15.0607 129.079 15.4419 129.155 15.6346 129.435C15.8232 129.72 15.7477 130.102 15.467 130.294C15.3581 130.37 15.2324 130.403 15.1109 130.399Z" fill="#A55E2F"/>
<path d="M18.3027 130.593C18.353 130.563 18.3111 130.58 18.3069 130.58C18.2943 130.584 18.2775 130.593 18.265 130.605C18.2315 130.626 18.2021 130.66 18.1728 130.693C18.1142 130.769 18.0639 130.878 18.0346 130.999C18.001 131.121 17.9927 131.263 17.9885 131.41C17.9885 131.556 18.0052 131.711 18.0262 131.866V131.883C18.0555 132.072 17.9214 132.248 17.7329 132.277C17.5695 132.298 17.4145 132.206 17.36 132.055C17.2302 131.707 17.1212 131.33 17.1338 130.899C17.138 130.685 17.1715 130.454 17.2721 130.224C17.3223 130.111 17.381 129.998 17.4648 129.893C17.5025 129.839 17.5528 129.788 17.603 129.738C17.6659 129.684 17.691 129.65 17.8167 129.579C18.0974 129.445 18.4368 129.562 18.5708 129.843C18.7049 130.123 18.5876 130.463 18.3069 130.597L18.3027 130.593Z" fill="#A55E2F"/>
<path d="M44.7265 131.319H59.9722V109.479L41.5508 112.089V128.147C41.5508 129.898 42.971 131.323 44.7265 131.323V131.319Z" fill="#C48956"/>
<path d="M59.9696 131.317H67.8417C67.8417 128.104 63.0405 125.498 59.8271 125.498H51.8125L59.9696 131.317Z" fill="#C48956"/>
<path d="M66.3602 130.053C66.3602 130.053 66.4985 130.061 66.5739 130.082C66.6619 130.107 66.7499 130.132 66.8337 130.174C67.0054 130.254 67.1688 130.363 67.3196 130.497C67.4663 130.635 67.6004 130.799 67.7177 130.979C67.835 131.159 67.9313 131.36 68.0193 131.569L68.0277 131.586C68.1031 131.762 68.3042 131.846 68.4802 131.771C68.6394 131.704 68.7231 131.528 68.6813 131.364C68.6184 131.109 68.5388 130.849 68.4257 130.597C68.3126 130.346 68.1701 130.103 67.99 129.877C67.8056 129.655 67.5878 129.45 67.3364 129.282C67.2107 129.198 67.0767 129.127 66.9342 129.064C66.7792 129.001 66.6661 128.955 66.4357 128.917L66.2178 128.884C65.8868 128.834 65.5768 129.06 65.5265 129.391C65.4762 129.722 65.7025 130.032 66.0335 130.082C66.1466 130.099 66.2555 130.082 66.3519 130.044L66.3602 130.053Z" fill="#A55E2F"/>
<path d="M63.5885 130.399C63.5885 130.399 63.6932 130.454 63.7477 130.491C63.8105 130.537 63.8734 130.588 63.9278 130.642C64.0409 130.755 64.1499 130.885 64.2337 131.028C64.3133 131.174 64.3929 131.329 64.439 131.501C64.4934 131.669 64.5186 131.853 64.5395 132.037V132.062C64.5646 132.251 64.7364 132.389 64.9249 132.368C65.0925 132.351 65.2224 132.213 65.235 132.05C65.2517 131.824 65.2601 131.589 65.2308 131.354C65.2098 131.12 65.147 130.881 65.0674 130.65C64.9836 130.42 64.8663 130.198 64.7155 129.993C64.6442 129.888 64.5605 129.792 64.4725 129.695C64.3719 129.599 64.3007 129.519 64.1415 129.415L63.9236 129.268C63.6387 129.079 63.2575 129.155 63.0648 129.435C62.8763 129.72 62.9517 130.102 63.2324 130.294C63.3413 130.37 63.467 130.403 63.5885 130.399Z" fill="#A55E2F"/>
<path d="M60.3939 130.593C60.3436 130.563 60.3855 130.58 60.3897 130.58C60.4022 130.584 60.419 130.593 60.4316 130.605C60.4651 130.626 60.4944 130.66 60.5237 130.693C60.5824 130.769 60.6327 130.878 60.662 130.999C60.6955 131.121 60.7039 131.263 60.7081 131.41C60.7081 131.556 60.6913 131.711 60.6704 131.866V131.883C60.6411 132.072 60.7751 132.248 60.9636 132.277C61.127 132.298 61.2821 132.206 61.3365 132.055C61.4664 131.707 61.5753 131.33 61.5628 130.899C61.5586 130.685 61.525 130.454 61.4245 130.224C61.3742 130.111 61.3156 129.998 61.2318 129.893C61.1941 129.839 61.1438 129.788 61.0935 129.738C61.0307 129.684 61.0055 129.65 60.8799 129.579C60.5992 129.445 60.2598 129.562 60.1257 129.843C59.9917 130.123 60.109 130.463 60.3897 130.597L60.3939 130.593Z" fill="#A55E2F"/>
<path d="M13.8979 52.4707L1.83203 58.6377L2.21328 78.3496L13.8979 52.4707Z" fill="#F0A178"/>
<path d="M59.8693 37.832C59.8693 37.832 81.7722 59.2071 75.5214 102.871L3.55753 106.788C3.55753 106.788 -3.15832 94.5795 4.02676 71.4825C11.2077 48.3855 17.0814 45.478 17.0814 45.478L59.8693 37.832Z" fill="#FCE1E4"/>
<path d="M30.3331 75.0027C30.3331 75.0027 21.2334 72.1789 15.2381 77.2902C14.9197 77.5625 14.7815 77.9898 14.8778 78.3962C15.0538 79.121 15.8917 79.4604 16.5201 79.0624C17.3078 78.5638 18.2546 78.0317 18.6945 78.0108C18.6945 78.0108 15.301 80.0595 15.7995 83.0382C15.8414 83.2854 15.9504 83.5158 16.1221 83.696C16.4992 84.1066 17.0983 84.2281 17.601 83.9893L18.3635 83.6332C18.3635 83.6332 16.1473 87.8185 18.5898 88.6061C21.0365 89.3938 20.8312 87.2781 20.8312 87.2781C20.8312 87.2781 30.0566 91.078 37.979 88.7276L30.3289 75.0027H30.3331Z" fill="#C48956"/>
<path d="M46.8121 49.8086C46.8121 49.8086 45.6097 75.7922 26.4844 74.0116L36.7069 91.5826C36.7069 91.5826 82.2892 89.9319 66.503 53.6378L46.8121 49.8086Z" fill="#F0A178"/>
<path d="M26.4844 74.0126C26.4844 74.0126 40.8043 76.5263 45.5091 57.623" stroke="#DD8158" stroke-width="1.7463" stroke-linecap="round" stroke-linejoin="round"/>
<path d="M35.3711 89.2858L36.7076 91.5817C36.7076 91.5817 56.897 90.7563 66.0931 79.2099C66.0931 79.2099 72.7377 71.0193 68.2842 58.3711" stroke="#DD8158" stroke-width="1.7463" stroke-linecap="round" stroke-linejoin="round"/>
<path d="M12.0138 15.8967C12.0138 15.8967 5.73783 11.1709 3.61373 15.1678C1.48963 19.1604 7.96248 23.2494 11.5781 23.4589L12.0138 15.8967Z" fill="#C48956"/>
<path d="M11.3031 17.2921C11.3031 17.2921 5.87767 14.0201 5.33302 17.2921C4.78838 20.5642 11.3241 22.2819 11.3241 22.2819L11.2989 17.2921H11.3031Z" fill="#F4B872"/>
<path d="M36.207 7.10557C36.207 7.10557 36.4919 -0.745652 40.9328 0.121585C45.3738 0.988822 44.4688 8.58867 42.3573 11.5297L36.2112 7.10557H36.207Z" fill="#C48956"/>
<path d="M37.7347 7.43112C37.7347 7.43112 38.6103 1.15517 41.4927 2.79747C44.3751 4.43978 41.589 10.5942 41.589 10.5942L37.7305 7.43112H37.7347Z" fill="#F4B872"/>
<path d="M45.2937 13.414C34.4721 1.29364 22.8167 5.25695 22.0207 5.54603C22.0207 5.54603 22.0207 5.54603 22.0123 5.54603C22.0082 5.54603 22.0082 5.54603 22.004 5.54603C21.2038 5.83092 9.70764 10.2258 9.1211 26.4645C8.51362 43.2855 14.0103 46.788 14.0103 46.788L33.6006 39.716L34.9203 39.2384L54.6573 32.1162C54.6573 32.1162 56.5049 25.9659 45.2937 13.4098V13.414Z" fill="#FFE6EF"/>
<path d="M21.4261 18.8032C21.2376 20.3617 21.0993 22.5863 21.2041 25.54C21.3423 29.4027 25.226 32.0003 28.8584 30.6889L30.9783 29.9222C34.6274 28.6067 35.9471 24.1071 33.5632 21.0488C32.2016 19.3017 30.6096 17.4751 28.9254 15.971C27.6895 14.8692 25.9424 14.5424 24.3839 15.1038C22.7793 15.682 21.6314 17.1106 21.4261 18.8032Z" fill="#F4B872"/>
<path d="M16.5266 20.0241C16.5266 20.0241 15.9023 18.21 17.2555 17.6528C18.6088 17.0956 19.3252 19.0019 19.3252 19.0019" stroke="black" stroke-width="1.81616" stroke-linecap="round" stroke-linejoin="round"/>
<path d="M30.5109 14.8659C30.5109 14.8659 29.8867 13.0518 31.2399 12.4946C32.5931 11.9374 33.3096 13.8437 33.3096 13.8437" stroke="black" stroke-width="1.81616" stroke-linecap="round" stroke-linejoin="round"/>
<path d="M24.8047 20.5861L27.6619 19.5555C28.437 19.2748 29.166 20.075 28.8141 20.8207L27.9091 22.7437C27.6913 23.2046 27.1466 23.4057 26.6858 23.192L24.7293 22.2997C23.9751 21.9561 24.017 20.8668 24.8005 20.5819L24.8047 20.5861Z" fill="black"/>
<path d="M26.8029 21.6504L28.0724 25.1654C28.0724 25.1654 27.1004 27.7001 24.6914 26.3846" stroke="black" stroke-width="0.97793" stroke-linecap="round" stroke-linejoin="round"/>
<path d="M26.8047 21.6504L28.0741 25.1654C28.0741 25.1654 30.4412 26.4977 31.4551 23.9463" stroke="black" stroke-width="0.97793" stroke-linecap="round" stroke-linejoin="round"/>
<path d="M20.0312 14.3546C20.0312 14.3546 23.0896 11.7194 26.5251 12.0085" stroke="#B77442" stroke-width="1.1089" stroke-linecap="round" stroke-linejoin="round"/>
<path d="M18.8721 23.9858C19.1361 24.7106 18.2269 25.7036 16.8444 26.2021C15.4618 26.7007 14.1296 26.5163 13.8698 25.7915C13.6059 25.0667 14.515 24.0738 15.8976 23.5753C17.2801 23.0767 18.6124 23.261 18.8721 23.9858Z" fill="#F0A178"/>
<path d="M39.6378 16.4917C39.9017 17.2165 38.9926 18.2094 37.61 18.708C36.2275 19.2065 34.8952 19.0222 34.6354 18.2974C34.3715 17.5726 35.2806 16.5797 36.6632 16.0811C38.0457 15.5826 39.378 15.7669 39.6378 16.4917Z" fill="#F0A178"/>
<path d="M12.7079 42.1494C19.2269 41.4958 38.3228 38.8773 54.2012 29.6184C55.2905 28.9816 56.6856 29.3126 57.3308 30.3684L62.5636 38.2573C63.1878 39.2712 62.8987 40.5992 61.8974 41.2863C56.2415 45.1742 36.0856 57.4873 12.0879 56.4567C10.9525 56.4064 10.035 55.5518 9.92188 54.4457L10.6215 44.6505C10.4958 43.4021 11.4301 42.2834 12.7037 42.1536L12.7079 42.1494Z" fill="#FFEC9E"/>
<mask id="mask0_1859_541" style="mask-type:luminance" maskUnits="userSpaceOnUse" x="9" y="29" width="54" height="28">
<path d="M12.7079 42.1513C19.2269 41.4978 38.3228 38.8793 54.2012 29.6204C55.2905 28.9836 56.6856 29.3145 57.3308 30.3703L62.5636 38.2592C63.1878 39.2731 62.8987 40.6012 61.8974 41.2883C56.2415 45.1762 36.0856 57.4893 12.0879 56.4586C10.9525 56.4084 10.035 55.5537 9.92188 54.4477L10.6215 44.6525C10.4958 43.404 11.4301 42.2854 12.7037 42.1555L12.7079 42.1513Z" fill="white"/>
</mask>
<g mask="url(#mask0_1859_541)">
<path d="M16.832 39.6113L17.0583 60.9278" stroke="#FFF4C5" stroke-width="7.85837" stroke-miterlimit="10"/>
<path d="M24.8984 37.7031L27.8772 58.8143" stroke="#FFF4C5" stroke-width="7.85837" stroke-miterlimit="10"/>
<path d="M33.6172 35.5234L37.9534 56.3958" stroke="#FFF4C5" stroke-width="7.85837" stroke-miterlimit="10"/>
<path d="M41.0469 32.2383L48.1984 52.3188" stroke="#FFF4C5" stroke-width="7.85837" stroke-miterlimit="10"/>
<path d="M50.8125 29.0996L62.0824 47.1943" stroke="#FFF4C5" stroke-width="7.85837" stroke-miterlimit="10"/>
</g>
<path d="M51.9023 66.4442C51.4875 66.4442 51.1314 66.1384 51.0728 65.7194C50.9136 64.5464 49.686 59.9295 49.2252 58.2495C49.1037 57.8012 49.3634 57.3445 49.8117 57.2188C50.2558 57.0931 50.7209 57.3571 50.8423 57.8054C50.9094 58.0567 52.5307 63.9682 52.736 65.4932C52.7989 65.9499 52.4763 66.373 52.0154 66.4358C51.9777 66.44 51.94 66.4442 51.9023 66.4442Z" fill="#FFEC9E"/>
<path d="M55 65.536C54.5852 65.536 54.2291 65.2302 54.1704 64.8112C54.0154 63.6381 52.7837 59.0213 52.3228 57.3413C52.2013 56.8972 52.4611 56.4363 52.9094 56.3106C53.3535 56.1849 53.8185 56.4489 53.94 56.8972C54.007 57.1485 55.6284 63.06 55.8337 64.585C55.8965 65.0416 55.5739 65.4648 55.1131 65.5276C55.0754 65.5318 55.0377 65.536 55 65.536Z" fill="#FFEC9E"/>
<path d="M57.9963 64.7181C57.5816 64.7181 57.2255 64.4123 57.1668 63.9934C57.0076 62.8203 55.7801 58.2034 55.315 56.5234C55.1935 56.0751 55.4533 55.6143 55.9016 55.4928C56.3457 55.3713 56.8107 55.631 56.9322 56.0793C56.9992 56.3307 58.6206 62.2421 58.8259 63.7671C58.8887 64.2238 58.5661 64.6469 58.1053 64.7098C58.0676 64.714 58.0299 64.7181 57.9921 64.7181H57.9963Z" fill="#FFEC9E"/>
<path d="M61 63.9774C60.5852 63.9774 60.2291 63.6716 60.1704 63.2526C60.0112 62.0796 58.7837 57.4627 58.3228 55.7827C58.2013 55.3344 58.4611 54.8735 58.9094 54.752C59.3535 54.6263 59.8143 54.8903 59.94 55.3386C60.007 55.5899 61.6284 61.5014 61.8337 63.0264C61.8965 63.4831 61.5739 63.9062 61.1131 63.969C61.0754 63.9732 61.0377 63.9774 61 63.9774Z" fill="#FFEC9E"/>
<path d="M40.2969 35.9717C40.2969 35.9717 46.6021 48.0125 48.7975 62.9482C48.7975 62.9482 58.6806 62.2989 62.2501 59.0143C62.2501 59.0143 58.3538 40.266 51.064 31.4261C51.064 31.4261 44.3733 30.8228 40.2969 35.9675V35.9717Z" fill="#FFEC9E"/>
<mask id="mask1_1859_541" style="mask-type:luminance" maskUnits="userSpaceOnUse" x="40" y="31" width="23" height="32">
<path d="M40.3008 35.9756C40.3008 35.9756 46.6061 48.0164 48.8014 62.9522C48.8014 62.9522 58.6845 62.3028 62.254 59.0182C62.254 59.0182 58.3577 40.2699 51.0679 31.43C51.0679 31.43 44.3772 30.8267 40.3008 35.9714V35.9756Z" fill="white"/>
</mask>
<g mask="url(#mask1_1859_541)">
<path d="M40.3008 42.3731C40.3008 42.3731 48.8475 37.0439 58.2907 35.2676" stroke="#FFF4C5" stroke-width="7.85837" stroke-miterlimit="10"/>
<path d="M43.293 50.3535C43.293 50.3535 51.8396 45.0244 61.2829 43.248" stroke="#FFF4C5" stroke-width="7.85837" stroke-miterlimit="10"/>
<path d="M45.2031 58.4944C45.2031 58.4944 54.1227 53.8147 63.6707 52.7422" stroke="#FFF4C5" stroke-width="7.85837" stroke-miterlimit="10"/>
</g>
<path d="M40.4688 36.2969C40.4688 36.2969 44.1137 42.9038 45.5046 50.0554" stroke="#EFD97B" stroke-width="1.7463" stroke-linecap="round" stroke-linejoin="round"/>
<path d="M51.2734 31.6895C51.2734 31.6895 55.2116 36.5577 57.6206 43.5543" stroke="#EFD97B" stroke-width="1.7463" stroke-linecap="round" stroke-linejoin="round"/>
</g>
<defs>
<clipPath id="clip0_1859_541">
<rect width="75.9356" height="132.323" fill="white" transform="translate(0.703125 0.0527344)"/>
</clipPath>
</defs>
</svg>
