<svg width="207" height="79" viewBox="0 0 207 79" fill="none" xmlns="http://www.w3.org/2000/svg">
<g clip-path="url(#clip0_1582_19701)">
<path d="M49.617 13.7935C51.7397 17.8229 53.3329 22.1867 54.3459 26.8891C55.4052 31.5915 56.0357 36.1476 56.2753 40.5573C56.4687 44.9212 56.372 48.6622 55.939 51.7804C55.0689 57.7284 53.3833 62.7651 50.9243 66.8907C48.4148 71.0162 45.6195 74.0843 42.4332 76.1491C39.247 78.214 36.1616 79.1712 33.173 78.9789C29.8943 78.6905 27.2419 77.2986 25.2158 74.8074C23.1897 72.3162 21.6933 69.3401 20.7307 65.8373C19.7176 62.3346 19.188 58.9781 19.0409 55.7178C16.8214 58.4055 14.4086 60.37 11.7562 61.5697C9.15008 62.8153 6.45144 62.4809 3.70237 60.6585C1.86965 59.0701 0.902847 56.4326 0.806167 52.7877C0.709487 49.1428 1.14245 45.2555 2.15548 41.1342C3.11808 37.0588 4.32448 33.51 5.678 30.5841C7.03152 27.6582 8.23372 26.1242 9.2972 26.028C9.92352 26.028 10.5036 26.2203 11.0837 26.6049C11.71 26.9894 12.143 27.4199 12.433 27.9006C12.6726 28.3312 12.723 28.7157 12.6264 29.0041C12.5297 29.3385 12.3868 29.6771 12.143 30.0115C12 30.2037 11.9034 30.396 11.7562 30.5883C10.8399 32.1725 9.7806 34.3753 8.52376 37.2552C7.31736 40.085 6.20764 43.1071 5.29128 46.2713C4.32868 49.4354 3.79484 52.2652 3.65192 54.8066C3.55524 57.3981 4.13532 59.1244 5.4384 60.1318C6.98108 61.043 8.5742 61.2353 10.2598 60.7086C11.8992 60.182 13.4923 59.2707 14.9887 57.8788C16.4852 56.5371 17.8345 55.1452 18.9904 53.6112C18.9904 50.0624 19.5705 46.6098 20.7265 43.3453C21.8824 40.131 23.7656 37.2552 26.3213 34.7598C27.431 33.8486 28.3936 33.5602 29.2133 33.9907C30.033 34.3753 30.5626 34.9981 30.8064 35.9553C31.0502 36.9125 30.8526 37.7317 30.1801 38.4967C30.1801 38.4967 30.1339 38.5426 30.0372 38.5928C29.9909 38.6889 29.8438 38.7851 29.7471 38.8812C29.6505 39.0233 29.5075 39.1195 29.4109 39.2658C26.8047 42.2878 25.0687 46.125 24.2027 50.7772C23.3831 55.4294 23.3831 59.9855 24.249 64.4956C25.0687 68.9556 26.7585 72.4583 29.1671 74.9035C31.6261 77.3989 34.8586 77.9716 38.8603 76.6298C42.3828 75.1418 45.6615 72.266 48.6502 67.9022C51.5926 63.5844 53.5683 58.1171 54.5813 51.5964C55.0143 48.5744 55.1109 44.9797 54.9176 40.7078C54.678 36.39 54.0979 31.9802 53.0849 27.4241C52.0718 22.8179 50.5754 18.5502 48.5493 14.6169C46.5232 10.7338 43.8708 7.6156 40.6384 5.31248L41.4118 4.20898C44.7872 6.60824 47.5363 9.82258 49.6128 13.8018L49.617 13.7935Z" fill="#4B5563"/>
<path d="M73.8321 63.3883C76.0978 61.708 78.3172 59.3589 80.5367 56.3368C82.8024 53.2687 84.5888 50.1004 85.9382 46.698L87.1908 47.1786C86.2744 49.5779 84.8747 52.2154 82.9453 55.1873C81.0621 58.1592 78.8931 60.7508 76.5308 62.9577C74.1684 65.2107 71.8523 66.4103 69.5362 66.5566H68.9099C68.4769 66.5107 67.9935 66.4605 67.4134 66.3184C66.8838 66.2222 66.4004 66.03 65.9674 65.7416C63.9918 64.2535 62.7854 62.0005 62.4449 58.9785C62.1044 55.9564 62.302 53.1266 62.9745 50.4891C63.9876 47.0825 65.4336 44.445 67.2201 42.5264C69.0528 40.6538 70.8855 39.6005 72.7182 39.3121C74.6014 39.0738 76.144 39.6465 77.3504 41.0885C78.3635 42.3843 78.6535 44.3029 78.2206 46.7481C77.8843 48.4284 77.3042 49.5779 76.5308 50.1547C75.7573 50.7316 74.9377 51.02 73.9751 50.9698C73.0587 50.8737 72.1423 50.7316 71.2722 50.4891C70.5492 50.2968 69.9229 50.2007 69.3891 50.1547C68.9057 51.7849 68.376 53.8498 67.7959 56.4371C67.2159 59.0245 66.9258 61.1855 66.9763 62.9118C67.1696 63.777 67.6026 64.4458 68.3256 64.8763C69.7253 65.5953 71.5581 65.1146 73.8237 63.3883H73.8321ZM71.2764 45.2099C70.6963 46.5057 70.2171 47.7053 69.8304 48.8548C70.4567 48.9008 71.1335 49.0471 71.8061 49.2393C72.4786 49.4316 73.1091 49.5737 73.7817 49.6239C74.408 49.6699 74.9881 49.5779 75.5177 49.2393C76.0474 48.8548 76.4341 48.186 76.7241 47.2748C77.0142 46.3636 77.1108 45.3562 77.0604 44.3489C77.0142 43.3917 76.7704 42.5264 76.287 41.9036C75.6102 41.0384 74.6938 41.0885 73.4874 42.0457C72.6173 42.8148 71.8943 43.8682 71.268 45.2099H71.2764Z" fill="#4B5563"/>
<path d="M105.617 63.7721C107.546 60.4617 109.236 57.0592 110.632 53.6986C112.031 50.292 112.897 47.9429 113.334 46.6011L114.637 47.0317C114.011 48.8541 112.998 51.4916 111.552 54.9442C110.106 58.4469 108.37 61.8034 106.39 65.0637C104.364 68.324 102.241 70.5812 99.9253 71.8268C97.0796 73.0264 94.6205 72.4496 92.4978 70.0503C90.375 67.6511 88.6894 64.1985 87.3863 59.6424C86.0833 55.0863 85.2636 50.1958 84.8769 44.9166C84.5406 39.6876 84.6373 34.8431 85.2131 30.3831C86.2724 23.7162 88.1556 18.1988 90.8584 13.789C93.5612 9.32902 96.5962 5.97256 99.9758 3.71542C103.402 1.46663 106.63 0.221025 109.766 0.02875C112.948 -0.163525 115.503 0.605575 117.433 2.42801H117.479C119.169 4.15431 120.085 6.6497 120.131 9.96018C120.228 13.2707 119.261 16.8654 117.332 20.7986C115.356 24.7319 112.221 28.5189 107.832 32.1178C103.49 35.7167 97.7017 38.6886 90.5179 40.9917C90.4717 43.391 90.4717 46.459 90.5642 50.154C90.6566 53.8491 91.0476 57.4438 91.6234 60.9925C92.1993 64.5412 93.2166 67.2749 94.6121 69.1935C96.1548 71.0159 97.7479 71.4966 99.341 70.6313C101.56 69.4317 103.633 67.1286 105.613 63.7721H105.617ZM109.862 2.23573C107.113 2.95468 104.268 4.87325 101.422 7.89531C98.5298 10.9174 96.0665 15.0429 94.0404 20.318C91.9681 25.6431 90.808 32.0217 90.5684 39.5998C97.6596 37.1546 103.254 34.2286 107.403 30.7259C111.552 27.2231 114.541 23.6744 116.327 19.9836C118.063 16.2885 118.883 12.9822 118.786 10.0062C118.74 7.03425 117.967 4.82727 116.521 3.43536C114.831 1.85118 112.616 1.47081 109.867 2.23573H109.862Z" fill="#4B5563"/>
<path d="M133.109 47.1739C132.336 49.1384 131.226 51.4917 129.78 54.2253C128.38 56.913 126.741 59.5004 124.908 61.8996C123.076 64.2989 121.192 66.0252 119.263 67.0325C116.657 68.182 114.681 68.136 113.281 66.9364C111.882 65.7368 110.965 63.9143 110.579 61.4189C110.146 58.8776 110.146 56.24 110.579 53.4103C110.965 50.5805 111.735 48.1352 112.748 46.0244C113.857 43.7213 115.4 41.949 117.329 40.6532C119.259 39.3575 121.285 39.2613 123.454 40.3648V40.4108H123.5C125.139 41.5603 125.959 43.2866 125.959 45.5897L124.61 45.4935C124.656 43.7171 124.03 42.3753 122.777 41.5603C121.474 40.8873 120.364 41.4181 119.448 43.1904C118.532 44.9627 117.809 47.2658 117.229 50.0956C116.648 52.8794 116.266 55.5629 115.976 58.0081C115.686 60.5035 115.543 62.0835 115.492 62.8025C115.446 64.1442 115.635 65.1056 116.119 65.7284C116.602 66.3052 117.468 66.3052 118.675 65.8245C121.23 64.3365 123.74 61.653 126.199 57.7197C128.612 53.7864 130.491 50.0956 131.844 46.689L133.097 47.1697L133.109 47.1739Z" fill="#4B5563"/>
<path d="M152.694 47.5582C150.378 48.4235 147.39 48.9961 143.674 49.3807C143.628 52.3526 142.997 55.0862 141.698 57.6777C140.445 60.2693 138.806 61.8033 136.826 62.3801C134.561 62.8107 132.774 62.1878 131.568 60.6037C130.361 58.9735 129.781 56.8627 129.781 54.3213C129.781 51.7799 130.408 49.2385 131.664 46.8393C130.168 45.113 129.781 43.579 130.605 42.2832C131.425 40.9414 132.825 40.1264 134.704 39.7878C136.633 39.4534 138.512 39.9299 140.298 41.1295C142.085 42.3752 143.19 44.6783 143.628 48.0347C147.1 47.7003 149.996 47.1235 152.211 46.3084L152.694 47.554V47.5582ZM132.82 45.113C133.157 44.8246 133.64 44.8246 134.363 45.159C135.04 45.4934 135.666 45.974 136.292 46.5509C136.873 47.0775 137.209 47.5582 137.305 47.8926C138.945 48.1309 140.584 48.181 142.224 48.1309C141.887 45.4432 141.068 43.5748 139.714 42.4713C138.365 41.418 136.915 40.9373 135.469 41.0334C133.972 41.1295 132.862 41.6102 132.139 42.4713C131.416 43.3323 131.513 44.3899 132.429 45.6355C132.572 45.4432 132.669 45.2509 132.816 45.1088L132.82 45.113ZM139.189 59.2159C140.151 57.9202 140.925 56.3402 141.505 54.4676C142.034 52.595 142.278 50.9189 142.324 49.481C140.252 49.5771 138.323 49.435 136.49 49.0964C135.574 50.4883 134.851 52.0223 134.321 53.7486C133.838 55.4749 133.644 57.0591 133.791 58.451C133.938 59.8429 134.514 60.704 135.578 61.0426C136.978 61.1387 138.184 60.5619 139.197 59.2201L139.189 59.2159Z" fill="#4B5563"/>
<path d="M189.108 47.0323C188.675 48.2319 187.855 50.1505 186.598 52.788C185.392 55.3795 183.992 57.8707 182.45 60.27C180.856 62.6693 179.364 64.1531 177.868 64.684C175.602 65.2106 174.059 64.5418 173.139 62.6693C172.218 60.7967 171.739 58.6398 171.642 56.2406C171.596 53.8413 171.642 52.1652 171.882 51.1077V51.0115C171.928 50.9154 171.928 50.8193 171.928 50.7231V50.4347C171.882 50.3386 171.882 50.2424 171.832 50.1964C171.781 50.1505 171.735 50.1003 171.689 50.1003C171.592 50.0543 171.546 50.1003 171.399 50.1964C171.251 50.2926 171.062 50.4347 170.966 50.627C170.146 52.0649 169.566 53.649 169.179 55.3294C168.746 57.2479 167.973 59.1163 166.863 60.7967L165.173 60.3661C165.173 59.6932 164.98 58.782 164.547 57.7286C164.114 56.6251 163.677 55.1371 163.341 53.3147C162.954 51.4922 162.954 49.1431 163.244 46.2172V46.1712C163.29 46.0291 163.29 45.8368 163.29 45.5944C163.336 45.306 163.336 45.0176 163.336 44.7291C163.336 44.4407 163.336 44.2485 163.29 44.0562C163.193 43.9141 163.097 43.8639 163 43.9141C162.903 44.0102 162.807 44.0562 162.71 44.1523C160.251 47.3667 158.368 51.0115 157.065 55.0869C155.715 59.1163 154.652 63.1458 153.832 67.1752V67.2212C153.832 67.2518 153.817 67.2839 153.786 67.3173V67.4594C153.786 67.5054 153.74 67.5555 153.74 67.5555L152.533 67.5096V67.4636L152.487 67.4176C152.487 67.3716 152.487 67.3215 152.441 67.2253C150.802 63.0998 149.931 58.736 149.885 54.1799C149.839 49.6238 150.465 45.26 151.815 41.0843C152.105 40.5075 152.685 40.1731 153.601 40.219C154.517 40.265 155.337 40.5075 156.06 40.9881C156.834 41.4688 157.119 41.9955 156.93 42.7144C154.858 48.7084 153.794 55.1371 153.652 61.9963C154.471 58.6398 155.438 55.3795 156.691 52.1652C157.943 48.9049 159.633 45.9789 161.705 43.3414C161.752 43.2453 161.802 43.1491 161.899 43.053C162.138 42.7186 162.428 42.3341 162.815 41.9495C163.248 41.565 163.731 41.2766 164.261 41.1804C164.841 41.0843 165.514 41.3225 166.237 41.8534C167.25 42.7186 168.023 44.0604 168.502 45.8828C168.935 47.7052 169.129 49.5277 169.082 51.3501C169.276 50.8694 169.515 50.3929 169.805 49.9582C169.852 49.8621 169.902 49.7659 169.999 49.6698C170.289 49.047 170.772 48.4702 171.348 47.8933C171.974 47.3667 172.794 47.2705 173.904 47.6551C175.157 48.1817 176.123 49.2852 176.75 50.8694C177.33 52.4536 177.666 54.0336 177.712 55.6638C177.616 58.4935 177.376 60.4581 176.893 61.5156C176.75 62.0423 176.653 62.4728 176.603 62.9075C176.603 63.0998 176.649 63.2419 176.842 63.338C177.035 63.4342 177.229 63.4802 177.519 63.4342C178.629 63.0036 179.881 61.7539 181.235 59.6472C182.635 57.5363 183.887 55.2332 185.094 52.742C186.3 50.2508 187.216 48.1859 187.843 46.6017L189.095 47.0323H189.108Z" fill="#4B5563"/>
<path d="M195.424 64.0744C197.354 62.6449 199.241 60.6469 201.128 58.0721C203.058 55.4596 204.575 52.7636 205.727 49.8669L206.795 50.2766C206.013 52.3163 204.823 54.5609 203.184 57.094C201.582 59.6228 199.737 61.8298 197.724 63.7066C195.71 65.6251 193.743 66.645 191.771 66.7662H191.238C190.868 66.7244 190.456 66.6826 189.964 66.5614C189.514 66.4778 189.102 66.3148 188.732 66.0724C187.051 64.8059 186.021 62.8873 185.735 60.3167C185.449 57.746 185.613 55.3384 186.185 53.0896C187.047 50.193 188.278 47.9484 189.796 46.314C191.355 44.7215 192.915 43.8228 194.474 43.5804C196.076 43.3756 197.387 43.8646 198.417 45.0893C199.279 46.1928 199.527 47.823 199.157 49.9045C198.871 51.3341 198.375 52.3122 197.719 52.8012C197.064 53.2903 196.366 53.5369 195.542 53.4951C194.76 53.4115 193.982 53.2903 193.243 53.0854C192.629 52.9224 192.095 52.8388 191.641 52.8012C191.229 54.1889 190.779 55.9445 190.288 58.1473C189.796 60.3501 189.548 62.1892 189.59 63.6564C189.754 64.3921 190.124 64.9605 190.737 65.3284C191.927 65.9386 193.486 65.5332 195.416 64.0618L195.424 64.0744ZM193.247 48.6046C192.755 49.7081 192.343 50.728 192.015 51.7061C192.549 51.7479 193.125 51.8691 193.697 52.0321C194.268 52.1951 194.806 52.3163 195.378 52.3581C195.912 52.3999 196.404 52.3163 196.858 52.0321C197.307 51.7061 197.64 51.1334 197.883 50.3602C198.127 49.5869 198.211 48.7258 198.169 47.8689C198.127 47.0539 197.921 46.3182 197.513 45.7873C196.938 45.0517 196.16 45.0935 195.134 45.9086C194.394 46.5606 193.781 47.4593 193.247 48.6046Z" fill="#4B5563"/>
</g>
<defs>
<clipPath id="clip0_1582_19701">
<rect width="206" height="79" fill="white" transform="translate(0.792969)"/>
</clipPath>
</defs>
</svg>
