<svg width="84" height="144" viewBox="0 0 84 144" fill="none" xmlns="http://www.w3.org/2000/svg">
<g clip-path="url(#clip0_1859_622)">
<path d="M11.3711 108.416C11.3711 108.416 15.5355 127.018 47.7113 127.018C79.887 127.018 83.0333 108.416 83.0333 108.416H11.3711Z" fill="#C48956"/>
<path d="M26.1719 123.018H44.5933V139.076C44.5933 140.827 43.1731 142.252 41.4177 142.252H26.1719V123.018Z" fill="#C48956"/>
<path d="M26.1729 142.251H18.3008C18.3008 139.038 23.102 136.432 26.3154 136.432H34.33L26.1729 142.251Z" fill="#C48956"/>
<path d="M19.7497 140.984C19.7497 140.984 19.6114 140.993 19.536 141.014C19.4481 141.039 19.3601 141.064 19.2763 141.106C19.1045 141.186 18.9411 141.294 18.7903 141.429C18.6437 141.567 18.5096 141.73 18.3923 141.91C18.275 142.091 18.1786 142.292 18.0906 142.501L18.0823 142.518C18.0068 142.694 17.8057 142.778 17.6298 142.702C17.4706 142.635 17.3868 142.459 17.4287 142.296C17.4915 142.04 17.5711 141.78 17.6843 141.529C17.7974 141.278 17.9398 141.035 18.12 140.809C18.3043 140.586 18.5222 140.381 18.7735 140.214C18.8992 140.13 19.0333 140.059 19.1757 139.996C19.3307 139.933 19.4439 139.887 19.6743 139.849L19.8921 139.816C20.2231 139.765 20.5331 139.992 20.5834 140.323C20.6337 140.653 20.4075 140.964 20.0765 141.014C19.9634 141.031 19.8544 141.014 19.7581 140.976L19.7497 140.984Z" fill="#A55E2F"/>
<path d="M22.5289 141.331C22.5289 141.331 22.4242 141.385 22.3697 141.423C22.3069 141.469 22.244 141.519 22.1896 141.574C22.0722 141.687 21.9675 141.817 21.8837 141.959C21.8041 142.106 21.7245 142.261 21.6784 142.433C21.624 142.6 21.5988 142.784 21.5779 142.969V142.994C21.5527 143.182 21.381 143.321 21.1924 143.3C21.0249 143.283 20.895 143.145 20.8824 142.981C20.8657 142.755 20.8573 142.521 20.8866 142.286C20.9075 142.051 20.9704 141.813 21.05 141.582C21.1338 141.352 21.2511 141.13 21.4019 140.924C21.4731 140.82 21.5569 140.723 21.6449 140.627C21.7455 140.531 21.8167 140.451 21.9759 140.346L22.1937 140.2C22.4786 140.011 22.8599 140.086 23.0526 140.367C23.2411 140.652 23.1657 141.033 22.885 141.226C22.7761 141.301 22.6504 141.335 22.5289 141.331Z" fill="#A55E2F"/>
<path d="M25.7167 141.524C25.767 141.495 25.7251 141.512 25.7209 141.512C25.7084 141.516 25.6916 141.524 25.679 141.537C25.6455 141.558 25.6162 141.591 25.5869 141.625C25.5282 141.7 25.4779 141.809 25.4486 141.931C25.4151 142.052 25.4067 142.195 25.4025 142.341C25.4025 142.488 25.4193 142.643 25.4402 142.798V142.815C25.4696 143.003 25.3355 143.179 25.147 143.209C24.9836 143.23 24.8286 143.137 24.7741 142.987C24.6442 142.639 24.5353 142.262 24.5479 141.83C24.5521 141.617 24.5856 141.386 24.6861 141.156C24.7364 141.043 24.795 140.929 24.8788 140.825C24.9165 140.77 24.9668 140.72 25.0171 140.67C25.0799 140.615 25.1051 140.582 25.2308 140.511C25.5115 140.376 25.8508 140.494 25.9849 140.774C26.1189 141.055 26.0016 141.394 25.7209 141.529L25.7167 141.524Z" fill="#A55E2F"/>
<path d="M68.9023 142.254H53.6566C51.9053 142.254 50.4809 140.834 50.4809 139.078V123.02H68.9023V142.254Z" fill="#C48956"/>
<path d="M68.8992 142.253H76.7714C76.7714 139.039 71.9702 136.434 68.7568 136.434H60.7422L68.8992 142.253Z" fill="#C48956"/>
<path d="M75.1181 140.986C75.1181 140.986 75.2563 140.995 75.3317 141.016C75.4197 141.041 75.5077 141.066 75.5915 141.108C75.7632 141.188 75.9266 141.296 76.0775 141.431C76.2241 141.569 76.3582 141.732 76.4755 141.912C76.5928 142.092 76.6891 142.294 76.7771 142.503L76.7855 142.52C76.8609 142.696 77.062 142.78 77.238 142.704C77.3972 142.637 77.481 142.461 77.4391 142.298C77.3762 142.042 77.2966 141.782 77.1835 141.531C77.0704 141.28 76.9279 141.037 76.7478 140.81C76.5634 140.588 76.3456 140.383 76.0942 140.216C75.9685 140.132 75.8345 140.061 75.692 139.998C75.537 139.935 75.4239 139.889 75.1935 139.851L74.9756 139.818C74.6446 139.767 74.3346 139.993 74.2843 140.324C74.2341 140.655 74.4603 140.965 74.7913 141.016C74.9044 141.033 75.0133 141.016 75.1097 140.978L75.1181 140.986Z" fill="#A55E2F"/>
<path d="M72.3424 141.333C72.3424 141.333 72.4471 141.387 72.5016 141.425C72.5644 141.471 72.6273 141.521 72.6817 141.576C72.7949 141.689 72.9038 141.819 72.9876 141.961C73.0672 142.108 73.1468 142.263 73.1929 142.435C73.2473 142.602 73.2725 142.786 73.2934 142.971V142.996C73.3185 143.184 73.4903 143.323 73.6788 143.302C73.8464 143.285 73.9763 143.147 73.9889 142.983C74.0056 142.757 74.014 142.523 73.9847 142.288C73.9637 142.053 73.9009 141.814 73.8213 141.584C73.7375 141.354 73.6202 141.132 73.4694 140.926C73.3981 140.822 73.3144 140.725 73.2264 140.629C73.1258 140.532 73.0546 140.453 72.8954 140.348L72.6775 140.201C72.3927 140.013 72.0114 140.088 71.8187 140.369C71.6302 140.654 71.7056 141.035 71.9863 141.228C72.0952 141.303 72.2209 141.337 72.3424 141.333Z" fill="#A55E2F"/>
<path d="M69.1517 141.526C69.1014 141.497 69.1433 141.514 69.1475 141.514C69.1601 141.518 69.1768 141.526 69.1894 141.539C69.2229 141.56 69.2522 141.593 69.2816 141.627C69.3402 141.702 69.3905 141.811 69.4198 141.933C69.4533 142.054 69.4617 142.197 69.4659 142.343C69.4659 142.49 69.4491 142.645 69.4282 142.8V142.817C69.3989 143.005 69.5329 143.181 69.7215 143.211C69.8849 143.231 70.0399 143.139 70.0943 142.988C70.2242 142.641 70.3331 142.264 70.3206 141.832C70.3164 141.618 70.2829 141.388 70.1823 141.158C70.132 141.045 70.0734 140.931 69.9896 140.827C69.9519 140.772 69.9016 140.722 69.8513 140.672C69.7885 140.617 69.7633 140.584 69.6377 140.512C69.357 140.378 69.0176 140.496 68.8835 140.776C68.7495 141.057 68.8668 141.396 69.1475 141.531L69.1517 141.526Z" fill="#A55E2F"/>
<path d="M2.16016 103.999C2.16016 103.999 2.86819 117.703 6.31619 118.143C6.31619 118.143 7.20019 117.523 6.84826 116.111C6.84826 116.111 8.18892 118.742 9.89825 119.061C10.6021 119.191 11.1719 118.466 10.9498 117.787L10.1203 115.252C10.1203 115.252 11.6411 117.351 12.6466 116.555C13.6563 115.759 12.9776 103.287 12.9776 103.287L2.16435 104.004L2.16016 103.999Z" fill="#F4B872"/>
<path d="M17.3312 50.5527C17.3312 50.5527 0.899783 65.7231 0.128906 105.243L17.57 103.63L26.2549 54.6082L17.3354 50.5527H17.3312Z" fill="#FFE6EF"/>
<path d="M20.902 50.5527C20.902 50.5527 13.3106 68.9532 11.375 108.415C11.375 108.415 38.008 120.518 83.0373 108.415C83.0373 108.415 79.9077 71.8566 72.1528 50.5527H20.902Z" fill="#FCE1E4"/>
<path d="M17.5381 61.8027C17.5381 61.8027 12.5274 78.5023 11.3711 104.209" stroke="#FF3B83" stroke-width="1.7463" stroke-linecap="round" stroke-linejoin="round"/>
<path d="M77.2727 69.302C77.2727 69.302 75.7226 62.4605 75.2617 60.7344" stroke="#FF3B83" stroke-width="1.7463" stroke-linecap="round" stroke-linejoin="round"/>
<path d="M31.1026 8.30701C31.1026 8.30701 27.6923 -0.172642 23.1718 2.52962C18.6513 5.23188 22.6481 13.1962 26.1212 15.5759L31.1026 8.30701Z" fill="#C48956"/>
<path d="M29.5555 9.26607C29.5555 9.26607 26.1201 2.74294 23.6105 5.67981C21.101 8.6125 26.5851 14.2516 26.5851 14.2516L29.5597 9.26607H29.5555Z" fill="#F4B872"/>
<path d="M59.1523 8.33961C59.1523 8.33961 63.2958 0.190935 67.5566 3.27863C71.8215 6.36633 67.146 13.9494 63.476 16.0191L59.1523 8.33961Z" fill="#C48956"/>
<path d="M60.6055 9.43347C60.6055 9.43347 64.6023 3.23712 66.8437 6.37929C69.0851 9.52145 63.1318 14.6578 63.1318 14.6578L60.6055 9.43347Z" fill="#F4B872"/>
<path d="M67.9462 18.7975C60.891 1.26004 46.5711 0.996094 45.5865 0.996094C45.5823 0.996094 45.5823 0.996094 45.574 0.996094C45.5698 0.996094 45.5698 0.996094 45.5614 0.996094C44.5769 0.996094 30.2528 1.26004 23.1976 18.7975C15.891 36.9676 20.5205 42.9712 20.5205 42.9712H70.7992C70.7992 42.9712 75.2486 36.9676 67.942 18.7975H67.9462Z" fill="#FFE6EF"/>
<path d="M41.4044 11.6026C41.4044 12.5997 40.5958 13.4083 39.5987 13.4083C38.6016 13.4083 37.793 12.5997 37.793 11.6026C37.793 10.6055 38.6016 9.79688 39.5987 9.79688C40.5958 9.79688 41.4044 10.6055 41.4044 11.6026Z" fill="black"/>
<path d="M58.3145 11.6026C58.3145 12.5997 57.5059 13.4083 56.5088 13.4083C55.5117 13.4083 54.7031 12.5997 54.7031 11.6026C54.7031 10.6055 55.5117 9.79688 56.5088 9.79688C57.5059 9.79688 58.3145 10.6055 58.3145 11.6026Z" fill="black"/>
<path d="M43.6689 12.6796C42.8478 14.3093 41.8172 16.689 40.7656 19.9652C39.3914 24.2469 42.6132 28.6208 47.1086 28.6208H49.7312C54.2434 28.6208 57.4651 24.2176 56.0658 19.9275C55.2656 17.4766 54.2476 14.8498 52.9949 12.5371C52.0774 10.8404 50.2968 9.79297 48.3654 9.79297C46.3796 9.79297 44.5613 10.9032 43.6689 12.6754V12.6796Z" fill="#F4B872"/>
<path d="M47.124 15.957H50.66C51.6194 15.957 52.1012 17.1175 51.4225 17.8004L49.6754 19.5475C49.2565 19.9664 48.582 19.9706 48.1588 19.5559L46.3699 17.8088C45.6786 17.1343 46.1562 15.957 47.124 15.957Z" fill="black"/>
<path d="M48.8882 17.9102V22.2589C48.8882 22.2589 46.8228 24.6511 44.707 22.2589" stroke="black" stroke-width="1.1351" stroke-linecap="round" stroke-linejoin="round"/>
<path d="M48.8906 17.9102V22.2589C48.8906 22.2589 50.9561 24.6511 53.0718 22.2589" stroke="black" stroke-width="1.1351" stroke-linecap="round" stroke-linejoin="round"/>
<path d="M43.9023 7.25653C43.9023 7.25653 48.2888 5.58071 51.9379 7.25653" stroke="#B77442" stroke-width="1.28353" stroke-linecap="round" stroke-linejoin="round"/>
<path d="M38.8211 18.5943C38.8211 19.4909 37.4343 20.2198 35.725 20.2198C34.0156 20.2198 32.6289 19.4909 32.6289 18.5943C32.6289 17.6977 34.0156 16.9688 35.725 16.9688C37.4343 16.9688 38.8211 17.6977 38.8211 18.5943Z" fill="#F0A178"/>
<path d="M64.5047 18.5943C64.5047 19.4909 63.1179 20.2198 61.4086 20.2198C59.6992 20.2198 58.3125 19.4909 58.3125 18.5943C58.3125 17.6977 59.6992 16.9688 61.4086 16.9688C63.1179 16.9688 64.5047 17.6977 64.5047 18.5943Z" fill="#F0A178"/>
<path d="M39.9059 16.4609C43.8638 14.8425 45.7603 10.322 44.1419 6.36419C42.5235 2.40635 38.0031 0.509846 34.0452 2.12824C30.0874 3.74663 28.1909 8.26706 29.8093 12.2249C31.4277 16.1828 35.9481 18.0793 39.9059 16.4609Z" stroke="#FF3B83" stroke-width="1.7463" stroke-miterlimit="10"/>
<path d="M62.8395 16.4609C66.7974 14.8425 68.6939 10.322 67.0755 6.36419C65.4571 2.40635 60.9367 0.509846 56.9788 2.12824C53.021 3.74663 51.1245 8.26706 52.7429 12.2249C54.3612 16.1828 58.8817 18.0793 62.8395 16.4609Z" stroke="#FF3B83" stroke-width="1.7463" stroke-miterlimit="10"/>
<path d="M52.5259 11.6003C52.5259 11.6003 48.7135 7.49869 44.3438 11.6003" stroke="#AAE1BA" stroke-width="1.7463" stroke-miterlimit="10"/>
<path d="M29.5062 85.2261C29.5062 85.2261 29.4853 85.2261 29.4769 85.2261C28.9825 85.2093 28.5971 84.7987 28.6097 84.3044C28.6599 82.6621 29.7409 76.206 29.7869 75.9336C29.8707 75.4477 30.3316 75.1167 30.8176 75.2005C31.3036 75.2801 31.6345 75.7451 31.5507 76.2311C31.2449 78.0661 30.4363 83.102 30.3986 84.363C30.3819 84.849 29.9838 85.2303 29.5062 85.2303V85.2261Z" fill="#F0A178"/>
<path d="M26.1195 84.5913C26.1195 84.5913 26.0986 84.5913 26.0902 84.5913C25.5958 84.5745 25.2104 84.164 25.223 83.6696C25.2732 82.0273 26.3541 75.5712 26.4002 75.2989C26.484 74.8129 26.9449 74.4819 27.4308 74.5657C27.9168 74.6453 28.2478 75.1104 28.164 75.5963C27.8582 77.4314 27.0496 82.4672 27.0119 83.7283C26.9951 84.2142 26.5971 84.5955 26.1195 84.5955V84.5913Z" fill="#F0A178"/>
<path d="M22.8461 84.0561C22.8461 84.0561 22.8251 84.0561 22.8168 84.0561C22.3224 84.0394 21.9369 83.6288 21.9495 83.1344C21.9998 81.4921 23.0807 75.036 23.1268 74.7637C23.2106 74.2777 23.6714 73.9468 24.1574 74.0306C24.6434 74.1102 24.9744 74.5752 24.8906 75.0612C24.5847 76.8962 23.7762 81.932 23.7343 83.1931C23.7175 83.6791 23.3195 84.0603 22.8419 84.0603L22.8461 84.0561Z" fill="#F0A178"/>
<path d="M19.5765 83.5913C19.5765 83.5913 19.5556 83.5913 19.5472 83.5913C19.0529 83.5745 18.6674 83.164 18.68 82.6696C18.7303 81.0273 19.8112 74.5712 19.8573 74.2989C19.9369 73.8129 20.4019 73.4819 20.8879 73.5657C21.3739 73.6453 21.7048 74.1103 21.6211 74.5963C21.3152 76.4314 20.5066 81.4672 20.4647 82.7283C20.448 83.2142 20.05 83.5955 19.5724 83.5955L19.5765 83.5913Z" fill="#F0A178"/>
<path d="M28.6015 46.9219C28.6015 46.9219 20.0045 58.0116 17.7422 79.1605L31.9741 81.8334C31.9741 81.8334 31.8065 63.2318 38.979 50.7679L28.6057 46.9219H28.6015Z" fill="#F0A178"/>
<mask id="mask0_1859_622" style="mask-type:luminance" maskUnits="userSpaceOnUse" x="17" y="46" width="22" height="36">
<path d="M28.6015 46.9199C28.6015 46.9199 20.0045 58.0097 17.7422 79.1585L31.9741 81.8314C31.9741 81.8314 31.8065 63.2298 38.979 50.7659L28.6057 46.9199H28.6015Z" fill="white"/>
</mask>
<g mask="url(#mask0_1859_622)">
<path d="M28.3693 52.1562C28.3693 52.1562 20.1913 68.2776 20.9077 87.5663" stroke="#DD8158" stroke-width="0.654864" stroke-linecap="round" stroke-linejoin="round"/>
<path d="M31.9279 52.1562C31.9279 52.1562 23.7499 68.2776 24.4663 87.5663" stroke="#DD8158" stroke-width="0.654864" stroke-linecap="round" stroke-linejoin="round"/>
<path d="M35.4826 52.1562C35.4826 52.1562 27.3046 68.2776 28.021 87.5663" stroke="#DD8158" stroke-width="0.654864" stroke-linecap="round" stroke-linejoin="round"/>
</g>
<path d="M49.6495 80.5817C49.2054 80.5817 48.82 80.2507 48.7613 79.7941C48.5602 78.1644 48.6398 71.6203 48.644 71.3396C48.6524 70.8452 49.0462 70.4388 49.549 70.4556C50.0433 70.4598 50.4371 70.8662 50.433 71.3605C50.4078 73.2207 50.3827 78.3194 50.5377 79.572C50.5964 80.0622 50.2486 80.5105 49.7584 80.5691C49.7207 80.5733 49.683 80.5775 49.6495 80.5775V80.5817Z" fill="#F0A178"/>
<path d="M46.2042 80.4718C45.7601 80.4718 45.3747 80.1409 45.316 79.6842C45.1149 78.0545 45.1945 71.5104 45.1987 71.2297C45.2029 70.7353 45.5967 70.3499 46.1037 70.3457C46.598 70.3499 46.9918 70.7563 46.9876 71.2506C46.9625 73.1108 46.9374 78.2095 47.0924 79.4622C47.151 79.9523 46.8033 80.4006 46.3131 80.4593C46.2754 80.4635 46.2377 80.4677 46.2042 80.4677V80.4718Z" fill="#F0A178"/>
<path d="M42.8839 80.4425C42.4398 80.4425 42.0544 80.1116 41.9957 79.6549C41.7946 78.0252 41.8742 71.4811 41.8784 71.2004C41.8826 70.706 42.2932 70.3248 42.7833 70.3164C43.2777 70.3206 43.6715 70.727 43.6673 71.2213C43.6422 73.0815 43.6171 78.1802 43.7721 79.4329C43.8307 79.923 43.483 80.3713 42.9928 80.43C42.9551 80.4342 42.9174 80.4384 42.8839 80.4384V80.4425Z" fill="#F0A178"/>
<path d="M39.5792 80.4837C39.1351 80.4837 38.7497 80.1527 38.691 79.6961C38.4899 78.0663 38.5695 71.5222 38.5737 71.2415C38.5821 70.7472 38.9885 70.3492 39.4787 70.3576C39.973 70.3617 40.3668 70.7681 40.3626 71.2625C40.3375 73.1227 40.3124 78.2213 40.4674 79.474C40.526 79.9642 40.1783 80.4125 39.6881 80.4711C39.6504 80.4753 39.6127 80.4795 39.5792 80.4795V80.4837Z" fill="#F0A178"/>
<path d="M41.3529 51.1914C41.3529 51.1914 37.2974 63.8438 37.7918 76.622H50.8129L51.7095 51.1914H41.3571H41.3529Z" fill="#F0A178"/>
<mask id="mask1_1859_622" style="mask-type:luminance" maskUnits="userSpaceOnUse" x="37" y="51" width="15" height="26">
<path d="M41.3529 51.1934C41.3529 51.1934 37.2974 63.8458 37.7918 76.6239H50.8129L51.7095 51.1934H41.3571H41.3529Z" fill="white"/>
</mask>
<g mask="url(#mask1_1859_622)">
<path d="M43.5202 49.4824C43.7506 49.8134 39.8208 64.6821 41.5721 82.3536" stroke="#DD8158" stroke-width="0.654864" stroke-linecap="round" stroke-linejoin="round"/>
<path d="M46.6569 49.3535C46.8874 49.6845 42.9576 64.5532 44.7088 82.2247" stroke="#DD8158" stroke-width="0.654864" stroke-linecap="round" stroke-linejoin="round"/>
<path d="M49.8015 49.2227C50.0319 49.5536 46.1021 64.4223 47.8533 82.0939" stroke="#DD8158" stroke-width="0.654864" stroke-linecap="round" stroke-linejoin="round"/>
</g>
<path d="M19.8925 37.8859C27.5384 39.503 50.1913 43.4119 71.5496 38.4263C73.016 38.0828 74.4823 38.9752 74.8426 40.4373L77.9848 51.5145C78.3325 52.9222 77.5323 54.3592 76.1498 54.7907C68.3279 57.2542 42.0091 64.544 15.0829 54.6064C13.8092 54.1371 13.0677 52.809 13.3358 51.4768L16.633 40.0267C16.9347 38.5311 18.3968 37.5675 19.8883 37.8817L19.8925 37.8859Z" fill="#F0A178"/>
<mask id="mask2_1859_622" style="mask-type:luminance" maskUnits="userSpaceOnUse" x="13" y="37" width="66" height="23">
<path d="M19.8886 37.8839C27.5345 39.5011 50.1874 43.4099 71.5457 38.4244C73.0121 38.0808 74.4784 38.9732 74.8387 40.4354L77.9809 51.5125C78.3286 52.9202 77.5284 54.3572 76.1459 54.7887C68.324 57.2522 42.0052 64.542 15.079 54.6044C13.8053 54.1352 13.0638 52.8071 13.3319 51.4748L16.6291 40.0248C16.9307 38.5291 18.3929 37.5655 19.8844 37.8797L19.8886 37.8839Z" fill="white"/>
</mask>
<g mask="url(#mask2_1859_622)">
<path d="M11.7852 39.7933C11.7852 39.7933 46.7679 52.0059 80.4184 39.1816" stroke="#DD8158" stroke-width="0.654864" stroke-linecap="round" stroke-linejoin="round"/>
<path d="M11.7852 43.5824C11.7852 43.5824 46.7679 55.7949 80.4184 42.9707" stroke="#DD8158" stroke-width="0.654864" stroke-linecap="round" stroke-linejoin="round"/>
<path d="M11.7852 47.3636C11.7852 47.3636 46.7679 59.5762 80.4184 46.752" stroke="#DD8158" stroke-width="0.654864" stroke-linecap="round" stroke-linejoin="round"/>
<path d="M11.7852 51.1527C11.7852 51.1527 46.7679 63.3652 80.4184 50.541" stroke="#DD8158" stroke-width="0.654864" stroke-linecap="round" stroke-linejoin="round"/>
</g>
</g>
<defs>
<clipPath id="clip0_1859_622">
<rect width="82.9028" height="142.306" fill="white" transform="translate(0.128906 0.998047)"/>
</clipPath>
</defs>
</svg>
