<svg width="229" height="47" viewBox="0 0 229 47" fill="none" xmlns="http://www.w3.org/2000/svg">
<path d="M1.60047 21.8163C-4.51534 11.0009 8.36314 5.95189 15.5669 4.7793C15.1846 5.44147 16.3877 9.76855 17.037 11.8493C4.77602 13.7531 1.63723 19.2872 1.60047 21.8163Z" fill="#09DBB8"/>
<path d="M22.4111 18.4083C27.9154 29.2237 16.3247 34.2727 9.8414 35.4453C10.1854 34.7831 9.10264 30.4561 8.51823 28.3753C19.5531 26.4716 22.3781 20.9374 22.4111 18.4083Z" fill="#FF3B83"/>
<path d="M5.80418 17.7637C10.5263 18.486 18.6669 17.3589 22.147 16.7051C19.6015 18.8223 19.7122 21.5933 19.7122 21.9357C9.61873 24.302 4.63596 23.5029 3.40625 22.8075C4.91141 21.064 5.63202 18.7185 5.80418 17.7637Z" fill="#B30499"/>
<circle cx="21.2977" cy="7.33485" r="2.55556" fill="#FFB300"/>
<circle cx="2.55556" cy="29.4833" r="2.55556" fill="#00CCFF"/>
<circle cx="25.5553" cy="9.8912" r="1.7037" fill="#FF3B83"/>
<circle cx="0.851852" cy="34.594" r="0.851852" fill="#09DBB8"/>
<circle cx="5.10995" cy="33.7428" r="1.7037" fill="#FFB300"/>
<circle cx="22.149" cy="13.2975" r="1.7037" fill="#00CCFF"/>
<path d="M99.6646 36H85.7629V13.6697H99.4807V15.692H88.5065V23.3994H98.0948V25.0258H88.5065V33.9777H99.6646V36ZM104.834 23.555V36H102.147V19.4679H104.127L104.467 22.1125C105.117 21.2922 106.065 20.604 107.309 20.0477C108.563 19.4821 109.695 19.1992 110.703 19.1992C111.722 19.1992 112.575 19.3736 113.263 19.7225C113.961 20.0619 114.508 20.538 114.903 21.1508C115.677 22.3482 116.063 23.8708 116.063 25.7187V36H113.376V25.7187C113.367 24.0688 113.07 22.8762 112.485 22.1408C111.986 21.5185 111.293 21.2074 110.406 21.2074C109.52 21.198 108.521 21.4478 107.408 21.9569C106.305 22.4566 105.447 22.9893 104.834 23.555ZM121.742 24.1065C121.525 24.6816 121.374 25.2662 121.289 25.8601C121.205 26.4541 121.162 27.2791 121.162 28.335C121.162 29.3909 121.351 30.428 121.728 31.4463C122.444 33.379 123.778 34.3454 125.73 34.3454C127.625 34.3454 129.176 33.742 130.383 32.5352L131.189 34.4302C129.426 35.6653 127.583 36.2828 125.659 36.2828C124.462 36.2828 123.392 36.0566 122.449 35.604C121.516 35.1515 120.766 34.5292 120.201 33.7373C119.05 32.1345 118.475 30.1546 118.475 27.7976C118.485 25.4217 119.064 23.4136 120.215 21.7731C120.78 20.9623 121.535 20.3259 122.477 19.8639C123.42 19.4019 124.495 19.1709 125.702 19.1709C127.597 19.1709 129.426 19.7979 131.189 21.0518L130.383 22.9327C129.119 21.8391 127.701 21.2922 126.126 21.2922C124.552 21.2922 123.378 21.7401 122.605 22.6357C122.256 23.0411 121.968 23.5314 121.742 24.1065ZM140.559 19.1709C141.096 19.1709 141.568 19.2275 141.973 19.3406V21.4902C141.785 21.4525 141.407 21.4337 140.842 21.4337C140.276 21.4337 139.498 21.6317 138.508 22.0276C137.528 22.4142 136.774 22.8573 136.246 23.357V36H133.559V19.4679H135.581L136.005 22.1832C137.551 20.175 139.069 19.1709 140.559 19.1709ZM151.541 32.4786L155.798 19.4679H158.556L152.375 36.5233C152.215 36.9569 152.088 37.3011 151.994 37.5556C151.899 37.8196 151.767 38.1449 151.598 38.5314C151.428 38.9274 151.277 39.2432 151.145 39.4789C151.013 39.7147 150.843 39.9881 150.636 40.2992C150.438 40.6103 150.235 40.8602 150.028 41.0487C149.83 41.2373 149.594 41.4306 149.321 41.6285C149.047 41.836 148.76 41.9962 148.458 42.1094C147.779 42.3639 147.039 42.4912 146.238 42.4912L145.517 40.7235C146.723 40.4972 147.671 40.1106 148.359 39.5638C149.085 38.9887 149.74 37.6923 150.325 35.6747L143.947 19.4679H146.521L151.541 32.4786ZM167.332 36.2828C166.389 36.2828 165.47 36.0471 164.574 35.5757C163.678 35.0949 162.91 34.4632 162.269 33.6807V42.5761L159.582 42.8872V19.4679H161.576L162.042 22.268C162.712 21.3724 163.508 20.6323 164.432 20.0477C165.356 19.4632 166.304 19.1709 167.275 19.1709C168.255 19.1709 169.123 19.3359 169.877 19.6659C170.641 19.9865 171.272 20.4202 171.772 20.967C172.272 21.5138 172.691 22.1596 173.031 22.9044C173.662 24.2904 173.978 25.9026 173.978 27.741C173.978 30.5977 173.234 32.8416 171.744 34.4727C170.65 35.6794 169.179 36.2828 167.332 36.2828ZM170.853 31.7432C171.06 31.2058 171.202 30.6637 171.277 30.1169C171.362 29.5606 171.404 28.995 171.404 28.4198C171.404 27.8353 171.386 27.3121 171.348 26.8501C171.32 26.3787 171.258 25.8554 171.164 25.2803C171.07 24.7052 170.924 24.1914 170.726 23.7388C170.537 23.2769 170.301 22.8479 170.019 22.4519C169.406 21.6128 168.515 21.1933 167.346 21.1933C166.563 21.1933 165.658 21.4195 164.63 21.8721C163.603 22.3246 162.816 22.8384 162.269 23.4136V31.9695C162.731 32.554 163.466 33.0962 164.475 33.5958C165.493 34.0955 166.346 34.3454 167.035 34.3454C167.723 34.3454 168.321 34.2322 168.831 34.006C169.349 33.7703 169.764 33.4686 170.075 33.1009C170.396 32.7238 170.655 32.2712 170.853 31.7432ZM186.219 35.4343C185.144 35.9434 183.989 36.198 182.754 36.198C181.519 36.198 180.525 35.7926 179.77 34.9818C179.016 34.1615 178.639 33.0867 178.639 31.7574V20.9387H176.051V19.4679H179.035V14.3626L181.326 13.7121V19.4679H186.035V20.9387H181.326V31.7857C181.326 32.4833 181.491 33.0679 181.821 33.5393C182.16 34.0013 182.679 34.2322 183.377 34.2322C184.074 34.2322 184.852 34.0248 185.71 33.61L186.219 35.4343ZM191.361 36H188.787V19.4679H191.361V36ZM188.546 15.3384C188.546 14.8859 188.697 14.4993 188.999 14.1788C189.31 13.8582 189.687 13.698 190.13 13.698C190.583 13.698 190.951 13.8582 191.233 14.1788C191.516 14.4899 191.658 14.8717 191.658 15.3243C191.658 15.7768 191.516 16.1634 191.233 16.4839C190.951 16.7951 190.583 16.9506 190.13 16.9506C189.678 16.9506 189.301 16.7951 188.999 16.4839C188.697 16.1634 188.546 15.7816 188.546 15.3384ZM196.827 25.8319C196.733 26.4352 196.686 27.0811 196.686 27.7693C196.686 28.4576 196.733 29.1034 196.827 29.7068C196.922 30.3102 197.087 30.9041 197.322 31.4887C197.558 32.0638 197.855 32.5588 198.213 32.9736C199.015 33.8881 200.146 34.3454 201.607 34.3454C203.719 34.3548 205.152 33.4073 205.907 31.5028C206.321 30.4469 206.529 29.2024 206.529 27.7693C206.529 24.4695 205.548 22.3859 203.587 21.5185C203.012 21.264 202.352 21.1367 201.607 21.1367C200.863 21.1367 200.203 21.264 199.628 21.5185C199.052 21.7731 198.581 22.1125 198.213 22.5367C197.855 22.9516 197.558 23.4513 197.322 24.0358C197.087 24.6203 196.922 25.219 196.827 25.8319ZM194.579 31.0927C194.268 30.0745 194.112 28.9667 194.112 27.7693C194.112 26.572 194.268 25.4642 194.579 24.4459C194.89 23.4183 195.347 22.5085 195.951 21.7165C196.554 20.9246 197.336 20.3023 198.298 19.8498C199.269 19.3972 200.372 19.1709 201.607 19.1709C202.842 19.1709 203.946 19.3972 204.917 19.8498C205.888 20.3023 206.675 20.9246 207.278 21.7165C207.882 22.499 208.339 23.4041 208.65 24.4318C208.961 25.4594 209.117 26.572 209.117 27.7693C209.117 28.9667 208.961 30.0745 208.65 31.0927C208.339 32.1109 207.882 33.0113 207.278 33.7938C206.675 34.5669 205.888 35.175 204.917 35.6182C203.946 36.0613 202.842 36.2828 201.607 36.2828C200.372 36.2828 199.269 36.0613 198.298 35.6182C197.336 35.175 196.554 34.5669 195.951 33.7938C195.347 33.0113 194.89 32.1109 194.579 31.0927ZM214.272 23.555V36H211.585V19.4679H213.565L213.905 22.1125C214.555 21.2922 215.503 20.604 216.747 20.0477C218.001 19.4821 219.133 19.1992 220.141 19.1992C221.16 19.1992 222.013 19.3736 222.701 19.7225C223.399 20.0619 223.946 20.538 224.342 21.1508C225.115 22.3482 225.501 23.8708 225.501 25.7187V36H222.814V25.7187C222.805 24.0688 222.508 22.8762 221.923 22.1408C221.424 21.5185 220.731 21.2074 219.844 21.2074C218.958 21.198 217.959 21.4478 216.846 21.9569C215.743 22.4566 214.885 22.9893 214.272 23.555Z" fill="#0A054D"/>
<path d="M30.047 33.8347C28.231 32.1584 27.323 29.6905 27.323 26.431C27.323 23.1598 28.231 20.6919 30.047 19.0272C31.863 17.3509 34.4706 16.5127 37.8699 16.5127C41.2807 16.5127 43.8942 17.3509 45.7102 19.0272C47.5262 20.6919 48.4342 23.1598 48.4342 26.431C48.4342 29.6905 47.5262 32.1584 45.7102 33.8347C43.8942 35.5111 41.2807 36.3492 37.8699 36.3492C34.4706 36.3492 31.863 35.5111 30.047 33.8347ZM34.4648 21.8909C33.7431 22.8339 33.3822 24.3414 33.3822 26.4135C33.3822 28.4856 33.7431 29.999 34.4648 30.9536C35.1866 31.9081 36.3216 32.3854 37.8699 32.3854C39.4298 32.3854 40.5706 31.9081 41.2924 30.9536C42.0257 29.999 42.3924 28.4856 42.3924 26.4135C42.3924 24.3414 42.0257 22.8339 41.2924 21.8909C40.5706 20.948 39.4298 20.4765 37.8699 20.4765C36.3216 20.4765 35.1866 20.948 34.4648 21.8909ZM51.6646 27.9501V17.9446C51.6646 17.6303 51.7636 17.3742 51.9615 17.1763C52.171 16.9667 52.4271 16.862 52.7298 16.862H56.6412C56.9439 16.862 57.1942 16.9667 57.3921 17.1763C57.6016 17.3742 57.7064 17.6303 57.7064 17.9446V27.9501C57.7064 30.744 58.8123 32.141 61.0241 32.141C62.4792 32.141 64.045 31.3028 65.7213 29.6265V17.9446C65.7213 17.6303 65.8203 17.3742 66.0182 17.1763C66.2277 16.9667 66.4838 16.862 66.7865 16.862H70.6804C70.9947 16.862 71.2509 16.9667 71.4488 17.1763C71.6583 17.3742 71.7631 17.6303 71.7631 17.9446V34.9348C71.7631 35.2375 71.6583 35.4936 71.4488 35.7032C71.2509 35.9011 70.9947 36 70.6804 36H66.7865C66.4838 36 66.2277 35.9011 66.0182 35.7032C65.8203 35.4936 65.7213 35.2375 65.7213 34.9348V33.8173C63.719 35.5053 61.5829 36.3492 59.3129 36.3492C57.0545 36.3492 55.2152 35.6624 53.7949 34.2888C52.3747 32.9035 51.6646 30.7906 51.6646 27.9501ZM76.0761 34.9348V12.0425C76.0761 11.7282 76.1751 11.4721 76.373 11.2742C76.5825 11.0647 76.8386 10.9599 77.1413 10.9599H81.0527C81.3554 10.9599 81.6057 11.0647 81.8036 11.2742C82.0131 11.4721 82.1179 11.7282 82.1179 12.0425V34.9348C82.1179 35.2375 82.0131 35.4936 81.8036 35.7032C81.6057 35.9011 81.3554 36 81.0527 36H77.1413C76.8386 36 76.5825 35.9011 76.373 35.7032C76.1751 35.4936 76.0761 35.2375 76.0761 34.9348Z" fill="#FF3B83"/>
</svg>
