<svg width="32" height="43" viewBox="0 0 32 43" fill="none" xmlns="http://www.w3.org/2000/svg">
<path d="M0 27C0 35.8366 7.16344 43 16 43C24.8366 43 32 35.8366 32 27C32 18.1634 24.8366 11 16 11C7.16344 11 0 18.1634 0 27Z" fill="#E60023"/>
<path d="M16 19C11.6 19 8 22.6 8 27C8 30.3 10 33.1 12.8 34.3C12.8 33.7 12.8 33.1 12.9 32.5C13.1 31.8 13.9 28.1 13.9 28.1C13.9 28.1 13.6 27.6 13.6 26.8C13.6 25.6 14.3 24.7 15.1 24.7C15.8 24.7 16.2 25.2 16.2 25.9C16.2 26.6 15.7 27.7 15.5 28.7C15.3 29.5 15.9 30.2 16.8 30.2C18.3 30.2 19.3 28.3 19.3 25.9C19.3 24.1 18.1 22.8 16 22.8C13.6 22.8 12.1 24.6 12.1 26.6C12.1 27.3 12.3 27.8 12.6 28.2C12.7 28.4 12.8 28.4 12.7 28.6C12.7 28.7 12.6 29.1 12.5 29.2C12.4 29.4 12.3 29.5 12.1 29.4C11 28.9 10.5 27.7 10.5 26.3C10.5 24 12.4 21.3 16.2 21.3C19.3 21.3 21.3 23.5 21.3 25.9C21.3 29 19.6 31.4 17 31.4C16.1 31.4 15.3 30.9 15 30.4C15 30.4 14.5 32.2 14.4 32.6C14.2 33.2 13.9 33.8 13.6 34.3C14.3 34.5 15.1 34.6 15.9 34.6C20.3 34.6 23.9 31 23.9 26.6C24 22.6 20.4 19 16 19Z" fill="white"/>
</svg>
