<svg width="25" height="25" viewBox="0 0 25 25" fill="none" xmlns="http://www.w3.org/2000/svg">
<g clip-path="url(#clip0_1046_8615)">
<path d="M25 12.5C25 10.1042 24.8958 7.91667 24.4792 6.66667C24.0625 5.20833 23.5417 3.85417 22.2917 2.60417C20.7292 1.14583 19.375 0.729167 17.2917 0.3125C15.8333 0.104167 14.0625 0 13.0208 0H12.0833C10.9375 0 9.27083 0.104167 7.70833 0.3125C5.625 0.729167 4.16667 1.25 2.70833 2.60417C1.35417 3.85417 0.9375 5.20833 0.520833 6.66667C0.104167 7.91667 0 10.1042 0 12.5C0 14.8958 0.104167 17.0833 0.520833 18.3333C0.9375 19.7917 1.45833 21.1458 2.70833 22.3958C4.27083 23.8542 5.625 24.2708 7.70833 24.6875C9.375 25 11.4583 25 12.5 25C13.5417 25 15.625 25 17.3958 24.6875C19.375 24.2708 20.8333 23.8542 22.3958 22.3958C23.6458 21.25 24.1667 19.8958 24.5833 18.3333C24.8958 17.0833 25 14.8958 25 12.5Z" fill="#FF3B83"/>
<path fill-rule="evenodd" clip-rule="evenodd" d="M11.793 5.41602H8.2513C7.49986 5.41602 6.77919 5.71453 6.24783 6.24588C5.71648 6.77723 5.41797 7.4979 5.41797 8.24935V16.7493C5.41797 17.5008 5.71648 18.2215 6.24783 18.7528C6.77919 19.2842 7.49986 19.5827 8.2513 19.5827H16.7513C17.5027 19.5827 18.2234 19.2842 18.7548 18.7528C19.2861 18.2215 19.5846 17.5008 19.5846 16.7493V13.2077C19.5846 13.0198 19.51 12.8397 19.3772 12.7068C19.2443 12.574 19.0642 12.4993 18.8763 12.4993C18.6884 12.4993 18.5083 12.574 18.3754 12.7068C18.2426 12.8397 18.168 13.0198 18.168 13.2077V16.7493C18.168 17.1251 18.0187 17.4854 17.753 17.7511C17.4874 18.0168 17.127 18.166 16.7513 18.166H8.2513C7.87558 18.166 7.51524 18.0168 7.24957 17.7511C6.98389 17.4854 6.83464 17.1251 6.83464 16.7493V8.24935C6.83464 7.87363 6.98389 7.51329 7.24957 7.24761C7.51524 6.98194 7.87558 6.83268 8.2513 6.83268H11.793C11.9808 6.83268 12.161 6.75805 12.2938 6.62522C12.4267 6.49238 12.5013 6.31221 12.5013 6.12435C12.5013 5.93649 12.4267 5.75632 12.2938 5.62348C12.161 5.49064 11.9808 5.41602 11.793 5.41602ZM17.1664 6.83268H14.6263C14.4384 6.83268 14.2583 6.75805 14.1254 6.62522C13.9926 6.49238 13.918 6.31221 13.918 6.12435C13.918 5.93649 13.9926 5.75632 14.1254 5.62348C14.2583 5.49064 14.4384 5.41602 14.6263 5.41602H18.8763C19.0642 5.41602 19.2443 5.49064 19.3772 5.62348C19.51 5.75632 19.5846 5.93649 19.5846 6.12435V10.3743C19.5846 10.5622 19.51 10.7424 19.3772 10.8752C19.2443 11.0081 19.0642 11.0827 18.8763 11.0827C18.6884 11.0827 18.5083 11.0081 18.3754 10.8752C18.2426 10.7424 18.168 10.5622 18.168 10.3743V7.83427L13.0021 13.0001C12.8685 13.1292 12.6896 13.2006 12.5039 13.199C12.3181 13.1973 12.1405 13.1228 12.0091 12.9915C11.8778 12.8602 11.8033 12.6825 11.8017 12.4968C11.8001 12.3111 11.8715 12.1321 12.0005 11.9986L17.1664 6.83268Z" fill="white"/>
</g>
<defs>
<clipPath id="clip0_1046_8615">
<rect width="25" height="25" fill="white"/>
</clipPath>
</defs>
</svg>
