<svg width="64" height="64" viewBox="0 0 64 64" fill="none" xmlns="http://www.w3.org/2000/svg">
<g clip-path="url(#clip0_2395_2387)">
<path d="M32 0.5C49.397 0.5 63.5 14.603 63.5 32C63.5 49.397 49.397 63.5 32 63.5C14.603 63.5 0.5 49.397 0.5 32C0.5 14.603 14.603 0.5 32 0.5Z" fill="#FDDFE8" stroke="#FF3B83"/>
<path d="M21.6701 33.778C15.2883 22.4922 28.7268 17.2236 36.2438 16C35.845 16.691 37.1004 21.2062 37.778 23.3775C24.9837 25.364 21.7084 31.1389 21.6701 33.778Z" fill="#09DBB8"/>
<path d="M43.3878 30.2227C49.1314 41.5086 37.0367 46.777 30.2713 48.0006C30.6303 47.3098 29.5005 42.7942 28.8906 40.623C40.4054 38.6366 43.3534 32.8617 43.3878 30.2227Z" fill="#FF3B83"/>
<path d="M26.0647 29.5499C30.9922 30.3037 39.4869 29.1276 43.1184 28.4453C40.462 30.6546 40.5776 33.5461 40.5776 33.9034C30.0452 36.3726 24.8457 35.5387 23.5625 34.8132C25.1331 32.9938 25.8851 30.5463 26.0647 29.5499Z" fill="#B30499"/>
<path d="M42.2292 21.3334C43.702 21.3334 44.8959 20.1395 44.8959 18.6667C44.8959 17.1939 43.702 16 42.2292 16C40.7564 16 39.5625 17.1939 39.5625 18.6667C39.5625 20.1395 40.7564 21.3334 42.2292 21.3334Z" fill="#FFB300"/>
<path d="M22.6667 44.4428C24.1395 44.4428 25.3334 43.2488 25.3334 41.7761C25.3334 40.3033 24.1395 39.1094 22.6667 39.1094C21.1939 39.1094 20 40.3033 20 41.7761C20 43.2488 21.1939 44.4428 22.6667 44.4428Z" fill="#00CCFF"/>
<path d="M46.6684 23.1103C47.6503 23.1103 48.4462 22.3143 48.4462 21.3325C48.4462 20.3506 47.6503 19.5547 46.6684 19.5547C45.6866 19.5547 44.8906 20.3506 44.8906 21.3325C44.8906 22.3143 45.6866 23.1103 46.6684 23.1103Z" fill="#FF3B83"/>
<path d="M20.8889 47.9965C21.3798 47.9965 21.7778 47.5986 21.7778 47.1077C21.7778 46.6167 21.3798 46.2188 20.8889 46.2188C20.398 46.2188 20 46.6167 20 47.1077C20 47.5986 20.398 47.9965 20.8889 47.9965Z" fill="#09DBB8"/>
<path d="M25.3403 48.0009C26.3221 48.0009 27.1181 47.205 27.1181 46.2231C27.1181 45.2413 26.3221 44.4453 25.3403 44.4453C24.3584 44.4453 23.5625 45.2413 23.5625 46.2231C23.5625 47.205 24.3584 48.0009 25.3403 48.0009Z" fill="#FFB300"/>
<path d="M43.1059 26.665C44.0878 26.665 44.8837 25.869 44.8837 24.8872C44.8837 23.9053 44.0878 23.1094 43.1059 23.1094C42.1241 23.1094 41.3281 23.9053 41.3281 24.8872C41.3281 25.869 42.1241 26.665 43.1059 26.665Z" fill="#00CCFF"/>
</g>
<defs>
<clipPath id="clip0_2395_2387">
<rect width="64" height="64" fill="white"/>
</clipPath>
</defs>
</svg>
