<svg width="32" height="32" viewBox="0 0 32 32" fill="none" xmlns="http://www.w3.org/2000/svg">
<path d="M0 16C0 7.16344 7.16344 0 16 0C24.8366 0 32 7.16344 32 16C32 24.8366 24.8366 32 16 32C7.16344 32 0 24.8366 0 16Z" fill="black"/>
<path d="M14.4984 14.3001V13.6772C14.285 13.6487 14.068 13.6309 13.844 13.6309C11.173 13.6274 9 15.8022 9 18.4789C9 20.1199 9.818 21.5722 11.0699 22.4514C10.2626 21.5864 9.76821 20.4224 9.76821 19.1481C9.76821 16.5105 11.8808 14.3606 14.4984 14.3001Z" fill="#25F4EE"/>
<path d="M14.6167 21.3624C15.8081 21.3624 16.7826 20.412 16.8253 19.2303L16.8289 8.66919H18.7565C18.7173 8.45206 18.696 8.22781 18.696 8H16.0642L16.0606 18.5611C16.018 19.7428 15.0435 20.6932 13.852 20.6932C13.4822 20.6932 13.1336 20.6007 12.8242 20.4369C13.2225 20.9958 13.8769 21.3624 14.6167 21.3624Z" fill="#25F4EE"/>
<path d="M22.3585 12.254V11.6667C21.6223 11.6667 20.9394 11.4496 20.3633 11.0723C20.8754 11.6596 21.5689 12.0868 22.3585 12.254Z" fill="#25F4EE"/>
<path d="M20.3637 11.0726C19.8018 10.4283 19.4639 9.58827 19.4639 8.66992H18.7598C18.9411 9.67371 19.5386 10.5351 20.3637 11.0726Z" fill="#FE2C55"/>
<path d="M13.8469 16.2617C12.627 16.2617 11.6348 17.2549 11.6348 18.4758C11.6348 19.3265 12.1184 20.0669 12.8226 20.4371C12.5595 20.074 12.403 19.6291 12.403 19.1449C12.403 17.924 13.3952 16.9309 14.6151 16.9309C14.8428 16.9309 15.0632 16.9701 15.2695 17.0342V14.3432C15.0561 14.3147 14.8392 14.2969 14.6151 14.2969C14.576 14.2969 14.5404 14.3004 14.5013 14.3004V16.365C14.2915 16.3009 14.0745 16.2617 13.8469 16.2617Z" fill="#FE2C55"/>
<path d="M22.3587 12.2539V14.3006C20.993 14.3006 19.7269 13.8628 18.6955 13.1224V18.4795C18.6955 21.1527 16.5225 23.3311 13.8479 23.3311C12.8166 23.3311 11.8563 23.0036 11.0703 22.4519C11.9559 23.4023 13.2184 24.0003 14.6162 24.0003C17.2871 24.0003 19.4637 21.8254 19.4637 19.1487V13.7916C20.4951 14.532 21.7612 14.9698 23.1269 14.9698V12.3358C22.8601 12.3358 22.6041 12.3073 22.3587 12.2539Z" fill="#FE2C55"/>
<path d="M18.6944 18.4799V13.1228C19.7258 13.8632 20.9919 14.301 22.3576 14.301V12.2543C21.5681 12.0871 20.8746 11.6599 20.3624 11.0726C19.5373 10.5351 18.9434 9.67371 18.7549 8.66992H16.8273L16.8237 19.231C16.781 20.4127 15.8065 21.3631 14.6151 21.3631C13.8753 21.3631 13.2245 20.9965 12.8191 20.4412C12.1149 20.0675 11.6312 19.3307 11.6312 18.4799C11.6312 17.259 12.6235 16.2659 13.8433 16.2659C14.071 16.2659 14.2915 16.305 14.4977 16.3691V14.3046C11.8801 14.3616 9.76758 16.5115 9.76758 19.1491C9.76758 20.4234 10.2619 21.5838 11.0693 22.4523C11.8552 23.0041 12.8155 23.3315 13.8469 23.3315C16.5179 23.3315 18.6944 21.1531 18.6944 18.4799Z" fill="white"/>
</svg>
