<svg width="32" height="42" viewBox="0 0 32 42" fill="none" xmlns="http://www.w3.org/2000/svg">
<path d="M0 26C0 34.8366 7.16344 42 16 42C24.8366 42 32 34.8366 32 26C32 17.1634 24.8366 10 16 10C7.16344 10 0 17.1634 0 26Z" fill="#1DA1F2"/>
<path d="M24 21C23.4 21.3 22.8 21.4 22.1 21.5C22.8 21.1 23.3 20.5 23.5 19.7C22.9 20.1 22.2 20.3 21.4 20.5C20.8 19.9 19.9 19.5 19 19.5C16.9 19.5 15.3 21.5 15.8 23.5C13.1 23.4 10.7 22.1 9 20.1C8.1 21.6 8.6 23.5 10 24.5C9.5 24.5 9 24.3 8.5 24.1C8.5 25.6 9.6 27 11.1 27.4C10.6 27.5 10.1 27.6 9.6 27.5C10 28.8 11.2 29.8 12.7 29.8C11.5 30.7 9.7 31.2 8 31C9.5 31.9 11.2 32.5 13 32.5C19.1 32.5 22.5 27.4 22.3 22.7C23 22.3 23.6 21.7 24 21Z" fill="white"/>
</svg>
