<svg width="15" height="15" viewBox="0 0 15 15" fill="none" xmlns="http://www.w3.org/2000/svg">
<g clip-path="url(#clip0_1968_12297)">
<path d="M13.75 3.12503H10.625V2.50001C10.625 1.81063 10.0644 1.25 9.375 1.25H5.625C4.93562 1.25 4.37499 1.8106 4.37499 2.50001V3.125H1.25001C0.560596 3.12503 1.29941e-08 3.68562 1.29941e-08 4.37501V6.25001C1.29941e-08 6.93942 0.560596 7.50002 1.25001 7.50002H6.25002V7.18751C6.24999 7.14646 6.25806 7.10581 6.27375 7.06789C6.28945 7.02996 6.31247 6.9955 6.34149 6.96647C6.37052 6.93745 6.40498 6.91443 6.44291 6.89873C6.48083 6.88304 6.52148 6.87497 6.56253 6.875H8.43753C8.47858 6.87497 8.51923 6.88304 8.55715 6.89873C8.59508 6.91443 8.62954 6.93745 8.65857 6.96647C8.68759 6.9955 8.71061 7.02996 8.72631 7.06789C8.742 7.10581 8.75007 7.14646 8.75004 7.18751V7.50002H13.75C14.4394 7.50002 15 6.93942 15 6.25001V4.37501C15 3.68562 14.4394 3.12503 13.75 3.12503ZM9.375 3.12503H5.625V2.50001H9.375V3.12503ZM14.8267 7.83723C14.7745 7.8114 14.7163 7.8006 14.6584 7.80604C14.6005 7.81149 14.5452 7.83296 14.4989 7.86805C14.2767 8.03621 14.0179 8.12501 13.75 8.12501H8.75001V9.06251C8.75004 9.10356 8.74197 9.14421 8.72628 9.18213C8.71058 9.22006 8.68756 9.25452 8.65854 9.28355C8.62951 9.31257 8.59505 9.33559 8.55712 9.35129C8.5192 9.36698 8.47855 9.37505 8.4375 9.37502H6.5625C6.52145 9.37505 6.4808 9.36698 6.44288 9.35129C6.40495 9.33559 6.37049 9.31257 6.34146 9.28355C6.31244 9.25452 6.28942 9.22006 6.27372 9.18213C6.25803 9.14421 6.24996 9.10356 6.24999 9.06251V8.12501H1.25001C0.982061 8.12501 0.723281 8.03621 0.501094 7.86805C0.454849 7.83268 0.399591 7.81104 0.341631 7.80559C0.283671 7.80014 0.225346 7.8111 0.17332 7.83723C0.121248 7.86313 0.0774371 7.90305 0.0468171 7.95249C0.0161971 8.00193 -1.67559e-05 8.05894 1.29941e-08 8.1171V12.5C1.29941e-08 13.1894 0.560596 13.75 1.25001 13.75H13.75C14.4394 13.75 15 13.1894 15 12.5V8.1171C15 8.05894 14.9838 8.00193 14.9532 7.95248C14.9225 7.90304 14.8787 7.86312 14.8267 7.83723Z" fill="#FF3B83"/>
</g>
<defs>
<clipPath id="clip0_1968_12297">
<rect width="15" height="15" fill="white"/>
</clipPath>
</defs>
</svg>
