<svg width="16" height="16" viewBox="0 0 16 16" fill="none" xmlns="http://www.w3.org/2000/svg">
<g clip-path="url(#clip0_1803_19185)">
<path d="M12.6682 0H3.38477C2.6287 0 1.96484 0.621981 1.96484 1.3582V15.0911C1.96484 15.3376 2.03343 15.543 2.14398 15.7016C2.2082 15.7941 2.29394 15.8696 2.39381 15.9216C2.49369 15.9736 2.6047 16.0005 2.71729 16C2.93309 16 3.16285 15.9039 3.37503 15.7227L7.52842 12.1963C7.65669 12.0867 7.84095 12.0239 8.03254 12.0239C8.22404 12.0239 8.40793 12.0867 8.53658 12.1966L12.6761 15.7222C12.889 15.9039 13.1029 16.0001 13.3184 16.0001C13.6827 16.0001 14.0378 15.7191 14.0378 15.0912V1.3582C14.0378 0.621981 13.4242 0 12.6682 0Z" fill="#FF3B83"/>
</g>
<defs>
<clipPath id="clip0_1803_19185">
<rect width="16" height="16" fill="white"/>
</clipPath>
</defs>
</svg>
