<svg width="32" height="43" viewBox="0 0 32 43" fill="none" xmlns="http://www.w3.org/2000/svg">
<path d="M0 27C0 35.8366 7.16344 43 16 43C24.8366 43 32 35.8366 32 27C32 18.1634 24.8366 11 16 11C7.16344 11 0 18.1634 0 27Z" fill="#FF0000"/>
<path d="M23.6 23.1004C23.4 22.4004 22.9 21.9004 22.2 21.7004C21 21.4004 15.9 21.4004 15.9 21.4004C15.9 21.4004 10.9 21.4004 9.60001 21.7004C8.90001 21.9004 8.4 22.4004 8.2 23.1004C8 24.4004 8 27.0004 8 27.0004C8 27.0004 8 29.6004 8.3 30.9004C8.5 31.6004 9 32.1004 9.7 32.3004C10.9 32.6004 16 32.6004 16 32.6004C16 32.6004 21 32.6004 22.3 32.3004C23 32.1004 23.5 31.6004 23.7 30.9004C24 29.6004 24 27.0004 24 27.0004C24 27.0004 24 24.4004 23.6 23.1004ZM14.4 29.4004V24.6004L18.6 27.0004L14.4 29.4004Z" fill="white"/>
</svg>
