<svg width="25" height="25" viewBox="0 0 25 25" fill="none" xmlns="http://www.w3.org/2000/svg">
<path d="M0 12.5C0 10.1042 0.104168 7.91667 0.520834 6.66667C0.9375 5.20833 1.45833 3.85417 2.70833 2.60417C4.27083 1.14583 5.625 0.729167 7.70833 0.3125C9.16667 0.104167 10.9375 0 11.9792 0H12.9167C14.0625 0 15.7292 0.104167 17.2917 0.3125C19.375 0.729167 20.8333 1.25 22.2917 2.60417C23.6458 3.85417 24.0625 5.20833 24.4792 6.66667C24.8958 7.91667 25 10.1042 25 12.5C25 14.8958 24.8958 17.0833 24.4792 18.3333C24.0625 19.7917 23.5417 21.1458 22.2917 22.3958C20.7292 23.8542 19.375 24.2708 17.2917 24.6875C15.625 25 13.5417 25 12.5 25C11.4583 25 9.375 25 7.60417 24.6875C5.625 24.2708 4.16667 23.8542 2.60417 22.3958C1.35417 21.25 0.833334 19.8958 0.416668 18.3333C0.104168 17.0833 0 14.8958 0 12.5Z" fill="#FF3B83"/>
<g clip-path="url(#clip0_1017_450)">
<path d="M9.66357 15.9569C9.49195 15.9669 9.32317 15.9098 9.19281 15.7978C8.93573 15.5392 8.93573 15.1215 9.19281 14.8629L14.8221 9.2336C15.0894 8.9834 15.509 8.99731 15.7592 9.2647C15.9855 9.50649 15.9987 9.87814 15.7901 10.1354L10.1277 15.7978C9.99902 15.9082 9.83293 15.9651 9.66357 15.9569Z" fill="white"/>
<path d="M15.288 15.9569C15.114 15.9562 14.9474 15.8871 14.8239 15.7646L9.19459 10.1353C8.95642 9.85722 8.9888 9.43865 9.26693 9.20045C9.51517 8.98787 9.88127 8.98787 10.1295 9.20045L15.7919 14.8297C16.0592 15.08 16.073 15.4996 15.8228 15.7669C15.8128 15.7775 15.8025 15.7878 15.7919 15.7978C15.7233 15.8574 15.6432 15.9023 15.5565 15.9297C15.4698 15.9571 15.3784 15.9663 15.288 15.9569Z" fill="white"/>
</g>
<defs>
<clipPath id="clip0_1017_450">
<rect width="7" height="7" fill="white" transform="translate(9 9)"/>
</clipPath>
</defs>
</svg>
